<svg width="48" height="48" viewBox="0 0 48 48" fill="none" xmlns="http://www.w3.org/2000/svg">
<path d="M5.5 31.9985H12.5V37.9982C12.5 39.1027 11.7165 39.998 10.75 39.998H7.25C6.2835 39.998 5.5 39.1027 5.5 37.9982V31.9985Z" fill="#9E9E9E"/>
<path d="M35.5 31.9985H42.5V37.9982C42.5 39.1027 41.7165 39.998 40.75 39.998H37.25C36.2835 39.998 35.5 39.1027 35.5 37.9982V31.9985Z" fill="#9E9E9E"/>
<path fill-rule="evenodd" clip-rule="evenodd" d="M6.39551 22.0171L9.20989 18.6861C10.1929 15.7908 12.9769 10 16.2492 10H16.3443H20.4347H27.6604H31.846H32.2264C33.1777 10 34.0124 10.4793 34.4836 11.2003C36.5532 13.0531 38.1812 16.6123 38.8852 18.6861L41.8081 22.1581C41.8081 22.1581 42.5 22.9289 42.5 24.8228V34.2685C42.5 34.6725 42.5 35 42.5 35H5.5C5.5 35 5.5 34.6725 5.5 34.2685V24.8228C5.5 22.9289 6.34091 22.1002 6.39551 22.0171Z" fill="#E0E0E0"/>
<path d="M18.7941 32.8492C18.8707 32.6417 19.1009 32.5 19.3615 32.5H28.6378C28.8984 32.5 29.1285 32.6417 29.2052 32.8492L29.9993 35H18L18.7941 32.8492Z" fill="#C9C9C9"/>
<path d="M10.0259 12.7278C10.6052 9.96789 12.9707 7.99854 15.7066 7.99854H32.2934C35.0293 7.99854 37.3948 9.96788 37.9741 12.7278L39.5 19.9978H8.5L10.0259 12.7278Z" fill="#E0E0E0"/>
<path d="M12.2961 13.342C12.6258 11.4135 14.3366 10 16.3413 10H31.6587C33.6634 10 35.3742 11.4135 35.7039 13.342L36.5 17.9995H11.5L12.2961 13.342Z" fill="#C6C6C6"/>
<path fill-rule="evenodd" clip-rule="evenodd" d="M5.49329 15C3.70207 15 2.25 16.7056 2.25 18.8095C2.25 19.467 2.70377 20 3.26353 20H7.11752H8.90986H10.2541V18.1579H8.90986V16.0526C8.90986 15.4713 8.50863 15 8.01369 15H5.49329Z" fill="#E0E0E0"/>
<path fill-rule="evenodd" clip-rule="evenodd" d="M42.5067 15C44.2979 15 45.75 16.7056 45.75 18.8095C45.75 19.467 45.2962 20 44.7365 20H40.8826H39.0902H37.746V18.1579H39.0902V16.0526C39.0902 15.4713 39.4915 15 39.9864 15H42.5067Z" fill="#E0E0E0"/>
<path d="M8.09937 27.4165C8.09937 27.0023 8.43515 26.6665 8.84937 26.6665H14.6823C15.0965 26.6665 15.4323 27.0023 15.4323 27.4165V30.5829C15.4323 30.9971 15.0965 31.3329 14.6823 31.3329H8.84937C8.43515 31.3329 8.09937 30.9971 8.09937 30.5829V27.4165Z" fill="white"/>
<path d="M31.4314 27.4165C31.4314 27.0023 31.7672 26.6665 32.1814 26.6665H38.0143C38.4285 26.6665 38.7643 27.0023 38.7643 27.4165V30.5829C38.7643 30.9971 38.4285 31.3329 38.0143 31.3329H32.1814C31.7672 31.3329 31.4314 30.9971 31.4314 30.5829V27.4165Z" fill="white"/>
</svg>
