<svg width="24" height="24" viewBox="0 0 24 24" fill="none" xmlns="http://www.w3.org/2000/svg">
<rect x="3" y="3" width="18" height="18" rx="9" fill="black" fill-opacity="0.7"/>
<path d="M15.3491 7.87313C15.5556 7.66706 15.8902 7.66706 16.0967 7.87313C16.3031 8.07921 16.3031 8.41332 16.0967 8.61939L8.62118 16.082C8.41475 16.2881 8.08006 16.2881 7.87363 16.082C7.6672 15.8759 7.6672 15.5418 7.87363 15.3357L15.3491 7.87313Z" fill="white"/>
<path d="M7.90307 8.66427C7.69664 8.45819 7.69664 8.12408 7.90307 7.91801C8.1095 7.71193 8.44419 7.71193 8.65062 7.91801L16.1261 15.3806C16.3325 15.5867 16.3325 15.9208 16.1261 16.1269C15.9197 16.333 15.585 16.333 15.3786 16.1269L7.90307 8.66427Z" fill="white"/>
</svg>
