<svg width="36" height="36" viewBox="0 0 36 36" fill="none" xmlns="http://www.w3.org/2000/svg">
<path d="M5 8.25C5 6.45507 6.45507 5 8.25 5H27.75C29.5449 5 31 6.45507 31 8.25V27.75C31 29.5449 29.5449 31 27.75 31H8.25C6.45507 31 5 29.5449 5 27.75V8.25Z" fill="#EAEAEA"/>
<path fill-rule="evenodd" clip-rule="evenodd" d="M31 23.3304V27.75C31 29.5449 29.5449 31 27.75 31H8.25C6.45507 31 5 29.5449 5 27.75V26.5869L9.42887 22.158C10.275 21.3119 11.6469 21.3119 12.493 22.158L15.8353 25.5003L22.9705 18.3651C23.8167 17.5189 25.1885 17.5189 26.0347 18.3651L31 23.3304Z" fill="#D1D1D1"/>
<path d="M15.9141 13.582C15.9141 15.377 14.459 16.832 12.6641 16.832C10.8691 16.832 9.41406 15.377 9.41406 13.582C9.41406 11.7871 10.8691 10.332 12.6641 10.332C14.459 10.332 15.9141 11.7871 15.9141 13.582Z" fill="#D1D1D1"/>
</svg>
