<svg width="96" height="48" viewBox="0 0 96 48" fill="none" xmlns="http://www.w3.org/2000/svg">
<path d="M86.8782 27.8645L86.3953 23.5187L82.3714 23.8406L84.7857 29.3131L86.8782 27.8645Z" fill="#BDBDBD"/>
<path d="M15.2095 34.1989L13.9193 33.5845L12.752 26.5806L22.275 20.621L33.0268 25.5975L29.8935 33.8917L15.2095 34.1989Z" fill="#BDBDBD"/>
<path d="M64.1163 34.1372L62.826 33.4614L61.6587 26.4574L71.1817 20.4979L81.9336 25.4744L79.4146 33.277L64.1163 34.1372Z" fill="#BDBDBD"/>
<path d="M9.00359 31.7239C9.44595 33.2967 13.3248 34.0586 15.2089 34.2429C13.5869 28.7871 16.5401 25.621 18.2195 24.72C19.4974 24.1793 22.725 24.167 24.1791 24.2285C25.6536 24.1793 26.6366 24.9862 26.9438 25.3958C29.0082 27.3127 29.77 31.8468 29.8929 33.8743L64.1759 34.1201C63.3895 28.6643 66.3058 25.8259 67.8622 25.0886C70.6639 24.3514 73.617 24.5357 74.7434 24.72C78.2331 25.703 79.3104 30.8229 79.4128 33.2599L82.8534 32.6455C86.3431 32.0066 87.0517 29.7579 86.9698 28.7135C87.1664 27.8288 86.3554 27.239 85.9253 27.0546L85.3724 23.9827C86.0605 23.9827 86.3964 23.6551 86.4783 23.4912C86.2817 22.9014 86.3964 21.1975 86.4783 20.4193C86.6749 19.0922 86.1916 18.3918 85.9253 18.2075C84.1067 16.1432 79.8838 13.6201 77.9997 12.6166L80.0272 11.8794C77.6679 11.2896 71.9991 10.241 69.4596 9.79041C57.3193 8.70909 49.1233 9.33986 46.5429 9.79041C41.4803 10.7734 33.8659 15.3608 30.6916 17.5316C18.5021 18.2689 13.2429 19.7639 12.137 20.4192C9.77773 21.8446 9.35175 23.0611 9.43366 23.4912V25.8258C9.04045 26.0716 8.98311 26.4607 9.00359 26.6245V29.5121C9.00359 30.3968 9.41318 30.7818 9.61798 30.8638C9.27392 31.0604 9.06503 31.5191 9.00359 31.7239Z" fill="#D1D1D1"/>
<path opacity="0.1" fill-rule="evenodd" clip-rule="evenodd" d="M52.6331 17.502L52.9816 17.6266L52.007 20.3513L51.3329 32.1794C51.3213 32.6018 51.2032 32.9584 50.9856 33.2749C50.7699 33.5886 50.462 33.8549 50.0833 34.1074L49.8779 33.7994C50.2365 33.5603 50.502 33.3249 50.6805 33.0652C50.8567 32.809 50.9536 32.5214 50.9629 32.1668L50.9631 32.1611L51.6405 20.2769L52.6331 17.502Z" fill="black"/>
<path d="M41.5067 12.5551C34.7729 15.7991 31.4885 17.9995 30.9355 18.8391L51.5212 17.8388C67.7412 17.1016 67.4544 16.6715 68.417 16.3029C70.3339 15.4182 72.6563 14.173 73.5779 13.661L68.2327 11.8179C66.1683 10.9332 57.2965 10.6301 53.1187 10.5891C47.3188 10.2942 42.9607 11.7769 41.5067 12.5551Z" fill="#BDBDBD"/>
<path d="M29.2145 31.9253C29.2145 35.7257 26.1337 38.8064 22.3333 38.8064C18.533 38.8064 15.4521 35.7257 15.4521 31.9253C15.4521 28.125 18.533 25.0443 22.3333 25.0443C26.1337 25.0443 29.2145 28.125 29.2145 31.9253Z" fill="#9E9E9E"/>
<path d="M27.2509 31.9254C27.2509 34.64 25.0503 36.8405 22.3358 36.8405C19.6212 36.8405 17.4207 34.64 17.4207 31.9254C17.4207 29.2109 19.6212 27.0104 22.3358 27.0104C25.0503 27.0104 27.2509 29.2109 27.2509 31.9254Z" fill="#BDBDBD"/>
<path d="M24.8512 31.9252C24.8512 33.2824 23.7234 34.3827 22.3322 34.3827C20.941 34.3827 19.8132 33.2824 19.8132 31.9252C19.8132 30.5679 20.941 29.4677 22.3322 29.4677C23.7234 29.4677 24.8512 30.5679 24.8512 31.9252Z" fill="#DEDEDE"/>
<path d="M78.487 31.9253C78.487 35.7257 75.4062 38.8064 71.6058 38.8064C67.8054 38.8064 64.7246 35.7257 64.7246 31.9253C64.7246 28.125 67.8054 25.0443 71.6058 25.0443C75.4062 25.0443 78.487 28.125 78.487 31.9253Z" fill="#9E9E9E"/>
<path d="M76.5229 31.9254C76.5229 34.64 74.3223 36.8405 71.6078 36.8405C68.8932 36.8405 66.6926 34.64 66.6926 31.9254C66.6926 29.2109 68.8932 27.0104 71.6078 27.0104C74.3223 27.0104 76.5229 29.2109 76.5229 31.9254Z" fill="#BDBDBD"/>
<path d="M73.996 31.9258C73.996 33.2152 72.9508 34.2604 71.6613 34.2604C70.3719 34.2604 69.3267 33.2152 69.3267 31.9258C69.3267 30.6364 70.3719 29.5911 71.6613 29.5911C72.9508 29.5911 73.996 30.6364 73.996 31.9258Z" fill="#DEDEDE"/>
<g style="mix-blend-mode:soft-light" opacity="0.2">
<path d="M34.9061 19.2404C33.9231 19.2404 33.3408 18.3591 33.3408 18.0315C33.3408 16.8027 34.9178 16.0654 35.5526 16.0654C36.978 16.0654 37.1179 17.643 36.995 18.6875C36.9281 19.2563 36.6264 19.2404 36.5035 19.2404H34.9061Z" fill="black"/>
</g>
<path d="M34.6223 18.9614C33.6392 18.9614 33.332 18.3675 33.332 18.0398C33.332 16.8111 34.909 16.0738 35.5438 16.0738C36.9692 16.0738 36.8341 17.364 36.7112 18.4084C36.6443 18.9773 36.3425 18.9614 36.2197 18.9614H34.6223Z" fill="#D1D1D1"/>
<path d="M9.73835 22.6479C9.50038 22.7266 9.43115 23.2623 9.43115 23.4466L14.4077 22.7094C14.506 22.5127 15.145 22.0955 15.3907 22.0341C10.4817 22.4022 9.92405 22.5865 9.73904 22.6477L9.73835 22.6479Z" fill="#BDBDBD"/>
<path d="M78.7334 20.2513C83.796 20.2513 86.0651 19.6779 86.5362 19.5141C86.5362 19.1209 86.2904 18.6949 86.1675 18.5311C85.2459 18.8383 82.4197 19.1455 80.1465 19.2683C79.6058 19.3175 78.9177 19.9441 78.7334 20.2513Z" fill="#BDBDBD"/>
<path d="M45.622 21.8436C45.6185 21.6915 45.739 21.5654 45.8911 21.5619L49.1398 21.4874C49.2919 21.484 49.418 21.6045 49.4215 21.7566C49.425 21.9087 49.3045 22.0348 49.1524 22.0383L45.9038 22.1127C45.7517 22.1162 45.6255 21.9957 45.622 21.8436Z" fill="#BDBDBD"/>
<path d="M63.0717 21.4737C63.0683 21.3216 63.1887 21.1955 63.3409 21.192L66.5895 21.1176C66.7416 21.1141 66.8677 21.2346 66.8712 21.3867C66.8747 21.5388 66.7542 21.6649 66.6021 21.6684L63.3535 21.7428C63.2014 21.7463 63.0752 21.6258 63.0717 21.4737Z" fill="#BDBDBD"/>
</svg>
