<svg width="36" height="36" viewBox="0 0 36 36" fill="none" xmlns="http://www.w3.org/2000/svg">
<path fill-rule="evenodd" clip-rule="evenodd" d="M9 3C7.34315 3 6 4.34315 6 6V30C6 31.6569 7.34315 33 9 33H27C28.6569 33 30 31.6569 30 30V11L22 3H9Z" fill="#DDDDDD"/>
<path fill-rule="evenodd" clip-rule="evenodd" d="M24 11H30L22 3V9C22 10.1046 22.8954 11 24 11Z" fill="#AEAEAE"/>
<path d="M10.75 17H12.7109C14.0263 17 15.0511 17.4541 15.0511 18.8811C15.0511 20.2514 14.0263 20.8676 12.7432 20.8676H11.9443V23H10.75V17ZM12.6625 19.9189C13.4775 19.9189 13.881 19.5703 13.881 18.8811C13.881 18.1757 13.4533 17.9486 12.6222 17.9486H11.9443V19.9189H12.6625Z" fill="#FF5858"/>
<path d="M15.971 17H17.6091C19.4329 17 20.5626 17.9405 20.5626 19.9757C20.5626 21.9865 19.4329 23 17.6737 23H15.971V17ZM17.5365 22.0351C18.6582 22.0351 19.3441 21.4351 19.3441 19.9757C19.3441 18.5081 18.6582 17.9568 17.5365 17.9568H17.1653V22.0351H17.5365Z" fill="#FF5858"/>
<path d="M21.5702 17H25.25V17.9973H22.7646V19.5622H24.8869V20.5676H22.7646V23H21.5702V17Z" fill="#FF5858"/>
</svg>
