<svg width="24" height="24" viewBox="0 0 24 24" fill="none" xmlns="http://www.w3.org/2000/svg">
<path d="M4.30128 13.2618L5.88293 14.687V7.56078C5.88293 4.42524 6.54643 3 7.87839 3C9.21036 3 9.58869 4.71029 9.58869 5.85049V10.9814C11.1426 11.5515 13.8529 12.1216 15.5632 12.6917C17.3471 13.2863 18 14.687 18 15.8272V20.388C18 22.0983 16.5 22.6684 15.1495 22.6684H9.58869C8.67653 22.6684 7.87839 22.0983 7.59334 21.8132C6.45311 20.578 3.83057 17.7655 2.46233 16.3973C0.752031 14.687 0.724225 13.4185 1.45089 12.6917C2.30585 11.8365 3.73118 12.6917 4.30128 13.2618Z" stroke="#15181F" stroke-width="2" stroke-linejoin="round"/>
<path d="M15.5 6L13 3.5L15.5 1" stroke="#15181F" stroke-width="2" stroke-linecap="round" stroke-linejoin="round"/>
<path d="M20.5 6.08301L23 3.58301L20.5 1.08301" stroke="#15181F" stroke-width="2" stroke-linecap="round" stroke-linejoin="round"/>
<rect x="13" y="2.4585" width="9" height="2" rx="1" fill="#15181F"/>
</svg>
