<svg width="48" height="48" viewBox="0 0 48 48" fill="none" xmlns="http://www.w3.org/2000/svg">
<g clip-path="url(#clip0_17_15937)">
<path d="M14.9272 16.6556C14.3842 17.7417 14.9272 19.9934 15.6292 21.0795L25.1524 36.0199H18.1987C17.0994 36.0199 16.0266 35.3974 15.563 34.6689L10.3577 26.5099C9.86762 25.755 9.89411 24.5497 10.3577 23.8079L14.9272 16.6556Z" fill="url(#paint0_radial_17_15937)"/>
<path d="M18.9403 24.0199C18.6887 24.4172 18.4635 25.3576 18.8476 26.1258L15.6291 21.0795C14.9403 19.9934 14.384 17.755 14.9271 16.6556L15.4966 15.755C16.0132 14.9338 16.9801 14.404 18.1854 14.404H25.033L18.9536 24.0199H18.9403Z" fill="url(#paint1_radial_17_15937)"/>
<path d="M33.0728 30.3642C33.6291 29.2781 33.0728 27.0265 32.3708 25.9536L22.8477 11H29.8013C30.9006 11 31.9735 11.6225 32.4371 12.351L37.6291 20.5099C38.1192 21.2649 38.0927 22.4702 37.6291 23.2119L33.0596 30.3642H33.0728Z" fill="url(#paint2_radial_17_15937)"/>
<path d="M29.0597 23C29.3114 22.6026 29.5365 21.6623 29.1524 20.894L32.371 25.9404C33.0597 27.0265 33.616 29.2649 33.0729 30.351L32.5034 31.2517C31.9868 32.0728 31.02 32.6026 29.8147 32.6026H22.9802L29.0597 22.9868V23Z" fill="url(#paint3_radial_17_15937)"/>
</g>
<defs>
<radialGradient id="paint0_radial_17_15937" cx="0" cy="0" r="1" gradientUnits="userSpaceOnUse" gradientTransform="translate(10.2236 19.0342) rotate(-90) scale(18.4689 20.2278)">
<stop stop-color="#D3E6F6"/>
<stop offset="0.07" stop-color="#CBE1F4"/>
<stop offset="0.17" stop-color="#B5D6F0"/>
<stop offset="0.25" stop-color="#A1CBED"/>
<stop offset="0.34" stop-color="#8EBBE3"/>
<stop offset="0.53" stop-color="#5E95CB"/>
<stop offset="0.7" stop-color="#2F6EB4"/>
<stop offset="0.82" stop-color="#1F5BA2"/>
<stop offset="1" stop-color="#00367F"/>
</radialGradient>
<radialGradient id="paint1_radial_17_15937" cx="0" cy="0" r="1" gradientUnits="userSpaceOnUse" gradientTransform="translate(31.3774 16.6887) scale(12.9874)">
<stop stop-color="#D3E6F6"/>
<stop offset="0.07" stop-color="#CBE1F4"/>
<stop offset="0.17" stop-color="#B5D6F0"/>
<stop offset="0.25" stop-color="#A1CBED"/>
<stop offset="0.34" stop-color="#8EBBE3"/>
<stop offset="0.53" stop-color="#5E95CB"/>
<stop offset="0.7" stop-color="#2F6EB4"/>
<stop offset="0.82" stop-color="#1F5BA2"/>
<stop offset="1" stop-color="#00367F"/>
</radialGradient>
<radialGradient id="paint2_radial_17_15937" cx="0" cy="0" r="1" gradientUnits="userSpaceOnUse" gradientTransform="translate(37.7719 33.4445) rotate(90) scale(18.4633 20.2217)">
<stop stop-color="#D3E6F6"/>
<stop offset="0.07" stop-color="#CBE1F4"/>
<stop offset="0.17" stop-color="#B5D6F0"/>
<stop offset="0.25" stop-color="#A1CBED"/>
<stop offset="0.34" stop-color="#8EBBE3"/>
<stop offset="0.53" stop-color="#5E95CB"/>
<stop offset="0.7" stop-color="#2F6EB4"/>
<stop offset="0.82" stop-color="#1F5BA2"/>
<stop offset="1" stop-color="#00367F"/>
</radialGradient>
<radialGradient id="paint3_radial_17_15937" cx="0" cy="0" r="1" gradientUnits="userSpaceOnUse" gradientTransform="translate(18.8815 31.6742) rotate(180) scale(12.9874)">
<stop stop-color="#D3E6F6"/>
<stop offset="0.07" stop-color="#CBE1F4"/>
<stop offset="0.17" stop-color="#B5D6F0"/>
<stop offset="0.25" stop-color="#A1CBED"/>
<stop offset="0.34" stop-color="#8EBBE3"/>
<stop offset="0.53" stop-color="#5E95CB"/>
<stop offset="0.7" stop-color="#2F6EB4"/>
<stop offset="0.82" stop-color="#1F5BA2"/>
<stop offset="1" stop-color="#00367F"/>
</radialGradient>
<clipPath id="clip0_17_15937">
<rect width="28" height="25.0199" fill="white" transform="translate(10 11)"/>
</clipPath>
</defs>
</svg>
