<svg width="48" height="48" viewBox="0 0 48 48" fill="none" xmlns="http://www.w3.org/2000/svg">
<path d="M15.7847 8.38585C15.3597 8.59741 14.9807 8.89104 14.6697 9.24982C14.3587 9.6086 14.1219 10.0254 13.9728 10.4762L8.18898 27.8675C7.88724 28.7777 7.9588 29.7704 8.38795 30.628C8.8171 31.4856 9.56881 32.1379 10.4782 32.442L29.4507 38.8066C29.9015 38.9571 30.3776 39.0171 30.8516 38.9834C31.3256 38.9496 31.7883 38.8227 32.2132 38.6098C32.6382 38.397 33.0169 38.1025 33.3279 37.7431C33.6388 37.3837 33.8758 36.9665 34.0253 36.5154L39.8111 19.1301C40.1122 18.2196 40.0401 17.2269 39.6106 16.3694C39.1812 15.5119 38.4293 14.8597 37.5198 14.5555L18.5513 8.19092C18.1001 8.03838 17.6231 7.97741 17.148 8.01156C16.6729 8.04571 16.2095 8.17431 15.7847 8.38983" fill="white"/>
<path d="M25.0651 25.0909C24.0229 26.2624 22.7185 27.1709 21.2583 27.7422L20.403 28.0743V20.0151L21.2464 20.3453C22.7095 20.9118 24.0175 21.8169 25.0631 22.9866C25.7345 21.901 26.1593 20.6812 26.3077 19.4134C26.4561 18.1456 26.3244 16.8607 25.9219 15.6494C25.5194 14.4381 24.8559 13.3298 23.9782 12.403C23.1006 11.4761 22.0302 10.7532 20.8426 10.2853L18.1018 9.37235C17.8084 9.2756 17.4988 9.23783 17.1907 9.26122C16.8827 9.2846 16.5823 9.36868 16.3068 9.50862C16.0314 9.64856 15.7864 9.84159 15.5858 10.0766C15.3853 10.3116 15.2332 10.584 15.1383 10.878L9.3346 28.2792C9.14259 28.8766 9.19486 29.5257 9.47996 30.0847C9.76505 30.6438 10.2598 31.0672 10.8562 31.2626L24.0249 35.6601C25.3396 34.2584 26.1541 32.4614 26.3415 30.5488C26.5289 28.6361 26.0788 26.7152 25.0611 25.0849M17.4475 19.5318V28.5676H16.1408V19.5318H17.4475Z" fill="#0082BD"/>
<path d="M24.2993 24.0388C23.5617 23.1678 22.662 22.4484 21.65 21.9206V26.1669C22.6637 25.6375 23.5637 24.9145 24.2993 24.0388Z" fill="#DB2422"/>
<path d="M37.1002 15.7151L25.0154 11.6756C26.5382 13.3327 27.454 15.4573 27.6129 17.7022C27.7719 19.9472 27.1647 22.1797 25.8905 24.0348C27.1306 25.8302 27.7457 27.9836 27.6411 30.1632C27.5365 32.3427 26.718 34.4273 25.3117 36.0957L29.8525 37.6113C30.146 37.708 30.4558 37.7457 30.7639 37.7222C31.0721 37.6986 31.3725 37.6144 31.648 37.4743C31.9235 37.3341 32.1685 37.1409 32.3689 36.9056C32.5694 36.6704 32.7213 36.3979 32.816 36.1037L38.6217 18.7025C38.8104 18.1047 38.7563 17.4568 38.4713 16.8986C38.1862 16.3404 37.693 15.9167 37.0982 15.7191M33.896 28.5437H32.2631L28.9037 24.0249L32.3148 19.51H33.9616L30.5506 24.0348L33.896 28.5437Z" fill="#004B8C"/>
</svg>
