<svg width="48" height="48" viewBox="0 0 48 48" fill="none" xmlns="http://www.w3.org/2000/svg">
<path d="M39.4778 24.6437L39.1998 24.4677C38.6618 23.9801 38.0235 23.6163 37.3299 23.4017C36.6362 23.1871 35.904 23.1269 35.1846 23.2255C33.9333 23.3301 32.7273 23.743 31.6744 24.4272V24.3885C31.684 23.9102 31.7187 23.4327 31.7782 22.958C31.838 22.4757 31.8726 21.9906 31.882 21.5047C31.8982 21.0534 31.8234 20.6034 31.6621 20.1815C31.6413 20.1326 31.6061 20.0912 31.5611 20.0629C31.5161 20.0346 31.4636 20.0207 31.4105 20.0232C30.8384 20.0768 30.2854 20.2571 29.7917 20.551L29.6703 20.815C29.6652 21.538 29.585 22.2586 29.431 22.9651L29.3694 23.141C29.1706 24.9564 29.1641 26.7876 29.3501 28.6043C29.3694 28.7627 29.6721 28.9985 29.9061 29.0812C30.4299 29.0972 30.9508 28.9974 31.4316 28.7891L31.6075 28.7627C31.6423 28.7575 31.6758 28.7455 31.7059 28.7274C31.7361 28.7093 31.7624 28.6854 31.7833 28.6572C31.8042 28.6289 31.8193 28.5968 31.8278 28.5627C31.8363 28.5285 31.838 28.4931 31.8327 28.4583L31.8451 28.0078C32.055 27.2273 32.4711 26.5177 33.0497 25.9533C33.6283 25.3889 34.3481 24.9907 35.1336 24.8002C35.5276 24.7145 35.9372 24.7345 36.321 24.8581C36.7047 24.9817 37.049 25.2045 37.3189 25.504C37.4944 26.2561 37.3681 27.047 36.967 27.707C36.3958 28.6395 35.5084 29.3358 34.4667 29.6688C33.2398 30.1014 31.938 30.281 30.6398 30.1967L29.2322 29.25C27.9885 28.3081 26.6413 27.5113 25.217 26.8747C24.8882 26.6947 24.5812 26.4774 24.302 26.2272L24.1648 26.1128C23.3888 25.4935 21.9161 24.5187 20.732 23.734L20.0933 23.3082C20.0933 23.2642 20.0933 23.1762 20.0933 23.1762C20.1285 23.1375 20.8727 22.6959 20.8727 22.6959C21.4545 22.4105 21.9998 22.056 22.4968 21.6402C22.4756 21.6648 22.6358 21.5592 22.6358 21.5592L25.217 20.1059C27.649 18.9309 29.9208 17.4497 31.977 15.6983L32.0474 15.466L32.0808 15.2601C32.1779 14.9821 32.1853 14.6805 32.102 14.398C32.0897 14.3499 32.0646 14.3061 32.0292 14.2714C31.9939 14.2366 31.9496 14.2123 31.9014 14.2009C31.1479 14.2241 30.4067 14.3983 29.7219 14.7132C29.037 15.0281 28.4223 15.4774 27.9143 16.0343C27.6645 16.2623 27.3844 16.4547 27.0821 16.6062L26.8762 16.717C25.3859 17.5598 22.0287 19.6325 20.271 20.7516C20.437 18.4751 20.736 16.2102 21.1666 13.9687L21.1191 13.703C21.1191 13.6942 20.9431 13.3652 20.9431 13.3652L20.8059 13.1223L20.7654 13.1118C20.5005 12.9839 20.196 12.965 19.9173 13.059L19.5654 13.1892L19.0974 13.3652C19.0535 13.3727 19.0124 13.3919 18.9783 13.4206C18.9443 13.4494 18.9186 13.4867 18.9038 13.5288C17.9506 16.0947 17.3756 18.7856 17.1971 21.517C15.9105 20.7115 14.5794 19.9795 13.21 19.3246L13.1889 19.3123L13.0974 19.2929C12.7651 19.2076 12.4509 19.0628 12.1702 18.8654L11.5315 18.4537L10.5567 17.8343L10.298 17.7762C9.72647 17.9506 9.21865 18.2889 8.83765 18.7493C8.80913 18.7965 8.79393 18.8506 8.79366 18.9058C8.79829 18.9843 8.81308 19.0618 8.83765 19.1364L8.8834 19.3334L8.92915 19.4531C9.7828 20.1924 10.7227 20.8257 11.7285 21.3393L13.071 22.0431L15.1209 23.1569C15.1209 23.1674 15.4728 23.4331 15.4728 23.4331L15.7138 23.5721L15.7578 23.6002C15.2106 23.9609 12.0259 26.0759 12.0259 26.0759L10.064 27.3691C9.69699 27.5691 9.31931 27.7488 8.93266 27.9075C8.56121 28.0345 8.24856 28.2922 8.05291 28.6325L8.00012 28.7451L8.05291 28.819L8.20246 28.9316L8.40304 29.0635L8.61947 29.2096L8.82357 29.243C9.45865 29.1563 10.0724 28.9535 10.6341 28.6448C11.5139 28.2577 13.8927 26.829 14.9115 26.2202L15.3461 25.9597C15.5554 25.9347 15.7505 25.8406 15.9003 25.6923C16.1872 25.4778 16.4949 25.2927 16.8188 25.1398C16.8188 25.1398 16.9807 25.0501 17.1285 24.9639C17.1285 25.0079 17.1285 25.08 17.1285 25.08C17.1113 27.4537 17.3003 29.8245 17.6933 32.1656V32.1937L17.7267 32.2659C17.9626 32.7865 18.1397 33.3317 18.2546 33.8916L18.6434 35.1849C18.6522 35.2007 18.7525 35.3063 18.7525 35.3063C19.161 35.545 19.6273 35.6667 20.1003 35.6582L20.2129 35.6459L20.2833 35.4893C20.3201 35.2938 20.3378 35.0952 20.3361 34.8963C20.3361 34.6606 20.3185 34.3984 20.2974 34.0799L20.2657 33.6136C20.1214 31.4512 19.9824 28.3263 19.9824 26.2519V26.0864L21.9671 27.3287C24.8987 29.4054 28.0589 31.1387 31.3858 32.4946C31.4483 32.5147 31.5149 32.5177 31.5789 32.5035C31.6429 32.4893 31.702 32.4582 31.7501 32.4136L32.1371 32.1656L32.2075 32.1339C32.293 32.0663 32.3611 31.9793 32.4064 31.8802C32.4517 31.7811 32.4728 31.6727 32.4679 31.5638C33.7119 31.5443 34.9397 31.2788 36.0806 30.7827C37.2214 30.2865 38.2529 29.5695 39.1154 28.6729C39.6787 27.9593 39.9883 27.0783 39.9951 26.1692C40.0142 25.8911 39.9784 25.612 39.8896 25.3479C39.8009 25.0837 39.6609 24.8397 39.4778 24.6296" fill="#FCAF17"/>
</svg>
