<svg width="48" height="48" viewBox="0 0 48 48" fill="none" xmlns="http://www.w3.org/2000/svg">
<g clip-path="url(#clip0_17_15942)">
<path d="M37.9999 23.9973C38.0003 26.7663 37.1794 29.4732 35.6413 31.7757C34.1031 34.0781 31.9166 35.8727 29.3585 36.9324C26.8003 37.9921 23.9853 38.2694 21.2695 37.7292C18.5537 37.1889 16.0592 35.8554 14.1013 33.8973C12.1435 31.9392 10.8103 29.4445 10.2704 26.7286C9.73051 24.0128 10.0081 21.1978 11.0682 18.6398C12.1282 16.0818 13.9231 13.8955 16.2258 12.3576C18.5284 10.8197 21.2354 9.99928 24.0044 9.99999C27.7157 10.0029 31.2741 11.4785 33.8982 14.103C36.5223 16.7274 37.9975 20.286 37.9999 23.9973Z" fill="white"/>
<path d="M24.0045 37.3316C26.6415 37.3305 29.2191 36.5475 31.4112 35.0817C33.6033 33.6159 35.3115 31.533 36.3199 29.0963C37.3283 26.6597 37.5916 23.9788 37.0765 21.3926C36.5614 18.8064 35.291 16.4309 33.4259 14.5666C31.5609 12.7023 29.1849 11.4329 26.5985 10.9188C24.012 10.4048 21.3312 10.6691 18.895 11.6785C16.4588 12.6879 14.3766 14.397 12.9116 16.5897C11.4467 18.7824 10.6648 21.3602 10.6648 23.9973C10.6646 25.7489 11.0095 27.4834 11.6798 29.1016C12.3502 30.7199 13.3329 32.1902 14.5717 33.4285C15.8106 34.6668 17.2812 35.6489 18.8998 36.3186C20.5183 36.9883 22.2529 37.3325 24.0045 37.3316Z" fill="#0072C0"/>
<mask id="mask0_17_15942" style="mask-type:luminance" maskUnits="userSpaceOnUse" x="10" y="10" width="28" height="28">
<path d="M24.0045 37.3316C26.6415 37.3305 29.2191 36.5475 31.4112 35.0817C33.6033 33.6159 35.3115 31.533 36.3199 29.0963C37.3283 26.6597 37.5916 23.9788 37.0765 21.3926C36.5614 18.8064 35.291 16.4309 33.4259 14.5666C31.5609 12.7023 29.1849 11.4329 26.5985 10.9188C24.012 10.4048 21.3312 10.6691 18.895 11.6785C16.4588 12.6879 14.3766 14.397 12.9116 16.5897C11.4467 18.7824 10.6648 21.3602 10.6648 23.9973C10.6646 25.7489 11.0095 27.4834 11.6798 29.1016C12.3502 30.7199 13.3329 32.1902 14.5717 33.4285C15.8106 34.6668 17.2812 35.6489 18.8998 36.3186C20.5183 36.9883 22.2529 37.3325 24.0045 37.3316Z" fill="white"/>
</mask>
<g mask="url(#mask0_17_15942)">
<path d="M24.0497 30.4395C29.9084 30.4395 34.9325 32.0654 37.0823 34.3869C37.824 32.684 38.2053 30.8462 38.2024 28.9888C38.1188 25.2912 36.5912 21.7731 33.9465 19.1875C31.3018 16.6019 27.7501 15.1542 24.0515 15.1542C20.3529 15.1542 16.8012 16.6019 14.1565 19.1875C11.5118 21.7731 9.98421 25.2912 9.90065 28.9888C9.89806 30.8461 10.2794 32.6839 11.0208 34.3869C13.1652 32.0727 18.191 30.4395 24.0497 30.4395Z" fill="#0072C0"/>
<path d="M24.0479 30.454C29.8904 30.454 34.9018 32.0799 37.0553 34.3688C37.7952 32.6807 38.176 30.8573 38.1735 29.0141C38.0716 25.3384 36.5399 21.8474 33.904 19.2835C31.2681 16.7197 27.736 15.2852 24.0588 15.2852C20.3817 15.2852 16.8496 16.7197 14.2136 19.2835C11.5777 21.8474 10.046 25.3384 9.94411 29.0141C9.9413 30.8571 10.3215 32.6805 11.0605 34.3688C13.1923 32.0744 18.2037 30.454 24.0479 30.454Z" fill="#0074C1"/>
<path d="M24.0443 30.4702C29.8723 30.4702 34.8711 32.0763 37.0101 34.3544C37.7479 32.681 38.1276 30.8718 38.1247 29.043C37.9708 25.4124 36.4202 21.9816 33.7968 19.4671C31.1734 16.9525 27.68 15.5487 24.0461 15.5487C20.4122 15.5487 16.9188 16.9525 14.2954 19.4671C11.672 21.9816 10.1215 25.4124 9.96754 29.043C9.96476 30.8716 10.3438 32.6807 11.0804 34.3544C13.2176 32.0745 18.2163 30.4702 24.0443 30.4702Z" fill="#0075C2"/>
<path d="M24.0443 30.4847C29.8561 30.4847 34.8422 32.0781 36.9776 34.3363C37.7123 32.6774 38.0908 30.8827 38.0886 29.0683C37.9716 25.422 36.4409 21.9642 33.8202 19.4262C31.1995 16.8883 27.6943 15.4692 24.0462 15.4692C20.398 15.4692 16.8928 16.8883 14.2721 19.4262C11.6514 21.9642 10.1207 25.422 10.0037 29.0683C10.0008 30.8826 10.3788 32.6772 11.1129 34.3363C13.2447 32.0727 18.2308 30.4847 24.0443 30.4847Z" fill="#0077C3"/>
<path d="M24.0426 30.4991C29.8399 30.4991 34.8134 32.0781 36.9415 34.32C37.6746 32.6759 38.0526 30.8956 38.0507 29.0954C37.9083 25.4761 36.3703 22.0524 33.7592 19.542C31.1481 17.0316 27.6666 15.6294 24.0444 15.6294C20.4222 15.6294 16.9407 17.0316 14.3296 19.542C11.7185 22.0524 10.1805 25.4761 10.0381 29.0954C10.036 30.8954 10.4134 32.6757 11.1455 34.32C13.2701 32.0781 18.2435 30.4991 24.0426 30.4991Z" fill="#0079C4"/>
<path d="M24.0405 30.5154C29.8216 30.5154 34.7842 32.0817 36.9069 34.3092C37.6386 32.6799 38.0161 30.9139 38.0144 29.1279C37.8611 25.5257 36.3222 22.1218 33.719 19.6271C31.1159 17.1324 27.6497 15.7397 24.0442 15.7397C20.4386 15.7397 16.9725 17.1324 14.3693 19.6271C11.7662 22.1218 10.2273 25.5257 10.074 29.1279C10.072 30.9138 10.4488 32.6797 11.1796 34.3092C13.2969 32.0817 18.2487 30.5154 24.0405 30.5154Z" fill="#007AC5"/>
<path d="M24.0389 30.5244C29.8055 30.5244 34.7555 32.0781 36.8655 34.2821C37.5944 32.6674 37.9707 30.9158 37.9694 29.1442C37.8012 25.562 36.2597 22.1823 33.6652 19.7068C31.0706 17.2312 27.6223 15.85 24.0362 15.85C20.4501 15.85 17.0018 17.2312 14.4073 19.7068C11.8127 22.1823 10.2713 25.562 10.103 29.1442C10.1008 30.9157 10.4765 32.6673 11.2051 34.2821C13.3242 32.0817 18.2706 30.5244 24.0389 30.5244Z" fill="#007CC6"/>
<path d="M24.0372 30.5443C29.7875 30.5443 34.7248 32.0853 36.8367 34.2694C37.5642 32.6696 37.94 30.9324 37.9387 29.1749C37.7858 25.5915 36.2547 22.2057 33.6651 19.7242C31.0755 17.2427 27.6274 15.8573 24.0407 15.8573C20.4541 15.8573 17.0061 17.2427 14.4164 19.7242C11.8268 22.2057 10.2957 25.5915 10.1428 29.1749C10.1413 30.9322 10.5165 32.6694 11.243 34.2694C13.3477 32.0835 18.2832 30.5443 24.0372 30.5443Z" fill="#007EC7"/>
<path d="M24.0335 30.5569C29.7693 30.5569 34.6922 32.0835 36.7987 34.2496C37.5247 32.6622 37.8993 30.9367 37.8971 29.1912C37.695 25.6518 36.1466 22.3239 33.5693 19.8896C30.9921 17.4554 27.5813 16.0992 24.0362 16.0992C20.4911 16.0992 17.0803 17.4554 14.5031 19.8896C11.9258 22.3239 10.3774 25.6518 10.1753 29.1912C10.1728 30.9365 10.5468 32.6619 11.2719 34.2496C13.3747 32.0817 18.2958 30.5569 24.0335 30.5569Z" fill="#0080C8"/>
<path d="M24.0335 30.5732C29.7549 30.5732 34.6651 32.0871 36.7662 34.2351C37.4883 32.6651 37.8618 30.9573 37.8609 29.2291C37.6515 25.7045 36.1038 22.393 33.5341 19.9715C30.9645 17.5501 27.567 16.2015 24.0362 16.2015C20.5054 16.2015 17.1079 17.5501 14.5383 19.9715C11.9686 22.393 10.4209 25.7045 10.2114 29.2291C10.2098 30.9572 10.5827 32.665 11.3044 34.2351C13.4019 32.0871 18.3103 30.5732 24.0335 30.5732Z" fill="#0081C8"/>
<path d="M24.0315 30.5876C29.7367 30.5876 34.6361 32.0871 36.7299 34.217C37.4472 32.6611 37.8171 30.9677 37.8139 29.2544C37.5904 25.7493 36.0404 22.4609 33.4791 20.0577C30.9178 17.6545 27.5374 16.317 24.0252 16.317C20.513 16.317 17.1327 17.6545 14.5714 20.0577C12.0101 22.4609 10.4601 25.7493 10.2366 29.2544C10.2331 30.9677 10.603 32.6612 11.3205 34.217C13.4198 32.0871 18.3246 30.5876 24.0315 30.5876Z" fill="#0083C9"/>
<path d="M24.0299 30.6039C29.7188 30.6039 34.6055 32.0907 36.6957 34.2008C37.4122 32.6599 37.7822 30.9808 37.7797 29.2815C37.5368 25.7998 35.9823 22.5398 33.43 20.1593C30.8776 17.7787 27.5174 16.4549 24.0272 16.4549C20.537 16.4549 17.1767 17.7787 14.6244 20.1593C12.072 22.5398 10.5176 25.7998 10.2747 29.2815C10.2722 30.9808 10.6422 32.6599 11.3586 34.2008C13.4542 32.0907 18.3374 30.6039 24.0299 30.6039Z" fill="#0085CA"/>
<path d="M24.0281 30.6166C29.7025 30.6166 34.5767 32.0907 36.6596 34.1827C37.3745 32.656 37.7446 30.9907 37.7436 29.305C37.4889 25.8413 35.9332 22.6022 33.3889 20.2382C30.8447 17.8742 27.5002 16.5602 24.0272 16.5602C20.5542 16.5602 17.2097 17.8742 14.6655 20.2382C12.1212 22.6022 10.5655 25.8413 10.3108 29.305C10.3096 30.9908 10.6796 32.6561 11.3947 34.1827C13.4759 32.0907 18.3537 30.6166 24.0281 30.6166Z" fill="#0087CB"/>
<path d="M24.0263 30.6328C29.6845 30.6328 34.5478 32.0943 36.6253 34.1665C37.3393 32.6555 37.7095 31.0051 37.7093 29.3339C37.7093 22.4816 31.5796 16.6879 24.0281 16.6879C16.4767 16.6879 10.3506 22.4888 10.3506 29.3339C10.3507 31.005 10.7209 32.6554 11.4345 34.1665C13.5067 32.0943 18.3627 30.6328 24.0263 30.6328Z" fill="#0089CC"/>
<path d="M24.0243 30.6473C29.6681 30.6473 34.5169 32.0925 36.589 34.1502C37.3015 32.6541 37.6718 31.0181 37.673 29.361C37.673 22.5683 31.5595 16.7999 24.0262 16.7999C16.4928 16.7999 10.3848 22.5701 10.3848 29.361C10.3859 31.0181 10.7562 32.6541 11.4687 34.1502C13.5318 32.0943 18.377 30.6473 24.0243 30.6473Z" fill="#008BCE"/>
<path d="M24.0244 30.6617C29.6518 30.6617 34.488 32.0961 36.5566 34.1321C37.2682 32.6511 37.6386 31.0294 37.6405 29.3863C37.6405 22.655 31.5434 16.921 24.0298 16.921C16.5163 16.921 10.4246 22.6604 10.4246 29.3863C10.4265 31.0294 10.7969 32.6511 11.5085 34.1321C13.5572 32.0961 18.3897 30.6617 24.0244 30.6617Z" fill="#008CCF"/>
<path d="M24.0208 30.678C29.6338 30.678 34.4591 32.0979 36.5204 34.1105C37.2297 32.646 37.6002 31.0406 37.6044 29.4134C37.6044 22.7435 31.5234 17.0366 24.0298 17.0366C16.5362 17.0366 10.4607 22.7453 10.4607 29.4134C10.4615 31.0398 10.8282 32.6451 11.5338 34.1105C13.586 32.0979 18.4024 30.678 24.0208 30.678Z" fill="#008ED0"/>
<path d="M24.0191 30.6942C29.6194 30.6942 34.4285 32.1015 36.4844 34.1014C37.1896 32.6494 37.5565 31.0565 37.5575 29.4423C37.5575 22.8339 31.4929 17.1576 24.0191 17.1576C16.5453 17.1576 10.4861 22.8357 10.4861 29.4423C10.4862 31.0564 10.8525 32.6494 11.5574 34.1014C13.6096 32.0997 18.4151 30.6942 24.0191 30.6942Z" fill="#0090D1"/>
<path d="M24.0172 30.7051C29.5977 30.7051 34.3996 32.0998 36.4482 34.0798C37.1513 32.6426 37.5171 31.0639 37.5177 29.464C37.5177 22.917 31.4693 17.2696 24.0154 17.2696C16.5615 17.2696 10.5186 22.917 10.5186 29.464C10.5187 31.0637 10.8838 32.6424 11.5862 34.0798C13.6439 32.1052 18.4295 30.7051 24.0172 30.7051Z" fill="#0092D2"/>
<path d="M24.0154 30.7213C29.5833 30.7213 34.3689 32.1016 36.4139 34.0635C37.1145 32.641 37.4798 31.0768 37.4816 29.4911C37.4816 23.0055 31.4494 17.3871 24.0154 17.3871C16.5814 17.3871 10.5547 23.0037 10.5547 29.4911C10.5555 31.0767 10.9202 32.641 11.6206 34.0635C13.662 32.1016 18.4421 30.7213 24.0154 30.7213Z" fill="#0094D3"/>
<path d="M24.0154 30.7358C29.567 30.7358 34.3418 32.1034 36.3796 34.0472C37.0789 32.6398 37.4437 31.0898 37.4455 29.5182C37.4455 23.094 31.4314 17.5081 24.0154 17.5081C16.5995 17.5081 10.5908 23.094 10.5908 29.5182C10.5914 31.0895 10.955 32.6395 11.6531 34.0472C13.6891 32.1052 18.4584 30.7358 24.0154 30.7358Z" fill="#0097D4"/>
<path d="M24.0118 30.7502C29.5471 30.7502 34.3092 32.1052 36.3416 34.0292C37.0385 32.6365 37.4022 31.1008 37.4039 29.5435C37.4039 23.1807 31.4061 17.6201 24.0118 17.6201C16.6175 17.6201 10.6233 23.1753 10.6233 29.5435C10.6245 31.1007 10.9875 32.6363 11.6838 34.0292C13.7143 32.1052 18.4692 30.7502 24.0118 30.7502Z" fill="#0099D5"/>
<path d="M24.0119 30.7665C29.5327 30.7665 34.2822 32.107 36.3092 34.0183C37.0033 32.6402 37.3658 31.119 37.3678 29.576C37.3678 23.2747 31.3863 17.7502 24.01 17.7502C16.6338 17.7502 10.6577 23.2747 10.6577 29.576C10.6585 31.1189 11.0205 32.6403 11.7145 34.0183C13.7415 32.107 18.4838 30.7665 24.0119 30.7665Z" fill="#009BD6"/>
<path d="M24.0101 30.7792C29.5165 30.7792 34.2533 32.107 36.2749 33.9948C36.9674 32.6318 37.3295 31.1248 37.3317 29.5959C37.3317 23.356 31.37 17.8622 24.0101 17.8622C16.6501 17.8622 10.6938 23.356 10.6938 29.5959C10.6954 31.1244 11.0562 32.6313 11.7471 33.9948C13.7668 32.116 18.4964 30.7792 24.0101 30.7792Z" fill="#009DD7"/>
<path d="M24.0082 30.7954C29.4984 30.7954 34.2244 32.1106 36.2387 33.9804C36.9284 32.6326 37.2893 31.1406 37.2919 29.6266C37.2919 23.4463 31.341 17.985 24.0064 17.985C16.6717 17.985 10.7263 23.4481 10.7263 29.6266C10.7279 31.1403 11.0876 32.6322 11.7759 33.9804C13.7939 32.1106 18.5072 30.7954 24.0082 30.7954Z" fill="#009FD8"/>
<path d="M24.0064 30.8099C29.4822 30.8099 34.1955 32.1124 36.2044 33.9623C36.8915 32.6292 37.2512 31.1516 37.254 29.6518C37.254 23.533 31.3212 18.1025 24.0064 18.1025C16.6917 18.1025 10.7625 23.5348 10.7625 29.6518C10.7644 31.1515 11.1236 32.6291 11.8103 33.9623C13.8192 32.1124 18.5235 30.8099 24.0064 30.8099Z" fill="#00A1D9"/>
<path d="M24.0046 30.8243C29.464 30.8243 34.1647 32.1124 36.1682 33.9443C36.8535 32.6261 37.2128 31.1628 37.216 29.6771C37.216 23.6197 31.2995 18.2199 24.0028 18.2199C16.706 18.2199 10.7949 23.6215 10.7949 29.6771C10.7974 31.1627 11.1561 32.626 11.8409 33.9443C13.8462 32.1124 18.5379 30.8243 24.0046 30.8243Z" fill="#00A4DA"/>
<path d="M24.0028 30.8388C29.446 30.8388 34.134 32.1142 36.1321 33.928C36.8153 32.6247 37.1741 31.1758 37.1781 29.7042C37.1781 23.7082 31.2778 18.3391 24.0028 18.3391C16.7277 18.3391 10.8311 23.71 10.8311 29.7042C10.8333 31.1755 11.191 32.6246 11.8735 33.928C13.8716 32.1142 18.5487 30.8388 24.0028 30.8388Z" fill="#00A6DC"/>
<path d="M24.0009 30.855C29.4206 30.855 34.105 32.1196 36.1049 33.9117C36.7859 32.6233 37.1436 31.1887 37.1473 29.7313C37.1473 23.7968 31.2633 18.4583 24.0081 18.4583C16.7529 18.4583 10.8726 23.7986 10.8726 29.7313C10.8755 31.1886 11.2326 32.6232 11.9132 33.9117C13.8986 32.116 18.5631 30.855 24.0009 30.855Z" fill="#00A8DD"/>
<path d="M23.999 30.8677C29.4187 30.8677 34.0743 32.1178 36.0615 33.8918C36.7404 32.6183 37.0977 31.198 37.1021 29.7548C37.1021 23.8817 31.2343 18.574 23.999 18.574C16.7637 18.574 10.8997 23.8835 10.8997 29.7548C10.903 31.1977 11.2589 32.618 11.9366 33.8918C13.9238 32.1178 18.5757 30.8677 23.999 30.8677Z" fill="#00AADE"/>
<path d="M23.9974 30.8839C29.3954 30.8839 34.0455 32.1196 36.0273 33.8774C36.7036 32.6186 37.0597 31.2127 37.0643 29.7837C37.0643 23.972 31.2128 18.6932 23.9974 18.6932C16.782 18.6932 10.9341 23.972 10.9341 29.7837C10.9373 31.2124 11.2922 32.6183 11.9674 33.8774C13.9492 32.1196 18.5904 30.8839 23.9974 30.8839Z" fill="#00ADDF"/>
<path d="M23.9954 30.8984C29.379 30.8984 34.0146 32.1214 35.9928 33.8594C36.6666 32.6153 37.0216 31.2238 37.0262 29.809C37.0262 24.0587 31.191 18.8106 23.9954 18.8106C16.7999 18.8106 10.9683 24.0497 10.9683 29.809C10.972 31.2236 11.3264 32.6153 11.9998 33.8594C13.9744 32.1196 18.6028 30.8984 23.9954 30.8984Z" fill="#09AFE0"/>
<path d="M23.9991 30.9255C29.3755 30.9255 34.0057 32.1395 35.9803 33.8666C36.6533 32.632 37.0084 31.2494 37.0136 29.8434C37.0136 24.131 31.1856 18.9136 24.0063 18.9136C16.827 18.9136 10.999 24.131 10.999 29.8434C11.0028 31.2491 11.3567 32.6318 12.0288 33.8666C13.9889 32.1467 18.6101 30.9255 23.9991 30.9255Z" fill="#1DB1E1"/>
<path d="M23.9954 30.9652C29.3646 30.9652 33.9875 32.172 35.9603 33.8864C36.6319 32.6612 36.9865 31.2875 36.9919 29.8903C36.9919 24.2141 31.1729 19.0274 23.9954 19.0274C16.8179 19.0274 11.0044 24.2159 11.0044 29.8903C11.008 31.2873 11.3614 32.6611 12.0323 33.8864C14.0033 32.1738 18.6191 30.9652 23.9954 30.9652Z" fill="#29B3E2"/>
<path d="M23.9955 31.0014C29.3574 31.0014 33.975 32.1991 35.9423 33.9045C36.6145 32.6873 36.9692 31.3205 36.9739 29.9301C36.9739 24.2918 31.1621 19.134 23.9955 19.134C16.8288 19.134 11.0208 24.2918 11.0208 29.9301C11.0241 31.32 11.3769 32.6867 12.0469 33.9045C14.016 32.1991 18.6246 31.0014 23.9955 31.0014Z" fill="#34B5E2"/>
<path d="M23.9954 31.0339C29.3501 31.0339 33.9623 32.2244 35.9188 33.9244C36.5883 32.7173 36.9424 31.3609 36.9485 29.9806C36.9485 24.3803 31.144 19.2514 23.9882 19.2514C16.8324 19.2514 11.0315 24.3803 11.0315 29.9806C11.0348 31.3606 11.3872 32.7172 12.0558 33.9244C14.0286 32.2244 18.6317 31.0339 23.9954 31.0339Z" fill="#3DB7E3"/>
<path d="M23.9955 31.0682C29.3429 31.0682 33.9479 32.2515 35.9189 33.9316C36.5864 32.7336 36.94 31.3863 36.9468 30.015C36.9468 24.4507 31.1495 19.3562 24.0045 19.3562C16.8596 19.3562 11.0659 24.4543 11.0659 30.015C11.0701 31.3862 11.4226 32.7339 12.0902 33.9316C14.0431 32.2497 18.6336 31.0682 23.9955 31.0682Z" fill="#45B9E4"/>
<path d="M23.9955 31.1025C29.3358 31.1025 33.9317 32.2768 35.8936 33.9479C36.5603 32.7588 36.9134 31.4197 36.9197 30.0565C36.9197 24.5302 31.1387 19.4628 23.9955 19.4628C16.8524 19.4628 11.075 24.532 11.075 30.0565C11.0789 31.4193 11.4302 32.7586 12.0957 33.9479C14.0558 32.2768 18.6481 31.1025 23.9955 31.1025Z" fill="#4DBBE5"/>
<path d="M23.9883 31.135C29.3213 31.135 33.9118 32.3021 35.8701 33.9605C36.5352 32.7807 36.8877 31.4506 36.8944 30.0963C36.8944 24.6079 31.1134 19.5712 23.9883 19.5712C16.8632 19.5712 11.084 24.6097 11.084 30.0963C11.0876 31.4503 11.4384 32.7807 12.1029 33.9605C14.0702 32.3021 18.6553 31.135 23.9883 31.135Z" fill="#54BDE6"/>
<path d="M23.9956 31.1748C29.3232 31.1748 33.9064 32.3328 35.8611 33.9804C36.525 32.81 36.8771 31.4887 36.8837 30.1432C36.8837 24.691 31.1027 19.685 23.9956 19.685C16.8886 19.685 11.1094 24.6928 11.1094 30.1432C11.1139 31.4885 11.4648 32.81 12.1283 33.9804C14.083 32.3274 18.6626 31.1748 23.9956 31.1748Z" fill="#5CBFE6"/>
<path d="M23.9973 31.2037C29.3158 31.2037 33.8937 32.3545 35.8466 33.9912C36.5093 32.8296 36.8609 31.5167 36.8673 30.1794C36.8673 24.7597 31.1007 19.788 23.9973 19.788C16.8939 19.788 11.1292 24.7669 11.1292 30.1794C11.1334 31.5165 11.4837 32.8297 12.1462 33.9912C14.0973 32.3545 18.6715 31.2037 23.9973 31.2037Z" fill="#63C1E7"/>
<path d="M23.9955 31.2362C29.3086 31.2362 33.8793 32.3779 35.8286 34.0039C36.4903 32.8517 36.842 31.5477 36.8493 30.2191C36.8493 24.8428 31.0917 19.8946 23.9973 19.8946C16.903 19.8946 11.1472 24.8428 11.1472 30.2191C11.1511 31.5473 11.5003 32.8515 12.1607 34.0039C14.1082 32.3798 18.677 31.2362 23.9955 31.2362Z" fill="#6AC4E8"/>
<path d="M23.9956 31.2705C29.3015 31.2705 33.8667 32.4051 35.8124 34.0201C36.4734 32.877 36.8246 31.5811 36.8313 30.2607C36.8313 24.9222 31.081 20.0048 24.0046 20.0048C16.9283 20.0048 11.178 24.9241 11.178 30.2607C11.1825 31.5805 11.5313 32.8763 12.1897 34.0201C14.1227 32.4051 18.6861 31.2705 23.9956 31.2705Z" fill="#71C6E9"/>
<path d="M23.9974 31.3048C29.2961 31.3048 33.8523 32.4321 35.798 34.0346C36.4568 32.9005 36.8074 31.6138 36.815 30.3022C36.815 25.0017 31.0719 20.115 23.9974 20.115C16.9229 20.115 11.1816 25.0017 11.1816 30.3022C11.1858 31.6135 11.5346 32.9007 12.1933 34.0346C14.1372 32.4321 18.6933 31.3048 23.9974 31.3048Z" fill="#77C8EA"/>
<path d="M23.9973 31.3392C29.2887 31.3392 33.8395 32.4574 35.7797 34.049C36.4369 32.9242 36.787 31.6465 36.795 30.3438C36.795 25.0794 31.0609 20.227 23.9955 20.227C16.93 20.227 11.1978 25.0849 11.1978 30.3438C11.2022 31.6462 11.5505 32.9244 12.2076 34.049C14.1497 32.4574 18.7004 31.3392 23.9973 31.3392Z" fill="#7ECBEB"/>
<path d="M23.9974 31.3717C29.2816 31.3717 33.8251 32.4827 35.7635 34.0617C36.4195 32.9463 36.7692 31.6774 36.777 30.3835C36.777 25.1571 31.0502 20.33 23.9955 20.33C16.9409 20.33 11.2141 25.1589 11.2141 30.3835C11.2188 31.6774 11.5673 32.9468 12.224 34.0617C14.1624 32.4827 18.7059 31.3717 23.9974 31.3717Z" fill="#85CDEC"/>
<path d="M23.9973 31.406C29.2743 31.406 33.8124 32.508 35.74 34.0779C36.3945 32.9713 36.7436 31.7107 36.7517 30.4251C36.7517 25.2348 31.0321 20.4383 23.9883 20.4383C16.9445 20.4383 11.2249 25.2366 11.2249 30.4251C11.2294 31.7105 11.5768 32.9715 12.2311 34.0779C14.1768 32.508 18.7149 31.406 23.9973 31.406Z" fill="#8CCFEC"/>
<path d="M23.9973 31.4403C29.2671 31.4403 33.7998 32.5351 35.74 34.0924C36.3935 32.9952 36.7427 31.7436 36.7517 30.4666C36.7517 25.3143 31.0411 20.5486 24.0063 20.5486C16.9715 20.5486 11.261 25.3161 11.261 30.4666C11.2656 31.7433 11.6125 32.9953 12.2654 34.0924C14.1894 32.5351 18.724 31.4403 23.9973 31.4403Z" fill="#93D2ED"/>
<path d="M23.9973 31.4747C29.2599 31.4747 33.7853 32.5586 35.7147 34.1068C36.367 33.0192 36.7158 31.7764 36.7246 30.5082C36.7246 25.3938 31.0213 20.6569 23.9973 20.6569C16.9734 20.6569 11.27 25.3956 11.27 30.5082C11.2749 31.776 11.6212 33.0191 12.2727 34.1068C14.2039 32.5604 18.7312 31.4747 23.9973 31.4747Z" fill="#9AD5EE"/>
<path d="M23.9955 31.5072C29.2526 31.5072 33.7709 32.5911 35.6967 34.1195C36.3473 33.0404 36.6954 31.8061 36.7048 30.5461C36.7048 25.4696 31.0086 20.7635 23.9955 20.7635C16.9824 20.7635 11.2864 25.4715 11.2864 30.5461C11.2907 31.8058 11.6365 33.0408 12.2872 34.1195C14.2166 32.5857 18.7384 31.5072 23.9955 31.5072Z" fill="#A0D7EF"/>
<path d="M23.9973 31.5379C29.2472 31.5379 33.7528 32.6092 35.6822 34.1321C36.3321 33.0627 36.6804 31.8372 36.6902 30.5858C36.6902 25.5455 31.0013 20.8701 23.9973 20.8701C16.9932 20.8701 11.3062 25.5491 11.3062 30.5858C11.3109 31.837 11.6569 33.0631 12.307 34.1321C14.231 32.6128 18.7474 31.5379 23.9973 31.5379Z" fill="#A7DAF0"/>
<path d="M23.9972 31.5758C29.2363 31.5758 33.7527 32.6381 35.6659 34.1502C36.3138 33.09 36.661 31.8735 36.6703 30.631C36.6703 25.6286 30.9886 20.9821 23.9954 20.9821C17.0022 20.9821 11.3206 25.6304 11.3206 30.631C11.3256 31.8734 11.6711 33.0905 12.3196 34.1502C14.2436 32.6381 18.7528 31.5758 23.9972 31.5758Z" fill="#AEDDF1"/>
<path d="M23.9974 31.6102C29.2365 31.6102 33.7312 32.6634 35.6497 34.1646C36.2968 33.1134 36.6441 31.9052 36.6542 30.6708C36.6542 25.7063 30.9816 21.0959 23.9974 21.0959C17.0132 21.0959 11.3406 25.7153 11.3406 30.6708C11.3451 31.9047 11.6895 33.1136 12.336 34.1646C14.2582 32.6652 18.7602 31.6102 23.9974 31.6102Z" fill="#B5DFF2"/>
<path d="M23.9974 31.6445C29.2256 31.6445 33.7167 32.6905 35.6335 34.1737C36.2793 33.1319 36.6262 31.9326 36.6362 30.7069C36.6362 25.7786 30.9708 21.1935 23.9902 21.1935C17.0096 21.1935 11.3442 25.7822 11.3442 30.7069C11.3495 31.9322 11.694 33.1322 12.3396 34.1737C14.2709 32.6905 18.7674 31.6445 23.9974 31.6445Z" fill="#BCE2F3"/>
<path d="M23.9972 31.677C29.22 31.677 33.7021 32.7158 35.6171 34.1936C36.2594 33.163 36.6056 31.9754 36.6179 30.7611C36.6179 25.8707 30.9615 21.3145 23.9972 21.3145C17.0329 21.3145 11.3711 25.8743 11.3711 30.7521C11.3781 31.9661 11.7221 33.1544 12.3647 34.1845C14.2851 32.7158 18.778 31.677 23.9972 31.677Z" fill="#C2E5F5"/>
<path d="M23.9991 31.7113C29.2128 31.7113 33.6913 32.7411 35.6027 34.208C36.2447 33.1847 36.5906 32.0034 36.6017 30.7954C36.6017 25.943 30.9526 21.4175 23.9991 21.4175C17.0456 21.4175 11.3965 25.9466 11.3965 30.7954C11.402 32.0032 11.7456 33.1854 12.3883 34.208C14.2978 32.7429 18.7835 31.7113 23.9991 31.7113Z" fill="#C9E8F6"/>
<path d="M23.999 31.7457C29.2073 31.7457 33.6786 32.7682 35.5863 34.2243C36.2278 33.21 36.5738 32.037 36.5854 30.837C36.5854 26.0207 30.9435 21.5259 24.0008 21.5259C17.0582 21.5259 11.4163 26.0243 11.4163 30.837C11.4219 32.0366 11.765 33.2104 12.4063 34.2243C14.3122 32.7682 18.7907 31.7457 23.999 31.7457Z" fill="#D0EBF7"/>
<path d="M23.9974 31.7872C29.1967 31.7872 33.6625 32.8007 35.5594 34.2459C36.1995 33.2412 36.545 32.077 36.5566 30.8857C36.5566 26.1074 30.922 21.6415 23.9902 21.6415C17.0584 21.6415 11.4219 26.111 11.4219 30.8857C11.4277 32.0766 11.7703 33.2415 12.4101 34.2459C14.3232 32.7935 18.7981 31.7872 23.9974 31.7872Z" fill="#D7EEF8"/>
<path d="M23.9972 31.8125C29.1911 31.8125 33.6479 32.8188 35.5592 34.2514C36.1975 33.2559 36.5425 32.1007 36.5547 30.9183C36.5547 26.1778 30.929 21.7427 24.0063 21.7427C17.0835 21.7427 11.4561 26.1814 11.4561 30.9183C11.4621 32.1004 11.8042 33.2564 12.4424 34.2514C14.3375 32.8188 18.8051 31.8125 23.9972 31.8125Z" fill="#DEF1F9"/>
<path d="M23.9991 31.8468C29.1858 31.8468 33.6371 32.8459 35.5358 34.2676C36.1726 33.2809 36.5172 32.1341 36.5295 30.9598C36.5295 26.2627 30.911 21.8511 23.9991 21.8511C17.0872 21.8511 11.4651 26.2609 11.4651 30.9598C11.471 32.1337 11.8127 33.2815 12.4497 34.2676C14.352 32.8386 18.8142 31.8468 23.9991 31.8468Z" fill="#E5F4FB"/>
<path d="M24.0044 31.8794C29.1839 31.8794 33.6281 32.8693 35.525 34.2803C36.1601 33.303 36.5041 32.1651 36.5167 30.9996C36.5167 26.3332 30.9055 21.9667 24.0044 21.9667C17.1034 21.9667 11.4885 26.3458 11.4885 30.9996C11.4942 32.1648 11.8354 33.3038 12.4713 34.2803C14.3646 32.8712 18.8214 31.8794 24.0044 31.8794Z" fill="#EDF7FC"/>
<path d="M23.9991 31.9137C29.1713 31.9137 33.61 32.8965 35.5033 34.2947C36.1367 33.3274 36.4802 32.1991 36.4933 31.0429C36.4933 26.4145 30.893 22.0697 23.9991 22.0697C17.1052 22.0697 11.5012 26.4199 11.5012 31.0429C11.5076 32.1988 11.8484 33.3281 12.4822 34.2947C14.3791 32.8965 18.8287 31.9137 23.9991 31.9137Z" fill="#F4FAFD"/>
<path d="M23.9973 31.9462C29.1623 31.9462 33.5937 32.9217 35.4852 34.3092C36.1183 33.3504 36.462 32.2297 36.4752 31.0809C36.4752 26.4886 30.8748 22.1745 23.999 22.1745C17.1232 22.1745 11.5193 26.494 11.5193 31.0809C11.5255 32.2292 11.8657 33.3509 12.4984 34.3092C14.3899 32.9217 18.8359 31.9462 23.9973 31.9462Z" fill="white"/>
</g>
<path d="M23.9955 27.3629C19.8448 27.3259 15.7203 28.0225 11.812 29.4206C12.8607 31.7752 14.5693 33.7754 16.7311 35.1791C18.8929 36.5828 21.4152 37.3298 23.9928 37.3298C26.5703 37.3298 29.0926 36.5828 31.2545 35.1791C33.4163 33.7754 35.1249 31.7752 36.1736 29.4206C32.2675 28.0213 28.1445 27.3247 23.9955 27.3629Z" fill="#0072C0"/>
</g>
<defs>
<clipPath id="clip0_17_15942">
<rect width="28" height="28.0018" fill="white" transform="translate(10 10)"/>
</clipPath>
</defs>
</svg>
