<svg width="48" height="48" viewBox="0 0 48 48" fill="none" xmlns="http://www.w3.org/2000/svg">
<g clip-path="url(#clip0_17_15943)">
<path d="M30.6659 24.3677L21.3419 18.0907L26.3259 14.808C26.8553 14.5855 27.2919 14.1874 27.5622 13.6807C27.8325 13.1741 27.9199 12.5897 27.8098 12.0261C27.6997 11.4625 27.3988 10.954 26.9578 10.5863C26.5167 10.2185 25.9624 10.014 25.3882 10.007C24.8528 10.0073 24.3324 10.1834 23.9069 10.5084L17.8041 14.479C17.1547 14.8388 16.6095 15.3605 16.2214 15.9934C15.8333 16.6263 15.6155 17.3488 15.5892 18.0907C15.5827 18.9724 15.8275 19.8378 16.2948 20.5855C16.7621 21.3332 17.4327 21.9323 18.2281 22.3129L31.352 30.9983C34.501 26.769 30.6659 24.3677 30.6659 24.3677Z" fill="#0473EA"/>
<path d="M31.514 33.3328C31.3795 33.2239 31.2338 33.1296 31.0795 33.0513L16.1753 23.4089C13.5364 27.0206 16.1753 29.2566 16.1753 29.2566L28.5814 37.3491L28.5972 37.3596L28.6148 37.3719C29.0157 37.6383 29.4864 37.7802 29.9677 37.7801C30.4816 37.7746 30.9814 37.6107 31.3988 37.3107C31.8162 37.0108 32.1309 36.5894 32.3 36.104C32.4691 35.6186 32.4843 35.0929 32.3437 34.5985C32.203 34.1042 31.9133 33.6652 31.514 33.3416V33.3328Z" fill="#38D200"/>
<path d="M29.7037 15.5451C29.0673 15.545 28.4552 15.7894 27.9938 16.2277L25.7068 18.0415L27.9938 19.8553C28.2898 20.1344 28.6496 20.3368 29.0419 20.4448C29.4341 20.5528 29.8469 20.5632 30.2441 20.4751C30.6413 20.3869 31.0108 20.2029 31.3205 19.9391C31.6302 19.6752 31.8706 19.3395 32.0208 18.9614C32.1709 18.5833 32.2262 18.1741 32.1819 17.7697C32.1375 17.3653 31.9949 16.9778 31.7663 16.6412C31.5378 16.3046 31.2303 16.0291 30.8708 15.8386C30.5113 15.6482 30.1106 15.5486 29.7037 15.5486V15.5451Z" fill="#38D200"/>
<path d="M17.4947 33.0126C18.1311 33.0125 18.7432 33.2569 19.2047 33.6952L21.4916 35.5089L19.2047 37.3227C18.9086 37.6018 18.5488 37.8042 18.1565 37.9122C17.7643 38.0203 17.3516 38.0307 16.9544 37.9425C16.5572 37.8543 16.1876 37.6703 15.8779 37.4065C15.5682 37.1426 15.3278 36.807 15.1777 36.4288C15.0275 36.0507 14.9722 35.6416 15.0166 35.2371C15.0609 34.8327 15.2036 34.4453 15.4321 34.1087C15.6606 33.7721 15.9681 33.4966 16.3276 33.3061C16.6871 33.1156 17.0878 33.0161 17.4947 33.0161V33.0126Z" fill="#0473EA"/>
</g>
<defs>
<clipPath id="clip0_17_15943">
<rect width="17.5924" height="28" fill="white" transform="translate(15 10)"/>
</clipPath>
</defs>
</svg>
