<svg width="48" height="48" viewBox="0 0 48 48" fill="none" xmlns="http://www.w3.org/2000/svg">
<g clip-path="url(#clip0_17_15945)">
<path d="M18.1445 29.5692L18.091 29.6227C17.7234 30.0318 17.277 30.3622 16.7784 30.5944C16.2799 30.8265 15.7396 30.9554 15.1899 30.9734C14.1932 30.938 13.2492 30.5172 12.5566 29.7996C11.8641 29.082 11.477 28.1235 11.477 27.1261C11.477 26.1288 11.8641 25.1704 12.5566 24.4528C13.2492 23.7352 14.1932 23.3143 15.1899 23.2789C15.7397 23.2968 16.2802 23.4259 16.7788 23.6583C17.2774 23.8908 17.7238 24.2218 18.091 24.6314L18.1445 24.6865L19.5294 23.0097L19.4937 22.9659C18.9911 22.3248 18.3472 21.8085 17.6122 21.4572C16.8772 21.1059 16.071 20.9291 15.2564 20.9405C13.6425 20.9062 12.0749 21.4805 10.8651 22.5492C9.66841 23.7725 8.99829 25.4158 8.99829 27.127C8.99829 28.8383 9.66841 30.4816 10.8651 31.7049C12.0738 32.7756 13.642 33.3506 15.2564 33.3151C16.071 33.3266 16.8772 33.1498 17.6122 32.7985C18.3472 32.4471 18.9911 31.9308 19.4937 31.2897L19.5294 31.2475L18.1445 29.5692Z" fill="#01357F"/>
<path d="M23.384 21.1335H20.9353V33.0881H23.384V21.1335Z" fill="#01357F"/>
<path d="M32.9742 30.4886C32.4372 30.8503 31.8113 31.0578 31.1645 31.0886C30.3732 31.0886 30.0164 30.6702 30.0164 29.741V23.3973H32.5104V21.1449H30.0229V17.4249L27.6213 18.7076V21.14H25.5488V23.3908H27.6229V30.14C27.5802 30.5267 27.618 30.9181 27.734 31.2894C27.8499 31.6608 28.0415 32.0041 28.2966 32.2978C28.5518 32.5915 28.865 32.8292 29.2165 32.9959C29.568 33.1626 29.9502 33.2547 30.3391 33.2665C31.1019 33.3024 31.8582 33.1111 32.5121 32.7168L32.5364 32.7005L33.125 30.3946L32.9742 30.4886Z" fill="#01357F"/>
<path d="M37.4595 21.1335H35.0093V33.0881H37.4595V21.1335Z" fill="#01357F"/>
<path d="M38.8866 19.0594C37.7902 17.497 36.3335 16.2216 34.64 15.3411C32.9464 14.4606 31.0657 14.0009 29.1569 14.0009C27.2481 14.0009 25.3674 14.4606 23.6738 15.3411C21.9803 16.2216 20.5236 17.497 19.4272 19.0594L19.312 19.2217H22.1288L22.1596 19.1876C23.0577 18.2327 24.1417 17.4718 25.345 16.9516C26.5482 16.4315 27.8452 16.1632 29.1561 16.1632C30.4669 16.1632 31.7639 16.4315 32.9672 16.9516C34.1704 17.4718 35.2545 18.2327 36.1526 19.1876L36.1866 19.2217H39.0002L38.8866 19.0594Z" fill="#E50020"/>
</g>
<defs>
<clipPath id="clip0_17_15945">
<rect width="30" height="19.3151" fill="white" transform="translate(9 14)"/>
</clipPath>
</defs>
</svg>
