<svg width="48" height="48" viewBox="0 0 48 48" fill="none" xmlns="http://www.w3.org/2000/svg">
<g clip-path="url(#clip0_15_9521)">
<path d="M23.9984 13C14.9595 13 9 17.7449 9 23.5989C9 29.453 14.9595 34.1946 23.9984 34.1946C33.0373 34.1946 39 29.4497 39 23.5989C39 17.7481 33.039 13 23.9984 13Z" fill="white"/>
<path d="M26.6758 27.5572C29.2525 27.1081 37.946 25.321 36.8758 20.3605C36.4526 19.2075 35.79 18.1573 34.9316 17.2788C34.0733 16.4003 33.0387 15.7135 31.8958 15.2637C29.3931 14.1863 26.6906 13.6507 23.966 13.6924C15.5742 13.6924 9.73633 18.1276 9.73633 23.5973C9.73633 27.4065 12.5709 30.7162 17.1261 32.3718C18.099 29.8275 21.9422 28.3778 26.6758 27.5572Z" fill="#006CBB"/>
<mask id="mask0_15_9521" style="mask-type:luminance" maskUnits="userSpaceOnUse" x="17" y="22" width="22" height="12">
<path d="M24.0179 29.3135C20.2541 29.7854 18.5271 31 17.4163 32.479C19.5266 33.1787 21.7379 33.5255 23.9611 33.5054C32.3562 33.5054 38.1924 29.0687 38.1924 23.5989C38.1929 23.1189 38.1473 22.6399 38.0563 22.1686C37.7773 28.5935 28.1335 28.8027 24.0179 29.3135Z" fill="white"/>
</mask>
<g mask="url(#mask0_15_9521)">
<path d="M38.1941 22.1686H17.4163V33.5038H38.1941V22.1686Z" fill="url(#paint0_linear_15_9521)"/>
</g>
<path d="M15.8611 18.4259H13.0476L13.08 18.5054C13.1919 18.9441 13.2292 19.3985 13.1903 19.8497C13.1903 19.968 13.1903 26.3491 13.1903 26.3491H13.247C13.2584 26.3491 14.5265 26.3945 15.733 26.3945C16.2958 26.4249 16.8587 26.3358 17.3846 26.1331C17.9105 25.9305 18.3876 25.6188 18.7845 25.2186C19.1813 24.8184 19.489 24.3386 19.6872 23.811C19.8854 23.2833 19.9697 22.7198 19.9346 22.1573C19.9473 21.6346 19.848 21.1152 19.6433 20.634C19.4386 20.1529 19.1333 19.7212 18.7478 19.3678C18.3624 19.0145 17.9058 18.7478 17.4087 18.5856C16.9117 18.4234 16.3856 18.3695 15.8659 18.4276M14.3967 19.1361C14.5589 19.1232 15.0568 19.0875 15.4135 19.0875C17.5638 19.0875 18.566 20.1286 18.566 22.3648C18.566 24.6773 17.6757 25.8027 15.8449 25.8027C14.5038 25.8027 14.3967 25.7377 14.3967 24.9432V19.1361Z" fill="white"/>
<path d="M27.4881 26.2973C27.4475 25.8319 27.4281 25.5173 27.4281 25.2417V22.4671H26.0919L26.134 22.553C26.2409 22.8229 26.2873 23.1129 26.2702 23.4027C26.2702 23.4221 26.2702 25.3308 26.2216 25.7832C25.882 25.8594 25.535 25.8968 25.187 25.8951C23.0659 25.8951 21.9908 24.6773 21.9908 22.2773C21.9462 21.4474 22.2303 20.6333 22.7814 20.0112C23.3325 19.389 24.1064 19.0089 24.9356 18.953C25.7738 18.8634 26.6141 19.1016 27.2805 19.6178L27.3778 19.7006V18.5784H27.3308C26.7289 18.4474 26.1158 18.3745 25.4999 18.361C22.4448 18.361 20.6221 19.9664 20.6221 22.66C20.611 23.2106 20.7184 23.7571 20.937 24.2626C21.1556 24.768 21.4802 25.2207 21.889 25.5897C22.2977 25.9588 22.781 26.2356 23.3061 26.4016C23.8312 26.5677 24.3858 26.6189 24.9324 26.5519C25.772 26.5557 26.6107 26.4949 27.4411 26.3703L27.4946 26.3606L27.4881 26.2973Z" fill="white"/>
<path d="M32.2541 21.9984C32.6747 21.8986 33.0502 21.6617 33.3212 21.3249C33.5922 20.9881 33.7434 20.5707 33.7508 20.1384C33.7508 19.0633 32.7779 18.4259 31.1563 18.4259H28.7498L28.766 18.4957C28.8221 18.8419 28.8454 19.1927 28.8357 19.5433V26.4189H28.8957C28.8957 26.4189 29.8411 26.3994 31.0038 26.3994C33.0276 26.3994 34.1887 25.5222 34.1887 23.9898C34.1445 23.486 33.9277 23.0129 33.5748 22.6506C33.222 22.2883 32.7549 22.0591 32.2525 22.0016M30.0406 22.3892H30.6616C32.0951 22.3892 32.8233 22.9519 32.8233 24.0627C32.8233 25.2335 32.1957 25.8043 30.9065 25.8043C30.2822 25.8043 30.0406 25.5773 30.0406 24.9935V22.3892ZM30.0406 19.0503H30.8271C32.0644 19.0503 32.593 19.4248 32.593 20.3021C32.593 21.3027 31.9444 21.7616 30.5481 21.7616H30.0341L30.0406 19.0503Z" fill="white"/>
</g>
<defs>
<linearGradient id="paint0_linear_15_9521" x1="17.4163" y1="32.665" x2="30.5644" y2="18.9032" gradientUnits="userSpaceOnUse">
<stop stop-color="#006CBB"/>
<stop offset="0.1" stop-color="#006CBB"/>
<stop offset="0.224" stop-color="#0072C1"/>
<stop offset="0.396" stop-color="#0084D2"/>
<stop offset="0.4" stop-color="#0085D3"/>
<stop offset="0.75" stop-color="#00A88B"/>
<stop offset="1" stop-color="#70B32F"/>
</linearGradient>
<clipPath id="clip0_15_9521">
<rect width="30" height="21.1946" fill="white" transform="translate(9 13)"/>
</clipPath>
</defs>
</svg>
