<svg width="48" height="48" viewBox="0 0 48 48" fill="none" xmlns="http://www.w3.org/2000/svg">
<path d="M37.4309 11.7319H10.9991V38H37.4309V11.7319Z" fill="#0080C8"/>
<path d="M10 10L16.9974 16.961L24.0017 10H10Z" fill="#0080C8"/>
<path d="M10 10V23.9151L16.9974 16.961L10 10Z" fill="#008AD1"/>
<path d="M24.0089 23.915L17.0097 16.954L10.0054 23.915H24.0089Z" fill="#0080C8"/>
<path d="M24 23.9134V10L17.0009 16.9541L24 23.9134Z" fill="#0071BF"/>
<path d="M24 10V23.9151L30.9974 16.961L24 10Z" fill="#005FAE"/>
<path d="M38.0001 23.915L31.0009 16.954L23.9983 23.915H38.0001Z" fill="#003C87"/>
<path d="M10 23.9115L16.9974 30.8726L24.0017 23.9115H10Z" fill="#0071BF"/>
<path d="M10 23.9115V37.8267L16.9974 30.8726L10 23.9115Z" fill="#005FAE"/>
<path d="M24.0088 37.8249L17.0097 30.8638L10 37.8249H24.0088Z" fill="#0055A5"/>
<path d="M24 37.8267V23.9115L17.0009 30.8656L24 37.8267Z" fill="#00428C"/>
<path d="M23.9983 23.9115L30.9957 30.8726L38 23.9115H23.9983Z" fill="#00266F"/>
<path d="M24 23.9115V37.8267L30.9974 30.8726L24 23.9115Z" fill="#003C87"/>
<path d="M38.0001 37.8249L31.0009 30.8638L23.9983 37.8249H38.0001Z" fill="#00266F"/>
<path d="M37.9999 37.8267V23.9115L31.0009 30.8656L37.9999 37.8267Z" fill="#00266F"/>
<path d="M23.9983 10L30.9957 16.961L38 10H23.9983Z" fill="#0055A5"/>
<path d="M37.9999 23.9134V10L31.0009 16.9541L37.9999 23.9134Z" fill="#00428C"/>
<path d="M38 27.3912L29.0344 18.9049L15.4291 32.4609L20.3929 37.3941L29.0273 28.9357L37.9929 37.7968L38 27.3912Z" fill="white"/>
</svg>
