<svg width="48" height="48" viewBox="0 0 48 48" fill="none" xmlns="http://www.w3.org/2000/svg">
<path d="M38.9461 20.7495H39.8224C39.8354 20.7499 39.8483 20.7477 39.8604 20.7431C39.8726 20.7385 39.8837 20.7316 39.8932 20.7227C39.9027 20.7138 39.9103 20.7031 39.9157 20.6913C39.921 20.6794 39.924 20.6666 39.9243 20.6536V19.0989C39.9244 19.0857 39.9217 19.0725 39.9166 19.0603C39.9114 19.0481 39.9038 19.037 39.8943 19.0278C39.8848 19.0186 39.8735 19.0114 39.8612 19.0066C39.8488 19.0018 39.8356 18.9996 39.8224 19H38.586C38.0655 18.916 37.5318 19.0006 37.0628 19.2414C36.5938 19.4821 36.214 19.8665 35.9788 20.3384L33.3036 26.5062C33.243 26.6804 33.1252 26.8288 32.9695 26.9276C32.8138 27.0264 32.6293 27.0696 32.4459 27.0502V19.0973C32.4457 19.0839 32.4429 19.0706 32.4374 19.0583C32.432 19.0459 32.4241 19.0349 32.4143 19.0256C32.4045 19.0164 32.393 19.0093 32.3804 19.0046C32.3677 18.9999 32.3543 18.9978 32.3408 18.9985H30.375C30.3617 18.9981 30.3484 19.0003 30.336 19.0051C30.3235 19.0098 30.3122 19.017 30.3025 19.0262C30.2929 19.0354 30.2852 19.0464 30.2798 19.0586C30.2745 19.0709 30.2717 19.084 30.2715 19.0973V28.6266C30.2731 28.6739 30.2933 28.7186 30.3278 28.751C30.3622 28.7835 30.4081 28.801 30.4554 28.7997H32.6592C34.081 28.7997 34.7316 28.3701 35.1628 27.4629L37.8025 21.3707C37.9 21.1588 38.0635 20.9841 38.2685 20.8727C38.4735 20.7613 38.709 20.7192 38.9399 20.7526" fill="#D92027"/>
<path d="M14.9144 23.8991C15.3517 23.7401 15.7272 23.4461 15.9864 23.0597C16.2456 22.6732 16.3752 22.2143 16.3563 21.7494C16.3563 20.037 14.7954 18.9985 12.9131 18.9985H7.10059C7.0874 18.9981 7.07427 19.0003 7.06192 19.0049C7.04957 19.0096 7.03829 19.0167 7.02867 19.0257C7.01905 19.0347 7.01131 19.0456 7.00589 19.0577C7.00047 19.0697 6.99747 19.0827 6.99707 19.0959V20.6537C6.99747 20.6668 7.00045 20.6798 7.00589 20.6917C7.01133 20.7037 7.01913 20.7144 7.02876 20.7233C7.0384 20.7322 7.04972 20.7392 7.06206 20.7437C7.0744 20.7482 7.08748 20.7501 7.10059 20.7495H12.5097C13.3829 20.7495 13.9733 21.2518 13.9733 21.8699C13.9733 22.4881 13.3829 22.992 12.5097 22.992H9.29672V21.8375C9.29632 21.8243 9.29332 21.8113 9.2879 21.7993C9.28248 21.7873 9.27473 21.7765 9.26512 21.7674C9.2555 21.7584 9.24417 21.7512 9.23182 21.7466C9.21947 21.7419 9.20634 21.7397 9.19315 21.7401H7.10059C7.0874 21.7397 7.07427 21.7419 7.06192 21.7466C7.04957 21.7512 7.03829 21.7584 7.02867 21.7674C7.01905 21.7765 7.01131 21.7873 7.00589 21.7993C7.00047 21.8113 6.99747 21.8243 6.99707 21.8375V28.7039C6.99727 28.7173 7.00013 28.7304 7.00547 28.7426C7.0108 28.7548 7.01847 28.7659 7.0281 28.7751C7.03774 28.7843 7.04914 28.7915 7.06159 28.7963C7.07404 28.8011 7.08727 28.8033 7.10059 28.8029H12.8296C14.9716 28.8029 16.5047 27.8617 16.5047 25.9453C16.501 25.4774 16.3431 25.0237 16.0557 24.6544C15.7682 24.2851 15.3671 24.0207 14.9144 23.9022M12.6241 27.0952H9.29978V24.7971H12.6241C13.5204 24.7971 14.1247 25.3133 14.1247 25.9453C14.1247 26.5774 13.5204 27.0952 12.6241 27.0952Z" fill="#D92027"/>
<path d="M40.9799 28.6884L37.6108 24.6301C37.6094 24.6271 37.6072 24.6246 37.6045 24.6228C37.6018 24.6211 37.5986 24.6202 37.5954 24.6202C37.5921 24.6202 37.5889 24.6211 37.5862 24.6228C37.5834 24.6246 37.5812 24.6271 37.5799 24.6301L36.6712 26.718C36.6675 26.7241 36.6655 26.731 36.6655 26.7381C36.6655 26.7452 36.6675 26.7521 36.6712 26.7582L38.1455 28.6128C38.1921 28.6731 38.2529 28.721 38.3224 28.7523C38.392 28.7835 38.4682 28.7972 38.5442 28.792H40.9181C40.9318 28.7938 40.9458 28.7913 40.958 28.7847C40.9702 28.7782 40.9801 28.7679 40.9863 28.7555C40.9924 28.743 40.9945 28.729 40.9922 28.7153C40.99 28.7016 40.9835 28.689 40.9737 28.6792" fill="#D92027"/>
<path d="M20.1998 21.7386H18.2308C18.2043 21.7381 18.1787 21.748 18.1593 21.7662C18.14 21.7844 18.1285 21.8094 18.1273 21.8359V28.7024C18.1275 28.7157 18.1303 28.7288 18.1357 28.741C18.141 28.7532 18.1487 28.7643 18.1584 28.7735C18.168 28.7827 18.1793 28.7899 18.1918 28.7947C18.2042 28.7995 18.2175 28.8017 18.2308 28.8013H20.1998C20.2131 28.8017 20.2263 28.7995 20.2388 28.7947C20.2512 28.7899 20.2626 28.7827 20.2723 28.7735C20.2819 28.7643 20.2896 28.7532 20.2949 28.741C20.3002 28.7288 20.3031 28.7157 20.3033 28.7024V21.8359C20.3021 21.8094 20.2906 21.7844 20.2713 21.7662C20.2519 21.748 20.2263 21.7381 20.1998 21.7386Z" fill="#D92027"/>
<path d="M28.2948 18.9999H26.3275C26.3011 18.9995 26.2756 19.0095 26.2565 19.0278C26.2374 19.046 26.2263 19.0709 26.2255 19.0973V27.0502C26.0423 27.0697 25.8579 27.0266 25.7023 26.9278C25.5468 26.8289 25.4295 26.6804 25.3693 26.5062L22.6926 20.3445C22.2629 19.4342 21.5088 19.0062 20.0854 19.0062H18.2308C18.2176 19.0058 18.2045 19.0079 18.1922 19.0126C18.1798 19.0173 18.1685 19.0243 18.1589 19.0333C18.1493 19.0424 18.1416 19.0533 18.1361 19.0653C18.1307 19.0773 18.1277 19.0903 18.1273 19.1035V20.6536C18.1277 20.6667 18.1307 20.6797 18.1361 20.6916C18.1416 20.7036 18.1494 20.7143 18.159 20.7232C18.1687 20.7321 18.1799 20.7391 18.1923 20.7436C18.2046 20.7481 18.2177 20.75 18.2308 20.7494H19.7299C19.9608 20.716 20.1964 20.7582 20.4014 20.8696C20.6063 20.981 20.7698 21.1556 20.8674 21.3676L23.5086 27.4598C23.9398 28.3669 24.5904 28.7966 26.0122 28.7966H28.2176C28.2645 28.7974 28.3098 28.7796 28.3436 28.7472C28.3775 28.7148 28.3972 28.6703 28.3984 28.6235V19.0927C28.398 19.0795 28.395 19.0665 28.3896 19.0545C28.3842 19.0424 28.3764 19.0316 28.3668 19.0226C28.3572 19.0135 28.3459 19.0064 28.3336 19.0017C28.3212 18.9971 28.308 18.9949 28.2948 18.9953" fill="#D92027"/>
</svg>
