<svg width="48" height="48" viewBox="0 0 48 48" fill="none" xmlns="http://www.w3.org/2000/svg">
<g clip-path="url(#clip0_17_15939)">
<mask id="mask0_17_15939" style="mask-type:luminance" maskUnits="userSpaceOnUse" x="9" y="19" width="14" height="18">
<path d="M9.33203 27.4298C9.33203 32.2298 13.2256 36.1298 18.032 36.1298C19.5703 36.1298 21.0129 35.7277 22.2703 35.0319V29.4149C21.5363 30.3787 20.3746 31.0043 19.0725 31.0043C16.8512 31.0043 15.0512 29.2043 15.0512 26.983C15.0512 25.9362 15.4597 24.9723 16.1171 24.2574C15.4214 22.9809 15.032 21.5255 15.032 19.9745C15.032 19.7383 15.0448 19.4957 15.0576 19.266C11.7193 20.4787 9.33203 23.683 9.33203 27.4426" fill="white"/>
</mask>
<g mask="url(#mask0_17_15939)">
<path d="M21.8797 17.041L6.44751 19.7621L9.72392 38.3435L25.1561 35.6224L21.8797 17.041Z" fill="url(#paint0_linear_17_15939)"/>
</g>
<mask id="mask1_17_15939" style="mask-type:luminance" maskUnits="userSpaceOnUse" x="15" y="11" width="18" height="14">
<path d="M15.0256 19.9617C15.0256 21.5128 15.4214 22.9681 16.1107 24.2447C16.8448 23.4468 17.898 22.9489 19.0661 22.9489C19.5193 22.9489 19.9533 23.0255 20.3618 23.166C19.9086 22.483 19.6469 21.6596 19.6469 20.7787C19.6469 18.3851 21.5873 16.4447 23.981 16.4447C25.7299 16.4447 27.2363 17.4787 27.9193 18.966C28.5639 18.8128 29.2405 18.7298 29.9363 18.7298C30.9831 18.7298 31.9852 18.9149 32.9107 19.2532C32.5469 14.6383 28.6852 11.0064 23.981 11.0064C19.0341 11.0064 15.0256 15.0213 15.0256 19.9617Z" fill="white"/>
</mask>
<g mask="url(#mask1_17_15939)">
<path d="M30.8246 5.25601L10.7732 12.5541L17.1217 29.9964L37.1731 22.6983L30.8246 5.25601Z" fill="url(#paint1_linear_17_15939)"/>
</g>
<mask id="mask2_17_15939" style="mask-type:luminance" maskUnits="userSpaceOnUse" x="25" y="18" width="14" height="19">
<path d="M27.9256 18.966C28.1809 19.5213 28.3214 20.134 28.3214 20.7787C28.3214 21.6596 28.0597 22.483 27.6065 23.166C28.015 23.0319 28.449 22.9553 28.9022 22.9553C31.1235 22.9553 32.9235 24.7553 32.9235 26.9766C32.9235 29.1979 31.1235 30.9979 28.9022 30.9979C27.6001 30.9979 26.4384 30.3787 25.7043 29.4149V35.0319C26.9618 35.7277 28.4043 36.1298 29.9426 36.1298C34.749 36.1298 38.6426 32.2362 38.6426 27.4298C38.6426 22.6234 34.749 18.7298 29.9426 18.7298C29.2469 18.7298 28.5767 18.8128 27.9256 18.966Z" fill="white"/>
</mask>
<g mask="url(#mask2_17_15939)">
<path d="M26.0897 16.5218L22.7246 35.6061L38.2448 38.3428L41.6098 19.2584L26.0897 16.5218Z" fill="url(#paint2_linear_17_15939)"/>
</g>
</g>
<defs>
<linearGradient id="paint0_linear_17_15939" x1="17.8206" y1="35.7523" x2="14.8133" y2="18.6971" gradientUnits="userSpaceOnUse">
<stop stop-color="#55C3F1"/>
<stop offset="0.15" stop-color="#55C3F1"/>
<stop offset="0.3" stop-color="#4FBDED"/>
<stop offset="0.5" stop-color="#40ACE2"/>
<stop offset="0.73" stop-color="#2691D1"/>
<stop offset="0.98" stop-color="#036BB9"/>
<stop offset="1" stop-color="#0068B7"/>
</linearGradient>
<linearGradient id="paint1_linear_17_15939" x1="14.4448" y1="20.5648" x2="31.2444" y2="14.4502" gradientUnits="userSpaceOnUse">
<stop stop-color="#55C3F1"/>
<stop offset="0.15" stop-color="#55C3F1"/>
<stop offset="0.3" stop-color="#4FBDED"/>
<stop offset="0.5" stop-color="#40ACE2"/>
<stop offset="0.73" stop-color="#2691D1"/>
<stop offset="0.98" stop-color="#036BB9"/>
<stop offset="1" stop-color="#0068B7"/>
</linearGradient>
<linearGradient id="paint2_linear_17_15939" x1="33.9953" y1="19.6178" x2="31.0188" y2="36.4988" gradientUnits="userSpaceOnUse">
<stop stop-color="#55C3F1"/>
<stop offset="0.15" stop-color="#55C3F1"/>
<stop offset="0.3" stop-color="#4FBDED"/>
<stop offset="0.5" stop-color="#40ACE2"/>
<stop offset="0.73" stop-color="#2691D1"/>
<stop offset="0.98" stop-color="#036BB9"/>
<stop offset="1" stop-color="#0068B7"/>
</linearGradient>
<clipPath id="clip0_17_15939">
<rect width="30" height="25.5319" fill="white" transform="translate(9 11)"/>
</clipPath>
</defs>
</svg>
