<svg width="48" height="48" viewBox="0 0 48 48" fill="none" xmlns="http://www.w3.org/2000/svg">
<g clip-path="url(#clip0_17_15941)">
<path d="M36.14 26.4466C35.5288 28.2454 34.2618 29.7476 32.5918 30.6533C34.4435 28.8483 35.6844 26.5094 36.1407 23.964C36.5971 21.4186 36.246 18.7943 35.1367 16.4583C34.1717 14.7567 35.4017 14.0117 35.4017 14.0117C32.59 14.7133 33.4701 17.025 33.4701 17.025C34.5749 19.4542 34.8034 22.1913 34.1167 24.77L33.1917 24.2534L33.2084 24.2317C33.801 21.7987 33.429 19.2307 32.1704 17.0658C30.9118 14.9009 28.8643 13.3071 26.4567 12.6183V10.9983H24.5684V21.65L33.345 26.63C33.1867 26.9533 33.0117 27.255 32.8451 27.5467L24.03 22.4633L15.1784 27.5467C15.0118 27.2567 14.8334 26.9533 14.6784 26.63L23.4351 21.65V11H21.5485V12.62C19.1412 13.3092 17.094 14.9031 15.8358 17.0679C14.5775 19.2328 14.2057 21.8005 14.7984 24.2333L14.8134 24.255L13.8867 24.7716C13.2 22.1927 13.4292 19.4555 14.5351 17.0267C14.5351 17.0267 15.4134 14.7133 12.6051 14.0133C12.6051 14.0133 13.8317 14.7583 12.8667 16.46C11.7578 18.7961 11.4072 21.4206 11.8638 23.9659C12.3205 26.5112 13.5616 28.85 15.4134 30.655C13.7431 29.7492 12.4755 28.2472 11.8634 26.4483C11.5895 25.9557 11.1617 25.5664 10.6454 25.34C10.1292 25.1137 9.55306 25.0628 9.00513 25.195L10.2667 27.005C11.0077 28.9034 12.2637 30.5573 13.8934 31.7807C15.5232 33.0041 17.462 33.7485 19.4918 33.93V37.2517H23.0884V32.36C20.5137 32.1921 18.1031 31.0375 16.3584 29.1367L17.2618 28.6117C19.1215 30.2737 21.4913 31.2535 23.9817 31.39H24.0251C26.5158 31.2528 28.8861 30.2731 30.7468 28.6117L31.6467 29.1367C29.902 31.0374 27.4914 32.1919 24.9168 32.36V37.2517H28.5201V33.93C30.5497 33.7487 32.4884 33.0044 34.1179 31.781C35.7475 30.5575 37.0031 28.9035 37.7434 27.005C37.8244 26.635 37.9777 26.2846 38.1945 25.9739C38.4113 25.6633 38.6873 25.3986 39.0068 25.195C38.4588 25.0628 37.8827 25.1137 37.3664 25.34C36.8502 25.5664 36.4223 25.9557 36.1484 26.4483M31.4601 23.2817H31.4501L26.5018 20.5233L26.4734 14.6267H26.5018C28.2632 15.1817 29.7512 16.3793 30.67 17.9814C31.5887 19.5835 31.8707 21.4727 31.4601 23.2733M21.5134 14.6267H21.5417L21.5134 20.5233L16.5601 23.2817C16.1493 21.4813 16.4312 19.5923 17.3495 17.9902C18.2679 16.3881 19.7556 15.1903 21.5167 14.635M28.9618 27.5867L28.9185 27.5633C27.56 28.7522 25.8161 29.4075 24.0109 29.4075C22.2057 29.4075 20.4618 28.7522 19.1034 27.5633L19.0601 27.5867L24.0234 24.7117L28.9601 27.5867H28.9618Z" fill="#004598"/>
</g>
<defs>
<clipPath id="clip0_17_15941">
<rect width="30" height="26.25" fill="white" transform="translate(9 11)"/>
</clipPath>
</defs>
</svg>
