<svg width="48" height="48" viewBox="0 0 48 48" fill="none" xmlns="http://www.w3.org/2000/svg">
<g clip-path="url(#clip0_17_15938)">
<path fill-rule="evenodd" clip-rule="evenodd" d="M23.6511 38.7188H27.2173L27.2142 33.9303C31.7405 33.4405 36 30.5916 36 26.1103C36 23.5611 34.8448 21.7922 33.7214 20.6735C34.6763 19.3482 34.9646 17.7236 34.951 16.6892C34.951 14.7397 34.2656 13.0241 32.9696 11.7359C30.3148 9.09209 26.0301 9 25.4488 9H25.4269L23.6511 9.00785V38.7188ZM31.3826 16.7269C31.3826 16.7269 31.6631 19.6187 28.5358 21.0748C28.5358 21.0748 30.4764 22.4776 31.2628 23.265C32.0267 24.0137 32.4505 25.0424 32.4369 26.1118C32.4369 27.5585 31.4303 28.5343 30.5853 29.0978C29.6503 29.721 28.4694 30.15 27.2173 30.3353V12.7714C27.7358 12.8718 28.2449 13.0173 28.7378 13.2072C31.1085 14.1411 31.3826 15.6491 31.3826 16.7049V16.7269ZM12 17.0874C12 14.476 12.8303 12.4119 14.4769 10.9516C16.0816 9.52688 18.9813 9.14074 21.306 9.08528V12.6259C19.6191 12.6453 17.6921 12.865 16.8382 13.63C15.9843 14.3949 15.5694 15.525 15.5694 17.0874C15.5694 18.8982 16.6394 19.8615 17.8281 20.7656C18.0625 20.944 18.265 21.0984 18.446 21.2668L18.5816 21.3929C19.5103 22.2447 21.6816 24.2408 21.6816 27.2582C21.6816 29.3118 20.6791 31.399 18.7097 33.4725H13.9249C15.2952 32.595 18.1107 29.7696 18.1107 27.2582C18.1107 25.8077 16.8517 24.6514 16.1703 24.0256L16.1653 24.0211L16.0084 23.8761C15.9814 23.8486 15.9096 23.7941 15.8299 23.7336C15.7749 23.6919 15.7161 23.6473 15.6657 23.6067L15.6645 23.6058C14.5677 22.7712 12 20.8176 12 17.0874Z" fill="url(#paint0_linear_17_15938)"/>
</g>
<defs>
<linearGradient id="paint0_linear_17_15938" x1="24" y1="9" x2="24" y2="38.7188" gradientUnits="userSpaceOnUse">
<stop stop-color="#B3D072"/>
<stop offset="1" stop-color="#0081A9"/>
</linearGradient>
<clipPath id="clip0_17_15938">
<rect width="24" height="29.7188" fill="white" transform="translate(12 9)"/>
</clipPath>
</defs>
</svg>
