<svg width="48" height="48" viewBox="0 0 48 48" fill="none" xmlns="http://www.w3.org/2000/svg">
<path d="M20.193 18.0056C19.5497 18.0056 18.649 18.028 17.5021 18.0727L16.0699 18.1231V18.5091H16.2769C16.8587 18.5091 17.2392 18.565 17.4126 18.6657C17.586 18.7664 17.6923 18.9455 17.7427 19.2084C17.793 19.4713 17.8322 20.0643 17.8322 20.9762V26.5706C17.8322 27.5273 17.793 28.1427 17.7427 28.4056C17.6923 28.6685 17.5804 28.8587 17.3958 28.9818C17.2056 29.1049 16.8531 29.1552 16.3664 29.1552H16.0699V29.5413H21.3343V29.1552H20.9483C20.4336 29.1552 20.0867 29.0993 19.9021 28.965C19.7175 28.8308 19.5944 28.6126 19.5552 28.3385C19.5105 28.0587 19.5049 27.4769 19.5049 26.5706V24.1594H20.7636C22.0727 24.1594 22.9902 24.0364 23.5105 23.7902C24.0308 23.5441 24.4224 23.186 24.6965 22.7049C24.9762 22.2294 25.1161 21.6699 25.1161 21.0434C25.1161 20.3273 24.9147 19.7343 24.5063 19.2587C24.0979 18.7888 23.572 18.4643 22.9343 18.2797C22.2965 18.0951 21.3902 18 20.2098 18L20.193 18.0056ZM9.37343 18.1287V18.5147H9.63636C10.2182 18.5147 10.5818 18.5706 10.7552 18.6713C10.9287 18.772 11.0517 18.951 11.1021 19.214C11.158 19.4769 11.1692 20.0699 11.1692 20.9818V24.8643C11.1692 26.1343 11.1357 27.0573 11.0462 27.6112C10.9566 28.165 10.6769 28.6406 10.2406 29.0434C9.8042 29.4518 9.26713 29.6531 8.63496 29.6531C8.32168 29.6531 8.05874 29.5972 7.84615 29.4965C7.63357 29.3958 7.53287 29.2559 7.53287 29.0769C7.53287 29.0098 7.56084 28.9147 7.62238 28.7804C7.68951 28.6294 7.72867 28.4839 7.72867 28.3441C7.72867 28.1091 7.65035 27.9133 7.48252 27.751C7.31469 27.5888 7.1021 27.5049 6.85594 27.5049C6.60979 27.5049 6.41399 27.6056 6.24615 27.7846C6.07832 27.9636 6 28.1818 6 28.4504C6 28.8923 6.23497 29.2671 6.6993 29.586C7.16364 29.9049 7.81259 30.0559 8.67413 30.0559C9.44056 30.0559 10.1231 29.9273 10.6993 29.6699C11.2811 29.4126 11.751 29.049 12.0979 28.5678C12.4448 28.0867 12.6517 27.5888 12.7245 27.0797C12.7972 26.5762 12.8308 25.8434 12.8308 24.8755V20.9762C12.8308 20.0252 12.8643 19.4266 12.9203 19.1748C12.9762 18.9231 13.0937 18.7441 13.2671 18.649C13.4406 18.5538 13.8098 18.5091 14.3692 18.5091H14.649V18.1287H9.37343ZM26.6434 18.1287V18.5147H26.9566C27.5385 18.5147 27.9021 18.5706 28.0755 18.6713C28.249 18.772 28.372 18.951 28.4224 19.214C28.4783 19.4769 28.4895 20.0699 28.4895 20.9818V25.9497C28.4895 26.8951 28.4727 27.5441 28.4 27.8909C28.3329 28.2378 28.1315 28.5455 27.8238 28.7804C27.5161 29.021 27.1245 29.1385 26.6378 29.1664V29.5524H30.7441V29.1664C30.2182 29.1329 29.8098 28.9986 29.5189 28.7469C29.228 28.4951 29.049 28.2042 28.993 27.8741C28.9371 27.5441 28.9035 26.9175 28.9035 26.0056V19.3147L33.4462 29.5413H33.8489L38.358 19.3147V26.5874C38.358 27.5441 38.3413 28.1427 38.2909 28.4056C38.2406 28.6685 38.1119 28.8587 37.9217 28.9818C37.7315 29.1049 37.3958 29.1552 36.9091 29.1552H36.5063V29.5413H41.9944V29.1552H41.4853C40.965 29.1552 40.6182 29.0993 40.4392 28.965C40.2545 28.8308 40.1371 28.6294 40.0923 28.3552C40.0476 28.0755 40.0252 27.4713 40.0252 26.5706V20.9762C40.0252 20.0252 40.0531 19.4266 40.1147 19.1748C40.1706 18.9231 40.2881 18.7441 40.4615 18.649C40.635 18.5594 41.0154 18.5091 41.5804 18.5091H42V18.1287H38.4699L34.3245 27.5888L30.1231 18.1287H26.6434ZM20.372 18.4084C21.4126 18.4084 22.1622 18.6322 22.6266 19.0741C23.0909 19.5161 23.3259 20.2098 23.3259 21.1552C23.3259 21.7762 23.1916 22.3077 22.9231 22.7273C22.6545 23.1469 22.3133 23.4154 21.9105 23.5497C21.5077 23.6839 20.9762 23.7622 20.3217 23.7622H19.4993V18.442C19.7007 18.4196 19.9916 18.4084 20.372 18.4084Z" fill="black"/>
</svg>
