<svg width="48" height="48" viewBox="0 0 48 48" fill="none" xmlns="http://www.w3.org/2000/svg">
<g clip-path="url(#clip0_17_15946)">
<path d="M26.6707 31.6256C26.6707 31.2406 26.9834 30.9278 27.3925 30.9278C27.8015 30.9278 28.1143 31.2406 28.1143 31.6256C28.1143 32.0105 27.8015 32.3474 27.3925 32.3474C26.9834 32.3474 26.6707 32.0346 26.6707 31.6256ZM26.815 31.6256C26.815 31.9383 27.0797 32.203 27.4165 32.203C27.7293 32.203 27.994 31.9624 27.994 31.6256C27.994 31.3128 27.7293 31.0722 27.4165 31.0722C27.0556 31.0722 26.815 31.3368 26.815 31.6256Z" fill="#E31837"/>
<path d="M27.7535 32.0346H27.6091L27.3685 31.6737H27.2242V32.0346H27.1279V31.2406H27.4888C27.561 31.2406 27.6332 31.2406 27.6813 31.2887C27.7535 31.3128 27.7776 31.385 27.7776 31.4571C27.7776 31.6015 27.6573 31.6737 27.5129 31.6737L27.7535 32.0346ZM27.3685 31.5774C27.4888 31.5774 27.6332 31.6015 27.6332 31.4571C27.6332 31.3609 27.537 31.3368 27.4407 31.3368H27.2242V31.5774H27.3685Z" fill="#E31837"/>
<path d="M23.9518 32.3474C29.0044 28.0165 36.1022 23.806 39.9999 22.2902C39.3984 21.9053 38.4601 21.3519 37.4014 20.7504C32.3729 22.4105 26.5022 26.0917 21.2571 30.2541C22.1473 30.9278 23.0857 31.6256 23.9518 32.3474Z" fill="#E31837"/>
<path d="M21.642 20.582C20.8962 20.2211 20.0781 19.8842 19.4526 19.5955C17.5518 20.5338 15.0736 21.9534 11.9458 24.191C12.6195 24.5519 13.3413 24.985 14.1112 25.418C16.5172 23.6376 18.9473 21.9534 21.642 20.582Z" fill="#012169"/>
<path d="M26.1413 18.5128C25.227 18.0075 22.0511 16.8286 19.8616 16.3233C19.212 16.5639 18.2977 16.9248 17.6721 17.1895C18.4661 17.406 21.4255 18.2 23.9518 19.4752C24.6014 19.1624 25.5157 18.7774 26.1413 18.5128Z" fill="#E31837"/>
<path d="M15.3865 18.2C12.5714 19.4992 9.61203 21.2797 8 22.3143C8.57744 22.5789 9.15489 22.7955 9.94887 23.1805C13.5098 20.7744 16.3008 19.3068 17.4075 18.8256C16.6135 18.5368 15.8677 18.3444 15.3865 18.2Z" fill="#012169"/>
<path d="M28.2586 17.7669C28.9083 17.5504 29.6541 17.3579 30.3037 17.1654C28.427 16.3714 26.0692 15.5293 23.9519 15C23.615 15.0962 22.6045 15.3609 21.9067 15.5774C22.6286 15.794 25.0105 16.3474 28.2586 17.7669ZM16.397 26.8135C17.1669 27.2707 17.9849 27.8962 18.7789 28.4256C24.0481 24.3353 29.2451 21.1835 34.9473 19.403C34.1534 18.994 33.4556 18.6331 32.5654 18.2C29.1489 19.0662 23.3022 21.4 16.397 26.8135Z" fill="#E31837"/>
</g>
<defs>
<clipPath id="clip0_17_15946">
<rect width="32" height="17.3474" fill="white" transform="translate(8 15)"/>
</clipPath>
</defs>
</svg>
