<svg width="48" height="48" viewBox="0 0 48 48" fill="none" xmlns="http://www.w3.org/2000/svg">
<path d="M29.7505 31.6222C29.7505 35.4919 28.5073 37.0317 26.2377 37.6763C26.1756 37.6941 26.1738 37.7598 26.2377 37.7776C26.8223 37.916 27.4218 37.9816 28.0225 37.9729C28.8454 37.9987 29.6643 37.8488 30.4248 37.5334C31.1853 37.2179 31.8698 36.744 32.4328 36.1433C32.9959 35.5426 33.4245 34.8289 33.6902 34.0497C33.9558 33.2704 34.0525 32.4435 33.9736 31.624V18.2442H29.7434L29.7505 31.6222Z" fill="#001C50"/>
<path d="M21.5154 24.4635C17.7451 22.0873 17.4201 21.622 17.4201 20.7962C17.4201 20.0201 18.2761 19.1144 20.8299 18.3543C20.9205 18.3276 20.9294 18.2478 20.8175 18.2424C16.9371 18.0329 14.2021 20.0183 14.2021 22.2454C14.2021 23.8668 14.7953 24.8737 18.6704 27.3156C22.4673 29.7078 22.8829 30.1571 22.8829 31.045C22.8829 32.1106 21.6539 33.1762 19.3843 33.8563C19.2902 33.8848 19.2813 33.9682 19.3967 33.9736C23.6199 34.2027 26.2341 32.0804 26.2341 29.8569C26.2323 28.3296 25.6355 27.0599 21.5154 24.4635Z" fill="#001C50"/>
<path d="M17.3258 30.3578C16.474 29.455 15.3265 28.8879 14.0919 28.7594C14.0802 28.7569 14.068 28.757 14.0563 28.7598C14.0447 28.7625 14.0337 28.7679 14.0244 28.7754C14.0159 28.7839 14.0093 28.7942 14.0053 28.8056C14.0013 28.817 14 28.8291 14.0013 28.8411C13.9723 30.0875 14.4208 31.2979 15.2552 32.2244C16.0895 33.1508 17.2464 33.7232 18.4891 33.8244C18.501 33.8275 18.5135 33.8275 18.5255 33.8246C18.5375 33.8216 18.5486 33.8158 18.5577 33.8075C18.5669 33.7992 18.5738 33.7888 18.578 33.7772C18.5821 33.7656 18.5833 33.7531 18.5814 33.7409C18.5813 32.4993 18.1358 31.2989 17.3258 30.3578Z" fill="#70B32F"/>
<path d="M24.8787 19.9704C24.0258 19.0682 22.8779 18.5012 21.643 18.3721C21.6311 18.3696 21.6189 18.3699 21.6072 18.373C21.5955 18.3761 21.5846 18.3819 21.5755 18.3899C21.5666 18.3982 21.5598 18.4084 21.5555 18.4198C21.5512 18.4312 21.5495 18.4434 21.5506 18.4555C21.5216 19.7021 21.9701 20.9127 22.8044 21.8394C23.6387 22.7662 24.7956 23.339 26.0384 23.4406C26.0502 23.4428 26.0622 23.4425 26.0738 23.4398C26.0855 23.437 26.0964 23.4318 26.1059 23.4246C26.1143 23.416 26.1208 23.4057 26.1248 23.3943C26.1288 23.383 26.1302 23.3709 26.129 23.3589C26.1316 22.1161 25.6879 20.9137 24.8787 19.9704Z" fill="#70B32F"/>
<path d="M32.4052 12.0142C31.3339 10.8786 29.891 10.1647 28.3383 10.0021C28.3234 9.99902 28.308 9.99933 28.2933 10.003C28.2785 10.0067 28.2648 10.0137 28.2531 10.0234C28.2424 10.034 28.2341 10.0468 28.2289 10.0609C28.2237 10.075 28.2217 10.0901 28.2229 10.1051C28.186 11.6728 28.75 13.1951 29.7993 14.3603C30.8486 15.5256 32.3039 16.2454 33.8668 16.3724C33.8817 16.3754 33.8971 16.3751 33.9118 16.3714C33.9266 16.3677 33.9403 16.3608 33.952 16.3511C33.9628 16.3401 33.971 16.327 33.9762 16.3126C33.9814 16.2982 33.9835 16.2829 33.9822 16.2676C33.9826 14.7067 33.4231 13.1975 32.4052 12.0142Z" fill="#70B32F"/>
</svg>
