<svg width="48" height="48" viewBox="0 0 48 48" fill="none" xmlns="http://www.w3.org/2000/svg">
<g clip-path="url(#clip0_17_17819)">
<path d="M8.04672 23.5672C7.98797 23.5989 7.98495 23.6486 8.03918 23.6862L12.9595 26.9343L14.3696 20.3057L8.04672 23.5672Z" fill="#DE040A"/>
<path d="M37.2868 20.3012H36.0424C35.9657 20.3043 35.8904 20.3227 35.8209 20.3553L29.587 23.5687C29.5282 23.5989 29.5252 23.6516 29.5779 23.6878L34.4169 26.871C34.4822 26.9099 34.5563 26.9317 34.6323 26.9343H35.8767C35.94 26.9343 35.9505 26.9072 35.8963 26.871L30.9579 23.623L37.3003 20.3569C37.3576 20.3252 37.3516 20.3012 37.2868 20.3012Z" fill="#DE040A"/>
<path d="M34.5947 20.3012H25.9276L24.519 26.9298H33.1846C33.2494 26.9298 33.2569 26.9027 33.2042 26.8665L28.2763 23.6185L34.6037 20.3524C34.6655 20.3253 34.6655 20.3012 34.5947 20.3012Z" fill="#DE040A"/>
<path d="M39.9487 20.3012H38.7043C38.6276 20.3039 38.5522 20.3223 38.4829 20.3553L32.2459 23.5687C32.2337 23.5731 32.2231 23.5812 32.2156 23.5919C32.2081 23.6025 32.2041 23.6153 32.2041 23.6283C32.2041 23.6413 32.2081 23.654 32.2156 23.6646C32.2231 23.6753 32.2337 23.6834 32.2459 23.6878L37.0743 26.8651C37.1392 26.9037 37.2127 26.9254 37.2882 26.9283H38.5326C38.5959 26.9283 38.6064 26.9012 38.5537 26.8651L33.6153 23.617L39.9578 20.3508C40.018 20.3252 40.0135 20.3012 39.9487 20.3012Z" fill="#DE040A"/>
<path d="M19.4296 23.6149L19.4255 23.617L19.4276 23.621L19.4316 23.619L19.4296 23.6149Z" fill="#DE040A"/>
<path d="M34.1276 16H13.7217C13.2366 15.9764 12.7586 16.1237 12.371 16.4163C11.9834 16.709 11.7107 17.1284 11.6006 17.6014C11.5502 17.826 11.5661 18.0604 11.6464 18.2762C11.7266 18.492 11.8677 18.6799 12.0525 18.8172L19.3847 23.6546H19.3923L34.1411 16.0527C34.1984 16.0255 34.1939 16 34.1276 16Z" fill="#DE040A"/>
<path d="M30.8916 31.1737L19.3923 23.5793L10.0022 28.4212C9.76575 28.5467 9.55754 28.7194 9.39041 28.9285C9.22328 29.1376 9.1008 29.3787 9.03051 29.637C8.8422 30.5213 9.33178 31.2385 10.4737 31.2385H30.8796C30.9368 31.2355 30.9458 31.2098 30.8916 31.1737Z" fill="#DE040A"/>
</g>
<defs>
<clipPath id="clip0_17_17819">
<rect width="32" height="15.2385" fill="white" transform="translate(8 16)"/>
</clipPath>
</defs>
</svg>
