<svg width="48" height="48" viewBox="0 0 48 48" fill="none" xmlns="http://www.w3.org/2000/svg">
<path d="M28.9574 27.1386C28.884 26.7052 28.7556 26.2827 28.5751 25.8813C28.0622 24.678 27.1801 23.6651 26.0539 22.986C25.1685 22.4658 24.1568 22.1941 23.1274 22.2001C22.098 22.2061 21.0897 22.4896 20.2105 23.0201C19.3889 23.5109 18.7211 24.2183 18.2818 25.0632C18.1389 25.3524 18.0181 25.6518 17.9205 25.9589C17.6526 26.7576 17.5497 27.6016 17.618 28.4406C17.6863 29.2796 17.9244 30.0965 18.3181 30.8424C18.5921 31.2993 19.0068 31.657 19.5013 31.863C19.7479 31.9622 20.0143 32.0034 20.2796 31.9834C20.545 31.9633 20.802 31.8826 21.0305 31.7475C21.2867 31.5524 21.4782 31.2859 21.5803 30.9823C21.6825 30.6786 21.6907 30.3516 21.604 30.0433C21.4057 29.2651 21.4256 28.448 21.6613 27.6801C21.7503 27.4278 21.8939 27.1978 22.0818 27.006C22.2041 26.8958 22.3411 26.8028 22.489 26.7296C22.8008 26.5748 23.1531 26.5186 23.4982 26.5686C23.7946 26.6338 24.0715 26.767 24.3065 26.9574C24.5415 27.1478 24.7282 27.3901 24.8516 27.665C25.0926 28.2181 25.2174 28.814 25.2185 29.4165C25.2265 32.071 24.8289 34.7116 24.0392 37.2482C23.9722 37.5058 23.8996 37.7633 23.827 38.0189C23.7696 38.2082 23.6664 38.4715 23.7926 38.6628C23.8518 38.7439 23.9335 38.8064 24.0277 38.8426C24.41 38.9979 24.7388 38.7612 25.0007 38.498C26.4961 36.9118 27.5971 35.0016 28.2158 32.9196C28.4759 32.1582 28.6828 31.38 28.835 30.5905C29.0734 29.4506 29.1141 28.2788 28.9555 27.1253" fill="#00857E"/>
<path d="M40.0001 15.0331C39.997 14.9435 39.9756 14.8556 39.9372 14.7745C39.8988 14.6934 39.8441 14.621 39.7766 14.5615C39.709 14.502 39.6299 14.4567 39.5441 14.4284C39.4583 14.4001 39.3676 14.3893 39.2775 14.3968C38.8994 14.4515 38.5327 14.5666 38.1918 14.7377C31.2726 17.1993 23.8392 17.8954 16.5769 16.7619C15.3516 16.5896 14.1091 16.3434 12.8781 16.1522C12.1135 16.0329 11.349 15.8624 10.5672 15.8C9.87022 15.6638 9.1471 15.7995 8.54867 16.1787C8.2404 16.5142 8.04894 16.9388 8.00249 17.3901C7.95604 17.8414 8.05703 18.2956 8.2906 18.6858C8.81715 19.5741 9.57765 20.3039 10.4907 20.7971C11.3342 21.3948 12.3367 21.7333 13.3732 21.7704C16.1092 21.5999 18.8368 21.3386 21.5562 20.9864C26.2849 20.6056 30.943 19.6144 35.4125 18.0381C36.8589 17.4723 38.2209 16.7142 39.461 15.7848C39.6847 15.6201 40.0001 15.3474 40.0001 15.0274" fill="#00857E"/>
<path d="M20.5125 12.721C20.5125 13.4241 20.7944 14.0984 21.2963 14.5956C21.7982 15.0927 22.4788 15.372 23.1886 15.372C23.8983 15.372 24.579 15.0927 25.0809 14.5956C25.5827 14.0984 25.8646 13.4241 25.8646 12.721C25.8638 12.5016 25.8142 12.285 25.7194 12.0867C25.49 11.6039 25.2339 11.369 25.2568 10.7915C25.2912 10.0113 24.2819 9.99998 23.7391 9.99998C23.135 9.98163 22.5347 10.1009 21.9843 10.3484C21.5576 10.5635 21.1957 10.8861 20.935 11.2838C20.6694 11.6943 20.5232 12.1693 20.5125 12.6567C20.5111 12.6781 20.5111 12.6996 20.5125 12.721Z" fill="#E4003F"/>
</svg>
