<svg width="48" height="48" viewBox="0 0 48 48" fill="none" xmlns="http://www.w3.org/2000/svg">
<g clip-path="url(#clip0_15_9849)">
<path d="M23.3299 9.15049C20.3928 9.28318 17.561 10.2839 15.1926 12.026C12.8243 13.7681 11.0257 16.1734 10.0244 18.9377C9.02309 21.702 8.864 24.7012 9.56725 27.5559C10.2705 30.4107 11.8045 32.9928 13.9753 34.9757C16.146 36.9586 18.8561 38.2532 21.7626 38.6959C24.6692 39.1386 27.6418 38.7094 30.3044 37.4626C32.967 36.2158 35.2002 34.2075 36.7214 31.6915C38.2426 29.1755 38.9835 26.265 38.8505 23.3279C38.7627 21.3778 38.2916 19.464 37.464 17.696C36.6364 15.928 35.4686 14.3404 34.0273 13.0238C32.586 11.7072 30.8994 10.6875 29.0639 10.0229C27.2284 9.35835 25.28 9.06188 23.3299 9.15049Z" fill="url(#paint0_radial_15_9849)"/>
<path d="M23.324 9.01563C20.3602 9.14929 17.5026 10.1588 15.1126 11.9166C12.7226 13.6744 10.9075 16.1014 9.89687 18.8908C8.88625 21.6801 8.72549 24.7066 9.43492 27.5873C10.1444 30.468 11.6921 33.0737 13.8825 35.0747C16.0728 37.0758 18.8074 38.3824 21.7403 38.8293C24.6733 39.2761 27.6729 38.8432 30.3598 37.5853C33.0467 36.3274 35.3003 34.3009 36.8354 31.7622C38.3706 29.2235 39.1185 26.2865 38.9844 23.3227C38.8045 19.349 37.0535 15.6095 34.1167 12.9267C31.1799 10.2439 27.2977 8.83738 23.324 9.0166V9.01563ZM25.0809 23.5705C27.7465 26.0281 29.2083 27.3529 29.2083 27.3529C33.9072 31.266 32.3051 34.8432 30.507 36.0887C29.061 37.0509 27.3664 37.572 25.6296 37.5887C25.5692 37.5986 25.5075 37.5961 25.4481 37.5815C25.3887 37.5668 25.3329 37.5402 25.2841 37.5033C25.2353 37.4665 25.1945 37.4201 25.1641 37.367C25.1337 37.3138 25.1145 37.2551 25.1075 37.1944C25.0954 36.8556 25.5914 36.7685 25.5914 36.7685C30.0285 35.8976 28.7317 32.9876 27.1611 31.5026C26.5035 30.8784 20.324 25.551 20.324 25.551C14.4367 20.479 14.908 16.521 14.908 16.521C15.1915 11.6513 19.4564 10.4435 22.6838 10.7203C23.0632 10.7542 23.2717 10.985 23.2035 11.301C23.1324 11.644 22.6335 11.6692 22.6335 11.6692C21.6053 11.7297 20.6893 11.8337 19.9896 12.3045C17.3893 14.0532 18.1577 17.029 21.6256 20.3402C22.0611 20.7587 22.5241 21.1961 22.9993 21.6422C22.9978 21.6393 23.6951 22.2514 25.0809 23.571V23.5705ZM23.0665 36.1608C23.0941 36.6364 21.9386 36.8435 20.6206 36.7139C18.6498 36.569 16.7744 35.8085 15.2593 34.5398C13.8016 33.2233 12.7464 31.5211 12.2157 29.63C11.7285 27.9364 11.5228 25.9526 12.3294 26.1098C12.5772 26.1582 13.0069 27.2474 13.4704 28.041C13.7787 28.6331 14.2 29.1592 14.7106 29.5893C14.878 29.7147 15.4436 28.4561 16.2638 27.7414C16.7438 27.3471 17.2673 27.2126 17.3501 28.3903C17.4546 29.8356 17.1948 31.5529 17.6143 31.5529C18.0086 31.5529 18.8994 31.2558 20.8528 31.0898C21.5854 31.0274 22.0035 31.1663 21.3033 32.1543C20.7922 32.9295 20.1395 33.6014 19.3794 34.1348C21.0396 35.6885 23.0317 35.5027 23.066 36.1613L23.0665 36.1608ZM24.373 21.0456C24.236 20.4266 24.2176 19.7873 24.3188 19.1614C24.5273 17.5255 24.9677 16.7542 25.4685 15.4869C26.1459 13.7827 24.5007 12.7835 24.7722 12.1574C25.1457 11.3072 26.3206 12.3877 27.6319 12.4661C28.7622 12.5295 29.4425 12.4734 30.3212 12.5905C31.4888 12.7443 32.8857 13.1401 33.5056 13.8708C34.0741 14.5385 33.2046 15.3529 32.1575 14.8419C31.3925 14.4698 30.4277 14.6968 30.9933 15.4966C31.4123 16.0276 32.0231 16.3727 32.6941 16.4576C34.6049 16.9613 34.6432 18.7908 33.3517 19.7373C31.8788 20.8129 30.3919 20.3697 29.7938 18.2566C29.4928 17.2032 28.7491 16.6661 27.9865 16.9652C27.224 17.2642 27.6773 18.6514 28.2541 19.9371C29.4096 22.881 26.5403 22.7832 26.2064 22.7435C25.7742 22.657 25.3744 22.4526 25.0512 22.1529C24.7279 21.8533 24.4939 21.47 24.3749 21.0456H24.373Z" fill="url(#paint1_radial_15_9849)"/>
</g>
<defs>
<radialGradient id="paint0_radial_15_9849" cx="0" cy="0" r="1" gradientUnits="userSpaceOnUse" gradientTransform="translate(27.1843 20.4029) scale(14.1217 14.1218)">
<stop stop-color="white"/>
<stop offset="1" stop-color="#C8883C"/>
</radialGradient>
<radialGradient id="paint1_radial_15_9849" cx="0" cy="0" r="1" gradientUnits="userSpaceOnUse" gradientTransform="translate(26.4631 20.191) scale(31.41 31.409)">
<stop stop-color="#00B5F1"/>
<stop offset="0.219" stop-color="#0087CE"/>
<stop offset="0.284" stop-color="#0074BF"/>
<stop offset="0.371" stop-color="#0063B0"/>
<stop offset="0.465" stop-color="#0058A7"/>
<stop offset="0.573" stop-color="#0055A5"/>
</radialGradient>
<clipPath id="clip0_15_9849">
<rect width="30" height="30" fill="white" transform="translate(9 9)"/>
</clipPath>
</defs>
</svg>
