<svg width="48" height="48" viewBox="0 0 48 48" fill="none" xmlns="http://www.w3.org/2000/svg">
<g clip-path="url(#clip0_15_9552)">
<path d="M13.3229 19.0291H11.155L7.73104 23.0145V19.0291H6V27.7237H7.73104V23.7282L11.268 27.7237H13.436L9.58781 23.3764L13.3229 19.0291Z" fill="#140064"/>
<path d="M42 27.7237L39.4003 24.7163L41.9225 21.7089H40.0556L37.8572 24.3124V19.0291H36.1274V27.7237H37.8572V25.1151L40.0975 27.7237H42Z" fill="#140064"/>
<path d="M17.5838 21.498C16.856 21.498 16.235 21.8105 15.7244 22.2423V19.0291H13.9934V24.7557C13.9934 26.4791 15.1339 27.9231 17.2802 27.9231C19.2094 27.9231 20.567 26.5908 20.567 24.7226C20.567 22.9548 19.3999 21.4968 17.5838 21.4968V21.498ZM17.2802 26.3571C16.3861 26.3571 15.6597 25.6447 15.6355 24.7569C15.6355 24.7417 15.6355 24.7264 15.6355 24.7112C15.6355 24.5232 15.6673 24.3429 15.7257 24.1753C15.948 23.5301 16.5601 23.0653 17.2815 23.0653C18.1908 23.0653 18.9274 23.8019 18.9274 24.7112C18.9274 25.6205 18.1908 26.3571 17.2815 26.3571H17.2802Z" fill="#140064"/>
<path d="M32.8012 21.4981C31.9668 21.4981 31.314 21.8054 30.8048 22.2613V21.6873H29.0737V27.7275H30.8048V24.3404C30.8048 23.6355 31.3763 23.064 32.0811 23.064C32.786 23.064 33.3575 23.6355 33.3575 24.3404V27.7275H35.0987V23.8577C35.0987 23.8349 35.0987 23.8108 35.0987 23.7879C35.0987 22.5166 34.0446 21.4981 32.8 21.4981H32.8012Z" fill="#140064"/>
<path d="M24.7086 21.5019C22.7579 21.5019 21.3862 22.8341 21.3862 24.7023C21.3862 26.4702 22.5673 27.9282 24.4025 27.9282C25.228 27.9282 26.0193 27.4875 26.4676 26.8918V27.7275H28.0322V24.7036H28.0183C28.0272 24.682 28.0322 24.6693 28.0322 24.6693C28.0322 22.9459 26.8791 21.5019 24.7099 21.5019H24.7086ZM24.7454 26.347C23.8361 26.347 23.0995 25.6104 23.0995 24.701C23.0995 23.7917 23.8361 23.0551 24.7454 23.0551C25.6548 23.0551 26.3914 23.7917 26.3914 24.701C26.3914 25.6104 25.6548 26.347 24.7454 26.347Z" fill="#140064"/>
</g>
<defs>
<clipPath id="clip0_15_9552">
<rect width="36" height="9" fill="white" transform="translate(6 19)"/>
</clipPath>
</defs>
</svg>
