<svg width="48" height="48" viewBox="0 0 48 48" fill="none" xmlns="http://www.w3.org/2000/svg">
<path d="M32.7426 28.5964C32.5377 26.9981 31.7414 25.5344 30.511 24.4941C30.3251 24.3392 30.1316 24.1844 29.9132 24.0047C30.0944 23.8685 30.2462 23.7632 30.3871 23.6455C31.2731 22.9087 31.9568 21.9584 32.3739 20.8843C32.8042 19.7567 32.9117 18.5316 32.6844 17.3463C32.4571 16.1611 31.9039 15.0626 31.0871 14.1742C30.4455 13.4564 29.652 12.8909 28.7642 12.5188C27.9024 12.1687 26.9796 11.9934 26.0495 12.0031H15.6336C15.5614 11.999 15.4889 11.999 15.4167 12.0031C15.3021 12.0087 15.1943 12.0591 15.1164 12.1433C15.0386 12.2276 14.9968 12.339 15.0002 12.4537C15.0002 12.5265 15.0002 12.5993 15.0002 12.6706C15.0002 20.2071 15.0002 27.741 15.0002 35.2723C15.0002 35.3854 15.0002 35.5 15.0002 35.6131C15.005 35.7063 15.0421 35.795 15.1051 35.8639C15.1681 35.9329 15.2531 35.9777 15.3456 35.9909C15.417 35.9993 15.4889 36.0019 15.5608 35.9986H26.3515C27.4396 36.0029 28.509 35.7158 29.4487 35.1671C30.7919 34.4077 31.8273 33.2025 32.3755 31.7601C32.7695 30.755 32.8959 29.665 32.7426 28.5964ZM24.4529 29.4093H22.5062V18.6218H24.4312H24.4529V29.4093Z" fill="#1E1719"/>
</svg>
