<svg width="48" height="48" viewBox="0 0 48 48" fill="none" xmlns="http://www.w3.org/2000/svg">
<g clip-path="url(#clip0_4608_41131)">
<path d="M9 24.4094C9 24.2965 9.0445 24.1882 9.12382 24.1084C9.20315 24.0285 9.31082 23.9836 9.42301 23.9836H17.2158C17.2706 23.9836 17.3249 23.9947 17.3753 24.0163C17.4257 24.0379 17.4714 24.0695 17.5093 24.1093C17.5473 24.149 17.5769 24.1961 17.5963 24.2477C17.6158 24.2993 17.6247 24.3543 17.6225 24.4094C17.6379 24.4629 17.6379 24.5197 17.6225 24.5732L13.7831 34.1692C13.7493 34.2456 13.6946 34.3107 13.6255 34.3571C13.5564 34.4035 13.4757 34.4292 13.3926 34.4312C13.2849 34.4278 13.1815 34.3874 13.0997 34.3166C10.6039 31.6471 9.15829 28.1548 9.03247 24.4913L9 24.4094Z" fill="url(#paint0_linear_4608_41131)"/>
<path d="M17.2646 36.9366L21.8851 25.3755C22.044 24.9604 22.3194 24.6007 22.6779 24.3404C23.0363 24.0801 23.4623 23.9305 23.9038 23.9096C24.3453 23.8888 24.7833 23.9977 25.1644 24.2231C25.5455 24.4485 25.8531 24.7806 26.0499 25.179L30.9306 36.8711C30.9397 36.9253 30.9397 36.9807 30.9306 37.0349C30.9294 37.1064 30.9111 37.1765 30.8771 37.2392C30.8431 37.3019 30.7944 37.3555 30.7354 37.3952C28.6725 38.4343 26.4041 38.9939 24.0976 39.0327C21.7969 39.0571 19.5229 38.5353 17.46 37.5098C17.3938 37.4752 17.3379 37.4237 17.2979 37.3605C17.2579 37.2972 17.2353 37.2244 17.2322 37.1495C17.2231 37.0953 17.2231 37.04 17.2322 36.9858L17.2646 36.9366Z" fill="url(#paint1_linear_4608_41131)"/>
<path d="M30.3936 24.4258C30.3874 24.3714 30.3874 24.3165 30.3936 24.2621C30.3936 24.1491 30.4382 24.0408 30.5175 23.961C30.5968 23.8812 30.7044 23.8363 30.8166 23.8363H38.6095C38.7173 23.8363 38.8208 23.8794 38.897 23.9562C38.9733 24.033 39.0162 24.1371 39.0162 24.2457C38.9289 27.8926 37.5299 31.3837 35.079 34.071C34.9925 34.1468 34.8842 34.1927 34.7699 34.202C34.6869 34.2 34.6062 34.1743 34.5371 34.1279C34.4679 34.0815 34.4133 34.0164 34.3795 33.94L30.4098 24.3931L30.3936 24.4258Z" fill="url(#paint2_linear_4608_41131)"/>
<path d="M37.78 19.4803H28.6369C28.562 19.4785 28.4894 19.4541 28.4285 19.4103C28.3676 19.3665 28.3212 19.3053 28.2952 19.2347L27.563 17.4661C26.6117 15.1202 26.1094 12.6144 26.0826 10.0808V9.42574C26.0803 9.36921 26.0897 9.31281 26.1101 9.26011C26.1306 9.20741 26.1616 9.15954 26.2014 9.11954C26.2411 9.07953 26.2886 9.04825 26.341 9.02767C26.3933 9.00709 26.4495 8.99767 26.5056 8.99998C29.1511 9.45531 31.627 10.616 33.6756 12.3613C35.7243 14.1065 37.2708 16.3726 38.1542 18.9236C38.1634 18.9667 38.1634 19.0114 38.1542 19.0546C38.1549 19.1595 38.1171 19.2609 38.048 19.3395C37.979 19.4181 37.8835 19.4682 37.78 19.4803Z" fill="url(#paint3_linear_4608_41131)"/>
<path d="M20.3883 17.5645L19.6725 19.3494C19.6473 19.4113 19.6074 19.4661 19.5564 19.5089C19.5053 19.5517 19.4447 19.5813 19.3796 19.595H10.2365C10.1243 19.595 10.0166 19.5502 9.9373 19.4703C9.85797 19.3905 9.81348 19.2822 9.81348 19.1693C9.81348 19.1693 9.81348 19.1693 9.81348 19.0383C10.6665 16.4765 12.184 14.1906 14.2091 12.4171C16.2342 10.6436 18.6932 9.44695 21.3318 8.95093C21.4413 8.95085 21.5465 8.99345 21.6254 9.06979C21.7042 9.14613 21.7506 9.25026 21.7549 9.36032V10.2446C21.7435 12.7477 21.2805 15.228 20.3883 17.5645Z" fill="url(#paint4_linear_4608_41131)"/>
</g>
<defs>
<linearGradient id="paint0_linear_4608_41131" x1="15.7908" y1="6.84713" x2="16.0893" y2="36.5032" gradientUnits="userSpaceOnUse">
<stop stop-color="#034EA2"/>
<stop offset="1" stop-color="#00AEEF"/>
</linearGradient>
<linearGradient id="paint1_linear_4608_41131" x1="26.4796" y1="6.73948" x2="26.7781" y2="36.3956" gradientUnits="userSpaceOnUse">
<stop stop-color="#034EA2"/>
<stop offset="1" stop-color="#00AEEF"/>
</linearGradient>
<linearGradient id="paint2_linear_4608_41131" x1="37.1682" y1="6.63201" x2="37.4667" y2="36.2881" gradientUnits="userSpaceOnUse">
<stop stop-color="#034EA2"/>
<stop offset="1" stop-color="#00AEEF"/>
</linearGradient>
<linearGradient id="paint3_linear_4608_41131" x1="34.663" y1="6.65713" x2="34.9612" y2="36.2804" gradientUnits="userSpaceOnUse">
<stop stop-color="#034EA2"/>
<stop offset="1" stop-color="#00AEEF"/>
</linearGradient>
<linearGradient id="paint4_linear_4608_41131" x1="18.2962" y1="6.82194" x2="18.5946" y2="36.4616" gradientUnits="userSpaceOnUse">
<stop stop-color="#034EA2"/>
<stop offset="1" stop-color="#00AEEF"/>
</linearGradient>
<clipPath id="clip0_4608_41131">
<rect width="30" height="30" fill="white" transform="translate(9 9)"/>
</clipPath>
</defs>
</svg>
