<svg width="48" height="48" viewBox="0 0 48 48" fill="none" xmlns="http://www.w3.org/2000/svg">
<g clip-path="url(#clip0_4608_41056)">
<path d="M11.9609 15C11.8928 15.4699 10.9655 22.1356 10.8809 22.7589H12.9545C13.0189 22.2891 13.9481 15.6215 14.0365 15H11.9609Z" fill="#003368"/>
<path d="M28.9331 15C28.8687 15.4699 27.9395 22.1356 27.853 22.7589H32.7198C32.7658 22.4179 32.8891 21.5179 32.9517 21.084H30.0077L30.2064 19.6497H32.8799C32.9259 19.3181 33.04 18.5128 33.0989 18.0865H30.4235L30.6222 16.6731H33.4908C33.5405 16.3339 33.6637 15.4339 33.7263 15.0019L28.9331 15Z" fill="#003368"/>
<path d="M5.84666 19.4451C5.84666 19.4451 7.58178 15.3562 7.71794 15H10.3289C10.3289 15.5438 9.98114 22.2 9.98666 22.7589H8.10803L8.419 17.3249C8.419 17.3249 6.30482 22.4103 6.16314 22.7589H4.67828L4.01034 17.3249C3.9625 17.5712 3.25779 21.1996 2.87323 22.7589H1.00195C1.19699 22.0674 2.62853 15.3979 2.74077 15H5.25788L5.84666 19.4451Z" fill="#003368"/>
<path d="M25.2917 21.1883C25.2917 21.1883 25.4278 22.452 25.4757 22.7589H27.4647C27.3543 22.1204 26.2687 15.4547 26.1878 15H23.6706C23.5253 15.324 20.6512 21.9954 20.3108 22.7589H22.3348C22.4434 22.4975 22.9549 21.1883 22.9549 21.1883H25.2917ZM23.5161 19.5853L24.7047 16.7072L25.0929 19.5853H23.5161Z" fill="#003368"/>
<path d="M16.9236 16.4552H17.3854C17.5458 16.4357 17.7083 16.452 17.862 16.503C18.0157 16.554 18.1569 16.6385 18.276 16.7507C18.3563 16.8603 18.4126 16.9865 18.4408 17.1206C18.4691 17.2548 18.4687 17.3936 18.4397 17.5276C18.4397 17.5276 18.3753 18.1206 17.9981 18.3082C17.7862 18.4308 17.5475 18.496 17.3045 18.4977H16.3661L18.138 22.7589H20.1509L18.6293 19.4887C19.1185 19.4772 19.5838 19.2685 19.9252 18.9075C20.2665 18.5464 20.4566 18.0618 20.4545 17.5579C20.4795 17.3834 20.493 17.2075 20.495 17.0312C20.5184 16.556 20.371 16.0885 20.081 15.7181C19.815 15.4633 19.5006 15.268 19.1576 15.1444C18.8147 15.0208 18.4506 14.9716 18.0883 15H15.2418C15.1756 15.4699 14.2501 22.1356 14.1599 22.7571H16.0514C16.114 22.3232 16.9236 16.4552 16.9236 16.4552Z" fill="#003368"/>
<path d="M47.0037 15.1743C45.793 20.3356 41.4469 23.1493 38.8912 24.648L38.7808 24.4964C41.5173 22.4978 43.5505 19.6389 44.5749 16.349L47.0037 15.1743Z" fill="#F36A10"/>
<path d="M29.601 28.104L29.7114 28.0775L29.5955 28.104H29.601Z" fill="#003368"/>
<path d="M33.6823 26.9614L33.042 27.1717C33.261 27.1016 33.4744 27.0315 33.6823 26.9614Z" fill="#003368"/>
<path d="M32.4971 27.3309C32.1991 27.4219 31.8881 27.5204 31.5771 27.6019C31.8955 27.5128 32.2064 27.4219 32.4971 27.3309Z" fill="#003368"/>
<path d="M24.5208 28.0738C24.5061 28.0738 23.9688 27.7915 23.9688 27.7915C23.7848 27.6873 23.3782 27.439 23.3782 27.0222C23.3765 26.9281 23.3951 26.8347 23.4326 26.7489C23.4702 26.663 23.5257 26.5869 23.5953 26.5258C23.6969 26.4488 23.8135 26.3955 23.9371 26.3697C24.0607 26.3438 24.1884 26.346 24.3111 26.3761C24.7688 26.4913 25.1882 26.7307 25.5255 27.0696L26.2946 25.5538C25.7932 25.1205 25.1837 24.8408 24.5355 24.7466C23.6866 24.5912 22.8125 24.7888 22.1049 25.2961C21.8407 25.5073 21.6212 25.7719 21.4598 26.0736C21.2985 26.3753 21.1987 26.7078 21.1665 27.0506C21.1528 27.1713 21.146 27.2929 21.1463 27.4144C21.1365 27.7794 21.2216 28.1405 21.3928 28.4603C22.5152 28.4338 23.6965 28.3769 24.8888 28.2708C24.7745 28.2011 24.6565 28.1379 24.5355 28.0813" fill="#003368"/>
<path d="M32.9148 25.0308C32.8707 25.3567 32.7308 26.376 32.6536 26.8762C34.3265 26.4074 35.9567 25.79 37.5259 25.0308H32.9148Z" fill="#003368"/>
<path d="M33.7061 26.9122C33.5 26.9823 33.2848 27.0524 33.0658 27.1225L32.9315 27.1642L32.6647 27.2475L32.5212 27.2911C32.2231 27.3821 31.9121 27.4806 31.6012 27.5602L31.4172 27.6113L31.143 27.6852L30.9443 27.7402L30.6701 27.8103L30.4236 27.8709L29.9875 27.9789L29.7354 28.0395L29.625 28.0661C28.7749 28.265 27.8696 28.445 26.9092 28.6212L26.8448 28.6326L26.3185 28.7216L26.1897 28.7425L25.6285 28.8296H25.588C24.5576 28.985 23.4727 29.1151 22.3331 29.2199H22.3165L21.7921 29.2635H21.7369L21.2052 29.3033H21.1555L20.6035 29.3374H20.5612L19.9945 29.3659H19.9742C19.015 29.4126 18.0238 29.4366 17.0008 29.4379H16.9198H16.239H16.0955C15.2724 29.4265 14.4297 29.3974 13.5673 29.3507H13.5508C12.2431 29.2799 10.8907 29.1644 9.49357 29.004L11.0999 27.4484C11.8322 27.6628 12.5747 27.8386 13.3245 27.9751C13.0797 26.4745 12.8644 25.1557 12.8313 24.9644H10.3105C10.1633 25.2884 7.29108 31.9598 6.95068 32.7215H8.97469C9.08141 32.46 9.7622 30.7926 9.7622 30.7926H11.8672C11.8672 30.7926 12.0714 32.4164 12.1193 32.7233H14.112C14.066 32.4713 13.8746 31.3023 13.652 29.9438C15.0706 30.0233 16.4929 30.0423 17.8196 30.0196C17.8874 30.1336 17.9231 30.2648 17.9226 30.3985C17.9233 30.4468 17.919 30.4951 17.9097 30.5425C17.8972 30.6261 17.8682 30.7062 17.8246 30.7779C17.7809 30.8496 17.7235 30.9113 17.6558 30.9593C17.3673 31.1157 17.032 31.1536 16.7174 31.0654C16.1073 30.8883 15.5622 30.5282 15.1516 30.0309L14.1745 31.6698C14.8459 32.3405 15.7005 32.7835 16.6236 32.9393C17.461 33.0846 18.3203 32.8844 19.0156 32.3823C19.2956 32.1676 19.5308 31.8971 19.7072 31.5869C19.8836 31.2767 19.9976 30.9331 20.0423 30.5766C20.0767 30.3727 20.0896 30.1656 20.0809 29.9589C21.5014 29.8964 22.6808 29.8054 23.4389 29.7372C23.5477 29.8084 23.6381 29.9059 23.7022 30.0211C23.7664 30.1363 23.8023 30.2658 23.8069 30.3985C23.8057 30.4467 23.8014 30.4948 23.7941 30.5425C23.7809 30.6261 23.7514 30.7062 23.7075 30.7778C23.6635 30.8494 23.606 30.9111 23.5383 30.9593C23.2498 31.1157 22.9145 31.1536 22.5999 31.0654C21.9899 30.8892 21.4451 30.5289 21.0359 30.0309L20.057 31.6698C20.7282 32.3398 21.582 32.7827 22.5042 32.9393C23.3417 33.0852 24.2012 32.885 24.8962 32.3823C25.1772 32.1684 25.4132 31.8982 25.5899 31.5878C25.7667 31.2775 25.8806 30.9335 25.9248 30.5766C25.9959 30.1993 25.9814 29.8103 25.8824 29.4398C26.2026 29.3905 26.5117 29.3431 26.8024 29.2938C26.5761 30.9214 26.3645 32.4486 26.3241 32.729H31.189C31.2369 32.388 31.3601 31.488 31.4209 31.0541H28.4769L28.6774 29.6197H31.3509C31.3914 29.3223 31.4871 28.6439 31.5497 28.2006C31.9177 28.0812 32.1017 28.0111 32.1017 28.0111C32.1017 28.0111 33.0069 27.7307 34.1772 27.2854C34.0097 28.4999 33.4927 32.2118 33.4209 32.729H35.5296C35.5921 32.2686 36.341 26.9008 36.341 26.9008H37.8645C37.9105 26.5673 38.0485 25.5006 38.124 25.0174C36.7094 25.7794 35.2315 26.4097 33.708 26.9008" fill="#003368"/>
<path d="M19.2732 28.4659C19.0751 28.3098 18.8595 28.1788 18.6311 28.0756L18.0791 27.7933H18.068C17.884 27.6891 17.4774 27.4428 17.4774 27.0259C17.4761 26.9319 17.4949 26.8386 17.5324 26.7528C17.5699 26.6671 17.6252 26.5908 17.6945 26.5295C17.7965 26.4526 17.9135 26.3994 18.0374 26.3735C18.1613 26.3477 18.2891 26.3499 18.4121 26.3798C18.871 26.4949 19.2916 26.7343 19.6302 27.0733C19.8436 26.6508 20.2521 25.8436 20.3956 25.5575C19.8945 25.1235 19.285 24.8431 18.6366 24.7484C17.7877 24.593 16.9136 24.7907 16.206 25.2979C15.9415 25.5091 15.7217 25.7736 15.5601 26.0753C15.3984 26.377 15.2982 26.7095 15.2657 27.0524C15.2516 27.1731 15.2449 27.2947 15.2455 27.4163C15.2421 27.7289 15.3049 28.0387 15.4295 28.3238H15.5583C16.5022 28.3977 17.7921 28.4565 19.2788 28.4697" fill="#003368"/>
<path d="M29.0712 26.6962H31.9417C31.9895 26.3552 32.1165 25.457 32.1753 25.025H27.3913C27.3619 25.2259 27.1761 26.5408 26.97 28.0452C27.6324 27.96 28.2874 27.8558 28.9277 27.7421L29.0712 26.6962Z" fill="#003368"/>
</g>
<defs>
<clipPath id="clip0_4608_41056">
<rect width="46" height="18" fill="white" transform="translate(1 15)"/>
</clipPath>
</defs>
</svg>
