<svg width="48" height="48" viewBox="0 0 48 48" fill="none" xmlns="http://www.w3.org/2000/svg">
<g clip-path="url(#clip0_4608_41085)">
<path d="M47.9702 18.8893C47.316 15.0489 36.0578 13.8475 22.8167 16.2127C17.8529 17.0556 12.9946 18.4323 8.32644 20.3187C8.8052 20.2874 9.27775 20.4409 9.64674 20.7475C9.75516 20.8676 9.83884 21.0079 9.89298 21.1603C9.94713 21.3128 9.97066 21.4744 9.96226 21.6359V22.0133H8.66411V21.6807C8.67015 21.6197 8.66259 21.558 8.64199 21.5002C8.6214 21.4424 8.58827 21.3898 8.54498 21.3463C8.50168 21.3029 8.44929 21.2695 8.39157 21.2486C8.33385 21.2278 8.27224 21.2199 8.21114 21.2257C8.10801 21.2139 8.0043 21.2423 7.92157 21.305C7.83884 21.3677 7.78345 21.4599 7.76691 21.5623C7.75145 21.6501 7.75392 21.7401 7.77413 21.8269C7.91208 22.4111 9.83977 22.7704 10.0513 23.8478C10.0987 24.1312 10.1006 24.4203 10.057 24.7043C9.9355 25.5711 9.19375 25.9062 8.24664 25.9062C6.92789 25.9062 6.39361 25.2648 6.39361 24.379V23.9631H7.78648V24.4845C7.78437 24.5476 7.79582 24.6105 7.82006 24.6689C7.84431 24.7272 7.8808 24.7797 7.92704 24.8228C7.97328 24.8659 8.02821 24.8985 8.08814 24.9186C8.14808 24.9386 8.2116 24.9456 8.27445 24.939C8.38288 24.954 8.49297 24.9272 8.58236 24.8641C8.67175 24.8009 8.73374 24.706 8.75572 24.5988C8.78633 24.4759 8.78276 24.3471 8.74542 24.2261C8.48805 23.5631 6.6865 23.2543 6.46465 22.181C6.41493 21.95 6.4109 21.7115 6.4528 21.479C6.47387 21.3508 6.51284 21.2262 6.5686 21.1089C2.23197 23.1863 -0.305132 25.4738 0.0315042 27.4499C0.687276 31.2944 11.9465 32.4943 25.1835 30.1311C30.3417 29.26 35.3842 27.8051 40.2137 25.7945C40.1571 25.7945 40.101 25.8007 40.0433 25.8007C39.1353 25.8007 38.3251 25.4532 38.2418 24.5046C38.2292 24.3907 38.223 24.2763 38.2232 24.1618V21.9757C38.2232 21.8835 38.2335 21.7183 38.2428 21.6313C38.3519 20.713 39.0592 20.3357 40.0402 20.3357C40.7974 20.3357 41.7275 20.5591 41.8315 21.6329C41.8428 21.7662 41.8418 21.9129 41.8418 21.9582V22.1641H40.5318V21.8578C40.5305 21.7929 40.5251 21.7281 40.5159 21.6638C40.4952 21.5526 40.4334 21.4534 40.3427 21.3859C40.2521 21.3184 40.1392 21.2877 40.0269 21.2998C39.9149 21.2895 39.8032 21.321 39.7131 21.3882C39.623 21.4554 39.5609 21.5535 39.5389 21.6638C39.5268 21.7442 39.5207 21.8254 39.5209 21.9067V24.2801C39.5196 24.3459 39.5239 24.4117 39.5337 24.4768C39.5683 24.5819 39.6352 24.6735 39.7248 24.7384C39.8145 24.8033 39.9223 24.8383 40.033 24.8383C40.1437 24.8383 40.2516 24.8033 40.3413 24.7384C40.4309 24.6735 40.4978 24.5819 40.5323 24.4768C40.5434 24.4119 40.5473 24.3459 40.5442 24.2801V23.5446H40.0289V22.7519H41.8547V24.1618C41.8557 24.2763 41.85 24.3907 41.8377 24.5046C41.8189 24.7327 41.7433 24.9524 41.6179 25.1439C45.8449 23.0885 48.3017 20.8361 47.9713 18.8904M13.6421 25.7013L12.9812 21.0744H12.9539L12.2739 25.7013H10.8744L11.8153 20.4757H14.1002L15.0344 25.7013H13.6421ZM20.3774 25.7013L20.3455 21.1634H20.3244L19.5008 25.7013H18.1857L17.3667 21.1634H17.343L17.3132 25.7013H16.0104L16.1231 20.4757H18.2186L18.8275 24.3584H18.8584L19.4684 20.4757H21.5628L21.6704 25.7013H20.3774ZM26.5074 24.6883C26.3653 25.7013 25.3986 25.8774 24.7166 25.8774C23.5816 25.8774 22.8785 25.3806 22.8785 24.3671L22.8816 23.9553H24.2544V24.4701C24.2525 24.533 24.2643 24.5955 24.2888 24.6535C24.3133 24.7114 24.35 24.7634 24.3964 24.8059C24.4428 24.8484 24.4978 24.8804 24.5577 24.8997C24.6175 24.919 24.6809 24.9252 24.7434 24.9179C24.8497 24.9324 24.9577 24.9064 25.0457 24.845C25.1337 24.7836 25.1954 24.6912 25.2185 24.5864C25.2481 24.4642 25.2447 24.3363 25.2087 24.2158C24.9513 23.5672 23.1678 23.2481 22.9506 22.195C22.9018 21.964 22.898 21.7258 22.9392 21.4934C23.0895 20.5406 23.9867 20.3398 24.7053 20.3398C24.9548 20.316 25.2066 20.3419 25.446 20.4163C25.6854 20.4906 25.9076 20.6118 26.0997 20.7727C26.2073 20.8914 26.2905 21.0301 26.3443 21.181C26.3982 21.3319 26.4218 21.4919 26.4137 21.6519V22.0292H25.131V21.6946C25.1363 21.6342 25.1282 21.5733 25.1074 21.5163C25.0866 21.4593 25.0535 21.4075 25.0105 21.3647C24.9675 21.3219 24.9156 21.2891 24.8585 21.2685C24.8014 21.248 24.7405 21.2402 24.6801 21.2458C24.5773 21.2337 24.4739 21.2617 24.3912 21.3239C24.3086 21.3861 24.2531 21.4778 24.2364 21.5798C24.2217 21.6653 24.2242 21.7527 24.2436 21.8372C24.3815 22.4178 26.2907 22.7735 26.5027 23.8364C26.5472 24.1179 26.5485 24.4044 26.5069 24.6863M31.2671 24.2137C31.2671 24.3105 31.2599 24.5056 31.2553 24.5581C31.176 25.4156 30.5748 25.8552 29.4722 25.8552C28.3697 25.8552 27.7669 25.4156 27.6887 24.5581C27.6887 24.5066 27.6774 24.3105 27.6774 24.2137V20.4721H28.9905V24.3326C28.9875 24.3979 28.9925 24.4632 29.0054 24.5272C29.0241 24.635 29.0823 24.732 29.1686 24.7993C29.2549 24.8665 29.3631 24.8993 29.4722 24.8911C29.5822 24.8992 29.6913 24.8665 29.7787 24.7994C29.8662 24.7324 29.926 24.6355 29.9468 24.5272C29.9553 24.4627 29.9587 24.3977 29.9571 24.3326V20.4721H31.2671V24.2137ZM36.9338 25.6452H35.1055L33.8773 21.5078H33.8573L33.9237 25.6452H32.6476V20.4752H34.5522L35.6877 24.4515H35.7124L35.648 20.4752H36.9307L36.9338 25.6452Z" fill="#014DA2"/>
</g>
<defs>
<clipPath id="clip0_4608_41085">
<rect width="48" height="16.3402" fill="white" transform="translate(0 15)"/>
</clipPath>
</defs>
</svg>
