<svg width="48" height="48" viewBox="0 0 48 48" fill="none" xmlns="http://www.w3.org/2000/svg">
<g clip-path="url(#clip0_4608_41161)">
<path d="M21.5419 27.9313C22.2981 28.0647 22.9874 28.4496 23.4984 29.024C27.8287 32.9634 32.7145 36.242 37.9984 38.7541C38.6403 39.0486 38.9941 39.2695 38.9941 39.5466C38.9941 39.7597 38.9593 39.9787 38.4025 39.9787C35.6566 39.7152 32.9393 39.2088 30.2825 38.4655C28.79 37.8842 25.569 35.6968 21.7333 30.1749C21.2983 29.5472 20.8401 29.0124 20.8401 28.5125C20.8401 28.0127 21.3814 27.9313 21.5419 27.9313Z" fill="#4F8BCA"/>
<path d="M34.1687 12.4681C34.1687 12.4681 35.114 14.0181 25.8205 15.0741L25.3855 15.1225L26.7949 11.2049C27.2821 9.81572 25.9269 9.00195 24.9892 9.00195C24.5709 9.01012 24.1646 9.14369 23.8228 9.38543C23.4809 9.62716 23.2192 9.96598 23.0713 10.3582L20.6991 15.4945C18.4539 15.6174 16.2033 15.6051 13.9595 15.4577C12.3143 15.324 11.8908 16.0777 11.8908 16.8469C11.8908 18.1896 14.7522 19.5594 16.5734 19.4044C17.5806 19.323 18.2148 19.2843 18.9784 19.2223L10.234 38.1613C9.89952 38.8724 9.66557 40.0078 11.394 40.0078C13.1224 40.0078 16.9059 38.7077 17.4511 37.1984C17.6812 36.5629 19.3728 31.8645 21.254 26.6332C22.5493 26.4395 26.2806 25.9648 27.3614 25.9648C28.4421 25.9648 28.9796 26.3523 28.9796 26.8328C28.9796 27.9275 25.8147 31.0604 19.6783 34.9238C18.9997 35.35 19.5604 35.6852 19.9064 35.6852C22.4709 34.747 24.913 33.5018 27.1797 31.9768C29.4823 30.5392 33.4997 26.794 33.4997 24.161C33.4997 23.1225 32.9448 22.1731 30.4315 22.1731C27.8756 22.1731 23.2782 22.6633 22.6595 22.7292C23.1583 21.3419 23.6494 19.9779 24.1076 18.7011L24.1927 18.6914C29.1246 18.1276 32.042 17.7672 33.7433 17.4708C36.0401 17.0716 37.8845 15.977 37.8845 14.8493C37.8807 12.4449 34.1687 12.4681 34.1687 12.4681Z" fill="#572000"/>
</g>
<defs>
<clipPath id="clip0_4608_41161">
<rect width="29" height="31" fill="white" transform="translate(10 9)"/>
</clipPath>
</defs>
</svg>
