<svg width="48" height="48" viewBox="0 0 48 48" fill="none" xmlns="http://www.w3.org/2000/svg">
<g clip-path="url(#clip0_4608_41034)">
<path d="M29.3936 10L24.2834 12.566L19.1782 10L24.2834 19.7139L29.3936 10Z" fill="#FDB913"/>
<path d="M31.7055 18.0573L31.6186 17.9854L35.5403 16.3255V10.7739L28.7267 13.6993L24.9471 20.8991C26.3989 21.0696 27.7307 21.7886 28.6698 22.9088C29.6089 24.0291 30.0845 25.4659 29.999 26.9252C29.9136 28.3845 29.2737 29.756 28.2102 30.759C27.1468 31.762 25.7402 32.3207 24.2784 32.3207C22.8166 32.3207 21.4101 31.762 20.3466 30.759C19.2832 29.756 18.6433 28.3845 18.5578 26.9252C18.4724 25.4659 18.9479 24.0291 19.8871 22.9088C20.8262 21.7886 22.158 21.0696 23.6098 20.8991L19.8419 13.701L13.0333 10.7756V16.3271L16.9516 17.9871L16.8664 18.0589C15.1368 19.569 13.9091 21.571 13.3475 23.7973C12.7859 26.0236 12.9171 28.3683 13.7235 30.5181C14.5299 32.6679 15.9731 34.5205 17.8604 35.8282C19.7477 37.1359 21.989 37.8366 24.2851 37.8366C26.5812 37.8366 28.8226 37.1359 30.7098 35.8282C32.5971 34.5205 34.0404 32.6679 34.8468 30.5181C35.6532 28.3683 35.7843 26.0236 35.2227 23.7973C34.6611 21.571 33.4335 19.569 31.7039 18.0589L31.7055 18.0573Z" fill="#FDB913"/>
</g>
<defs>
<clipPath id="clip0_4608_41034">
<rect width="22.5672" height="28" fill="white" transform="translate(13 10)"/>
</clipPath>
</defs>
</svg>
