<svg width="48" height="48" viewBox="0 0 48 48" fill="none" xmlns="http://www.w3.org/2000/svg">
<g clip-path="url(#clip0_4608_41047)">
<path d="M20.988 25.1731C20.4758 25.1531 19.9648 25.2359 19.4852 25.4168C19.0055 25.5976 18.5671 25.8727 18.1956 26.2259C17.4261 27.1749 17.0061 28.3596 17.0061 29.5814C17.0061 30.8032 17.4261 31.9878 18.1956 32.9368C18.9667 33.6219 19.9624 34.0003 20.9939 34.0003C22.0254 34.0003 23.0211 33.6219 23.7922 32.9368C24.5538 31.9843 24.9687 30.801 24.9687 29.5814C24.9687 28.3618 24.5538 27.1785 23.7922 26.2259C23.4184 25.8727 22.9778 25.5976 22.4962 25.4168C22.0147 25.236 21.5019 25.1532 20.988 25.1731ZM22.6031 32.0185C22.4081 32.2568 22.1612 32.4471 21.8812 32.575C21.6012 32.7029 21.2956 32.7649 20.988 32.7563C20.682 32.765 20.3781 32.703 20.1 32.575C19.822 32.4471 19.5772 32.2566 19.3848 32.0185C18.9721 31.2728 18.7555 30.4345 18.7555 29.5822C18.7555 28.73 18.9721 27.8917 19.3848 27.146C19.5779 26.9095 19.8231 26.7209 20.1012 26.5949C20.3793 26.469 20.6828 26.4092 20.988 26.4202C21.2948 26.4092 21.6001 26.4689 21.8801 26.5948C22.1602 26.7206 22.4075 26.9092 22.6031 27.146C23.0132 27.8925 23.2282 28.7305 23.2282 29.5822C23.2282 30.434 23.0132 31.272 22.6031 32.0185Z" fill="#002865"/>
<path d="M42.6385 26.2259C41.8626 25.5486 40.8675 25.1754 39.8376 25.1754C38.8076 25.1754 37.8126 25.5486 37.0367 26.2259C36.2725 27.1773 35.856 28.361 35.856 29.5813C35.856 30.8016 36.2725 31.9854 37.0367 32.9368C37.8088 33.6219 38.8053 34.0003 39.8376 34.0003C40.8699 34.0003 41.8663 33.6219 42.6385 32.9368C43.4 31.9842 43.8149 30.8009 43.8149 29.5813C43.8149 28.3618 43.4 27.1785 42.6385 26.2259ZM41.4459 32.0185C41.2463 32.2501 40.999 32.4361 40.721 32.5635C40.443 32.6909 40.1408 32.7569 39.835 32.7569C39.5292 32.7569 39.227 32.6909 38.949 32.5635C38.671 32.4361 38.4238 32.2501 38.2242 32.0185C37.8127 31.2724 37.5969 30.4342 37.5969 29.5822C37.5969 28.7301 37.8127 27.892 38.2242 27.1459C38.4261 26.9179 38.674 26.7354 38.9517 26.6104C39.2294 26.4854 39.5305 26.4207 39.835 26.4207C40.1396 26.4207 40.4406 26.4854 40.7183 26.6104C40.996 26.7354 41.244 26.9179 41.4459 27.1459C41.8549 27.8928 42.0693 28.7306 42.0693 29.5822C42.0693 30.4337 41.8549 31.2716 41.4459 32.0185Z" fill="#002865"/>
<path d="M13.1456 33.7989C13.0724 33.7199 13.0158 33.627 12.9792 33.5258C12.9426 33.4245 12.9268 33.3169 12.9326 33.2094V30.1427L15.7897 25.3553H13.8322C13.9736 25.4968 13.9872 25.7216 13.8151 25.9908L12.2682 28.6707C10.9683 26.3162 10.9682 26.2481 10.7348 25.8204C10.5508 25.4967 10.3941 25.3553 10.0534 25.3553H8.52002C8.72197 25.5722 8.89388 25.8151 9.03114 26.0777L11.309 30.1206V33.2043C11.3149 33.3118 11.299 33.4194 11.2624 33.5207C11.2259 33.622 11.1693 33.7148 11.096 33.7937L13.1456 33.7989Z" fill="#002865"/>
<path d="M27.6152 33.7989C27.6889 33.7202 27.7458 33.6274 27.7827 33.5261C27.8196 33.4248 27.8357 33.3171 27.8299 33.2094V25.95C27.8358 25.8423 27.8198 25.7346 27.7829 25.6333C27.746 25.532 27.6889 25.4392 27.6152 25.3605H30.4093C31.7518 25.3605 32.9205 26.0079 32.9205 27.2635C32.9281 27.5846 32.8525 27.9022 32.7012 28.1855C32.5498 28.4687 32.3279 28.7081 32.0568 28.8803C32.508 29.0335 32.9001 29.3239 33.1781 29.711C33.4561 30.098 33.6061 30.5624 33.6072 31.0389C33.6068 31.4402 33.5145 31.836 33.3373 32.196C33.1601 32.5561 32.9027 32.8707 32.5849 33.1157C31.9608 33.5924 31.1886 33.8337 30.4042 33.7972L27.6152 33.7989ZM29.4655 28.5464C29.8688 28.5868 30.2761 28.5374 30.6581 28.4016C30.8331 28.3336 30.9824 28.2127 31.0853 28.0557C31.1883 27.8987 31.2396 27.7135 31.2322 27.5259C31.2235 27.3917 31.1885 27.2605 31.129 27.1399C31.0696 27.0193 30.987 26.9116 30.8858 26.8229C30.7847 26.7343 30.6671 26.6665 30.5397 26.6234C30.4123 26.5803 30.2777 26.5628 30.1435 26.5718C29.9132 26.5637 29.683 26.593 29.462 26.6587L29.4655 28.5464ZM31.2952 32.378C31.4973 32.2451 31.6595 32.0599 31.7645 31.8421C31.8695 31.6242 31.9134 31.382 31.8915 31.1411C31.8819 30.9451 31.8321 30.7531 31.7451 30.5772C31.6582 30.4012 31.536 30.2451 31.3861 30.1183C31.2362 29.9916 31.0619 29.8971 30.8739 29.8407C30.6859 29.7842 30.4883 29.767 30.2934 29.7901C30.0166 29.7875 29.74 29.804 29.4655 29.8395V32.5433C30.0757 32.7067 30.7242 32.6481 31.2952 32.378Z" fill="#002865"/>
<path d="M1.21465 33.2094C1.22039 33.3171 1.20436 33.4248 1.16747 33.5261C1.13058 33.6274 1.07362 33.7202 1 33.7989H3.06318C2.98956 33.7202 2.9326 33.6274 2.89571 33.5261C2.85883 33.4248 2.84276 33.3171 2.8485 33.2094V29.9128L5.24561 33.3338C5.31157 33.4742 5.4165 33.5927 5.5479 33.6751C5.67929 33.7576 5.83163 33.8006 5.98674 33.7989H7.64103C7.41469 33.5827 7.21507 33.3402 7.04644 33.0765L4.34265 29.2449L7.10607 25.3605H5.07354C5.17917 25.4985 5.19282 25.6705 4.99519 26.0027L2.85022 29.095V25.95C2.84438 25.8423 2.86038 25.7346 2.89727 25.6333C2.93417 25.532 2.99117 25.4392 3.06487 25.3605H1.00169C1.07539 25.4392 1.13242 25.532 1.16931 25.6333C1.20621 25.7346 1.22221 25.8423 1.21637 25.95L1.21465 33.2094Z" fill="#002865"/>
<path d="M46.4634 13.7463C46.2715 13.5698 46.0463 13.4334 45.8008 13.3453C45.5554 13.2572 45.2948 13.219 45.0344 13.2331C44.774 13.2473 44.5191 13.3134 44.2847 13.4276C44.0502 13.5418 43.841 13.7017 43.6693 13.898C43.3643 14.3132 42.9673 14.6522 42.5095 14.8887C42.0517 15.1251 41.5455 15.2525 41.0303 15.261C39.7679 15.2064 39.1443 14.2387 38.4952 12.9984C38.2408 12.4111 37.8225 11.9097 37.2904 11.554C36.7583 11.1984 36.135 11.0036 35.495 10.9932C35.0494 10.9956 34.6089 11.0889 34.2007 11.2674C33.7924 11.4459 33.4248 11.7059 33.1205 12.0315C32.8162 12.357 32.5815 12.7412 32.4309 13.1606C32.2802 13.5799 32.2167 14.0257 32.2443 14.4704C32.269 15.5656 32.5957 16.6327 33.1882 17.5541C33.7807 18.4755 34.6161 19.2154 35.6023 19.6923C36.7023 20.2441 37.9122 20.5417 39.1426 20.5629C39.0592 21.3101 38.8965 22.0462 38.6571 22.759H40.981C40.7316 22.0234 40.5659 21.2622 40.4869 20.4896C41.6767 20.4294 42.8344 20.0835 43.8623 19.4812C44.8901 18.8789 45.7578 18.0379 46.3919 17.0294C46.7662 16.4577 46.9761 15.794 46.9984 15.111C47.0048 14.8594 46.9608 14.6089 46.8689 14.3746C46.7771 14.1402 46.6392 13.9266 46.4634 13.7463ZM35.5104 15.5114C35.2745 15.5279 35.0392 15.4739 34.8341 15.3563C34.629 15.2387 34.4635 15.0628 34.3586 14.851C34.2536 14.6392 34.2141 14.401 34.2448 14.1666C34.2755 13.9322 34.3752 13.7123 34.5312 13.5347C34.6872 13.3571 34.8925 13.2298 35.121 13.1691C35.3494 13.1084 35.5908 13.1169 35.8144 13.1937C36.038 13.2704 36.2337 13.4118 36.3767 13.6C36.5198 13.7882 36.6037 14.0147 36.6178 14.2506C36.6369 14.5654 36.5306 14.8749 36.3221 15.1115C36.1136 15.3481 35.8199 15.4925 35.5052 15.5131L35.5104 15.5114Z" fill="#4CA223"/>
</g>
<defs>
<clipPath id="clip0_4608_41047">
<rect width="46" height="23" fill="white" transform="translate(1 11)"/>
</clipPath>
</defs>
</svg>
