<svg width="48" height="48" viewBox="0 0 48 48" fill="none" xmlns="http://www.w3.org/2000/svg">
<g clip-path="url(#clip0_4608_41150)">
<path d="M9.63884 24.9961C9.65162 24.8539 9.65709 24.7099 9.65709 24.5659C9.65666 23.407 9.24851 22.2861 8.50564 21.4037C7.76277 20.5212 6.73365 19.9348 5.60236 19.7492C4.47107 19.5637 3.31141 19.7912 2.3308 20.391C1.35019 20.9909 0.612603 21.9239 0.249977 23.0232C-0.112648 24.1225 -0.0766606 25.3165 0.351504 26.3914C0.779669 27.4664 1.57208 28.3522 2.587 28.8905C3.60191 29.4289 4.77313 29.5845 5.89115 29.3297C7.00917 29.0748 8.00106 28.4261 8.68939 27.4996L7.52267 26.1924C7.25868 26.6776 6.87063 27.0821 6.39911 27.3636C5.9276 27.6452 5.38992 27.7936 4.8423 27.7931C4.00257 27.7729 3.20396 27.4214 2.61713 26.8137C2.03029 26.206 1.70178 25.3903 1.70178 24.541C1.70178 23.6916 2.03029 22.8759 2.61713 22.2683C3.20396 21.6606 4.00257 21.3091 4.8423 21.2888C5.5028 21.291 6.14518 21.5073 6.67499 21.9061C7.20481 22.3049 7.59409 22.8651 7.78559 23.5043H4.32924C4.21343 23.5051 4.09904 23.5302 3.99333 23.578C3.88762 23.6258 3.79288 23.6953 3.71512 23.7821C3.63736 23.8689 3.57828 23.9711 3.54161 24.0822C3.50495 24.1932 3.4915 24.3108 3.50212 24.4274C3.49996 24.6228 3.51894 24.8178 3.55873 25.009H9.63884V24.9961Z" fill="#004C84"/>
<path d="M17.2415 26.3734C17.6032 26.1955 17.9081 25.9183 18.1215 25.5736C18.3349 25.2289 18.4482 24.8304 18.4484 24.4237C18.4266 24.1096 18.3425 23.8032 18.2011 23.5227C18.0597 23.2422 17.8639 22.9933 17.6254 22.7909C17.3869 22.5884 17.1105 22.4366 16.8127 22.3445C16.515 22.2523 16.2019 22.2217 15.8922 22.2544H12.0342V31H16.2848C16.6056 31.0288 16.9287 30.9891 17.2333 30.8833C17.5379 30.7775 17.8171 30.6081 18.0526 30.3861C18.2882 30.1641 18.475 29.8944 18.6007 29.5946C18.7265 29.2948 18.7884 28.9716 18.7826 28.6461C18.8265 28.1453 18.6968 27.6446 18.4156 27.2299C18.1345 26.8152 17.7194 26.5124 17.2415 26.3734ZM13.8546 23.6225H15.5581C15.7016 23.6139 15.8452 23.6361 15.9795 23.6877C16.1138 23.7393 16.2358 23.8191 16.3374 23.9218C16.4391 24.0246 16.518 24.148 16.569 24.2838C16.6201 24.4196 16.642 24.5649 16.6335 24.7099C16.6501 24.8439 16.6388 24.9799 16.6003 25.1092C16.5618 25.2385 16.497 25.3582 16.4099 25.4606C16.3229 25.5631 16.2156 25.646 16.095 25.7039C15.9744 25.7619 15.8431 25.7937 15.7096 25.7973H13.8546V23.6225ZM15.8338 29.6117H13.8546V27.2116H15.6804C15.9692 27.2326 16.2407 27.3584 16.445 27.5658C16.6493 27.7732 16.7727 28.0482 16.7925 28.3402C16.8123 28.6323 16.7271 28.9217 16.5526 29.1553C16.3782 29.3889 16.1261 29.551 15.8429 29.6117H15.8338Z" fill="#004C84"/>
<path d="M22.0965 25.7678V23.5911H25.8888L26.1171 22.2341H20.3254V31.0001H26.0787V29.5766H22.0965V27.195H25.5656V25.766L22.0965 25.7678Z" fill="#004C84"/>
<path d="M41.511 22.271H34.3025V23.7222H36.9828C36.8603 23.834 36.762 23.9704 36.6941 24.1226C36.6262 24.2748 36.5902 24.4395 36.5884 24.6065V31.0111H38.449V24.6527C38.4491 24.4322 38.5261 24.2188 38.6663 24.05C38.8066 23.8812 39.0011 23.7677 39.2158 23.7295H41.0837L41.511 22.271Z" fill="#004C84"/>
<path d="M44.907 17C44.2952 17 43.6972 17.1834 43.1886 17.5271C42.6799 17.8707 42.2835 18.3592 42.0494 18.9307C41.8153 19.5022 41.7541 20.131 41.8734 20.7377C41.9928 21.3444 42.2873 21.9016 42.7199 22.339C43.1524 22.7764 43.7036 23.0743 44.3036 23.195C44.9035 23.3156 45.5254 23.2537 46.0906 23.017C46.6558 22.7803 47.1388 22.3794 47.4787 21.8651C47.8186 21.3508 48 20.7461 48 20.1275C48 19.2981 47.6741 18.5026 47.0941 17.916C46.514 17.3295 45.7273 17 44.907 17ZM44.907 21.6525C44.6087 21.6525 44.3171 21.5631 44.0691 21.3955C43.8211 21.2279 43.6278 20.9898 43.5136 20.7111C43.3995 20.4325 43.3696 20.1258 43.4278 19.83C43.486 19.5342 43.6296 19.2625 43.8405 19.0492C44.0514 18.8359 44.3202 18.6907 44.6128 18.6318C44.9053 18.573 45.2085 18.6032 45.4841 18.7186C45.7597 18.834 45.9952 19.0295 46.161 19.2803C46.3267 19.5311 46.4151 19.8259 46.4151 20.1275C46.4132 20.5307 46.2535 20.9167 45.9708 21.2011C45.6882 21.4855 45.3057 21.6451 44.907 21.6451V21.6525Z" fill="#F38200"/>
<path d="M33.0937 22.3448C32.342 22.1517 31.5704 22.0488 30.7949 22.0383C29.6793 22.0697 27.5722 22.487 27.5193 24.6544C27.5119 25.1584 27.6701 25.6507 27.9691 26.054C28.2682 26.4573 28.6911 26.7488 29.1717 26.8828C29.1717 26.8828 29.7524 27.0822 30.4206 27.2816C30.4206 27.2816 31.5836 27.5918 31.5161 28.3783C31.5161 28.3783 31.622 29.4694 29.7614 29.51C29.3001 29.515 28.841 29.4458 28.4012 29.3051C28.4012 29.3051 28.109 29.1832 27.9831 29.342C27.8136 29.4977 27.6877 29.6958 27.6179 29.9162C27.4901 30.2707 27.3951 30.5882 27.3951 30.5882C27.3951 30.5882 27.3732 30.6252 27.4316 30.6566C27.4645 30.6732 28.4286 30.8541 28.5582 30.8725C28.6878 30.891 29.63 30.9963 30.039 30.9981C30.9775 30.9981 33.5593 30.6584 33.5593 28.2287C33.5729 27.7401 33.4296 27.26 33.1508 26.8606C32.872 26.4612 32.4727 26.1639 32.0127 26.0133C32.0127 26.0133 31.3335 25.7862 30.5338 25.5148C30.5338 25.5148 29.5844 25.3025 29.5771 24.5769C29.5862 24.2903 29.7069 24.0188 29.913 23.8218C29.913 23.8218 30.1887 23.4525 31.1235 23.4673C31.442 23.4608 31.7604 23.4886 32.073 23.5504C32.153 23.5771 32.2388 23.5807 32.3208 23.5608C32.4027 23.5409 32.4775 23.4983 32.5368 23.4378C32.6697 23.2978 32.7811 23.1385 32.8673 22.9651C32.9627 22.7719 33.0474 22.5734 33.1211 22.3706C33.1156 22.3393 33.1119 22.3577 33.0937 22.3448Z" fill="#004C84"/>
</g>
<defs>
<clipPath id="clip0_4608_41150">
<rect width="48" height="14" fill="white" transform="translate(0 17)"/>
</clipPath>
</defs>
</svg>
