<svg width="48" height="48" viewBox="0 0 48 48" fill="none" xmlns="http://www.w3.org/2000/svg">
<g clip-path="url(#clip0_4608_41199)">
<path d="M9.20456 32.1878C8.0331 31.6371 7.06822 31.191 7.06822 30.292C7.06822 29.6093 7.61761 29.104 8.70053 29.104C9.05734 29.1046 9.41327 29.1404 9.76306 29.211C9.93471 29.2425 10.1085 29.2607 10.283 29.2656C11.2274 29.2656 11.7609 28.7012 12.1151 27.627L12.2626 27.1855C11.084 26.7027 9.82389 26.4516 8.55074 26.4458C7.94962 26.3761 7.34056 26.4316 6.76185 26.6089C6.18313 26.7862 5.64722 27.0814 5.18766 27.476C4.72811 27.8707 4.35482 28.3563 4.09126 28.9024C3.82769 29.4484 3.67953 30.0432 3.65602 30.6493C3.62553 31.5548 3.93411 32.4389 4.52102 33.1278C5.24633 33.8791 6.11489 34.4765 7.07508 34.8847C8.3941 35.5356 9.58597 36.0226 9.58597 36.9808C9.58597 37.8342 8.70507 38.3235 7.5268 38.3235C6.38732 38.2696 5.28295 37.9113 4.328 37.2857L3.0022 39.7892C4.44528 40.6233 6.08841 41.046 7.75384 41.0113C8.38939 41.0926 9.03482 41.0419 9.64998 40.8625C10.2652 40.683 10.8369 40.3785 11.3297 39.968C11.8224 39.5575 12.2257 39.0497 12.5143 38.4763C12.8029 37.9029 12.9707 37.2761 13.0072 36.6349C13.0072 34.0017 10.9073 33.0231 9.20685 32.1969" fill="#EA002C"/>
<path d="M20.8373 33.4146L26.2633 26.7372H22.4038L18.0631 32.502H17.9973V26.7372H14.8188V40.884H15.0073C15.4082 40.9262 15.8134 40.8792 16.1941 40.7464C16.5748 40.6136 16.9216 40.3983 17.2097 40.1157C17.4979 39.8332 17.7203 39.4904 17.8611 39.1117C18.002 38.7331 18.0578 38.328 18.0245 37.9253V34.6868H18.0926L22.5037 40.711H26.5562L20.8373 33.4146Z" fill="#EA002C"/>
<path d="M26.4108 11.7051C25.6718 11.822 24.9942 12.1868 24.4889 12.74C23.9837 13.2932 23.6808 14.002 23.6297 14.7503C23.6297 16.3911 24.9715 17.3857 24.9761 19.5296C24.9841 20.1952 24.8182 20.8513 24.4947 21.4326C24.1713 22.014 23.7017 22.5003 23.1326 22.8432C23.5208 22.8068 23.9476 22.784 24.4153 22.784C24.9535 22.7748 25.4917 22.8075 26.0249 22.8819L31.0581 16.6779C29.789 14.7755 28.2194 13.0928 26.4108 11.696" fill="#EA002C"/>
<path d="M30.5701 28.3985C31.16 27.0902 31.4234 25.6577 31.3375 24.2246C31.3965 22.727 31.7076 21.5982 33.7054 21.5891C34.1481 21.5891 34.5704 21.6506 35.3354 21.6483C37.459 21.64 39.5408 21.0565 41.3607 19.9596C38.2564 17.9533 34.6775 16.8069 30.9878 16.6368C30.7018 17.4516 28.4724 23.6715 28.3044 24.1745C28.6498 24.5859 28.9539 25.0303 29.2125 25.5013C29.7699 26.4156 30.2266 27.3877 30.5747 28.4008" fill="#EA002C"/>
<path d="M20.0314 23.3689C19.7794 23.3689 19.6523 23.2005 19.6182 22.9137C19.5841 22.627 18.3264 11.061 18.138 9.30863C18.1107 9.05145 18.0472 8.58262 18.0472 8.41421C18.042 8.36145 18.0481 8.30818 18.0651 8.25796C18.082 8.20775 18.1094 8.16173 18.1455 8.12297C18.1816 8.08421 18.2255 8.0536 18.2743 8.03319C18.3231 8.01277 18.3757 8.00301 18.4286 8.00455C21.0709 8.49432 23.5661 9.58426 25.7229 11.1908C24.9455 11.3872 24.253 11.8323 23.7504 12.4585C23.2478 13.0847 22.9624 13.8581 22.9373 14.6615C22.9373 16.5595 24.2995 17.6087 24.2995 19.5181C24.2995 22.6201 20.7601 23.3689 20.02 23.3712" fill="#F47725"/>
<path d="M30.8584 29.2065C30.8994 29.3287 30.9519 29.4468 31.015 29.5592C31.0427 29.6185 31.0867 29.6686 31.1418 29.7037C31.1969 29.7387 31.2608 29.7573 31.3261 29.7572C31.4258 29.7502 31.5231 29.7231 31.6121 29.6776C31.8778 29.5547 42.3891 24.6456 43.9738 23.9105C44.2008 23.8013 44.6389 23.6056 44.7865 23.5214C44.849 23.4897 44.9019 23.4417 44.9395 23.3824C44.9771 23.3231 44.998 23.2547 44.9999 23.1845C44.9984 23.1115 44.9781 23.0402 44.9409 22.9774C44.1043 21.9722 43.1207 21.0998 42.0236 20.3898C40.0393 21.6065 37.7656 22.2667 35.4398 22.3015C34.6702 22.3015 34.4976 22.2492 33.9732 22.2537C32.443 22.2537 32.0616 22.9137 32.0026 24.261C32.0026 24.5159 32.0026 24.8573 31.9754 25.2351C32.0324 26.6432 31.6456 28.0335 30.8698 29.2087" fill="#F47725"/>
</g>
<defs>
<clipPath id="clip0_4608_41199">
<rect width="42" height="33" fill="white" transform="translate(3 8)"/>
</clipPath>
</defs>
</svg>
