<svg width="48" height="48" viewBox="0 0 48 48" fill="none" xmlns="http://www.w3.org/2000/svg">
<g clip-path="url(#clip0_4608_41165)">
<path d="M19.553 24.8786C19.1143 20.8309 23.3125 17.5847 28.9364 17.629C34.5603 17.6733 39.4757 20.9881 39.9165 25.0292C40.3574 29.0703 36.1592 32.3209 30.5353 32.2766C24.9114 32.2323 19.9938 28.9197 19.553 24.8764M40.9606 26.1319C40.4539 21.1143 34.795 17.0047 28.3222 16.9493C21.8495 16.8939 17.013 20.9217 17.5219 25.9371C18.0307 30.9524 23.6875 35.0666 30.1603 35.1219C36.633 35.1773 41.4695 31.1517 40.9606 26.1319Z" fill="#F29F6D"/>
<path d="M31.1933 35.1729C30.0665 36.2175 28.6617 36.9068 27.1519 37.1557C25.642 37.4046 24.093 37.2023 22.6956 36.5738C21.2982 35.9452 20.1134 34.9179 19.287 33.6182C18.4606 32.3185 18.0287 30.8033 18.0445 29.259C18.0604 27.7146 18.5232 26.2087 19.3761 24.9265C20.229 23.6444 21.4346 22.642 22.8446 22.0429C24.2546 21.4437 25.8074 21.2738 27.3118 21.5542C28.8162 21.8346 30.2066 22.553 31.3117 23.621C32.8119 25.1695 33.6421 27.2558 33.6198 29.4217C33.5976 31.5876 32.7249 33.656 31.1933 35.1729ZM19.3817 24.1391C18.2373 25.5132 17.5158 27.1953 17.3062 28.9781C17.0966 30.7609 17.4081 32.5667 18.2022 34.1731C18.9963 35.7795 20.2384 37.1164 21.7756 38.0192C23.3128 38.922 25.078 39.3513 26.8538 39.2542C28.6296 39.1571 30.3385 38.5379 31.7701 37.4728C33.2017 36.4077 34.2936 34.9431 34.9112 33.2595C35.5288 31.5759 35.6452 29.7468 35.2461 27.9973C34.847 26.2477 33.9498 24.6542 32.665 23.4129C30.807 21.7334 28.3649 20.8667 25.8746 21.0028C23.3843 21.139 21.0492 22.2669 19.3817 24.1391Z" fill="#EB8255"/>
<path d="M19.7173 11.677C26.3479 9.17045 32.904 11.7059 34.3605 17.3434C35.8169 22.981 31.6253 29.5906 24.9946 32.095C18.3639 34.5993 11.8057 32.0684 10.3492 26.4286C8.89281 20.7888 13.0866 14.1881 19.7151 11.6749M13.5582 13.8316C6.67965 19.3296 4.92932 27.2966 9.64515 31.6255C14.361 35.9545 23.7641 35.0045 30.6448 29.5065C37.5255 24.0084 39.2759 16.0436 34.5578 11.7147C29.8398 7.38573 20.4367 8.33129 13.5582 13.8316Z" fill="#E35919"/>
</g>
<defs>
<clipPath id="clip0_4608_41165">
<rect width="34" height="31" fill="white" transform="translate(7 9)"/>
</clipPath>
</defs>
</svg>
