<svg width="48" height="48" viewBox="0 0 48 48" fill="none" xmlns="http://www.w3.org/2000/svg">
<path d="M28.9576 27.1386C28.8842 26.7052 28.7557 26.2828 28.5752 25.8813C28.0623 24.6781 27.1803 23.6651 26.054 22.986C25.1686 22.4658 24.1569 22.1942 23.1275 22.2002C22.0981 22.2062 21.0898 22.4896 20.2106 23.0201C19.389 23.5109 18.7212 24.2183 18.2819 25.0633C18.139 25.3524 18.0182 25.6518 17.9207 25.9589C17.6527 26.7577 17.5498 27.6017 17.6181 28.4407C17.6865 29.2797 17.9246 30.0965 18.3183 30.8424C18.5922 31.2993 19.0069 31.6571 19.5014 31.863C19.748 31.9623 20.0144 32.0034 20.2797 31.9834C20.5451 31.9634 20.8022 31.8826 21.0307 31.7475C21.2868 31.5524 21.4783 31.286 21.5805 30.9823C21.6826 30.6786 21.6908 30.3517 21.6041 30.0433C21.4059 29.2651 21.4257 28.448 21.6614 27.6801C21.7505 27.4278 21.894 27.1978 22.0819 27.0061C22.2042 26.8959 22.3413 26.8029 22.4891 26.7296C22.801 26.5748 23.1532 26.5186 23.4983 26.5686C23.7947 26.6338 24.0716 26.7671 24.3066 26.9575C24.5416 27.1479 24.7283 27.3902 24.8517 27.665C25.0927 28.2181 25.2175 28.8141 25.2187 29.4165C25.2267 32.0711 24.829 34.7116 24.0393 37.2483C23.9724 37.5058 23.8998 37.7633 23.8271 38.0189C23.7698 38.2083 23.6665 38.4715 23.7927 38.6628C23.8519 38.744 23.9336 38.8065 24.0278 38.8427C24.4101 38.998 24.7389 38.7613 25.0008 38.498C26.4962 36.9119 27.5972 35.0017 28.2159 32.9196C28.4761 32.1583 28.683 31.3801 28.8352 30.5906C29.0735 29.4506 29.1142 28.2788 28.9556 27.1253" fill="#00857E"/>
<path d="M40.0001 15.0331C39.997 14.9436 39.9756 14.8556 39.9372 14.7745C39.8988 14.6935 39.8441 14.621 39.7766 14.5615C39.709 14.502 39.6299 14.4567 39.5441 14.4284C39.4583 14.4001 39.3676 14.3894 39.2775 14.3968C38.8994 14.4515 38.5327 14.5666 38.1918 14.7377C31.2726 17.1993 23.8392 17.8955 16.5769 16.7619C15.3516 16.5896 14.1091 16.3434 12.8781 16.1522C12.1135 16.0329 11.349 15.8625 10.5672 15.8C9.87022 15.6638 9.1471 15.7995 8.54867 16.1787C8.2404 16.5142 8.04894 16.9388 8.00249 17.3901C7.95604 17.8414 8.05703 18.2956 8.2906 18.6858C8.81715 19.5742 9.57765 20.3039 10.4907 20.7971C11.3342 21.3948 12.3367 21.7334 13.3732 21.7704C16.1092 21.6 18.8368 21.3386 21.5562 20.9864C26.2849 20.6056 30.943 19.6144 35.4125 18.0382C36.8589 17.4723 38.2209 16.7142 39.461 15.7848C39.6847 15.6201 40.0001 15.3474 40.0001 15.0274" fill="#00857E"/>
<path d="M20.5125 12.7211C20.5125 13.4241 20.7944 14.0985 21.2963 14.5956C21.7982 15.0928 22.4788 15.372 23.1886 15.372C23.8983 15.372 24.579 15.0928 25.0809 14.5956C25.5827 14.0985 25.8646 13.4241 25.8646 12.7211C25.8638 12.5016 25.8142 12.2851 25.7194 12.0867C25.49 11.6039 25.2339 11.369 25.2568 10.7915C25.2912 10.0114 24.2819 10 23.7391 10C23.135 9.98166 22.5347 10.1009 21.9843 10.3485C21.5576 10.5635 21.1957 10.8861 20.935 11.2839C20.6694 11.6943 20.5232 12.1693 20.5125 12.6567C20.5111 12.6781 20.5111 12.6996 20.5125 12.7211Z" fill="#E4003F"/>
</svg>
