<svg width="48" height="48" viewBox="0 0 48 48" fill="none" xmlns="http://www.w3.org/2000/svg">
<path d="M16.5149 16.9412C16.0377 18.1037 14.0517 18.9145 13.002 19.9638C10.5686 22.3963 11.2187 26.8915 13.7236 27.756C16.0318 28.5429 13.8489 24.3577 16.0318 22.5393C18.3399 20.7687 24.3041 23.8629 19.5268 27.899C18.4055 28.7218 18.2385 28.996 17.5109 29.7234C13.5984 33.6343 19.9443 38.064 24.5904 37.4976C28.7057 36.9968 29.833 34.2961 30.4055 30.4507C30.9244 26.9452 30.2266 25.723 30.7693 23.1773C32.5169 18.3541 38.165 22.4618 38.9582 24.7989C38.9761 24.5306 39 24.2683 39 23.994C39 15.719 32.2843 9 23.994 9C19.2465 9 15.0238 11.2118 12.2803 14.6518C15.4473 12.6785 17.5049 14.5624 16.5149 16.9352V16.9412Z" fill="url(#paint0_radial_4608_41146)"/>
<path d="M30.7694 23.1773C30.2207 25.723 30.9245 26.9512 30.4056 30.4508C29.839 34.3021 28.7058 36.9969 24.5905 37.4977C19.9443 38.064 13.5984 33.6344 17.5109 29.7234C18.2386 28.9961 18.4056 28.7218 19.5269 27.8991C24.3042 23.8629 18.34 20.7687 16.0318 22.5394C13.8489 24.3578 16.0318 28.543 13.7237 27.756C11.2187 26.8915 10.5686 22.3963 13.002 19.9639C14.0517 18.9086 16.0437 18.0978 16.5149 16.9412C17.499 14.5625 15.4473 12.6785 12.2803 14.6578C10.2286 17.2214 9 20.4647 9 24.0001C9 32.2811 15.7157 39.0001 24 39.0001C32.2843 39.0001 38.5467 32.7103 38.9642 24.8049C38.165 22.4619 32.5229 18.3601 30.7754 23.1833L30.7694 23.1773ZM30.1849 18.6165C31.6223 19.6479 33.34 19.7194 34.0318 18.7536C34.7296 17.7938 34.1213 16.1721 32.6899 15.1467C31.2584 14.1034 29.5288 14.0378 28.837 14.9977C28.1451 15.9575 28.7475 17.5791 30.1789 18.6165H30.1849Z" fill="url(#paint1_radial_4608_41146)"/>
<defs>
<radialGradient id="paint0_radial_4608_41146" cx="0" cy="0" r="1" gradientUnits="userSpaceOnUse" gradientTransform="translate(32.8967 22.3834) scale(19.8807 19.8728)">
<stop stop-color="#EF4130"/>
<stop offset="0.17" stop-color="#E63A2D"/>
<stop offset="0.45" stop-color="#CD2927"/>
<stop offset="0.6" stop-color="#BE1F24"/>
<stop offset="1" stop-color="#7A1315"/>
</radialGradient>
<radialGradient id="paint1_radial_4608_41146" cx="0" cy="0" r="1" gradientUnits="userSpaceOnUse" gradientTransform="translate(29.0577 16.6849) scale(19.4433 19.4356)">
<stop stop-color="#E6E7E8"/>
<stop offset="1" stop-color="#8A9298"/>
</radialGradient>
</defs>
</svg>
