<svg width="48" height="48" viewBox="0 0 48 48" fill="none" xmlns="http://www.w3.org/2000/svg">
<g clip-path="url(#clip0_4608_41122)">
<path d="M10.8628 22.2213C10.355 22.191 9.84823 22.2956 9.39498 22.5242C8.94173 22.7527 8.55851 23.097 8.28497 23.5213C8.04444 23.0935 7.68434 22.7433 7.24778 22.5128C6.81123 22.2822 6.3167 22.181 5.82349 22.2213C5.35686 22.2145 4.89549 22.3193 4.47867 22.5269C4.06185 22.7345 3.70195 23.0387 3.42963 23.4136V22.4701H1.00195V30.701H3.54792V25.9635C3.53568 25.7789 3.56227 25.5938 3.62602 25.42C3.68976 25.2461 3.78928 25.0873 3.91827 24.9534C4.04725 24.8196 4.2029 24.7136 4.37539 24.6423C4.54788 24.571 4.73348 24.5358 4.92041 24.539C5.10518 24.5273 5.29031 24.5557 5.46274 24.6224C5.63517 24.6891 5.79069 24.7925 5.91835 24.9251C6.04601 25.0578 6.1427 25.2165 6.20157 25.3901C6.26045 25.5638 6.28009 25.7481 6.2591 25.93V30.6991H8.77126V25.9449C8.76132 25.7603 8.79018 25.5756 8.85603 25.4026C8.92189 25.2296 9.0233 25.072 9.15387 24.9397C9.28443 24.8074 9.44132 24.7033 9.6146 24.634C9.78789 24.5647 9.97383 24.5318 10.1607 24.5372C10.3436 24.5284 10.5263 24.5591 10.696 24.6272C10.8658 24.6953 11.0184 24.7992 11.1435 24.9316C11.2686 25.0639 11.363 25.2217 11.4202 25.3938C11.4775 25.5659 11.4961 25.7482 11.4749 25.9281V30.6973H13.9364V25.3692C13.9758 24.9553 13.9243 24.5379 13.7854 24.1455C13.6464 23.7532 13.4233 23.3953 13.1313 23.0962C12.8394 22.7972 12.4855 22.5642 12.0939 22.4132C11.7023 22.2622 11.2824 22.1967 10.8628 22.2213Z" fill="#EE3A23"/>
<path d="M26.561 23.5789V22.4646H24.1089V30.6954H26.6548V27.1019C26.6548 25.462 27.5767 24.8733 28.5981 24.8733C28.8683 24.8699 29.1381 24.898 29.4017 24.9569V22.472C29.183 22.4153 28.9575 22.3878 28.7314 22.3903C28.2935 22.3685 27.8583 22.4683 27.4748 22.6783C27.0912 22.8883 26.7747 23.2003 26.561 23.5789Z" fill="#EE3A23"/>
<path d="M32.8133 22.4701H30.2673V30.701H32.8133V22.4701Z" fill="#EE3A23"/>
<path d="M37.4264 20.0688H35.149V21.1292C35.169 21.3047 35.1501 21.4823 35.0933 21.6497C35.0366 21.8171 34.9435 21.9701 34.8205 22.0981C34.6976 22.226 34.5478 22.3259 34.3817 22.3904C34.2156 22.455 34.0372 22.4829 33.8591 22.472H33.4404V24.6745H34.9143V28.2031C34.8899 28.5661 34.946 28.93 35.0785 29.2693C35.2111 29.6086 35.417 29.9151 35.6818 30.1675C35.9467 30.4199 36.264 30.612 36.6117 30.7305C36.9594 30.8489 37.3292 30.8909 37.6949 30.8533C38.145 30.8735 38.594 30.7942 39.0092 30.6211V28.5337C38.7894 28.5851 38.5647 28.6131 38.3389 28.6173C37.7869 28.6173 37.4189 28.4316 37.4189 27.7556V24.6727H39.043V22.4701H37.4189L37.4264 20.0688Z" fill="#EE3A23"/>
<path d="M31.5213 18C31.1976 18.0036 30.8823 18.1019 30.6149 18.2825C30.3475 18.4631 30.1401 18.7178 30.0187 19.0147C29.8974 19.3116 29.8676 19.6374 29.933 19.951C29.9985 20.2646 30.1562 20.5521 30.3864 20.7773C30.6167 21.0024 30.909 21.1551 31.2268 21.2163C31.5446 21.2774 31.8736 21.2442 32.1724 21.1208C32.4711 20.9974 32.7263 20.7894 32.9058 20.5229C33.0853 20.2564 33.1811 19.9433 33.1811 19.6231C33.1811 19.4084 33.138 19.1958 33.0544 18.9976C32.9708 18.7995 32.8483 18.6197 32.6939 18.4687C32.5395 18.3178 32.3564 18.1986 32.1551 18.1182C31.9538 18.0377 31.7384 17.9975 31.5213 18Z" fill="#EE3A23"/>
<path d="M18.9963 22.173C17.8454 22.2434 16.7666 22.7514 15.9857 23.5906C15.2047 24.4299 14.7822 25.5353 14.8064 26.6757C14.8307 27.816 15.2999 28.9029 16.1158 29.7089C16.9317 30.5149 18.0312 30.9775 19.1841 31C19.9554 31.047 20.7231 30.8622 21.3862 30.4698C22.0494 30.0773 22.577 29.4957 22.8998 28.8012L20.7951 28.01C20.6413 28.2841 20.4104 28.5082 20.1305 28.6552C19.8506 28.8022 19.5336 28.8658 19.2179 28.8383C18.7514 28.8638 18.2928 28.7111 17.9368 28.4119C17.5808 28.1126 17.3545 27.6895 17.3047 27.23H23.1645C23.201 26.9691 23.218 26.706 23.2152 26.4426C23.2713 25.8765 23.2015 25.3051 23.0108 24.7684C22.82 24.2318 22.5129 23.7429 22.1109 23.3361C21.7089 22.9293 21.2218 22.6144 20.6838 22.4135C20.1458 22.2126 19.5698 22.1305 18.9963 22.173ZM17.3535 25.5902C17.3989 25.1883 17.5978 24.8188 17.9094 24.5572C18.221 24.2955 18.6219 24.1615 19.0302 24.1825C19.2361 24.1566 19.4452 24.1732 19.6443 24.2313C19.8434 24.2894 20.0282 24.3877 20.187 24.52C20.3458 24.6522 20.4751 24.8156 20.5668 24.9998C20.6586 25.184 20.7107 25.385 20.7199 25.5902H17.3535Z" fill="#EE3A23"/>
<path d="M43.1305 28.4984L46.9325 24.5408V22.4701H40.117V24.6727H43.6355L40.0156 28.4817V30.701H46.9982V28.4984H43.1305Z" fill="#EE3A23"/>
</g>
<defs>
<clipPath id="clip0_4608_41122">
<rect width="46" height="13" fill="white" transform="translate(1 18)"/>
</clipPath>
</defs>
</svg>
