<svg width="48" height="48" viewBox="0 0 48 48" fill="none" xmlns="http://www.w3.org/2000/svg">
<path d="M28.1131 28.5715C26.9464 29.4952 25.4963 29.9985 24.0017 29.9985C22.507 29.9985 21.0569 29.4952 19.8902 28.5715C18.7253 27.6521 17.279 27.1514 15.7885 27.1514C14.2979 27.1514 12.8516 27.6521 11.6868 28.5715V18.4285C12.8516 19.3479 14.2979 19.8487 15.7885 19.8487C17.279 19.8487 18.7253 19.3479 19.8902 18.4285C21.0569 17.5049 22.507 17.0016 24.0017 17.0016C25.4963 17.0016 26.9464 17.5049 28.1131 18.4285V28.5715Z" fill="url(#paint0_linear_4608_41192)"/>
<path d="M28.113 18.4285C29.2772 19.3482 30.723 19.8492 32.2131 19.8492C33.7032 19.8492 35.1491 19.3482 36.3132 18.4285C37.2799 17.6623 38.4459 17.1818 39.6768 17.0423C40.9077 16.9028 42.1535 17.11 43.2704 17.6401C44.3874 18.1702 45.3301 19.0015 45.99 20.0383C46.6498 21.075 46.9999 22.2751 46.9999 23.5C46.9999 24.7249 46.6498 25.925 45.99 26.9617C45.3301 27.9985 44.3874 28.8298 43.2704 29.3599C42.1535 29.89 40.9077 30.0972 39.6768 29.9577C38.4459 29.8182 37.2799 29.3377 36.3132 28.5715C35.1491 27.6518 33.7032 27.1508 32.2131 27.1508C30.723 27.1508 29.2772 27.6518 28.113 28.5715V18.4285Z" fill="url(#paint1_linear_4608_41192)"/>
<path d="M11.6868 28.5715C10.7201 29.3377 9.55406 29.8182 8.32314 29.9577C7.09222 30.0972 5.84649 29.89 4.72952 29.3599C3.61254 28.8298 2.6698 27.9985 2.00995 26.9617C1.3501 25.925 1 24.7249 1 23.5C1 22.2751 1.3501 21.075 2.00995 20.0383C2.6698 19.0015 3.61254 18.1702 4.72952 17.6401C5.84649 17.11 7.09222 16.9028 8.32314 17.0423C9.55406 17.1818 10.7201 17.6623 11.6868 18.4285V28.5715Z" fill="url(#paint2_linear_4608_41192)"/>
<defs>
<linearGradient id="paint0_linear_4608_41192" x1="11.9758" y1="23.4552" x2="28.379" y2="23.4552" gradientUnits="userSpaceOnUse">
<stop stop-color="#00AFEC"/>
<stop offset="1" stop-color="#197FC4"/>
</linearGradient>
<linearGradient id="paint1_linear_4608_41192" x1="28.3802" y1="23.4551" x2="47.242" y2="23.4551" gradientUnits="userSpaceOnUse">
<stop stop-color="#8FC31F"/>
<stop offset="1" stop-color="#00A73C"/>
</linearGradient>
<linearGradient id="paint2_linear_4608_41192" x1="1.30289" y1="23.4551" x2="11.9733" y2="23.4551" gradientUnits="userSpaceOnUse">
<stop stop-color="#FDD000"/>
<stop offset="1" stop-color="#F39800"/>
</linearGradient>
</defs>
</svg>
