<svg width="48" height="48" viewBox="0 0 48 48" fill="none" xmlns="http://www.w3.org/2000/svg">
<g clip-path="url(#clip0_4608_41182)">
<mask id="mask0_4608_41182" style="mask-type:luminance" maskUnits="userSpaceOnUse" x="3" y="19" width="43" height="11">
<path d="M46 19H3V30H46V19Z" fill="white"/>
</mask>
<g mask="url(#mask0_4608_41182)">
<path d="M30.8792 19C29.7887 19 28.7228 19.3226 27.8161 19.9269C26.9094 20.5313 26.2027 21.3902 25.7854 22.3952C25.3681 23.4002 25.2589 24.5061 25.4717 25.573C25.6844 26.6399 26.2095 27.6199 26.9806 28.3891C27.7517 29.1583 28.7341 29.6821 29.8036 29.8943C30.8731 30.1065 31.9817 29.9976 32.9891 29.5813C33.9966 29.1651 34.8576 28.4601 35.4635 27.5556C36.0693 26.6512 36.3927 25.5878 36.3927 24.5C36.3909 23.0419 35.8094 21.6439 34.7758 20.6129C33.7422 19.5818 32.3409 19.0018 30.8792 19ZM30.8792 28.3769C29.8738 28.3522 28.9192 27.9314 28.2241 27.2064C27.529 26.4815 27.1499 25.5114 27.1698 24.5084C27.1459 24.0082 27.224 23.5083 27.3994 23.0391C27.5748 22.5699 27.8439 22.1411 28.1903 21.7787C28.5367 21.4162 28.9532 21.1277 29.4147 20.9305C29.8762 20.7334 30.373 20.6317 30.875 20.6317C31.377 20.6317 31.8738 20.7334 32.3352 20.9305C32.7967 21.1277 33.2133 21.4162 33.5597 21.7787C33.9061 22.1411 34.1751 22.5699 34.3505 23.0391C34.5259 23.5083 34.6041 24.0082 34.5801 24.5084C34.6001 25.5114 34.221 26.4815 33.5259 27.2064C32.8307 27.9314 31.8761 28.3522 30.8708 28.3769" fill="#1D1D1B"/>
<path d="M7.91154 19.5701H3V19.7383C3.32475 20.0891 3.56519 20.509 3.70307 20.9663C3.84096 21.4235 3.87268 21.906 3.79583 22.3773V29.5896C3.79583 29.6306 3.81217 29.67 3.84126 29.699C3.87035 29.728 3.90981 29.7443 3.95095 29.7443H7.91154C8.63156 29.8291 9.36142 29.7608 10.0531 29.5439C10.7447 29.327 11.3825 28.9665 11.9244 28.486C12.4663 28.0055 12.9 27.4159 13.197 26.7561C13.494 26.0964 13.6476 25.3813 13.6476 24.6581C13.6476 23.9348 13.494 23.2198 13.197 22.56C12.9 21.9002 12.4663 21.3107 11.9244 20.8302C11.3825 20.3497 10.7447 19.9891 10.0531 19.7722C9.36142 19.5553 8.63156 19.4853 7.91154 19.5701ZM7.43438 28.5367H5.69772V20.7996H7.43438C10.3142 20.7996 11.631 22.263 11.631 24.6496C11.6327 27.0515 10.3142 28.5367 7.43438 28.5367Z" fill="#1D1D1B"/>
<path d="M40.3113 28.5249V19.5702H37.6135V19.7384C37.9384 20.0891 38.1789 20.509 38.3168 20.9663C38.4547 21.4235 38.4863 21.9061 38.4094 22.3774V29.5896C38.4094 29.6099 38.4134 29.6301 38.4212 29.6488C38.429 29.6676 38.4404 29.6847 38.4548 29.699C38.4692 29.7134 38.4863 29.7248 38.5051 29.7326C38.5239 29.7403 38.5441 29.7444 38.5645 29.7444H45.9984V28.5249H40.3113Z" fill="#1D1D1B"/>
<path d="M20.0277 19.4642V19.4491H17.6183V19.6173C17.8744 19.758 18.0673 19.9907 18.1577 20.268C18.2482 20.5454 18.2296 20.8467 18.1055 21.1109L14.0488 29.7444H15.4466C15.476 29.7443 15.5047 29.7358 15.5295 29.72C15.5543 29.7043 15.5741 29.6818 15.5865 29.6552L16.5543 27.5915H21.7441L22.7136 29.6552C22.7259 29.6819 22.7456 29.7045 22.7704 29.7203C22.7952 29.7361 22.8241 29.7445 22.8535 29.7444H24.8498L20.0277 19.4642ZM17.1242 26.3704L19.1475 22.0578L21.1742 26.3704H17.1242Z" fill="#1D1D1B"/>
</g>
</g>
<defs>
<clipPath id="clip0_4608_41182">
<rect width="43" height="11" fill="white" transform="translate(3 19)"/>
</clipPath>
</defs>
</svg>
