<svg width="48" height="48" viewBox="0 0 48 48" fill="none" xmlns="http://www.w3.org/2000/svg">
<path d="M15.7846 8.38583C15.3595 8.59739 14.9806 8.89102 14.6696 9.2498C14.3586 9.60858 14.1218 10.0254 13.9727 10.4762L8.18886 27.8675C7.88712 28.7777 7.95868 29.7704 8.38782 30.628C8.81697 31.4855 9.56869 32.1379 10.4781 32.442L29.4506 38.8066C29.9014 38.9571 30.3774 39.0171 30.8515 38.9834C31.3255 38.9496 31.7882 38.8227 32.2131 38.6098C32.638 38.397 33.0168 38.1025 33.3277 37.7431C33.6387 37.3837 33.8757 36.9664 34.0252 36.5153L39.811 19.13C40.1121 18.2195 40.04 17.2268 39.6105 16.3694C39.181 15.5119 38.4292 14.8596 37.5197 14.5555L18.5512 8.1909C18.1 8.03835 17.6229 7.97738 17.1479 8.01154C16.6728 8.04569 16.2093 8.17429 15.7846 8.3898" fill="white"/>
<path d="M25.0651 25.0909C24.0229 26.2624 22.7185 27.1709 21.2583 27.7422L20.403 28.0743V20.0152L21.2464 20.3453C22.7095 20.9118 24.0175 21.817 25.0631 22.9866C25.7345 21.901 26.1593 20.6812 26.3077 19.4134C26.4561 18.1456 26.3244 16.8607 25.9219 15.6494C25.5194 14.4381 24.8559 13.3299 23.9782 12.403C23.1006 11.4761 22.0302 10.7532 20.8426 10.2853L18.1018 9.37238C17.8084 9.27562 17.4988 9.23785 17.1907 9.26124C16.8827 9.28463 16.5823 9.36871 16.3068 9.50864C16.0314 9.64858 15.7864 9.84161 15.5858 10.0766C15.3853 10.3116 15.2332 10.584 15.1383 10.878L9.3346 28.2792C9.14259 28.8766 9.19486 29.5258 9.47996 30.0848C9.76505 30.6438 10.2598 31.0672 10.8562 31.2626L24.0249 35.6601C25.3396 34.2584 26.1541 32.4614 26.3415 30.5488C26.5289 28.6362 26.0788 26.7152 25.0611 25.085M17.4475 19.5319V28.5676H16.1408V19.5319H17.4475Z" fill="#0082BD"/>
<path d="M24.2994 24.0388C23.5618 23.1678 22.6621 22.4484 21.6501 21.9205V26.1669C22.6638 25.6374 23.5639 24.9144 24.2994 24.0388Z" fill="#DB2422"/>
<path d="M37.1002 15.715L25.0154 11.6755C26.5382 13.3326 27.454 15.4573 27.6129 17.7022C27.7719 19.9471 27.1647 22.1796 25.8905 24.0348C27.1306 25.8302 27.7457 27.9836 27.6411 30.1631C27.5365 32.3426 26.718 34.4273 25.3117 36.0957L29.8525 37.6113C30.146 37.708 30.4558 37.7456 30.7639 37.7221C31.0721 37.6986 31.3725 37.6144 31.648 37.4742C31.9235 37.3341 32.1685 37.1408 32.3689 36.9056C32.5694 36.6704 32.7213 36.3978 32.816 36.1037L38.6217 18.7024C38.8104 18.1047 38.7563 17.4568 38.4713 16.8986C38.1862 16.3403 37.693 15.9166 37.0982 15.719M33.896 28.5437H32.2631L28.9037 24.0248L32.3148 19.5099H33.9616L30.5506 24.0348L33.896 28.5437Z" fill="#004B8C"/>
</svg>
