<svg width="48" height="48" viewBox="0 0 48 48" fill="none" xmlns="http://www.w3.org/2000/svg">
<path d="M39.4777 24.6437L39.1997 24.4677C38.6617 23.9801 38.0234 23.6163 37.3298 23.4017C36.6361 23.1871 35.9039 23.1269 35.1845 23.2255C33.9331 23.3301 32.7272 23.743 31.6743 24.4272V24.3885C31.6839 23.9102 31.7185 23.4327 31.7781 22.958C31.8378 22.4757 31.8725 21.9906 31.8819 21.5047C31.898 21.0534 31.8232 20.6034 31.662 20.1815C31.6412 20.1326 31.6059 20.0912 31.561 20.0629C31.516 20.0346 31.4634 20.0207 31.4103 20.0232C30.8383 20.0768 30.2853 20.2571 29.7916 20.551L29.6702 20.815C29.6651 21.538 29.5849 22.2586 29.4309 22.9651L29.3693 23.141C29.1705 24.9564 29.164 26.7876 29.3499 28.6043C29.3693 28.7627 29.6719 28.9985 29.906 29.0812C30.4297 29.0972 30.9506 28.9974 31.4315 28.7891L31.6074 28.7627C31.6422 28.7575 31.6756 28.7455 31.7058 28.7274C31.736 28.7093 31.7622 28.6854 31.7832 28.6572C31.8041 28.6289 31.8192 28.5968 31.8277 28.5627C31.8362 28.5285 31.8379 28.4931 31.8326 28.4583L31.8449 28.0078C32.0549 27.2273 32.471 26.5177 33.0496 25.9533C33.6282 25.3889 34.348 24.9907 35.1335 24.8002C35.5274 24.7145 35.9371 24.7345 36.3208 24.8581C36.7046 24.9817 37.0489 25.2045 37.3188 25.504C37.4943 26.2561 37.3679 27.047 36.9669 27.707C36.3956 28.6395 35.5083 29.3358 34.4666 29.6688C33.2397 30.1014 31.9379 30.281 30.6397 30.1967L29.2321 29.25C27.9883 28.3081 26.6412 27.5113 25.2168 26.8747C24.8881 26.6947 24.5811 26.4774 24.3019 26.2272L24.1647 26.1128C23.3887 25.4935 21.916 24.5187 20.7318 23.734L20.0931 23.3082C20.0931 23.2642 20.0931 23.1762 20.0931 23.1762C20.1283 23.1375 20.8726 22.6959 20.8726 22.6959C21.4544 22.4105 21.9996 22.056 22.4966 21.6402C22.4755 21.6648 22.6356 21.5592 22.6356 21.5592L25.2168 20.1059C27.6489 18.9309 29.9207 17.4497 31.9769 15.6983L32.0473 15.466L32.0807 15.2601C32.1778 14.9821 32.1852 14.6805 32.1018 14.398C32.0896 14.3499 32.0645 14.3061 32.0291 14.2714C31.9937 14.2366 31.9495 14.2123 31.9012 14.2009C31.1478 14.2241 30.4066 14.3983 29.7217 14.7132C29.0369 15.0281 28.4222 15.4774 27.9142 16.0343C27.6644 16.2623 27.3843 16.4547 27.0819 16.6062L26.8761 16.717C25.3858 17.5598 22.0286 19.6325 20.2709 20.7516C20.4369 18.4751 20.7359 16.2102 21.1665 13.9687L21.1189 13.703C21.1189 13.6942 20.943 13.3652 20.943 13.3652L20.8057 13.1223L20.7653 13.1118C20.5004 12.9839 20.1959 12.965 19.9172 13.059L19.5653 13.1892L19.0973 13.3652C19.0533 13.3727 19.0122 13.3919 18.9782 13.4206C18.9442 13.4494 18.9184 13.4867 18.9037 13.5288C17.9505 16.0947 17.3755 18.7856 17.197 21.517C15.9104 20.7115 14.5793 19.9795 13.2099 19.3246L13.1888 19.3123L13.0973 19.2929C12.7649 19.2076 12.4508 19.0628 12.17 18.8654L11.5313 18.4537L10.5566 17.8343L10.2979 17.7762C9.72634 17.9506 9.21853 18.2889 8.83753 18.7493C8.80901 18.7965 8.79381 18.8506 8.79353 18.9058C8.79817 18.9843 8.81295 19.0618 8.83753 19.1364L8.88327 19.3334L8.92902 19.4531C9.78268 20.1924 10.7226 20.8257 11.7284 21.3393L13.0709 22.0431L15.1208 23.1569C15.1208 23.1674 15.4727 23.4331 15.4727 23.4331L15.7137 23.5721L15.7577 23.6002C15.2105 23.9609 12.0258 26.0759 12.0258 26.0759L10.0639 27.3691C9.69687 27.5691 9.31919 27.7488 8.93254 27.9075C8.56109 28.0345 8.24844 28.2922 8.05278 28.6325L8 28.7451L8.05278 28.819L8.20234 28.9316L8.40292 29.0635L8.61934 29.2096L8.82344 29.243C9.45853 29.1563 10.0723 28.9535 10.634 28.6448C11.5138 28.2577 13.8926 26.829 14.9114 26.2202L15.346 25.9597C15.5553 25.9347 15.7503 25.8406 15.9002 25.6923C16.1871 25.4778 16.4948 25.2927 16.8187 25.1398C16.8187 25.1398 16.9806 25.0501 17.1284 24.9639C17.1284 25.0079 17.1284 25.08 17.1284 25.08C17.1112 27.4537 17.3002 29.8245 17.6932 32.1656V32.1937L17.7266 32.2659C17.9625 32.7865 18.1396 33.3317 18.2544 33.8916L18.6433 35.1849C18.6521 35.2007 18.7524 35.3063 18.7524 35.3063C19.1609 35.545 19.6271 35.6667 20.1002 35.6582L20.2128 35.6459L20.2832 35.4893C20.32 35.2938 20.3377 35.0952 20.336 34.8963C20.336 34.6606 20.3184 34.3984 20.2972 34.0799L20.2656 33.6136C20.1213 31.4512 19.9823 28.3263 19.9823 26.2519V26.0864L21.967 27.3287C24.8986 29.4054 28.0588 31.1387 31.3857 32.4946C31.4481 32.5147 31.5148 32.5177 31.5788 32.5035C31.6428 32.4893 31.7019 32.4582 31.7499 32.4136L32.137 32.1656L32.2074 32.1339C32.2928 32.0663 32.361 31.9793 32.4063 31.8802C32.4516 31.7811 32.4727 31.6727 32.4678 31.5638C33.7118 31.5443 34.9395 31.2788 36.0804 30.7827C37.2213 30.2865 38.2527 29.5695 39.1153 28.6729C39.6786 27.9593 39.9881 27.0783 39.995 26.1692C40.0141 25.8911 39.9782 25.612 39.8895 25.3479C39.8007 25.0837 39.6608 24.8397 39.4777 24.6296" fill="#FCAF17"/>
</svg>
