<svg width="48" height="48" viewBox="0 0 48 48" fill="none" xmlns="http://www.w3.org/2000/svg">
<g clip-path="url(#clip0_795_95463)">
<mask id="mask0_795_95463" style="mask-type:luminance" maskUnits="userSpaceOnUse" x="5" y="14" width="38" height="20">
<path d="M42.931 14H5V33.422H42.931V14Z" fill="white"/>
</mask>
<g mask="url(#mask0_795_95463)">
<path d="M17.014 16.223C17.414 16.147 17.67 16.147 17.764 16.247C17.7959 16.2905 17.813 16.3431 17.813 16.397C17.813 16.4509 17.7959 16.5035 17.764 16.547C17.7154 16.6263 17.6606 16.7015 17.6 16.772C14.245 20.727 11.7 26.559 10.968 28.243C10.912 28.358 10.857 28.471 10.811 28.543C10.7845 28.6061 10.7412 28.6607 10.6859 28.7009C10.6305 28.7411 10.5652 28.7654 10.497 28.771C10.3538 28.7717 10.2139 28.7277 10.097 28.645C7.873 27.27 6.549 25.561 6.549 23.705C6.549 20.356 10.856 17.476 17.015 16.22M20.456 18.74C20.769 18.01 21.314 16.44 22.566 15.819C22.9631 15.6349 23.3944 15.5361 23.832 15.529C23.925 15.529 23.991 15.529 24.019 15.529C27.2288 15.5045 30.425 15.9495 33.506 16.85C33.527 16.856 33.591 16.88 33.606 16.887C33.857 16.973 33.988 17.087 33.988 17.23C33.9842 17.2897 33.9683 17.348 33.9411 17.4014C33.9139 17.4547 33.8761 17.5019 33.83 17.54C33.791 17.577 33.73 17.627 33.657 17.692C31.8071 19.0928 29.7487 20.1946 27.557 20.957C26.1105 21.5462 24.6203 22.0219 23.1 22.38C22.133 22.58 18.564 23.128 20.451 18.743M37.462 18.855C37.488 18.7955 37.5296 18.7441 37.5824 18.7063C37.6352 18.6684 37.6973 18.6455 37.762 18.64C37.8926 18.6402 38.0195 18.6834 38.123 18.763C40.169 20.057 41.381 21.673 41.381 23.425C41.381 26.587 37.428 29.304 31.774 30.494C31.411 30.565 31.174 30.564 31.088 30.47C31.0556 30.4296 31.038 30.3793 31.038 30.3275C31.038 30.2757 31.0556 30.2254 31.088 30.185C31.1315 30.109 31.1817 30.037 31.238 29.97C34.317 26.238 36.662 20.734 37.329 19.145C37.379 19.035 37.429 18.927 37.467 18.855M27.537 28.655C27.222 29.391 26.678 30.955 25.426 31.579C25.0293 31.7633 24.5984 31.8628 24.161 31.871C24.061 31.871 23.999 31.871 23.972 31.871C20.7629 31.8954 17.5673 31.4521 14.486 30.555C14.462 30.549 14.4 30.522 14.386 30.514C14.134 30.432 14.006 30.314 14.006 30.171C14.0085 30.1116 14.0237 30.0535 14.0507 30.0006C14.0776 29.9476 14.1155 29.901 14.162 29.864C14.2164 29.8098 14.2735 29.7584 14.333 29.71C16.1823 28.3082 18.2409 27.2063 20.433 26.445C21.8806 25.8546 23.3721 25.3785 24.894 25.021C25.858 24.821 29.429 24.274 27.542 28.655M23.973 33.421C34.448 33.421 42.938 29.073 42.938 23.709C42.938 18.345 34.442 14 23.967 14C13.492 14 5 18.348 5 23.71C5 29.072 13.492 33.422 23.967 33.422" fill="#002361"/>
</g>
</g>
<defs>
<clipPath id="clip0_795_95463">
<rect width="37.931" height="19.422" fill="white" transform="translate(5 14)"/>
</clipPath>
</defs>
</svg>
