<svg width="48" height="48" viewBox="0 0 48 48" fill="none" xmlns="http://www.w3.org/2000/svg">
<g clip-path="url(#clip0_795_95461)">
<mask id="mask0_795_95461" style="mask-type:luminance" maskUnits="userSpaceOnUse" x="2" y="19" width="44" height="11">
<path d="M46 19H2V29.3469H46V19Z" fill="white"/>
</mask>
<g mask="url(#mask0_795_95461)">
<path d="M27.5293 28.1671C27.5293 28.2477 27.554 28.2946 27.6033 28.2946C27.642 28.2916 27.679 28.2774 27.7097 28.2537L41.4226 19.3493C41.6535 19.1869 41.9304 19.1026 42.2126 19.1088H45.2275C45.3306 19.1026 45.4338 19.1183 45.5304 19.1549C45.6269 19.1916 45.7146 19.2483 45.7876 19.3213C45.8607 19.3943 45.9174 19.482 45.954 19.5786C45.9906 19.6752 46.0063 19.7784 46.0001 19.8815V25.6357C46.0376 25.9304 45.9836 26.2294 45.8453 26.4923C45.7071 26.7551 45.4914 26.9691 45.2275 27.1053L41.5711 29.3018C41.5359 29.3276 41.4943 29.3434 41.4508 29.3475C41.4063 29.3475 41.3654 29.312 41.3654 29.1881V22.4706C41.3654 22.3978 41.3408 22.3413 41.2915 22.3413C41.2529 22.3444 41.216 22.3584 41.1851 22.3816L31.1587 28.8929C30.9332 29.0498 30.6644 29.1326 30.3896 29.1298H23.7431C23.6399 29.136 23.5366 29.1203 23.44 29.0837C23.3434 29.0471 23.2556 28.9904 23.1825 28.9174C23.1094 28.8444 23.0526 28.7567 23.0158 28.6601C22.979 28.5636 22.9632 28.4603 22.9692 28.3571V20.0643C22.9692 20.0041 22.9422 19.9476 22.8965 19.9476C22.8576 19.9508 22.8204 19.9646 22.7888 19.9873L16.1747 23.9594C16.108 23.9991 16.0906 24.0321 16.0906 24.064C16.0906 24.0959 16.1008 24.1187 16.1477 24.1656L20.8707 28.8881C20.9339 28.9518 20.9772 28.9993 20.9772 29.0486C20.9772 29.0979 20.908 29.1298 20.8275 29.1298H16.5547C16.417 29.1453 16.2775 29.1327 16.1447 29.0928C16.0119 29.0529 15.8885 28.9865 15.7821 28.8977L12.9182 26.035C12.9082 26.0222 12.8957 26.0115 12.8814 26.0036C12.8671 25.9958 12.8514 25.9909 12.8352 25.9893C12.8038 25.9917 12.7735 26.0022 12.7474 26.02L7.95281 28.8989C7.72487 29.0529 7.45524 29.1335 7.18016 29.1298H2.77276C2.66967 29.136 2.56644 29.1203 2.46987 29.0837C2.37331 29.0471 2.28561 28.9904 2.21259 28.9173C2.13956 28.8443 2.08286 28.7566 2.04623 28.66C2.00961 28.5635 1.99389 28.4602 2.00012 28.3571V22.7051C1.96346 22.4113 2.01806 22.1134 2.15649 21.8517C2.29492 21.59 2.51049 21.3772 2.77397 21.2422L6.4496 19.0331C6.47933 19.0124 6.51444 19.001 6.55062 19C6.60714 19 6.6372 19.0601 6.6372 19.1864V26.7391C6.6372 26.8185 6.65945 26.8545 6.71116 26.8545C6.75084 26.8492 6.78839 26.8334 6.81999 26.8088L19.2485 19.3409C19.4894 19.1769 19.7769 19.0955 20.068 19.1088H26.7567C26.8598 19.1026 26.963 19.1183 27.0596 19.1549C27.1561 19.1916 27.2438 19.2483 27.3169 19.3213C27.3899 19.3943 27.4466 19.482 27.4832 19.5786C27.5198 19.6752 27.5356 19.7784 27.5293 19.8815V28.1671Z" fill="#AC1B27"/>
</g>
</g>
<defs>
<clipPath id="clip0_795_95461">
<rect width="44" height="10.3469" fill="white" transform="translate(2 19)"/>
</clipPath>
</defs>
</svg>
