<svg width="48" height="48" viewBox="0 0 48 48" fill="none" xmlns="http://www.w3.org/2000/svg">
<path d="M20.3552 9.07738C19.3842 9.31287 18.4406 9.64807 17.5396 10.0775L17.2874 10.2026L17.3126 10.04C17.3337 9.8983 17.3253 9.86909 17.2412 9.82322C16.7699 9.56482 14.5181 10.3025 12.627 11.3319C12.3324 11.4944 12.2403 11.5277 12.2655 11.4695C12.4966 10.9193 11.963 10.9527 10.7107 11.5571C8.45817 12.649 6.64693 14.1952 5.70573 15.8288C5.42639 16.3187 5.21306 16.8427 5.0712 17.3876C4.93636 18.2188 5.00259 19.0699 5.26444 19.8708C5.49554 20.4793 6.10489 21.3628 6.76049 22.0338C8.12205 23.4258 9.87866 24.3386 12.7447 25.1428C14.2071 25.5518 16.926 26.1764 19.2835 26.6474C20.6239 26.9103 20.7333 26.9474 20.7333 27.1017C20.5921 27.2647 20.4341 27.4127 20.262 27.5434C19.3123 28.3269 19.1778 28.5019 19.1778 28.927C19.1778 29.3944 19.5939 29.7897 20.4592 30.1439C21.124 30.4056 21.735 30.7856 22.2621 31.265C22.863 31.7735 23.2959 31.9359 24.0523 31.9276C24.6923 31.9383 25.3115 31.7022 25.7794 31.2691C26.1925 30.8989 26.6566 30.5888 27.1578 30.3481C27.4267 30.219 27.7839 30.0481 27.952 29.9683C28.5151 29.6974 28.8513 29.3015 28.8513 28.9181C28.8513 28.5054 28.7085 28.3221 27.868 27.6344C27.3217 27.1927 27.2419 27.08 27.3889 26.9592C27.4183 26.9343 28.0864 26.7839 28.8681 26.6259C33.9236 25.6006 36.7309 24.8339 38.4791 24.0003C40.223 23.1625 41.6687 21.8664 42.5259 20.3702C42.8999 19.7117 43.0302 19.0865 42.9924 18.1073C42.9942 17.5622 42.8766 17.0233 42.6477 16.5278C42.2863 15.6693 41.7568 14.9233 40.9244 14.0939C39.8898 13.0659 38.6861 12.2203 37.365 11.5933C36.1505 10.989 35.4444 10.9139 35.7218 11.41L35.8101 11.5767L35.6378 11.4725C34.1039 10.5473 31.4817 9.61741 30.8597 9.78466C30.6789 9.83462 30.624 9.92635 30.6873 10.0847C30.7252 10.1888 30.7084 10.1805 30.1957 9.95966C29.1499 9.50961 27.5313 9.03443 27.048 9.03443C26.963 9.03177 26.8787 9.05195 26.8043 9.09286C26.7286 9.14706 26.7286 9.15129 26.8085 9.28875C26.9025 9.41242 27.0195 9.51709 27.1532 9.5971C27.2961 9.68884 27.6911 9.943 28.0315 10.1598C29.1337 10.8483 30.153 11.6593 31.0698 12.577C32.5995 14.0939 33.5913 15.7152 33.9948 17.3489C34.126 17.8519 34.1616 18.3748 34.0998 18.8908C33.9565 20.2835 33.3741 21.596 32.4354 22.6416C31.8887 23.2244 31.2418 23.706 30.525 24.0641C29.634 24.5058 27.659 25.0559 25.9864 25.331C25.3182 25.4394 25.1375 25.5063 24.9652 25.7108C24.8814 25.7906 24.8194 25.8902 24.7848 26.0002C24.7503 26.1102 24.7444 26.2271 24.7677 26.34C24.818 26.5109 24.982 26.6734 25.6081 27.1528C26.1587 27.5738 26.2469 27.6696 26.3898 27.9739C26.4644 28.1427 26.499 28.3263 26.4909 28.5105C26.4829 28.6947 26.4325 28.8746 26.3435 29.0365C26.0998 29.4783 25.5156 29.8867 24.8727 30.0659C24.6085 30.1196 24.3398 30.1489 24.0701 30.1535C23.5274 30.1992 22.9826 30.0923 22.4983 29.8452C22.1397 29.6671 21.8373 29.3946 21.6243 29.0576C21.4934 28.8033 21.4485 28.5141 21.4963 28.2326C21.544 27.9511 21.6819 27.6924 21.8894 27.4946C21.9819 27.4069 22.3019 27.144 22.5997 26.9112C23.2301 26.4145 23.2847 26.3319 23.1964 25.9985C23.1641 25.8761 23.1042 25.7626 23.0212 25.6666C22.9382 25.5706 22.8342 25.4945 22.7172 25.4442C22.4476 25.3705 22.174 25.312 21.8977 25.2689C20.8051 25.0856 18.7501 24.5604 18.0525 24.2854C17.192 23.9575 16.4135 23.4485 15.7706 22.7934C14.6073 21.6784 13.9212 20.1622 13.8544 18.5591C13.82 17.929 13.9188 17.2987 14.1444 16.7086C14.9723 14.2415 17.1701 11.8117 20.3513 9.84879C21.1078 9.38136 21.3262 9.14866 21.1161 9.03604C20.9983 8.97761 20.7674 8.99017 20.3555 9.07767L20.3552 9.07738ZM16.447 10.5819C16.4134 10.6028 16.0898 10.7864 15.7284 10.9909C11.9714 13.1081 9.80722 15.7754 9.80722 18.2884C9.80722 19.4844 10.551 20.914 11.7865 22.1018C12.8854 23.1204 14.1667 23.9261 15.5644 24.4773C16.0393 24.669 16.1906 24.7483 15.9846 24.6858C15.2492 24.4773 13.2195 23.5397 12.4252 23.0479C10.6645 21.9552 9.64329 20.7672 9.27358 19.3796C9.18131 19.0445 9.14303 18.6971 9.16017 18.3502C9.137 17.7575 9.22958 17.1661 9.43281 16.6083C9.75685 15.6205 10.29 14.7824 11.1516 13.8994C12.3576 12.6616 13.9377 11.6322 16.0053 10.7362C16.4591 10.5403 16.5726 10.5025 16.4471 10.5819H16.447ZM32.1345 10.7945C33.3433 11.3115 34.4906 11.9601 35.5552 12.7282C36.1519 13.1699 37.253 14.2494 37.6059 14.7369C38.2302 15.5612 38.6427 16.5238 38.8078 17.5415C38.8402 17.853 38.8486 18.1664 38.833 18.4792C38.8481 19.0886 38.7002 19.6911 38.4044 20.2255C37.7446 21.5549 36.3719 22.7288 34.2861 23.7471C33.6305 24.0638 32.063 24.7056 31.9454 24.7056C32.0721 24.6251 32.2092 24.562 32.3531 24.5181C35.5216 23.2473 37.69 21.1215 38.1564 18.8293C38.3626 17.7999 37.9501 16.3413 37.0973 15.091C36.7036 14.5151 36.2454 13.9853 35.7315 13.5115C34.6998 12.5275 33.5429 11.6815 32.29 10.995C31.336 10.4616 31.3276 10.4532 32.1345 10.795V10.7945ZM12.2019 11.553C12.1056 11.6236 12.0045 11.6877 11.8994 11.7447C10.2644 12.7032 8.72654 14.0744 7.86503 15.3496C7.2137 16.3081 6.82279 17.4375 6.82279 18.3252C6.82706 18.817 7.0455 19.6089 7.34803 20.2095C7.8196 21.0541 8.44876 21.8022 9.202 22.4138C9.96804 22.9975 10.8104 23.4756 11.706 23.8349C11.857 23.886 12.0033 23.9501 12.143 24.0265C11.9898 23.9921 11.8394 23.9461 11.6933 23.8889C8.80284 22.893 6.92884 21.2718 6.4033 19.3089C5.93683 17.5501 6.49993 15.9623 8.18554 14.3078C9.2182 13.3198 10.387 12.4821 11.6569 11.8197C12.1942 11.5279 12.2019 11.5238 12.2019 11.553ZM36.4167 11.853C38.0683 12.745 39.5138 13.8452 40.3837 14.8829C41.3334 16.0076 41.7453 16.9834 41.7453 18.1211C41.7453 19.9215 40.7955 21.4344 38.8878 22.6722C38.1701 23.1149 37.4099 23.4863 36.6185 23.7807C35.8831 24.0558 35.673 24.0974 36.257 23.8558C37.097 23.5168 37.8927 23.0789 38.6271 22.5514C39.196 22.0971 39.7107 21.5797 40.161 21.0094C40.6508 20.3308 40.9851 19.5542 41.1402 18.7339C41.2495 18.1046 41.115 17.3085 40.7494 16.4543C40.0729 14.8748 38.354 13.0995 36.3159 11.87C35.9756 11.6655 35.9125 11.6199 35.9672 11.6199C35.9756 11.6199 36.1815 11.7241 36.4168 11.8536L36.4167 11.853Z" fill="#44207A"/>
<path d="M18.204 35.0005L19.294 37.6415H19.3367L20.4267 35.0005H21.4341V38.8933H20.6432V36.3458H20.6108L19.5856 38.8772H19.0436L18.0199 36.3341H17.9875V38.8933H17.1951V35.0005H18.204Z" fill="#3F1377"/>
<path d="M23.8541 38.9474C22.8083 38.9474 22.0159 38.2142 22.0159 36.9477C22.0159 35.6813 22.8068 34.9465 23.8541 34.9465C24.9013 34.9465 25.6864 35.6754 25.6864 36.9477C25.6864 38.22 24.8925 38.9474 23.8541 38.9474ZM23.8541 38.2332C24.458 38.2302 24.8601 37.7789 24.8571 36.9492C24.8601 36.1151 24.4594 35.6667 23.8541 35.6637C23.2443 35.6667 22.8451 36.1151 22.8451 36.9492C22.8451 37.7833 23.2428 38.2317 23.8541 38.2332Z" fill="#3F1377"/>
<path d="M26.2698 35.0005H27.8311C28.6957 35.0005 29.1346 35.4139 29.1317 36.0011C29.1364 36.201 29.0675 36.3958 28.938 36.5491C28.8084 36.7023 28.627 36.8035 28.4276 36.8337V36.8717C28.6679 36.8853 28.8931 36.9924 29.0544 37.1695C29.2156 37.3467 29.3 37.5798 29.2893 37.8182C29.2863 38.4361 28.8209 38.8933 27.9342 38.8933H26.2698V35.0005ZM27.7118 36.6292C28.0535 36.6321 28.3112 36.4408 28.3083 36.1296C28.3112 35.8477 28.0991 35.6564 27.728 35.6564H27.0828V36.6292H27.7118ZM27.7707 38.2258C28.242 38.2287 28.4453 38.0344 28.4423 37.7423C28.4453 37.4151 28.1934 37.1828 27.7913 37.1828H27.0814V38.2258H27.7692H27.7707Z" fill="#3F1377"/>
<path d="M30.6148 35.0005H29.8018V38.8933H30.6148V35.0005Z" fill="#3F1377"/>
<path d="M31.2747 35.0005H32.0877V38.2272H33.7801V38.8933H31.2747V35.0005Z" fill="#3F1377"/>
<path d="M35.116 35.0005H34.303V38.8933H35.116V35.0005Z" fill="#3F1377"/>
<path d="M35.6243 35.0005H38.8397V35.668H37.6363V38.8933H36.8291V35.668H35.6243V35.0005Z" fill="#3F1377"/>
<path d="M40.0194 35.0005L40.9238 36.6789H40.9621L41.8621 35.0005H42.7782L41.3465 37.5071V38.8933H40.5335V37.5071L39.1033 35.0005H40.0194Z" fill="#3F1377"/>
<path d="M5.44116 34.3052H6.45895V36.207L8.25149 34.3052H9.58301L7.52829 36.4334L9.75829 38.8845H8.33692L6.45895 36.711V38.8845H5.44116V34.3052Z" fill="#3F1377"/>
<path d="M13.9518 38.5604C13.3523 38.861 12.688 39.012 12.0164 39.0001C10.5744 39.0001 9.52417 38.0623 9.52417 36.5943C9.52417 35.1263 10.5744 34.1885 12.0164 34.1885C12.7454 34.1885 13.3921 34.3506 13.8546 34.7771L13.1372 35.5528C12.8633 35.2679 12.5304 35.1204 12.0164 35.1204C11.1488 35.1204 10.5817 35.7412 10.5817 36.5943C10.5817 37.4473 11.1488 38.0696 12.0164 38.0696C12.35 38.075 12.6798 37.9971 12.9752 37.8432V37.0997H12.146V36.1678H13.9518V38.5604Z" fill="#3F1377"/>
</svg>
