<svg width="61" height="60" viewBox="0 0 61 60" fill="none" xmlns="http://www.w3.org/2000/svg">
<g clip-path="url(#clip0_4919_59764)">
<path d="M47.0504 26.058C46.7912 27.5044 46.4423 28.8796 45.6475 30.8231C44.6073 33.4251 43.4571 34.8259 42.2679 35.8846C39.9159 37.7442 36.3349 38.0478 32.2839 38.3057C31.6341 38.3338 30.9838 38.3491 30.3333 38.3515H30.331C30.3045 38.3515 29.4001 38.351 28.38 38.3057C24.3285 38.0478 20.7491 37.7442 18.3963 35.8846C17.2072 34.8259 16.0564 33.425 15.0162 30.8231C14.2211 28.8796 13.8726 27.5044 13.6145 26.058C13.4455 25.0059 13.117 23.3464 16.0763 23.1079C16.9809 22.9979 21.317 22.6809 22.9661 22.6879C23.6174 22.6751 24.8004 22.8431 25.1821 24.4443C25.3884 25.1021 25.6114 26.9047 25.6208 26.9874C25.7118 27.8012 26.1314 31.9659 26.1508 36.0661C26.2153 36.4528 26.4426 36.5569 26.758 36.6276C28.0188 36.8789 30.3323 36.925 30.3323 36.925C30.3323 36.925 32.6452 36.8789 33.9057 36.6276C34.2221 36.5569 34.4479 36.4528 34.513 36.0661C34.5335 31.9659 34.9532 27.8012 35.0433 26.9874C35.0522 26.9047 35.2757 25.1021 35.4823 24.4444C35.864 22.8431 37.0463 22.6751 37.6991 22.6878C39.3479 22.681 43.6833 22.9979 44.5881 23.1078C47.5479 23.3464 47.2182 25.0058 47.0504 26.058ZM57.7202 21.597C56.9076 21.1508 56.1478 20.8568 55.3207 20.6414C54.271 20.3349 51.1539 19.8566 50.0072 19.7301C46.6951 19.319 38.4114 18.8317 37.1961 18.8256C36.8486 18.8066 34.3322 18.7348 33.7443 18.7712C33.7393 18.7712 33.7341 18.772 33.7296 18.7724C32.0079 18.7765 30.6267 20.1723 30.6267 21.8936C30.6267 21.998 30.6195 22.1011 30.6289 22.2032C30.6146 25.8195 30.6317 33.0169 30.6355 34.5461C30.6355 34.6711 30.4197 34.6823 30.3323 34.6815C30.2437 34.6823 30.0287 34.6711 30.0294 34.5461C30.033 33.0032 30.0503 25.6695 30.0355 22.1069C30.0396 22.0362 30.0355 21.9659 30.0355 21.8936C30.0355 20.1763 28.6576 18.7791 26.9407 18.7686C26.9331 18.7683 26.9229 18.7666 26.9153 18.7658C26.2902 18.7134 23.8151 18.8065 23.4685 18.8256C22.2524 18.8317 13.9694 19.319 10.6573 19.7301C9.51062 19.8566 6.39292 20.3349 5.34314 20.6414C4.51687 20.8568 3.75676 21.1508 2.9445 21.597C1.53819 22.4132 1.54199 23.6717 1.60045 24.6195C1.64749 25.3933 1.81825 26.3617 1.95147 26.9024C2.00883 27.1361 2.65323 29.8459 3.41944 31.5864C3.94173 32.7721 4.73317 33.9402 5.14826 34.3572C6.07262 35.3492 7.79372 36.2702 8.81147 36.7063C9.39802 36.9593 10.1986 37.2859 10.9541 37.5753C11.2193 37.6762 11.8265 37.9025 12.7277 38.2187C14.121 38.6995 18.1766 40.0159 22.9365 40.7113C26.6357 41.2525 29.9476 41.252 30.3374 41.2497C30.727 41.252 34.0289 41.2525 37.7271 40.7113C42.4873 40.0159 46.543 38.6995 47.9367 38.2187C48.8371 37.9025 49.4456 37.6762 49.7098 37.5754C50.4655 37.2859 51.2659 36.9594 51.8537 36.7064C52.8701 36.2702 54.5918 35.3492 55.5161 34.3572C55.9312 33.9402 56.722 32.7721 57.2445 31.5863C58.012 29.8459 58.6549 27.1361 58.7129 26.9023C58.8454 26.3617 59.0162 25.3933 59.0637 24.6195C59.1218 23.6717 59.1257 22.4132 57.7202 21.597Z" fill="#1568B3"/>
</g>
<defs>
<clipPath id="clip0_4919_59764">
<rect width="57.5" height="22.5" fill="white" transform="translate(1.58203 18.75)"/>
</clipPath>
</defs>
</svg>
