<svg width="48" height="48" viewBox="0 0 48 48" fill="none" xmlns="http://www.w3.org/2000/svg">
<g clip-path="url(#clip0_795_95460)">
<mask id="mask0_795_95460" style="mask-type:luminance" maskUnits="userSpaceOnUse" x="0" y="19" width="48" height="11">
<path d="M48 19H0V29.1587H48V19Z" fill="white"/>
</mask>
<g mask="url(#mask0_795_95460)">
<path d="M16.5647 23.0561C15.736 22.5846 11.9911 22.3478 9.18978 22.0562C5.80276 21.7036 1.47217 21.3246 1.47217 21.3246C2.98321 22.7831 3.7856 23.1815 5.30814 23.5302C6.65427 23.8384 10.8399 24.0457 14.3646 24.1946C15.2939 24.2338 15.3805 24.7419 15.3805 24.7419L8.48458 24.5956C9.54353 24.964 11.6511 25.5675 13.1652 25.8365C14.182 26.017 16.1878 25.9363 16.9767 25.8888C17.7656 25.8412 17.9976 26.4009 17.9976 26.4009L15.7612 26.5639C15.7612 26.5639 16.5816 26.8196 18.0373 27.1879C19.1555 27.471 20.62 27.7014 20.62 27.7014C18.3978 25.9892 17.8285 23.7759 16.5647 23.0561Z" fill="#231815"/>
<path d="M29.1084 21.9848C29.0571 22.3001 28.5119 24.2316 27.3509 25.6289C26.0463 27.2002 24.5049 28.0596 24.0001 28.3407C23.4952 28.0596 21.9538 27.2002 20.649 25.6289C19.489 24.2315 18.9428 22.3001 18.8917 21.9848C18.8395 21.6674 19.0013 21.3815 19.4021 21.1565C20.157 20.7331 23.2111 19.8095 24.0004 19.8078C24.7893 19.8095 27.844 20.7331 28.5986 21.1565C28.9993 21.3815 29.1604 21.6674 29.1088 21.9848M29.9434 20.4747C29.0838 20.4747 25.5905 19.0021 24.0001 19C22.4096 19.0021 18.9167 20.4747 18.0572 20.4747C15.9173 20.4747 0 19.7116 0 19.7116C0.495878 20.4363 0.806258 20.5291 1.23776 20.6484C2.032 20.8669 12.0313 21.6462 14.6291 21.9461C16.8732 22.205 17.4274 22.4628 18.033 23.3091C18.7987 24.3793 19.6471 27.0834 24.0003 29.1587C28.3532 27.0834 29.2015 24.3793 29.9675 23.3091C30.5736 22.4626 31.1275 22.205 33.3717 21.9461C35.9692 21.6462 45.9686 20.8669 46.7629 20.6484C47.1942 20.5291 47.5049 20.4363 48.0004 19.7116C48.0004 19.7116 32.083 20.4745 29.9434 20.4745" fill="#231815"/>
<path d="M31.4352 23.0561C32.2635 22.5846 36.0084 22.3478 38.8102 22.0562C42.1973 21.7036 46.5276 21.3246 46.5276 21.3246C45.0168 22.7834 44.2139 23.1814 42.6916 23.5297C41.3451 23.8379 37.1597 24.0452 33.6355 24.1941C32.7054 24.2333 32.6192 24.7414 32.6192 24.7414L39.5154 24.5951C38.456 24.9635 36.3489 25.567 34.8343 25.836C33.8178 26.0165 31.8119 25.9358 31.023 25.8883C30.2341 25.8407 30.0022 26.4003 30.0022 26.4003L32.2386 26.5634C32.2386 26.5634 31.4176 26.8191 29.9621 27.1874C28.8441 27.471 27.3804 27.7014 27.3804 27.7014C29.6023 25.9892 30.1717 23.7757 31.4352 23.0561Z" fill="#231815"/>
<path d="M20.7523 22.7941L20.8761 22.8455C20.8921 22.8502 20.9059 22.8604 20.915 22.8744C20.9242 22.8883 20.9281 22.905 20.9261 22.9216V23.2037C20.8635 23.2369 20.7934 23.2537 20.7225 23.2523C20.4809 23.2432 20.3044 23.0486 20.3044 22.7665C20.3044 22.4749 20.4635 22.2623 20.7374 22.2623C20.8749 22.265 21.0073 22.3154 21.1117 22.4049L21.168 22.1983C21.0311 22.1346 20.8827 22.0994 20.7319 22.095C20.3397 22.086 20.0125 22.3047 20.0125 22.7693C20.0125 23.1853 20.3044 23.4225 20.6875 23.4225C20.8618 23.4314 21.0348 23.387 21.1832 23.2952V22.7204H20.782L20.7523 22.7941ZM23.548 22.9884L22.8674 22.1291H22.5991L22.5668 22.2047L22.623 22.2322C22.6394 22.2382 22.6532 22.2496 22.6623 22.2644C22.6714 22.2793 22.6753 22.2968 22.6732 22.3141V23.3953H22.8732V22.5753L23.5249 23.3953H23.7487V22.1291H23.548V22.9884ZM24.9768 22.2897L24.9325 22.1291H24.0304L24.0007 22.2047L24.0571 22.2322C24.0733 22.2391 24.0868 22.2512 24.0953 22.2666C24.1038 22.282 24.1069 22.2998 24.1041 22.3172V23.3953H24.9768V23.2312H24.3842V22.8185H24.8963V22.6605H24.3842V22.2897H24.9768ZM26.295 22.2047L26.3512 22.2322C26.3679 22.2387 26.3819 22.2506 26.3909 22.266C26.4 22.2815 26.4036 22.2995 26.4011 22.3172V23.3953H26.6802V22.1291H26.3268L26.295 22.2047ZM25.7725 22.6574C25.6157 22.5753 25.4513 22.5298 25.4513 22.3872C25.4513 22.3172 25.519 22.2597 25.6517 22.2597C25.7827 22.2662 25.9111 22.2992 26.0289 22.3568L26.0641 22.1687C25.938 22.125 25.8056 22.1024 25.6721 22.1018C25.3453 22.1018 25.1751 22.2474 25.1751 22.448C25.1751 22.6425 25.307 22.7487 25.5013 22.8396C25.6721 22.9188 25.8148 22.9704 25.8148 23.0948C25.8148 23.1889 25.7408 23.2499 25.5967 23.2499C25.4608 23.2435 25.3275 23.2104 25.2044 23.1525L25.1835 23.3715C25.322 23.4029 25.4633 23.4202 25.6054 23.4231C25.8674 23.4231 26.1031 23.2955 26.1031 23.0644C26.1031 22.8428 25.9372 22.7457 25.7718 22.6576M22.3754 22.2899L22.3313 22.1293H21.4292L21.3993 22.2049L21.4558 22.2325C21.472 22.2392 21.4855 22.2513 21.494 22.2668C21.5026 22.2822 21.5056 22.3 21.5027 22.3174V23.3953H22.3754V23.2312H21.7831V22.8185H22.2961V22.6605H21.7831V22.2897L22.3754 22.2899ZM27.5894 22.6577C27.4332 22.5756 27.268 22.5301 27.268 22.3875C27.268 22.3175 27.3358 22.26 27.4686 22.26C27.5997 22.2666 27.7282 22.2996 27.8462 22.3571L27.8811 22.169C27.7551 22.1254 27.6227 22.1028 27.4894 22.1021C27.162 22.1021 26.9821 22.2477 26.9821 22.4484C26.9821 22.6428 27.1234 22.749 27.3179 22.8399C27.4894 22.9192 27.6319 22.9707 27.6319 23.0951C27.6319 23.1892 27.5579 23.2502 27.414 23.2502C27.2782 23.2439 27.1449 23.2108 27.0218 23.1528L27.0009 23.3718C27.1393 23.4033 27.2804 23.4206 27.4223 23.4234C27.6843 23.4234 27.9203 23.2958 27.9203 23.0647C27.9203 22.8431 27.7544 22.746 27.589 22.6579" fill="#231815"/>
</g>
</g>
<defs>
<clipPath id="clip0_795_95460">
<rect width="48" height="10.1587" fill="white" transform="translate(0 19)"/>
</clipPath>
</defs>
</svg>
