<svg width="61" height="60" viewBox="0 0 61 60" fill="none" xmlns="http://www.w3.org/2000/svg">
<g clip-path="url(#clip0_4940_92072)">
<path d="M30.6641 6.25C17.5477 6.25 6.91406 16.8836 6.91406 30C6.91406 43.1164 17.5477 53.75 30.6641 53.75C43.7805 53.75 54.4141 43.1164 54.4141 30C54.4141 16.8836 43.7805 6.25 30.6641 6.25ZM52.8696 30C52.8696 42.2632 42.9287 52.2056 30.6641 52.2056C18.3995 52.2056 8.45848 42.2632 8.45848 30C8.45848 17.7368 18.4009 7.79442 30.6641 7.79442C42.9273 7.79442 52.8696 17.7368 52.8696 30Z" fill="#6F6F6F"/>
<path d="M30.6622 15.916V16.6882C38.0017 16.6882 43.9741 22.6592 43.9741 30.0001H44.7463C44.7463 22.2222 38.4402 15.916 30.6622 15.916ZM30.6622 43.312C23.3227 43.312 17.3503 37.341 17.3503 30.0001H16.5781C16.5781 37.7781 22.8843 44.0842 30.6622 44.0842" fill="#6F6F6F"/>
<path d="M42.1741 19.9234C42.4967 20.2697 42.9617 20.8283 43.2228 21.1676L48.032 18.1151C47.7918 17.8009 47.4092 17.3233 47.1229 16.9868L44.0774 19.0004L43.8693 19.1791L44.0243 18.9529L45.3691 16.269L44.4181 15.3181L41.7328 16.6628L41.5066 16.8178L41.6867 16.6097L43.7018 13.5656C43.3471 13.264 43.0063 12.9875 42.5721 12.6523L39.5195 17.4574C39.9063 17.7548 40.416 18.1919 40.7414 18.4893L43.6152 16.9979L43.7995 16.8625L43.6641 17.0468L42.1741 19.9234Z" fill="#6F6F6F"/>
<path d="M31.2636 13.834L32.5776 10.8904L32.6614 10.6293L32.6377 10.9016L32.7759 14.8352C33.2367 14.8785 33.7129 14.9428 34.1821 15.021L33.9685 9.19518C33.3122 9.12256 32.6586 9.0709 32.0051 9.04297L30.7107 12.2561L30.6646 12.4949L30.6185 12.2561L29.3254 9.04297C28.6719 9.0709 28.0184 9.12256 27.3621 9.19518L27.1484 15.021C27.6176 14.9428 28.0938 14.8799 28.5546 14.8352L28.6929 10.9016L28.6691 10.6293L28.7529 10.8904L30.0669 13.834H31.2636Z" fill="#6F6F6F"/>
<path d="M20.6339 18.4769C21.3935 17.6768 21.8236 16.7524 21.064 15.8698C20.6507 15.3909 19.9566 15.2861 19.3813 15.5221L19.3241 15.5445L19.3422 15.4942C19.4274 15.2666 19.4819 14.5405 18.8633 14.0392C18.5616 13.7948 18.1832 13.704 17.8006 13.7431C17.087 13.8157 16.5383 14.3031 15.0441 15.969C14.5931 16.4717 13.9368 17.2648 13.543 17.7787L17.647 21.6719C19.0071 20.1666 19.5615 19.6066 20.6339 18.4769ZM15.2787 17.5246C16.1054 16.5136 16.9837 15.5961 17.3817 15.2331C17.5074 15.1186 17.6442 15.0041 17.8104 14.9594C18.0799 14.8854 18.3578 15.0767 18.4206 15.3532C18.4834 15.6311 18.3089 15.895 18.1148 16.1128C17.6777 16.6057 16.0746 18.2828 16.0746 18.2828L15.2787 17.5246ZM16.886 19.0495C16.886 19.0495 18.4471 17.3989 18.9568 16.8711C19.1593 16.6616 19.2892 16.5345 19.4288 16.4661C19.6089 16.3781 19.8058 16.36 19.9818 16.4773C20.1549 16.5932 20.2345 16.7929 20.1912 16.9912C20.1396 17.2271 19.9469 17.452 19.7877 17.6237C19.5726 17.8541 17.721 19.8356 17.7182 19.8384L16.886 19.0495Z" fill="#6F6F6F"/>
<path d="M30.6622 15.916V30.0001H16.5781C16.5781 22.2166 22.8787 15.916 30.6622 15.916Z" fill="#0066B1"/>
<path d="M44.7482 30C44.7482 37.7835 38.4476 44.0841 30.6641 44.0841V30H44.7482Z" fill="#0066B1"/>
</g>
<defs>
<clipPath id="clip0_4940_92072">
<rect width="47.5" height="47.5" fill="white" transform="translate(6.91406 6.25)"/>
</clipPath>
</defs>
</svg>
