<svg width="61" height="60" viewBox="0 0 61 60" fill="none" xmlns="http://www.w3.org/2000/svg">
<g clip-path="url(#clip0_4940_92284)">
<path d="M49.6031 20C47.2113 20 44.9903 20.7883 43.1794 22.125C41.3685 20.7883 39.1475 20 36.7557 20C34.3639 20 32.143 20.7883 30.332 22.125C28.5211 20.7883 26.3343 20 23.9083 20C21.5165 20 19.2956 20.7883 17.4846 22.125C15.7079 20.7883 13.4869 20 11.061 20C5.14979 20 0.332031 24.7641 0.332031 30.625C0.332031 36.4859 5.14979 41.25 11.061 41.25C13.4528 41.25 15.6737 40.4617 17.4846 39.125C19.2956 40.4617 21.5165 41.25 23.9083 41.25C26.3001 41.25 28.5211 40.4617 30.332 39.125C32.1088 40.4617 34.3298 41.25 36.7557 41.25C39.1475 41.25 41.3685 40.4617 43.1794 39.125C44.9562 40.4617 47.1771 41.25 49.6031 41.25C55.5143 41.25 60.332 36.4859 60.332 30.625C60.332 24.7641 55.5143 20 49.6031 20ZM43.1794 36.1089C41.881 34.6351 41.0951 32.7157 41.0951 30.625C41.0951 28.5343 41.881 26.6149 43.1794 25.1411C44.4778 26.6149 45.2637 28.5343 45.2637 30.625C45.2637 32.7157 44.4778 34.6351 43.1794 36.1089ZM30.332 36.1089C29.0336 34.6351 28.2477 32.7157 28.2477 30.625C28.2477 28.5343 29.0336 26.6149 30.332 25.1411C31.6304 26.6149 32.4163 28.5343 32.4163 30.625C32.4163 32.7157 31.6304 34.6351 30.332 36.1089ZM17.4846 36.1089C16.1862 34.6351 15.4004 32.7157 15.4004 30.625C15.4004 28.5343 16.1862 26.6149 17.4846 25.1411C18.7831 26.6149 19.5689 28.5343 19.5689 30.625C19.6032 32.7157 18.7831 34.6351 17.4846 36.1089ZM2.55299 30.625C2.55299 25.998 6.37986 22.2278 11.061 22.2278C12.8036 22.2278 14.4436 22.7419 15.8104 23.6673C14.1703 25.5181 13.1794 27.9516 13.1794 30.625C13.1794 33.2984 14.1703 35.7319 15.8104 37.5827C14.4436 38.4738 12.8377 39.0222 11.061 39.0222C6.37986 39.0222 2.55299 35.252 2.55299 30.625ZM19.1589 37.5827C20.799 35.7319 21.7899 33.2984 21.7899 30.625C21.7899 27.9516 20.799 25.5181 19.1589 23.6673C20.5256 22.7762 22.1316 22.2278 23.9083 22.2278C25.6851 22.2278 27.291 22.7419 28.6578 23.6673C27.0177 25.5181 25.9926 27.9516 25.9926 30.625C25.9926 33.2984 26.9835 35.7319 28.6578 37.5827C27.291 38.4738 25.6851 39.0222 23.9083 39.0222C22.1657 39.0222 20.5256 38.4738 19.1589 37.5827ZM32.0063 37.5827C33.6464 35.7319 34.6714 33.2984 34.6714 30.625C34.6714 27.9516 33.6805 25.5181 32.0063 23.6673C33.373 22.7762 34.979 22.2278 36.7557 22.2278C38.5325 22.2278 40.1384 22.7419 41.5051 23.6673C39.8651 25.5181 38.84 27.9516 38.84 30.625C38.84 33.2984 39.8309 35.7319 41.5051 37.5827C40.1384 38.4738 38.5325 39.0222 36.7557 39.0222C34.979 39.0222 33.373 38.4738 32.0063 37.5827ZM49.6031 39.0222C47.8605 39.0222 46.2204 38.5081 44.8537 37.5827C46.4938 35.7319 47.5188 33.2984 47.5188 30.625C47.5188 27.9516 46.5279 25.5181 44.8537 23.6673C46.2204 22.7762 47.8263 22.2278 49.6031 22.2278C54.2842 22.2278 58.1111 25.998 58.1111 30.625C58.1111 35.252 54.2842 39.0222 49.6031 39.0222Z" fill="black"/>
</g>
<defs>
<clipPath id="clip0_4940_92284">
<rect width="60" height="21.25" fill="white" transform="translate(0.332031 20)"/>
</clipPath>
</defs>
</svg>
