<svg width="60" height="60" viewBox="0 0 60 60" fill="none" xmlns="http://www.w3.org/2000/svg">
<g clip-path="url(#clip0_4940_79597)">
<path d="M29.9995 13.9834C15.6372 13.9834 3.99219 21.4338 3.99219 30.6218C3.99219 39.8131 15.6372 47.2669 29.9995 47.2669C44.3618 47.2669 56.0068 39.8165 56.0068 30.6218C56.0068 21.4271 44.3618 13.9834 29.9995 13.9834ZM29.9995 40.1241C27.8633 40.1241 26.1201 35.9628 26.0107 30.7266C27.2959 30.8381 28.6323 30.899 29.9995 30.899C31.3667 30.899 32.7031 30.8381 33.9883 30.7266C33.8789 35.9594 32.1357 40.1241 29.9995 40.1241ZM26.2739 26.5687C26.855 22.8671 28.3042 20.2405 29.9995 20.2405C31.6948 20.2405 33.144 22.8671 33.7251 26.5687C32.5322 26.6735 31.2881 26.7309 29.9995 26.7309C28.7109 26.7309 27.4668 26.6735 26.2739 26.5687ZM29.9995 16.3902C27.2104 16.3902 24.8315 20.5211 23.9531 26.2881C18.6655 25.4734 14.9741 23.6142 14.9741 21.4541C14.9741 18.5402 21.7007 16.1773 29.9995 16.1773C38.2983 16.1773 45.0249 18.5402 45.0249 21.4541C45.0249 23.6142 41.3335 25.4734 36.0459 26.2881C35.1675 20.5211 32.7886 16.3902 29.9995 16.3902ZM7.72119 29.9998C7.72119 27.1805 8.81836 24.5337 10.729 22.262C10.7085 22.4209 10.6948 22.5832 10.6948 22.7454C10.6948 26.2982 16.0815 29.3271 23.5977 30.4426C23.5908 30.6995 23.5908 30.9598 23.5908 31.2201C23.5908 37.8423 25.4673 43.4504 28.0615 45.3536C16.6626 44.6741 7.72119 38.0587 7.72119 29.9998ZM31.9375 45.3536C34.5317 43.4504 36.4082 37.8423 36.4082 31.2201C36.4082 30.9564 36.4048 30.6995 36.4014 30.4426C43.9141 29.3271 49.3042 26.3016 49.3042 22.7454C49.3042 22.5832 49.2905 22.4209 49.27 22.262C51.1807 24.5404 52.2778 27.1805 52.2778 29.9998C52.2778 38.0587 43.3364 44.6741 31.9375 45.3536Z" fill="#282830"/>
</g>
<defs>
<clipPath id="clip0_4940_79597">
<rect width="52.5" height="33.75" fill="white" transform="translate(3.75 13.75)"/>
</clipPath>
</defs>
</svg>
