<svg width="61" height="60" viewBox="0 0 61 60" fill="none" xmlns="http://www.w3.org/2000/svg">
<g clip-path="url(#clip0_4940_87398)">
<path d="M30.6913 50.2976C19.5428 50.2976 10.409 41.1191 10.409 29.9706C10.409 27.4633 10.8568 25.0903 11.7074 22.8516L23.5723 46.7158C23.7067 47.0292 23.9305 47.2978 24.2887 47.2978C24.6469 47.2978 24.8708 47.0292 25.0051 46.7158L30.4674 34.4927C30.5122 34.3583 30.6017 34.224 30.7361 34.224C30.8704 34.224 30.9151 34.3583 31.0047 34.4927L36.467 46.7158C36.6013 47.0292 36.8252 47.2978 37.1834 47.2978C37.5416 47.2978 37.7654 47.0292 37.8998 46.7158L49.7647 22.8516C50.6154 25.0903 51.0631 27.4633 51.0631 29.9706C50.9735 41.1191 41.8398 50.2976 30.6913 50.2976ZM30.6913 25.3589C30.557 25.3589 30.5122 25.2246 30.4226 25.0903L24.0648 10.7629C26.1244 10.0017 28.3631 9.59878 30.6913 9.59878C33.0195 9.59878 35.2582 10.0017 37.3177 10.7629L30.9599 25.0903C30.8704 25.2694 30.8256 25.3589 30.6913 25.3589ZM24.1992 40.0893C24.0648 40.0893 24.0201 39.955 23.9305 39.8207L13.6327 19.0459C15.4684 16.2252 17.9309 13.8522 20.9307 12.1956L28.3631 28.7169C28.4526 28.9856 28.6765 29.0751 28.9004 29.0751H32.4822C32.7508 29.0751 32.9299 29.0303 33.0643 28.7169L40.4966 12.1956C43.4516 13.8522 45.9589 16.2252 47.7946 19.0459L37.4073 39.8207C37.3625 39.955 37.2729 40.0893 37.1386 40.0893C37.0043 40.0893 36.9595 39.955 36.87 39.8207L32.9747 30.9556C32.8404 30.6422 32.6613 30.5974 32.3927 30.5974H28.8108C28.5422 30.5974 28.3631 30.6422 28.2288 30.9556L24.4678 39.8207C24.423 39.955 24.3335 40.0893 24.1992 40.0893ZM30.6913 52.3572C43.0935 52.3572 53.0779 42.3727 53.0779 29.9706C53.0779 17.5684 43.0935 7.58398 30.6913 7.58398C18.2891 7.58398 8.30469 17.5684 8.30469 29.9706C8.30469 42.3727 18.2891 52.3572 30.6913 52.3572Z" fill="#001E50"/>
</g>
<defs>
<clipPath id="clip0_4940_87398">
<rect width="45" height="45" fill="white" transform="translate(8.16406 7.5)"/>
</clipPath>
</defs>
</svg>
