<svg width="61" height="60" viewBox="0 0 61 60" fill="none" xmlns="http://www.w3.org/2000/svg">
<g clip-path="url(#clip0_4940_93399)">
<path d="M52.6509 20.3811C52.034 14.3455 48.0196 13.0761 44.4871 12.4968C42.7134 12.1968 39.5559 11.9361 37.5196 11.8611C35.7459 11.7486 31.5796 11.6924 30.329 11.6924C29.0952 11.6924 24.9102 11.7486 23.1365 11.8611C21.119 11.9361 17.9427 12.1986 16.169 12.4968C12.6384 13.0949 8.62024 14.3624 8.00524 20.3793C7.85524 22.0236 7.81774 24.1724 7.83649 26.4693C7.89274 30.2793 8.21149 32.8574 8.39899 34.6518C8.52836 35.8836 9.03274 39.5643 9.68711 41.4693C10.5834 44.0849 11.4046 44.8499 12.3571 45.6355C14.114 47.0549 16.9902 47.503 17.5884 47.6155C20.8377 48.1949 27.4134 48.3055 30.3102 48.3055C33.2052 48.3055 39.779 48.2118 43.0302 47.6155C43.6471 47.503 46.5234 47.0718 48.2615 45.6355C49.214 44.8499 50.0352 44.0849 50.9315 41.4693C51.5877 39.5643 52.109 35.8836 52.2402 34.6518C52.4277 32.8574 52.7634 30.2793 52.8009 26.4693C52.8759 24.1724 52.8196 22.0255 52.6509 20.3811ZM50.4459 30.5043C50.0915 35.323 49.6621 38.2011 49.0452 40.2918C48.5034 42.1236 47.8509 43.3368 46.8609 44.2161C45.2352 45.6918 42.9927 46.0086 41.6859 46.1961C38.8471 46.6255 34.0827 46.7568 30.329 46.7568C26.5734 46.7568 21.809 46.6068 18.9702 46.1943C17.6634 46.0086 15.4209 45.6918 13.7952 44.2161C12.824 43.3368 12.1527 42.1049 11.6296 40.2918C11.0127 38.2199 10.5834 35.323 10.229 30.5043C10.0227 27.6093 10.0602 22.9011 10.379 20.3793C10.8627 16.6068 12.7321 14.7186 16.7296 14.0099C18.5971 13.6724 21.1171 13.4305 23.4909 13.318C25.3959 13.1868 28.5534 13.1305 30.3102 13.1493C32.0652 13.1305 35.2227 13.2055 37.1277 13.318C39.5184 13.4305 42.0215 13.6743 43.889 14.0099C47.9052 14.7186 49.7746 16.6255 50.2415 20.3793C50.6146 22.9011 50.6709 27.6093 50.4477 30.5043M40.694 14.7749C39.6665 19.3893 39.2559 21.5005 38.414 24.8436C37.6115 28.0574 36.9759 31.0274 35.9109 32.4655C34.8102 33.9224 33.3515 34.2411 32.3615 34.3518C31.8384 34.408 31.4652 34.4268 30.3627 34.4455C29.2434 34.4455 28.8684 34.408 28.3452 34.3518C27.3552 34.2393 25.8796 33.9224 24.7977 32.4655C23.714 31.0274 23.0971 28.0574 22.2946 24.8436C21.4152 21.5193 21.0234 19.3893 19.9771 14.7749C19.9771 14.7749 18.9496 14.8124 18.4827 14.8499C17.8659 14.8874 17.3802 14.9436 16.8571 15.0186C16.8571 15.0186 17.4571 24.508 17.7177 28.5243C17.999 32.7468 18.5015 39.8811 18.9684 45.2624C18.9684 45.2624 19.8271 45.3936 21.2671 45.4874C22.7802 45.5793 23.4515 45.5793 23.4515 45.5793C24.0684 43.2074 24.8521 39.9186 25.7127 38.518C26.4215 37.378 27.524 37.2486 28.1409 37.1736C29.1121 37.0424 29.9334 37.0236 30.3271 37.0236C30.7002 37.0049 31.5215 37.0236 32.5115 37.1736C33.1284 37.2674 34.2309 37.3799 34.9396 38.518C35.819 39.9186 36.584 43.2055 37.2009 45.5793C37.2009 45.5793 37.8721 45.5605 39.3852 45.4855C40.155 45.4522 40.9224 45.3771 41.684 45.2605C42.1509 39.8811 42.6552 32.7636 42.9346 28.5243C43.1971 24.508 43.7952 15.0186 43.7952 15.0186C43.2702 14.9436 42.7865 14.8874 42.1696 14.8499C41.7384 14.8124 40.694 14.7749 40.694 14.7749Z" fill="black"/>
</g>
<defs>
<clipPath id="clip0_4940_93399">
<rect width="45" height="45" fill="white" transform="translate(7.83203 7.5)"/>
</clipPath>
</defs>
</svg>
