<svg width="60" height="60" viewBox="0 0 60 60" fill="none" xmlns="http://www.w3.org/2000/svg">
<path fill-rule="evenodd" clip-rule="evenodd" d="M29.9436 41.0045C46.0187 41.0045 59.0521 36.0838 59.0521 29.9994C59.0521 23.9149 46.0187 18.9756 29.9436 18.9756C13.8498 18.9756 0.816406 23.9149 0.816406 29.9994C0.816406 36.0842 13.8498 41.0045 29.9436 41.0045Z" fill="#003478"/>
<path fill-rule="evenodd" clip-rule="evenodd" d="M29.9423 39.8779C14.5056 39.8779 1.96094 35.4833 1.96094 29.9996C1.96094 24.5349 14.5056 20.084 29.9423 20.084C45.4167 20.084 57.9424 24.5349 57.9424 29.9996C57.9424 35.4833 45.4167 39.8779 29.9423 39.8779Z" fill="white"/>
<path fill-rule="evenodd" clip-rule="evenodd" d="M29.9427 39.1079C44.91 39.1079 57.06 35.0327 57.06 29.9994C57.06 24.9854 44.91 20.9102 29.9427 20.9102C14.9567 20.9102 2.84375 24.9854 2.84375 29.9994C2.84406 35.0327 14.9567 39.1079 29.9427 39.1079Z" fill="#003478"/>
<path fill-rule="evenodd" clip-rule="evenodd" d="M37.0439 31.8212C38.3207 30.6194 39.0339 29.3612 40.8747 29.3799C41.9826 29.3986 42.264 30.2813 42.4517 30.657L44.8743 26.5632H46.3578L42.3393 33.6808C42.264 33.8308 42.0759 34.1125 42.0949 34.3379C42.1332 34.6946 42.5836 34.6009 42.4146 34.6009C43.2221 34.5632 44.7053 33.0234 45.0623 32.648C45.137 32.5536 45.269 32.3849 45.3437 32.3849C45.419 32.3849 45.5694 32.4599 45.5694 32.5726C45.5694 32.648 45.4004 32.9293 45.269 33.0984C44.5176 34.0375 43.2784 35.4834 41.8699 35.521C41.1751 35.521 40.9118 35.2393 40.8181 34.6949C40.499 34.9763 39.4096 35.4647 38.3017 35.4647C37.3813 35.446 37.0056 34.9013 36.8182 34.4695C36.6492 34.1128 36.5739 33.5871 36.7052 33.0613C36.1982 33.3244 35.7288 33.3617 35.0527 33.343C34.2636 33.324 33.7752 32.9673 33.5315 32.0469C32.63 33.6998 32.592 33.7558 31.6722 35.4837H30.076L32.1229 32.0095C32.3863 31.5398 32.5176 31.1644 32.611 30.7703C32.6677 30.5447 32.4987 30.338 32.2543 30.3196C31.9916 30.3196 31.5602 30.5826 31.1465 30.9767C31.1465 30.9767 30.095 32.1035 29.3249 33.249C28.5922 34.3385 27.3343 35.5777 25.9635 35.5777C24.968 35.5777 24.0665 35.0332 23.8788 33.9815C23.8788 33.9815 23.7848 34.2255 22.9021 34.7326C22.8271 34.7699 22.6394 34.8826 22.5833 34.8452C22.414 34.6952 22.3203 34.5072 22.3013 34.3755C22.3576 34.3945 22.4703 34.3005 22.827 34.0188C23.5218 33.4931 23.6722 33.0794 23.6722 33.0794C23.8409 32.7227 24.1419 32.1593 24.3482 31.7649C24.912 30.6381 25.8881 29.4926 27.4843 29.4362C27.7474 29.4362 27.8224 29.5489 27.8787 29.6429C28.0288 29.7556 27.9727 29.981 27.9727 29.981C26.8459 30.15 26.0761 30.8071 25.6064 31.4458C25.325 31.8589 25.0243 32.535 24.968 33.023C24.8553 33.8681 25.2497 34.4312 25.8318 34.5629C26.9209 34.7319 27.8224 33.9432 28.5361 32.7227C28.7241 32.4033 28.8555 31.5769 28.8555 31.1261C28.8555 30.6754 28.6112 30.206 28.4235 30.018C28.4235 29.6989 28.6298 29.4923 28.8739 29.4923C28.9489 29.4923 29.0242 29.4923 29.0992 29.5673C29.4749 29.943 29.6816 30.6567 29.6816 31.2012C29.6816 31.3892 29.6816 31.5769 29.644 31.7649C30.4327 30.8071 31.4279 29.5676 32.1983 29.3235C32.3483 29.2485 32.4987 29.2485 32.6487 29.2485C34.0572 29.2109 33.8695 30.488 33.8695 30.488C34.6203 29.6242 35.1464 29.3049 35.8411 29.3422C36.5925 29.3799 36.8553 29.9059 36.8553 30.319C36.8363 30.8071 36.4802 31.3705 35.8607 31.3892C35.3154 31.3892 34.9963 31.1261 34.8273 30.6381C34.4706 30.7697 34.3019 31.0138 34.2265 31.5018C34.1135 32.1216 34.5833 32.61 35.184 32.61C36.2171 32.6103 36.6682 32.1593 37.0439 31.8212ZM38.1704 23.7275C38.1704 24.3285 36.0668 25.474 34.2826 25.474C31.5035 25.474 28.6115 24.1405 27.2786 23.8401C25.8324 23.5021 24.5179 23.2204 23.4848 23.2204C19.8603 23.2204 18.2451 24.7793 18.3204 26.2064C18.3581 26.7885 18.8272 27.1642 19.5223 27.0326C20.2737 26.9012 21.3252 26.1875 21.5882 25.5677C21.6445 25.4364 21.7949 25.4174 21.8512 25.455C21.9639 25.549 21.9262 25.6804 21.9262 25.6804C21.8322 26.4128 20.7054 28.4411 18.7525 28.4411C17.6633 28.4411 16.9309 27.427 16.9496 26.4315C16.9682 24.5723 18.8651 22.6943 23.5411 22.6943C24.4236 22.6943 25.419 22.7694 26.5085 22.9574C27.7664 23.1827 30.9024 23.7085 33.4564 23.7461C34.3959 23.7461 35.5977 23.7838 36.5742 23.6335C37.607 23.4644 37.3816 23.4268 37.795 23.4268C38.1704 23.4268 38.1704 23.5771 38.1704 23.7275Z" fill="white"/>
<path fill-rule="evenodd" clip-rule="evenodd" d="M40.9484 30.2625C40.2907 30.1875 39.4643 30.7509 38.7885 31.5774C38.4504 31.9904 38.0937 32.7792 38.0371 33.2486C37.9624 33.7183 38.0937 34.1877 38.2627 34.3191C38.4318 34.4504 39.1832 34.8448 40.3474 33.662C41.0044 33.0046 41.6429 31.9341 41.6429 31.9341L41.4362 31.8774C41.8306 31.1453 41.7549 30.3562 40.9484 30.2625Z" fill="#003478"/>
<path fill-rule="evenodd" clip-rule="evenodd" d="M27.2225 28.0463C27.2225 28.2529 27.5039 28.422 27.7483 28.441C27.6919 28.6473 27.7106 28.7413 27.6169 28.7227C27.0535 28.7227 26.8282 28.1779 26.8282 28.1779C26.0774 28.3093 25.3449 28.4033 23.8611 28.5536C20.1239 34.6008 18.9598 35.5962 16.6685 35.5962C15.0346 35.5962 13.5887 34.5257 13.5511 32.6102C13.5321 31.446 14.4712 30.0185 16.2178 29.5864C16.4244 29.5864 16.4995 29.6618 16.4995 29.7745C16.4995 29.8498 16.4244 29.9435 16.2551 30.0185C15.748 30.2065 14.8656 31.2016 14.8656 32.1221C14.8656 32.8169 15.2976 33.5869 16.0297 33.7557C16.2364 33.8123 16.4244 33.7933 16.6121 33.7933C18.4337 33.7933 20.4807 31.7464 22.6966 28.629C22.3399 28.6476 20.8187 28.817 20.443 29.2487C20.2743 29.3801 20.1616 29.3051 20.1239 29.1547C20.1239 29.117 20.1803 28.9857 20.2369 28.9104C20.8377 28.2343 22.6406 28.0842 23.0723 28.0279C24.7625 25.4362 26.9408 23.821 27.3916 23.84C27.4666 23.84 27.6359 23.9527 27.5606 24.1404C27.5416 24.1781 27.3539 24.3844 27.2792 24.4408C26.9035 24.7788 25.6263 25.6052 24.2368 27.9526C25.3636 27.8962 26.6781 27.6709 26.6781 27.6709C26.6781 27.6709 26.6031 27.4268 26.6031 27.2201C26.6595 26.4127 27.1289 25.9243 27.7299 26.0183C28.0683 26.0746 28.2933 26.3564 28.2933 26.6567C28.2933 26.9761 28.0493 27.4455 27.8049 27.6709C27.6356 27.8019 27.4476 27.9336 27.2225 28.0463Z" fill="white"/>
<path fill-rule="evenodd" clip-rule="evenodd" d="M27.1273 27.6333C27.1273 27.6333 27.3153 27.6523 27.5967 27.3329C27.7094 27.2202 27.8974 26.8822 27.8597 26.6568C27.8408 26.5442 27.7847 26.4128 27.6534 26.4315C27.3714 26.4881 27.2023 26.6195 27.1273 26.9012C27.0336 27.2016 27.0713 27.4083 27.1273 27.6333Z" fill="#003478"/>
</svg>
