<svg width="61" height="60" viewBox="0 0 61 60" fill="none" xmlns="http://www.w3.org/2000/svg">
<g clip-path="url(#clip0_4940_8552)">
<path d="M36.832 26.6113H40.2341V26.1943H37.8718L37.8738 24.3789H36.832L36.832 26.6113Z" fill="#231F20"/>
<path d="M17.207 24.3789V26.6113H18.2483V25.7011H20.0562V26.6113H21.0956V24.3789H20.0562V25.2876H18.2483V24.3789H17.207Z" fill="#231F20"/>
<path d="M30.2374 24.3797L29.2697 25.3226L28.2676 24.3797L27.0586 24.291V24.3797C27.0586 24.3797 28.5251 25.6952 28.535 25.7033V26.6121H29.5754V25.6831C29.5837 25.677 30.9415 24.3797 30.9415 24.3797V24.291L30.2374 24.3797Z" fill="#231F20"/>
<path d="M41.3906 26.6113H44.8599V26.2355H42.4315V25.6663H44.7684V25.2917H42.4315V24.7538H44.8152L44.8171 24.3789H41.3906L41.3906 26.6113Z" fill="#231F20"/>
<path d="M31.7986 24.9605C31.7986 25.4767 32.3538 25.6011 33.1072 25.7017C33.877 25.805 34.2363 25.8325 34.2363 26.0279C34.2363 26.2017 34.0078 26.2939 33.3454 26.2939C32.5899 26.2939 31.9565 26.0931 31.8714 26.0683C31.8678 26.0844 31.7998 26.32 31.7734 26.4462C31.7646 26.4882 31.7734 26.5351 31.7734 26.5349C31.8817 26.5598 32.4756 26.7083 33.3882 26.7083C34.3908 26.7083 35.3586 26.52 35.3586 25.934C35.3586 25.5324 34.9655 25.3258 33.8476 25.1862C33.3855 25.128 32.8977 25.0908 32.8977 24.898C32.8977 24.7543 33.0318 24.6888 33.6918 24.6888C34.352 24.6888 34.8948 24.8409 34.9834 24.8624L35.0678 24.3415C34.9525 24.3201 34.2995 24.2803 33.4416 24.2803C32.7288 24.2803 31.7986 24.3862 31.7986 24.9605Z" fill="#231F20"/>
<path d="M12.2227 25.4957C12.2227 26.2168 12.9278 26.7077 14.3897 26.7077C14.9551 26.7077 15.5532 26.6186 15.6512 26.6036L15.7417 26.048C15.6154 26.062 15.1307 26.23 14.6084 26.23C13.7971 26.23 13.2494 26.0192 13.2494 25.4957C13.2494 24.9811 13.7706 24.7606 14.6231 24.7606C15.1091 24.7606 15.618 24.8335 15.7417 24.8543V24.7656L15.6512 24.3856C15.5023 24.3675 14.987 24.2842 14.421 24.2842C12.9379 24.2842 12.2227 24.7583 12.2227 25.4957Z" fill="#231F20"/>
<path d="M22.707 26.6115H23.7471V24.7761C23.8901 24.7663 24.0488 24.7483 24.2928 24.7483C24.5441 24.7483 24.7262 24.7532 24.8778 24.7768C25.1947 24.8297 25.2979 24.9398 25.2955 25.0861C25.2932 25.2373 25.1549 25.3759 24.8341 25.4266C24.6254 25.4571 24.483 25.4616 24.2976 25.4616C24.2103 25.4616 23.981 25.3646 23.981 25.3646V25.4533L25.1636 26.6115H26.4867V26.5228L25.2881 25.6826C25.526 25.6666 25.6101 25.6539 25.8456 25.5724C26.1638 25.4616 26.3193 25.2844 26.3199 25.0861C26.3235 24.8261 26.1677 24.6006 25.5845 24.4593C25.2616 24.3801 24.8533 24.3461 24.302 24.3448C23.5549 24.3436 22.783 24.376 22.707 24.3792V26.6115Z" fill="#231F20"/>
<path d="M46.2344 26.6115H47.2752V24.7761C47.4176 24.7663 47.5755 24.7483 47.8197 24.7483C48.0719 24.7483 48.253 24.7532 48.407 24.7768C48.7216 24.8297 48.8251 24.9398 48.8221 25.0861C48.819 25.2373 48.6823 25.3759 48.36 25.4266C48.1564 25.4571 48.0098 25.4616 47.8248 25.4616C47.732 25.4616 47.5089 25.3646 47.5089 25.3646V25.4533L48.6914 26.6115H50.014V26.5228L48.8155 25.6826C49.0542 25.6666 49.1376 25.6539 49.374 25.5724C49.6902 25.4616 49.8466 25.2844 49.8496 25.0861C49.8507 24.8261 49.6957 24.6006 49.1124 24.4593C48.7889 24.3801 48.3822 24.3461 47.8302 24.3448C47.0812 24.3436 46.3095 24.376 46.2344 24.3792V26.6115Z" fill="#231F20"/>
<path d="M36.832 26.3965H40.2341V26.0061H37.8718L37.8738 24.3069H36.832V26.3965Z" fill="url(#paint0_linear_4940_8552)"/>
<path d="M17.207 24.3069V26.3965H18.2483V25.5444H20.0562V26.3965H21.0956V24.3069H20.0562V25.1573H18.2483V24.3069H17.207Z" fill="url(#paint1_linear_4940_8552)"/>
<path d="M30.2368 24.3069L29.269 25.1894L28.267 24.3069L27.0664 24.2996C27.0664 24.2996 28.5245 25.5381 28.5343 25.5458V26.3965H29.5748V25.5269C29.5831 25.5212 30.9305 24.2996 30.9305 24.2996L30.2368 24.3069Z" fill="url(#paint2_linear_4940_8552)"/>
<path d="M41.3906 26.3965H44.8599V26.0447H42.4315V25.512H44.7684V25.1613H42.4315V24.6578H44.8152L44.8171 24.3069H41.3906V26.3965Z" fill="url(#paint3_linear_4940_8552)"/>
<path d="M31.7986 24.8503C31.7986 25.3335 32.3538 25.45 33.1072 25.5441C33.877 25.6408 34.2363 25.6667 34.2363 25.8495C34.2363 26.0121 34.0078 26.0985 33.3454 26.0985C32.5899 26.0985 31.9565 25.9106 31.8714 25.8872C31.8665 25.9074 31.7734 26.4467 31.7734 26.446C31.8817 26.4694 32.4756 26.4863 33.3882 26.4863C34.3908 26.4863 35.3586 26.3101 35.3586 25.7615C35.3586 25.3857 34.9655 25.1923 33.8476 25.0616C33.3854 25.0072 32.8976 24.9723 32.8976 24.7918C32.8976 24.6574 33.0318 24.5959 33.6918 24.5959C34.352 24.5959 34.8948 24.7383 34.9834 24.7586L35.0678 24.354C34.9525 24.334 34.2995 24.2136 33.4416 24.2136C32.7288 24.2136 31.7986 24.3128 31.7986 24.8503Z" fill="url(#paint4_linear_4940_8552)"/>
<path d="M12.2227 25.3519C12.2227 26.0269 12.9278 26.4863 14.3897 26.4863C14.9551 26.4863 15.5532 26.4028 15.6512 26.3889L15.7417 26.0485V25.9518C15.6154 25.965 15.1307 26.0391 14.6084 26.0391C13.7971 26.0391 13.2494 25.8419 13.2494 25.3519C13.2494 24.8703 13.7706 24.6637 14.6231 24.6637C15.1091 24.6637 15.618 24.732 15.7417 24.7515L15.6512 24.3128C15.5023 24.2958 14.987 24.2179 14.421 24.2179C12.9379 24.2179 12.2227 24.6617 12.2227 25.3519Z" fill="url(#paint5_linear_4940_8552)"/>
<path d="M22.707 26.3966H23.7471V24.6785C23.8901 24.6693 24.0488 24.6524 24.2928 24.6524C24.5441 24.6524 24.7262 24.657 24.8778 24.679C25.1947 24.7287 25.2979 24.8317 25.2955 24.9686C25.2932 25.1101 25.1549 25.2398 24.8341 25.2873C24.6254 25.3159 24.483 25.3201 24.2976 25.3201C24.1903 25.3201 24.1086 25.3191 23.981 25.3123V25.3652L25.1636 26.3966L26.4867 26.5234V26.3966L25.2881 25.5269C25.526 25.512 25.6101 25.5001 25.8456 25.4238C26.1638 25.3201 26.3193 25.1542 26.3199 24.9686C26.3235 24.7252 26.1677 24.5141 25.5845 24.3819C25.2616 24.3078 24.8533 24.2759 24.302 24.2747C23.5549 24.2736 22.783 24.3039 22.707 24.307V26.3966Z" fill="url(#paint6_linear_4940_8552)"/>
<path d="M46.2344 26.3966H47.2752V24.6785C47.4176 24.6693 47.5755 24.6524 47.8197 24.6524C48.0719 24.6524 48.253 24.657 48.407 24.679C48.7216 24.7287 48.8251 24.8317 48.8221 24.9686C48.819 25.1101 48.6823 25.2398 48.36 25.2873C48.1564 25.3159 48.0098 25.3201 47.8248 25.3201C47.7157 25.3201 47.6358 25.3191 47.5089 25.3123V25.3652L48.6914 26.3966L50.014 26.5234V26.3966L48.8155 25.5269C49.0542 25.512 49.1376 25.5001 49.374 25.4238C49.6902 25.3201 49.8466 25.1542 49.8496 24.9686C49.8507 24.7252 49.6957 24.5141 49.1124 24.3819C48.7889 24.3078 48.3822 24.2759 47.8302 24.2747C47.0812 24.2736 46.3095 24.3039 46.2344 24.307V26.3966Z" fill="url(#paint7_linear_4940_8552)"/>
<path d="M36.832 26.5234H40.2341V26.1064H37.8718L37.8738 24.2911H36.832V26.5234Z" fill="url(#paint8_linear_4940_8552)"/>
<path d="M17.207 24.2911V26.5234H18.2483V25.6133H20.0562V26.5234H21.0956V24.2911H20.0562V25.1997H18.2483V24.2911H17.207Z" fill="url(#paint9_linear_4940_8552)"/>
<path d="M30.2374 24.2911L29.2697 25.2339L28.2676 24.2911H27.0586C27.0586 24.2911 28.5251 25.6065 28.535 25.6146V26.5234H29.5754V25.5945C29.5837 25.5883 30.9415 24.2911 30.9415 24.2911H30.2374Z" fill="url(#paint10_linear_4940_8552)"/>
<path d="M41.3906 26.5234H44.8599V26.1477H42.4315V25.5785H44.7684V25.2039H42.4315V24.6659H44.8152L44.8171 24.2911H41.3906V26.5234Z" fill="url(#paint11_linear_4940_8552)"/>
<path d="M31.7986 24.8713C31.7986 25.3875 32.3538 25.512 33.1072 25.6125C33.877 25.7158 34.2363 25.7434 34.2363 25.9388C34.2363 26.1125 34.0078 26.2048 33.3454 26.2048C32.5899 26.2048 31.9565 26.004 31.8714 25.9792C31.8665 26.0006 31.7734 26.4465 31.7734 26.4458C31.8817 26.4707 32.4756 26.6191 33.3882 26.6191C34.3908 26.6191 35.3586 26.4309 35.3586 25.8448C35.3586 25.4432 34.9655 25.2367 33.8476 25.097C33.3854 25.0388 32.8976 25.0017 32.8976 24.8088C32.8976 24.6652 33.0318 24.5996 33.6918 24.5996C34.352 24.5996 34.8948 24.7518 34.9834 24.7733L35.0678 24.3411C34.9525 24.3197 34.2995 24.1911 33.4416 24.1911C32.7288 24.1911 31.7986 24.2971 31.7986 24.8713Z" fill="url(#paint12_linear_4940_8552)"/>
<path d="M12.2227 25.4072C12.2227 26.1283 12.9278 26.6191 14.3897 26.6191C14.9551 26.6191 15.5532 26.5301 15.6512 26.5151L15.7417 26.0482C15.6154 26.0622 15.1307 26.1414 14.6084 26.1414C13.7971 26.1414 13.2494 25.9307 13.2494 25.4072C13.2494 24.8926 13.7706 24.672 14.6231 24.672C15.1091 24.672 15.618 24.745 15.7417 24.7658L15.6512 24.2971C15.5023 24.279 14.987 24.1957 14.421 24.1957C12.9379 24.1957 12.2227 24.6698 12.2227 25.4072Z" fill="url(#paint13_linear_4940_8552)"/>
<path d="M22.707 26.5234H23.7471V24.6879C23.8901 24.6782 24.0488 24.6602 24.2928 24.6602C24.5441 24.6602 24.7262 24.6651 24.8778 24.6887C25.1947 24.7416 25.2979 24.8516 25.2955 24.998C25.2932 25.1491 25.1549 25.2877 24.8341 25.3385C24.6254 25.369 24.483 25.3735 24.2976 25.3735C24.1903 25.3735 24.1086 25.3724 23.981 25.3652L25.1636 26.5234H26.4867L25.2881 25.5945C25.526 25.5785 25.6101 25.5658 25.8456 25.4843C26.1638 25.3735 26.3193 25.1963 26.3199 24.998C26.3235 24.738 26.1677 24.5124 25.5845 24.3712C25.2616 24.292 24.8533 24.258 24.302 24.2566C23.5549 24.2555 22.783 24.2879 22.707 24.2911V26.5234Z" fill="url(#paint14_linear_4940_8552)"/>
<path d="M46.2344 26.5234H47.2752V24.6879C47.4176 24.6782 47.5755 24.6602 47.8197 24.6602C48.0719 24.6602 48.253 24.6651 48.407 24.6887C48.7216 24.7416 48.8251 24.8516 48.8221 24.998C48.819 25.1491 48.6823 25.2877 48.36 25.3385C48.1564 25.369 48.0098 25.3735 47.8248 25.3735C47.7157 25.3735 47.6358 25.3724 47.5089 25.3652L48.6914 26.5234H50.014L48.8155 25.5945C49.0542 25.5785 49.1376 25.5658 49.374 25.4843C49.6902 25.3735 49.8466 25.1963 49.8496 24.998C49.8507 24.738 49.6957 24.5124 49.1124 24.3712C48.7889 24.292 48.3822 24.258 47.8302 24.2566C47.0812 24.2555 46.3095 24.2879 46.2344 24.2911V26.5234Z" fill="url(#paint15_linear_4940_8552)"/>
<path d="M31.3867 33.3645C30.8767 33.3416 30.0384 33.4249 29.7889 33.5308C29.5055 33.6511 29.4186 33.7305 28.7295 33.7305C28.0403 33.7305 26.6826 33.5308 26.6826 33.5308C26.6826 33.5308 12.2617 31.1574 11.8708 31.0132C11.48 30.869 10.9965 30.5918 10.4514 30.2369C9.90623 29.8819 9.59766 29.5603 9.59766 29.3274C9.59766 29.0945 9.93709 29.039 9.93709 29.039L25.846 28.9319C25.846 28.9319 26.5043 28.9022 26.7237 28.9614C26.9432 29.0206 27.9073 29.4912 28.2049 29.5529C28.9181 29.7008 31.3867 29.6417 31.3867 29.6417" fill="url(#paint16_linear_4940_8552)"/>
<path d="M31.3867 33.3639C30.8767 33.341 30.0384 33.4243 29.7889 33.5302C29.5055 33.6505 29.4186 33.7299 28.7295 33.7299C28.0403 33.7299 26.6826 33.5302 26.6826 33.5302C26.6826 33.5302 12.2617 31.1568 11.8708 31.0126C11.48 30.8684 10.9965 30.5911 10.4514 30.2362C9.90623 29.8813 9.59766 29.5597 9.59766 29.3268C9.59766 29.0939 9.93709 29.0384 9.93709 29.0384L25.846 28.9312C25.846 28.9312 26.5043 28.9016 26.7237 28.9608C26.9432 29.02 27.9073 29.4906 28.2049 29.5523C28.9181 29.7002 31.3867 29.6411 31.3867 29.6411" stroke="#B8B8B8" stroke-width="0.827332"/>
<path d="M12.2734 29.7852L22.1538 29.9593C22.1538 29.9593 22.4653 29.9752 22.6769 30.0386C22.8885 30.102 23.1119 30.2795 23.1119 30.2795H25.6158C25.6158 30.2795 24.7576 30.3048 24.6871 30.3428C24.6166 30.3808 24.6635 30.4062 24.6635 30.4062H22.8651L22.9355 30.4823L23.4763 30.5582L23.8877 30.9259H25.8626C25.8626 30.9259 25.4865 31.0019 25.416 31.0653L25.3454 31.1287H23.8642C23.8642 31.1287 23.9113 31.2175 24.1228 31.2301C24.3344 31.2428 24.358 31.2935 24.452 31.3188C24.546 31.3442 24.9692 31.7371 25.8274 32.0033C26.6855 32.2695 28.2137 32.5484 28.2137 32.5484C28.2137 32.5484 26.0037 32.4975 25.0398 32.0539C24.0758 31.6104 22.771 30.5837 22.4771 30.4569C22.1831 30.3301 21.8776 30.3682 21.8776 30.3682C21.8776 30.3682 15.1652 30.0766 14.4011 30.0133C13.637 29.9499 12.2734 29.7852 12.2734 29.7852Z" fill="#191919"/>
<path d="M31.2542 33.3645C31.7641 33.3416 32.6023 33.4249 32.8517 33.5308C33.1351 33.6511 33.222 33.7305 33.9111 33.7305C34.6003 33.7305 35.958 33.5308 35.958 33.5308C35.958 33.5308 50.3789 31.1574 50.7698 31.0132C51.1606 30.869 51.6441 30.5918 52.1892 30.2369C52.7344 29.8819 53.043 29.5603 53.043 29.3274C53.043 29.0945 52.7035 29.039 52.7035 29.039L36.7946 28.9319C36.7946 28.9319 36.1363 28.9022 35.9169 28.9614C35.6974 29.0206 34.7332 29.4912 34.4357 29.5529C33.7225 29.7008 31.2539 29.6417 31.2539 29.6417" fill="url(#paint17_linear_4940_8552)"/>
<path d="M31.2542 33.3639C31.7641 33.341 32.6023 33.4243 32.8517 33.5302C33.1351 33.6505 33.222 33.7299 33.9111 33.7299C34.6003 33.7299 35.958 33.5302 35.958 33.5302C35.958 33.5302 50.3789 31.1568 50.7698 31.0126C51.1606 30.8684 51.6441 30.5911 52.1892 30.2362C52.7344 29.8813 53.043 29.5597 53.043 29.3268C53.043 29.0939 52.7035 29.0384 52.7035 29.0384L36.7946 28.9312C36.7946 28.9312 36.1363 28.9016 35.9169 28.9608C35.6974 29.02 34.7332 29.4906 34.4357 29.5523C33.7225 29.7002 31.2539 29.6411 31.2539 29.6411" stroke="#B8B8B8" stroke-width="0.827332"/>
<path d="M50.3661 29.7852L40.4858 29.9593C40.4858 29.9593 40.1743 29.9752 39.9627 30.0386C39.7509 30.102 39.5276 30.2795 39.5276 30.2795H37.0238C37.0238 30.2795 37.8819 30.3048 37.9525 30.3428C38.0229 30.3808 37.976 30.4062 37.976 30.4062H39.7745L39.704 30.4823L39.1632 30.5582L38.7518 30.9259H36.7769C36.7769 30.9259 37.153 31.0019 37.2236 31.0653L37.2942 31.1287H38.7753C38.7753 31.1287 38.7283 31.2175 38.5166 31.2301C38.3051 31.2428 38.2815 31.2935 38.1875 31.3188C38.0935 31.3442 37.6703 31.7371 36.8121 32.0033C35.954 32.2695 34.4258 32.5484 34.4258 32.5484C34.4258 32.5484 36.6359 32.4975 37.5998 32.0539C38.5638 31.6104 39.8685 30.5837 40.1624 30.4569C40.4564 30.3301 40.7619 30.3682 40.7619 30.3682C40.7619 30.3682 47.4743 30.0766 48.2385 30.0133C49.0025 29.9499 50.3661 29.7852 50.3661 29.7852Z" fill="#191919"/>
<path d="M31.3883 31.7158C31.3883 31.7158 29.5295 31.7083 28.3461 31.7158C27.1625 31.7232 26.9112 31.5419 26.4226 31.0983C25.7674 30.5033 25.8468 30.2295 25.8468 30.2295H31.3883" fill="white"/>
<path d="M31.3868 31.7039C31.3868 31.7039 29.5559 31.6965 28.3901 31.7039C27.2244 31.7113 26.9201 31.4876 26.4907 31.0828C25.8553 30.4839 25.9283 30.2399 25.9283 30.2399H31.3868" fill="url(#paint18_linear_4940_8552)"/>
<path d="M31.1914 31.7158C31.1914 31.7158 33.0502 31.7083 34.2337 31.7158C35.4172 31.7232 35.6684 31.5419 36.157 31.0983C36.8124 30.5033 36.733 30.2295 36.733 30.2295H31.1914" fill="white"/>
<path d="M31.1919 31.7039C31.1919 31.7039 33.0228 31.6965 34.1886 31.7039C35.3543 31.7113 35.6586 31.4876 36.0881 31.0828C36.7234 30.4839 36.6503 30.2399 36.6503 30.2399H31.0273" fill="url(#paint19_linear_4940_8552)"/>
<path d="M32.3984 31.1382H33.1731V31.0432H32.6352L32.6356 30.6299H32.3984L32.3984 31.1382Z" fill="white"/>
<path d="M32.418 31.124H33.1477V31.0345H32.641L32.6414 30.6453H32.418V31.124Z" fill="url(#paint20_linear_4940_8552)"/>
<path d="M28.1914 30.6338V31.1354H28.4254V30.9308H28.8315V31.1354H29.0651V30.6338H28.8315V30.8379H28.4254V30.6338H28.1914Z" fill="white"/>
<path d="M28.2109 30.6453V31.124H28.4343V30.9287H28.822V31.124H29.0449V30.6453H28.822V30.8401H28.4343V30.6453H28.2109Z" fill="url(#paint21_linear_4940_8552)"/>
<path d="M31.027 30.625L30.8023 30.8438L30.5697 30.625H30.2891C30.2891 30.625 30.6295 30.9303 30.6318 30.9323V31.1433H30.8732V30.9276C30.8753 30.9261 31.1904 30.625 31.1904 30.625H31.027Z" fill="white"/>
<path d="M31.006 30.6453L30.7984 30.8474L30.5835 30.6453H30.3242C30.3242 30.6453 30.6387 30.9273 30.6409 30.9291V31.124H30.8639V30.9247C30.8658 30.9234 31.1569 30.6453 31.1569 30.6453H31.006Z" fill="url(#paint22_linear_4940_8552)"/>
<path d="M33.375 31.1382H34.165V31.0526H33.6122V30.923H34.1442V30.8378H33.6122V30.7152H34.1547L34.1553 30.6299H33.375L33.375 31.1382Z" fill="white"/>
<path d="M33.3984 31.124H34.1425V31.0434H33.6218V30.9213H34.1229V30.841H33.6218V30.7256H34.1329L34.1333 30.6453H33.3984V31.124Z" fill="url(#paint23_linear_4940_8552)"/>
<path d="M31.3144 30.7608C31.3144 30.8795 31.4419 30.908 31.6149 30.9311C31.792 30.9549 31.8746 30.9612 31.8746 31.0061C31.8746 31.046 31.822 31.0672 31.6698 31.0672C31.4962 31.0672 31.3506 31.0211 31.3311 31.0153C31.33 31.0204 31.3086 31.1227 31.3086 31.1226C31.3334 31.1283 31.47 31.1624 31.6796 31.1624C31.91 31.1624 32.1325 31.1192 32.1325 30.9845C32.1325 30.8922 32.0422 30.8448 31.7853 30.8126C31.6791 30.7993 31.5669 30.7907 31.5669 30.7464C31.5669 30.7134 31.5978 30.6984 31.7493 30.6984C31.9011 30.6984 32.026 30.7333 32.0462 30.7382L32.0657 30.6389C32.0393 30.634 31.8891 30.6045 31.6918 30.6045C31.5282 30.6045 31.3144 30.6289 31.3144 30.7608Z" fill="white"/>
<path d="M31.3414 30.7697C31.3414 30.8804 31.4604 30.9072 31.6219 30.9287C31.7871 30.9508 31.8642 30.9568 31.8642 30.9987C31.8642 31.0359 31.8151 31.0557 31.6731 31.0557C31.511 31.0557 31.3752 31.0126 31.357 31.0073C31.3559 31.012 31.3359 31.1075 31.3359 31.1074C31.3591 31.1128 31.4865 31.1445 31.6822 31.1445C31.8972 31.1445 32.1049 31.1042 32.1049 30.9785C32.1049 30.8924 32.0206 30.8481 31.7808 30.8181C31.6817 30.8057 31.577 30.7977 31.577 30.7564C31.577 30.7255 31.6058 30.7115 31.7473 30.7115C31.8889 30.7115 32.0054 30.7441 32.0244 30.7487L32.0425 30.656C32.0179 30.6514 31.8777 30.6239 31.6936 30.6239C31.5409 30.6239 31.3414 30.6466 31.3414 30.7697Z" fill="url(#paint24_linear_4940_8552)"/>
<path d="M27.1211 30.8843C27.1211 31.0474 27.2806 31.1584 27.6112 31.1584C27.739 31.1584 27.8743 31.1383 27.8964 31.1349L27.9169 31.0293C27.8883 31.0325 27.7787 31.0503 27.6607 31.0503C27.4772 31.0503 27.3533 31.0028 27.3533 30.8843C27.3533 30.7679 27.4711 30.7181 27.6639 30.7181C27.7738 30.7181 27.889 30.7346 27.9169 30.7394L27.8964 30.6333C27.8628 30.6292 27.7462 30.6104 27.6183 30.6104C27.2829 30.6104 27.1211 30.7176 27.1211 30.8843Z" fill="white"/>
<path d="M27.1406 30.8846C27.1406 31.0393 27.2919 31.1445 27.6054 31.1445C27.7266 31.1445 27.8549 31.1255 27.8759 31.1223L27.8953 31.0221C27.8682 31.0252 27.7643 31.0421 27.6523 31.0421C27.4783 31.0421 27.3608 30.997 27.3608 30.8846C27.3608 30.7743 27.4727 30.727 27.6554 30.727C27.7596 30.727 27.8688 30.7426 27.8953 30.7471L27.8759 30.6466C27.8439 30.6427 27.7334 30.6249 27.612 30.6249C27.294 30.6249 27.1406 30.7265 27.1406 30.8846Z" fill="url(#paint25_linear_4940_8552)"/>
<path d="M29.3789 31.1311H29.6093V30.7245C29.641 30.7223 29.6762 30.7183 29.7302 30.7183C29.7859 30.7183 29.8262 30.7194 29.8598 30.7246C29.93 30.7364 29.9529 30.7608 29.9523 30.7931C29.9518 30.8266 29.9213 30.8573 29.8501 30.8686C29.8038 30.8753 29.7723 30.8763 29.7313 30.8763C29.7075 30.8763 29.6894 30.8761 29.6612 30.8744L29.9232 31.1311H30.2163L29.9507 30.9253C30.0035 30.9218 30.022 30.9189 30.0742 30.9009C30.1447 30.8763 30.1792 30.8371 30.1792 30.7931C30.1801 30.7356 30.1456 30.6855 30.0164 30.6543C29.9448 30.6367 29.8544 30.6292 29.7322 30.6289C29.5667 30.6286 29.3958 30.6358 29.3789 30.6365V31.1311Z" fill="white"/>
<path d="M29.3906 31.124H29.6136V30.7303C29.6443 30.7282 29.6783 30.7244 29.7306 30.7244C29.7845 30.7244 29.8237 30.7254 29.8561 30.7305C29.9241 30.7418 29.9462 30.7655 29.9457 30.7968C29.9452 30.8292 29.9155 30.8589 29.8467 30.8698C29.802 30.8764 29.7715 30.8774 29.7317 30.8774C29.7087 30.8774 29.6911 30.8771 29.6638 30.8755L29.9174 31.124H30.2012L29.9441 30.9247C29.9952 30.9213 30.0131 30.9185 30.0637 30.9011C30.132 30.8774 30.1653 30.8394 30.1654 30.7968C30.1662 30.7411 30.1328 30.6927 30.0077 30.6624C29.9384 30.6454 29.8509 30.6382 29.7327 30.6379C29.5724 30.6376 29.4069 30.6445 29.3906 30.6453V31.124Z" fill="url(#paint26_linear_4940_8552)"/>
<path d="M34.4102 31.1387H34.6469V30.7212C34.6793 30.719 34.7152 30.7148 34.7708 30.7148C34.8283 30.7148 34.8694 30.716 34.9045 30.7213C34.9759 30.7333 34.9996 30.7585 34.9988 30.7916C34.9981 30.8261 34.9671 30.8576 34.8936 30.8691C34.8474 30.8761 34.8139 30.8771 34.7718 30.8771C34.7472 30.8771 34.7289 30.8769 34.7 30.8751L34.969 31.1387H35.2701L34.9973 30.9274C35.0517 30.9237 35.0705 30.9208 35.1242 30.9023C35.1962 30.8771 35.232 30.8368 35.2325 30.7916C35.2327 30.7325 35.1976 30.6813 35.0649 30.6491C34.9914 30.631 34.8988 30.6233 34.7732 30.6231C34.6027 30.6228 34.4272 30.6302 34.4102 30.6309V31.1387Z" fill="white"/>
<path d="M34.4375 31.124H34.6607V30.7303C34.6912 30.7282 34.725 30.7244 34.7774 30.7244C34.8315 30.7244 34.8703 30.7254 34.9034 30.7305C34.9708 30.7418 34.993 30.7655 34.9924 30.7968C34.9917 30.8292 34.9624 30.8589 34.8932 30.8698C34.8497 30.8764 34.8181 30.8774 34.7784 30.8774C34.7552 30.8774 34.7379 30.8771 34.7107 30.8755L34.9643 31.124H35.248L34.991 30.9247C35.0422 30.9213 35.06 30.9185 35.1106 30.9011C35.1785 30.8774 35.2122 30.8394 35.2126 30.7968C35.2128 30.7411 35.1798 30.6927 35.0547 30.6624C34.9853 30.6454 34.8981 30.6382 34.7797 30.6379C34.6189 30.6376 34.4535 30.6445 34.4375 30.6453V31.124Z" fill="url(#paint27_linear_4940_8552)"/>
<path d="M25.9067 30.6465H23.582L23.9181 30.957H26.1878" fill="url(#paint28_linear_4940_8552)"/>
<path d="M25.6184 30.2793C25.6184 30.2793 25.0142 30.2776 24.8257 30.2974C24.6516 30.3159 24.5977 30.4102 24.5977 30.4102C24.5977 30.4102 25.0365 30.5508 25.2319 30.547C25.3656 30.5544 25.832 30.5877 25.832 30.5877L25.6184 30.2793Z" fill="#929292"/>
<path d="M25.3368 31.1279H23.8008C23.8008 31.1279 23.9242 31.3054 24.1437 31.3127C24.3631 31.3201 26.2009 31.3127 26.2009 31.3127L25.3368 31.1279Z" fill="#F2F2F2"/>
<path d="M37.2546 31.1279H38.7907C38.7907 31.1279 38.6673 31.3054 38.4478 31.3127C38.2283 31.3201 36.3906 31.3127 36.3906 31.3127L37.2546 31.1279Z" fill="#F2F2F2"/>
<path d="M26.0085 30.9727C25.8217 30.98 25.7557 30.9688 25.6931 30.9744C25.4462 30.9966 25.3125 31.1297 25.3125 31.1297C25.3125 31.1297 25.5148 31.2092 25.7342 31.2536C25.9537 31.2979 26.3102 31.3276 26.3102 31.3276" fill="#848C8E"/>
<path d="M36.742 30.6465H39.0666L38.7308 30.957H36.4609" fill="url(#paint29_linear_4940_8552)"/>
<path d="M37.0299 30.2793C37.0299 30.2793 37.6015 30.2794 37.79 30.2993C37.9642 30.3177 38.0507 30.4102 38.0507 30.4102C38.0507 30.4102 37.6118 30.5507 37.4164 30.547C37.2826 30.5543 36.8164 30.5876 36.8164 30.5876L37.0299 30.2793Z" fill="#929292"/>
<path d="M36.6376 30.9727C36.8245 30.98 36.8905 30.9688 36.9531 30.9744C37.2 30.9966 37.3679 31.1297 37.3679 31.1297C37.3679 31.1297 37.1314 31.2092 36.9119 31.2536C36.6925 31.2979 36.3359 31.3276 36.3359 31.3276" fill="#848C8E"/>
<path d="M31.3705 33.2972C31.3705 33.2972 30.8229 33.2927 30.4036 33.3581C29.6219 33.4801 29.735 33.5634 29.3236 33.6743C28.9121 33.7852 27.359 33.5745 27.359 33.5745C27.359 33.5745 13.7305 31.3314 12.969 31.201C11.8684 31.0125 11.914 31.0447 11.0558 30.5799C9.90376 29.9561 9.60547 29.4043 9.60547 29.4043C9.60547 29.4043 9.81135 29.5149 10.0992 29.7148C11.5598 30.7296 11.6884 30.6797 11.9712 30.7944C12.7839 31.1236 25.4252 33.0865 25.4252 33.0865C25.4252 33.0865 28.2847 33.641 28.7579 33.4414C29.231 33.2417 29.5006 33.0535 29.7247 32.9977C30.527 32.7981 31.6469 32.8619 31.6469 32.8619" fill="black"/>
<path d="M31.2707 33.2972C31.2707 33.2972 31.8182 33.2927 32.2376 33.3581C33.0193 33.4801 32.9062 33.5634 33.3176 33.6743C33.729 33.7852 35.2822 33.5745 35.2822 33.5745C35.2822 33.5745 48.9106 31.3314 49.6722 31.201C50.7728 31.0125 50.7192 31.0268 51.5854 30.5799C52.7786 29.9643 53.0357 29.4043 53.0357 29.4043C53.0357 29.4043 52.8298 29.5149 52.542 29.7148C51.0814 30.7296 50.9529 30.6797 50.6699 30.7944C49.8573 31.1236 37.216 33.0865 37.216 33.0865C37.216 33.0865 34.3565 33.641 33.8833 33.4414C33.4102 33.2417 33.1406 33.0535 32.9164 32.9977C32.1141 32.7981 31.0547 32.8688 31.0547 32.8688" fill="black"/>
<path d="M31.4859 29.7151C31.4859 29.7151 28.4206 29.7151 28.0812 29.6042C27.8473 29.5277 27.1349 29.1495 26.9086 29.0719C26.6823 28.9942 26.1886 28.9609 26.1886 28.9609C26.1886 28.9609 10.1152 29.0645 9.97115 29.0867C9.82715 29.1089 9.67969 29.216 9.67969 29.216C9.67969 29.216 10.6812 29.3957 11.1437 29.4341C15.9506 29.8334 26.3635 29.6375 26.744 29.6929C27.1246 29.7484 27.3921 30.0479 27.8961 30.0479H31.5373" fill="url(#paint30_linear_4940_8552)"/>
<path d="M31.1256 29.7151C31.1256 29.7151 34.1909 29.7151 34.5303 29.6042C34.7643 29.5277 35.4766 29.1495 35.7029 29.0719C35.9292 28.9942 36.4229 28.9609 36.4229 28.9609C36.4229 28.9609 52.4963 29.0645 52.6404 29.0867C52.7844 29.1089 52.9318 29.216 52.9318 29.216C52.9318 29.216 51.9303 29.3957 51.4678 29.4341C46.6609 29.8334 36.248 29.6375 35.8675 29.6929C35.4869 29.7484 35.2194 30.0479 34.7154 30.0479H31.0742" fill="url(#paint31_linear_4940_8552)"/>
<path d="M52.0559 25.939C52.0559 26.0938 51.9982 26.2422 51.8955 26.3517C51.7929 26.4611 51.6536 26.5226 51.5084 26.5226C51.3632 26.5226 51.224 26.4611 51.1213 26.3517C51.0186 26.2422 50.9609 26.0938 50.9609 25.939C50.9609 25.7843 51.0186 25.6358 51.1213 25.5264C51.224 25.417 51.3632 25.3555 51.5084 25.3555C51.6536 25.3555 51.7929 25.417 51.8955 25.5264C51.9982 25.6358 52.0559 25.7843 52.0559 25.939Z" fill="black"/>
<path d="M51.9632 25.9386C51.9633 26.0024 51.9515 26.0657 51.9285 26.1247C51.9056 26.1837 51.872 26.2373 51.8296 26.2825C51.7873 26.3277 51.737 26.3635 51.6816 26.388C51.6263 26.4124 51.5669 26.425 51.507 26.425C51.4471 26.425 51.3878 26.4124 51.3324 26.388C51.277 26.3635 51.2267 26.3277 51.1844 26.2825C51.142 26.2373 51.1084 26.1837 51.0855 26.1247C51.0626 26.0657 51.0508 26.0024 51.0508 25.9386C51.0508 25.8747 51.0626 25.8114 51.0855 25.7524C51.1084 25.6934 51.142 25.6398 51.1844 25.5946C51.2267 25.5495 51.277 25.5136 51.3324 25.4892C51.3878 25.4647 51.4471 25.4521 51.507 25.4521C51.5669 25.4521 51.6263 25.4647 51.6816 25.4892C51.737 25.5136 51.7873 25.5495 51.8296 25.5946C51.872 25.6398 51.9056 25.6934 51.9285 25.7524C51.9515 25.8114 51.9633 25.8747 51.9632 25.9386Z" fill="white"/>
<path d="M51.2695 25.9476V25.6338L51.3993 25.6343C51.5284 25.6349 51.538 25.6352 51.5706 25.6395C51.6202 25.6461 51.65 25.6598 51.6767 25.6886C51.6902 25.7031 51.6994 25.717 51.7075 25.7354C51.7186 25.7603 51.7225 25.7786 51.7225 25.8048C51.7224 25.8494 51.7075 25.8889 51.6783 25.922C51.648 25.9563 51.6138 25.9734 51.5621 25.9802L51.5553 25.9811L51.5685 25.9881C51.5916 26.0003 51.6014 26.009 51.6241 26.037C51.6458 26.0637 51.6669 26.0961 51.702 26.1562C51.7149 26.1782 51.7331 26.2094 51.7425 26.2255C51.7519 26.2415 51.7605 26.2561 51.7616 26.258L51.7637 26.2613H51.7056H51.6475L51.6397 26.2464C51.6354 26.2382 51.63 26.228 51.6277 26.2236C51.6254 26.2193 51.6209 26.2108 51.6177 26.2048C51.5767 26.127 51.5704 26.1156 51.5532 26.0881C51.5261 26.0446 51.5034 26.0189 51.4822 26.0075C51.464 25.9977 51.4465 25.9951 51.3993 25.9951L51.3642 25.9951V26.1282V26.2613H51.3169H51.2695V25.9476Z" fill="black"/>
<path d="M51.5252 25.9058C51.5504 25.9022 51.5635 25.8985 51.5788 25.8907C51.5853 25.8874 51.5895 25.8841 51.5965 25.8765C51.6129 25.8589 51.6197 25.842 51.6208 25.8168C51.6212 25.8045 51.6209 25.8005 51.6189 25.7919C51.6129 25.7661 51.5985 25.7467 51.5766 25.735C51.563 25.7278 51.5524 25.7246 51.5327 25.7218C51.5217 25.7202 51.5037 25.7197 51.4411 25.7193L51.3633 25.7188V25.8138V25.9088L51.4377 25.9083C51.496 25.9078 51.515 25.9073 51.5252 25.9058Z" fill="white"/>
</g>
<defs>
<linearGradient id="paint0_linear_4940_8552" x1="38.533" y1="26.3965" x2="38.533" y2="24.3068" gradientUnits="userSpaceOnUse">
<stop stop-color="white"/>
<stop offset="0.252809" stop-color="#454546"/>
<stop offset="0.662921" stop-color="#CDCED0"/>
<stop offset="1" stop-color="#CDCED0"/>
</linearGradient>
<linearGradient id="paint1_linear_4940_8552" x1="19.1513" y1="26.3965" x2="19.1513" y2="24.3068" gradientUnits="userSpaceOnUse">
<stop stop-color="white"/>
<stop offset="0.252809" stop-color="#454546"/>
<stop offset="0.662921" stop-color="#CDCED0"/>
<stop offset="1" stop-color="#CDCED0"/>
</linearGradient>
<linearGradient id="paint2_linear_4940_8552" x1="28.9984" y1="26.3965" x2="28.9984" y2="24.2996" gradientUnits="userSpaceOnUse">
<stop stop-color="white"/>
<stop offset="0.252809" stop-color="#454546"/>
<stop offset="0.662921" stop-color="#CDCED0"/>
<stop offset="1" stop-color="#CDCED0"/>
</linearGradient>
<linearGradient id="paint3_linear_4940_8552" x1="43.1252" y1="26.3965" x2="43.1252" y2="24.3068" gradientUnits="userSpaceOnUse">
<stop stop-color="white"/>
<stop offset="0.252809" stop-color="#454546"/>
<stop offset="0.662921" stop-color="#CDCED0"/>
<stop offset="1" stop-color="#CDCED0"/>
</linearGradient>
<linearGradient id="paint4_linear_4940_8552" x1="33.566" y1="26.4864" x2="33.566" y2="24.2136" gradientUnits="userSpaceOnUse">
<stop stop-color="white"/>
<stop offset="0.252809" stop-color="#454546"/>
<stop offset="0.662921" stop-color="#CDCED0"/>
<stop offset="1" stop-color="#CDCED0"/>
</linearGradient>
<linearGradient id="paint5_linear_4940_8552" x1="13.9822" y1="26.4864" x2="13.9822" y2="24.2179" gradientUnits="userSpaceOnUse">
<stop stop-color="white"/>
<stop offset="0.252809" stop-color="#454546"/>
<stop offset="0.662921" stop-color="#CDCED0"/>
<stop offset="1" stop-color="#CDCED0"/>
</linearGradient>
<linearGradient id="paint6_linear_4940_8552" x1="24.5968" y1="26.5235" x2="24.5968" y2="24.2746" gradientUnits="userSpaceOnUse">
<stop stop-color="white"/>
<stop offset="0.252809" stop-color="#454546"/>
<stop offset="0.662921" stop-color="#CDCED0"/>
<stop offset="1" stop-color="#CDCED0"/>
</linearGradient>
<linearGradient id="paint7_linear_4940_8552" x1="48.1242" y1="26.5235" x2="48.1242" y2="24.2746" gradientUnits="userSpaceOnUse">
<stop stop-color="white"/>
<stop offset="0.252809" stop-color="#454546"/>
<stop offset="0.662921" stop-color="#CDCED0"/>
<stop offset="1" stop-color="#CDCED0"/>
</linearGradient>
<linearGradient id="paint8_linear_4940_8552" x1="38.533" y1="26.5235" x2="38.533" y2="24.2911" gradientUnits="userSpaceOnUse">
<stop stop-color="#606163"/>
<stop offset="0.0617978" stop-color="#535355"/>
<stop offset="0.342697" stop-color="#ADAFB2"/>
<stop offset="0.578652" stop-color="white"/>
<stop offset="0.780899" stop-color="#E9EAEB"/>
<stop offset="0.910112" stop-color="#D1D3D4"/>
<stop offset="1" stop-color="#9C9EA1"/>
</linearGradient>
<linearGradient id="paint9_linear_4940_8552" x1="19.1513" y1="26.5235" x2="19.1513" y2="24.2911" gradientUnits="userSpaceOnUse">
<stop stop-color="#606163"/>
<stop offset="0.0617978" stop-color="#535355"/>
<stop offset="0.342697" stop-color="#ADAFB2"/>
<stop offset="0.578652" stop-color="white"/>
<stop offset="0.780899" stop-color="#E9EAEB"/>
<stop offset="0.910112" stop-color="#D1D3D4"/>
<stop offset="1" stop-color="#9C9EA1"/>
</linearGradient>
<linearGradient id="paint10_linear_4940_8552" x1="29.0001" y1="26.5235" x2="29.0001" y2="24.2911" gradientUnits="userSpaceOnUse">
<stop stop-color="#606163"/>
<stop offset="0.0617978" stop-color="#535355"/>
<stop offset="0.342697" stop-color="#ADAFB2"/>
<stop offset="0.578652" stop-color="white"/>
<stop offset="0.780899" stop-color="#E9EAEB"/>
<stop offset="0.910112" stop-color="#D1D3D4"/>
<stop offset="1" stop-color="#9C9EA1"/>
</linearGradient>
<linearGradient id="paint11_linear_4940_8552" x1="43.1252" y1="26.5235" x2="43.1252" y2="24.2911" gradientUnits="userSpaceOnUse">
<stop stop-color="#606163"/>
<stop offset="0.0617978" stop-color="#535355"/>
<stop offset="0.342697" stop-color="#ADAFB2"/>
<stop offset="0.578652" stop-color="white"/>
<stop offset="0.780899" stop-color="#E9EAEB"/>
<stop offset="0.910112" stop-color="#D1D3D4"/>
<stop offset="1" stop-color="#9C9EA1"/>
</linearGradient>
<linearGradient id="paint12_linear_4940_8552" x1="33.566" y1="26.6192" x2="33.566" y2="24.1911" gradientUnits="userSpaceOnUse">
<stop stop-color="#606163"/>
<stop offset="0.0617978" stop-color="#535355"/>
<stop offset="0.342697" stop-color="#ADAFB2"/>
<stop offset="0.578652" stop-color="white"/>
<stop offset="0.780899" stop-color="#E9EAEB"/>
<stop offset="0.910112" stop-color="#D1D3D4"/>
<stop offset="1" stop-color="#9C9EA1"/>
</linearGradient>
<linearGradient id="paint13_linear_4940_8552" x1="13.9822" y1="26.6192" x2="13.9822" y2="24.1957" gradientUnits="userSpaceOnUse">
<stop stop-color="#606163"/>
<stop offset="0.0617978" stop-color="#535355"/>
<stop offset="0.342697" stop-color="#ADAFB2"/>
<stop offset="0.578652" stop-color="white"/>
<stop offset="0.780899" stop-color="#E9EAEB"/>
<stop offset="0.910112" stop-color="#D1D3D4"/>
<stop offset="1" stop-color="#9C9EA1"/>
</linearGradient>
<linearGradient id="paint14_linear_4940_8552" x1="24.5968" y1="26.5235" x2="24.5968" y2="24.2566" gradientUnits="userSpaceOnUse">
<stop stop-color="#606163"/>
<stop offset="0.0617978" stop-color="#535355"/>
<stop offset="0.342697" stop-color="#ADAFB2"/>
<stop offset="0.578652" stop-color="white"/>
<stop offset="0.780899" stop-color="#E9EAEB"/>
<stop offset="0.910112" stop-color="#D1D3D4"/>
<stop offset="1" stop-color="#9C9EA1"/>
</linearGradient>
<linearGradient id="paint15_linear_4940_8552" x1="48.1242" y1="26.5235" x2="48.1242" y2="24.2566" gradientUnits="userSpaceOnUse">
<stop stop-color="#606163"/>
<stop offset="0.0617978" stop-color="#535355"/>
<stop offset="0.342697" stop-color="#ADAFB2"/>
<stop offset="0.578652" stop-color="white"/>
<stop offset="0.780899" stop-color="#E9EAEB"/>
<stop offset="0.910112" stop-color="#D1D3D4"/>
<stop offset="1" stop-color="#9C9EA1"/>
</linearGradient>
<linearGradient id="paint16_linear_4940_8552" x1="20.3601" y1="32.9683" x2="20.7918" y2="28.3924" gradientUnits="userSpaceOnUse">
<stop stop-color="#606163"/>
<stop offset="0.0617978" stop-color="#535355"/>
<stop offset="0.292135" stop-color="#C0C2C4"/>
<stop offset="0.516854" stop-color="#696A6C"/>
<stop offset="0.578652" stop-color="white"/>
<stop offset="0.780899" stop-color="#E9EAEB"/>
<stop offset="0.882022" stop-color="#D1D3D4"/>
<stop offset="0.938202" stop-color="#9C9EA1"/>
<stop offset="1" stop-color="#7C7E80"/>
</linearGradient>
<linearGradient id="paint17_linear_4940_8552" x1="42.2806" y1="32.9682" x2="41.8489" y2="28.3924" gradientUnits="userSpaceOnUse">
<stop stop-color="#606163"/>
<stop offset="0.0617978" stop-color="#535355"/>
<stop offset="0.292135" stop-color="#C0C2C4"/>
<stop offset="0.516854" stop-color="#696A6C"/>
<stop offset="0.578652" stop-color="white"/>
<stop offset="0.780899" stop-color="#E9EAEB"/>
<stop offset="0.882022" stop-color="#D1D3D4"/>
<stop offset="0.938202" stop-color="#9C9EA1"/>
<stop offset="1" stop-color="#7C7E80"/>
</linearGradient>
<linearGradient id="paint18_linear_4940_8552" x1="28.6563" y1="31.7041" x2="28.6563" y2="30.2399" gradientUnits="userSpaceOnUse">
<stop/>
<stop offset="0.117978" stop-color="#00205F"/>
<stop offset="0.331461" stop-color="#00053F"/>
<stop offset="0.758427" stop-color="#000747"/>
<stop offset="0.898876" stop-color="#001E9F"/>
<stop offset="1"/>
</linearGradient>
<linearGradient id="paint19_linear_4940_8552" x1="33.8401" y1="31.7041" x2="33.8401" y2="30.2399" gradientUnits="userSpaceOnUse">
<stop/>
<stop offset="0.117978" stop-color="#00205F"/>
<stop offset="0.331461" stop-color="#00053F"/>
<stop offset="0.758427" stop-color="#000747"/>
<stop offset="0.898876" stop-color="#001E9F"/>
<stop offset="1"/>
</linearGradient>
<linearGradient id="paint20_linear_4940_8552" x1="32.7828" y1="31.124" x2="32.7828" y2="30.6452" gradientUnits="userSpaceOnUse">
<stop stop-color="#828386"/>
<stop offset="0.342697" stop-color="#ADAFB2"/>
<stop offset="0.578652" stop-color="white"/>
<stop offset="0.780899" stop-color="#E9EAEB"/>
<stop offset="0.910112" stop-color="#D1D3D4"/>
<stop offset="1" stop-color="#9C9EA1"/>
</linearGradient>
<linearGradient id="paint21_linear_4940_8552" x1="28.6279" y1="31.124" x2="28.6279" y2="30.6452" gradientUnits="userSpaceOnUse">
<stop stop-color="#828386"/>
<stop offset="0.342697" stop-color="#ADAFB2"/>
<stop offset="0.578652" stop-color="white"/>
<stop offset="0.780899" stop-color="#E9EAEB"/>
<stop offset="0.910112" stop-color="#D1D3D4"/>
<stop offset="1" stop-color="#9C9EA1"/>
</linearGradient>
<linearGradient id="paint22_linear_4940_8552" x1="30.7406" y1="31.124" x2="30.7406" y2="30.6452" gradientUnits="userSpaceOnUse">
<stop stop-color="#828386"/>
<stop offset="0.342697" stop-color="#ADAFB2"/>
<stop offset="0.578652" stop-color="white"/>
<stop offset="0.780899" stop-color="#E9EAEB"/>
<stop offset="0.910112" stop-color="#D1D3D4"/>
<stop offset="1" stop-color="#9C9EA1"/>
</linearGradient>
<linearGradient id="paint23_linear_4940_8552" x1="33.7704" y1="31.124" x2="33.7704" y2="30.6452" gradientUnits="userSpaceOnUse">
<stop stop-color="#828386"/>
<stop offset="0.342697" stop-color="#ADAFB2"/>
<stop offset="0.578652" stop-color="white"/>
<stop offset="0.780899" stop-color="#E9EAEB"/>
<stop offset="0.910112" stop-color="#D1D3D4"/>
<stop offset="1" stop-color="#9C9EA1"/>
</linearGradient>
<linearGradient id="paint24_linear_4940_8552" x1="31.7204" y1="31.1446" x2="31.7204" y2="30.6239" gradientUnits="userSpaceOnUse">
<stop stop-color="#828386"/>
<stop offset="0.342697" stop-color="#ADAFB2"/>
<stop offset="0.578652" stop-color="white"/>
<stop offset="0.780899" stop-color="#E9EAEB"/>
<stop offset="0.910112" stop-color="#D1D3D4"/>
<stop offset="1" stop-color="#9C9EA1"/>
</linearGradient>
<linearGradient id="paint25_linear_4940_8552" x1="27.518" y1="31.1446" x2="27.518" y2="30.6248" gradientUnits="userSpaceOnUse">
<stop stop-color="#828386"/>
<stop offset="0.342697" stop-color="#ADAFB2"/>
<stop offset="0.578652" stop-color="white"/>
<stop offset="0.780899" stop-color="#E9EAEB"/>
<stop offset="0.910112" stop-color="#D1D3D4"/>
<stop offset="1" stop-color="#9C9EA1"/>
</linearGradient>
<linearGradient id="paint26_linear_4940_8552" x1="29.7959" y1="31.124" x2="29.7959" y2="30.6379" gradientUnits="userSpaceOnUse">
<stop stop-color="#828386"/>
<stop offset="0.342697" stop-color="#ADAFB2"/>
<stop offset="0.578652" stop-color="white"/>
<stop offset="0.780899" stop-color="#E9EAEB"/>
<stop offset="0.910112" stop-color="#D1D3D4"/>
<stop offset="1" stop-color="#9C9EA1"/>
</linearGradient>
<linearGradient id="paint27_linear_4940_8552" x1="34.8428" y1="31.124" x2="34.8428" y2="30.6379" gradientUnits="userSpaceOnUse">
<stop stop-color="#828386"/>
<stop offset="0.342697" stop-color="#ADAFB2"/>
<stop offset="0.578652" stop-color="white"/>
<stop offset="0.780899" stop-color="#E9EAEB"/>
<stop offset="0.910112" stop-color="#D1D3D4"/>
<stop offset="1" stop-color="#9C9EA1"/>
</linearGradient>
<linearGradient id="paint28_linear_4940_8552" x1="26.1878" y1="30.8018" x2="23.5821" y2="30.8018" gradientUnits="userSpaceOnUse">
<stop stop-color="#DDDEDF"/>
<stop offset="1" stop-color="#808284"/>
</linearGradient>
<linearGradient id="paint29_linear_4940_8552" x1="36.4609" y1="30.8017" x2="39.0666" y2="30.8017" gradientUnits="userSpaceOnUse">
<stop stop-color="#DDDEDF"/>
<stop offset="1" stop-color="#808284"/>
</linearGradient>
<linearGradient id="paint30_linear_4940_8552" x1="20.6085" y1="30.0479" x2="20.6085" y2="28.9609" gradientUnits="userSpaceOnUse">
<stop stop-color="#BABCBE"/>
<stop offset="0.325843" stop-color="#DEDFE1"/>
<stop offset="0.578652" stop-color="#BEC0C2"/>
<stop offset="0.679775" stop-color="#AAACAF"/>
<stop offset="0.938202" stop-color="#9C9EA1"/>
<stop offset="1" stop-color="#9C9EA1"/>
</linearGradient>
<linearGradient id="paint31_linear_4940_8552" x1="42.003" y1="30.0479" x2="42.003" y2="28.9609" gradientUnits="userSpaceOnUse">
<stop stop-color="#BABCBE"/>
<stop offset="0.325843" stop-color="#DEDFE1"/>
<stop offset="0.578652" stop-color="#BEC0C2"/>
<stop offset="0.679775" stop-color="#AAACAF"/>
<stop offset="0.938202" stop-color="#9C9EA1"/>
<stop offset="1" stop-color="#9C9EA1"/>
</linearGradient>
<clipPath id="clip0_4940_8552">
<rect width="48" height="16" fill="white" transform="translate(6.66406 22)"/>
</clipPath>
</defs>
</svg>
