<svg width="60" height="60" viewBox="0 0 60 60" fill="none" xmlns="http://www.w3.org/2000/svg">
<g clip-path="url(#clip0_4940_38242)">
<path fill-rule="evenodd" clip-rule="evenodd" d="M29.2832 47.6588C24.8091 45.5256 20.9231 42.0296 18.3406 37.8162C15.7644 33.6149 14.4104 28.7491 14.0792 22.5019C13.9737 20.5089 13.9737 18.0228 14.0786 14.903L14.1263 13.4791L15.4972 13.2436C20.3213 12.4186 25.201 12 30.0002 12C34.7993 12 39.6785 12.4186 44.502 13.2436L45.8729 13.4791L45.9212 14.903C46.0267 18.0234 46.0267 20.5095 45.9206 22.5019C45.5888 28.7491 44.2354 33.6149 41.6592 37.8162C39.0772 42.0296 35.1901 45.5256 30.7166 47.6588L30.0002 48.0001L29.2832 47.6588Z" fill="black"/>
<mask id="mask0_4940_38242" style="mask-type:luminance" maskUnits="userSpaceOnUse" x="14" y="12" width="4" height="5">
<path d="M17.6107 16.0679H14V12.0059H17.6107V16.0679Z" fill="black"/>
</mask>
<g mask="url(#mask0_4940_38242)">
</g>
<path fill-rule="evenodd" clip-rule="evenodd" d="M29.9984 13.0264C25.1603 13.0264 20.1384 13.4483 15.0413 14.3469C14.9652 16.4339 14.8784 19.6598 15.0242 22.3973C15.3487 28.5007 16.6641 33.238 19.164 37.306C21.6564 41.3621 25.5162 44.8498 29.9984 46.9212C34.4806 44.8498 38.34 41.3621 40.8324 37.306C43.3327 33.238 44.6477 28.5007 44.9725 22.3973C45.1176 19.6598 45.0313 16.4339 44.9552 14.3469C39.8581 13.4483 34.8365 13.0264 29.9984 13.0264ZM29.9984 13.6143C34.7675 13.6143 39.6101 14.0286 44.3977 14.8462C44.5028 17.9424 44.5027 20.4059 44.3983 22.3655C44.0792 28.365 42.7918 33.0133 40.3458 36.9934C37.9001 40.9731 34.2325 44.2605 29.9984 46.2746C25.764 44.2605 22.0967 40.9731 19.651 36.9934C17.205 33.0133 15.9172 28.365 15.5985 22.3655C15.4941 20.4059 15.4941 17.9424 15.5992 14.8462C20.3867 14.0286 25.2289 13.6143 29.9984 13.6143Z" fill="white"/>
<path fill-rule="evenodd" clip-rule="evenodd" d="M19.995 16.4153C19.9481 16.4142 19.898 16.4164 19.8452 16.422C19.1367 16.4977 18.4294 16.5811 17.7227 16.6725V18.8119C17.8452 18.7958 17.968 18.7804 18.0905 18.7651V18.1032C18.6747 18.0299 19.2599 17.9622 19.8452 17.8997C20.2683 17.8547 20.5048 17.6737 20.5048 17.2256V16.9835C20.5048 16.6003 20.3238 16.4236 19.995 16.4153ZM19.9544 16.7555C20.0496 16.7454 20.1452 16.8194 20.1452 16.9175V17.3508C20.1452 17.444 20.0496 17.533 19.9544 17.5435C19.3327 17.6088 18.7112 17.6807 18.0905 17.7581V16.9705C18.7112 16.8927 19.3327 16.8211 19.9544 16.7555Z" fill="white"/>
<path fill-rule="evenodd" clip-rule="evenodd" d="M29.3225 15.8843C29.9848 15.8794 30.6471 15.8819 31.3091 15.8909V16.2357C30.6014 16.2263 29.8933 16.2242 29.1853 16.2301C29.0894 16.2312 28.9935 16.3159 28.9935 16.414V17.486C28.9935 17.584 29.0894 17.681 29.1853 17.68C29.8203 17.6744 30.455 17.6754 31.0901 17.6828V17.1046C30.7215 17.1004 30.353 17.0983 29.9848 17.0986V16.7535C30.4735 16.7535 30.9621 16.7574 31.4508 16.7647V18.0324C30.7642 18.0219 30.0776 18.0192 29.391 18.0233C28.8884 18.0268 28.6328 17.9382 28.6328 17.4392V16.5068C28.6328 16.041 28.8611 15.8878 29.3225 15.8843Z" fill="white"/>
<path fill-rule="evenodd" clip-rule="evenodd" d="M36.4959 16.1084C36.1 16.1096 35.9219 16.2376 35.9219 16.6574V17.6128C35.9219 18.1212 36.1774 18.2204 36.679 18.2549C37.1397 18.287 37.5997 18.3226 38.06 18.3613C38.5565 18.4032 38.8162 18.3166 38.8162 17.8361V16.8808C38.8162 16.3912 38.5156 16.2603 38.06 16.2219C37.5997 16.1828 37.1397 16.1476 36.679 16.1152C36.6134 16.1107 36.5524 16.1082 36.4959 16.1084ZM36.474 16.4463C37.0715 16.4864 37.6683 16.5325 38.2651 16.5841C38.3607 16.5925 38.4562 16.6849 38.4562 16.7966V17.8551C38.4562 17.9528 38.3607 18.0424 38.2651 18.0341C37.6683 17.9824 37.0715 17.9363 36.474 17.8958C36.3645 17.8881 36.2821 17.7853 36.2821 17.6872V16.6291C36.2821 16.5171 36.3645 16.4386 36.474 16.4463Z" fill="white"/>
<path fill-rule="evenodd" clip-rule="evenodd" d="M27.7262 15.9092V17.4568C27.7262 17.9463 27.4747 18.0538 26.9679 18.0698C26.5267 18.0838 26.0855 18.1006 25.6443 18.1208C25.174 18.1424 24.8867 18.051 24.8867 17.5663V16.0187L25.2471 15.9999V17.6127C25.2471 17.7108 25.3293 17.7907 25.4385 17.7855C26.0169 17.7579 26.595 17.7356 27.1734 17.7185C27.2832 17.7153 27.3563 17.6295 27.3563 17.5314V15.9186C27.4794 15.9151 27.6026 15.912 27.7262 15.9092Z" fill="white"/>
<path fill-rule="evenodd" clip-rule="evenodd" d="M32.3516 15.9111C33.2401 15.9328 34.1284 15.967 35.0166 16.0137V16.3585C34.2488 16.3184 33.4807 16.2873 32.7123 16.2657V16.7922C33.3958 16.8118 34.0789 16.8383 34.7617 16.8721V17.2172C34.0789 17.1834 33.3958 17.1565 32.7123 17.1373V17.7152C33.4807 17.7368 34.2488 17.7679 35.0166 17.8083V18.1531C34.1284 18.1067 33.2401 18.0725 32.3516 18.0505V15.9111Z" fill="white"/>
<path fill-rule="evenodd" clip-rule="evenodd" d="M23.9852 16.0713V16.416C23.2177 16.4646 22.4506 16.5221 21.6842 16.5888V17.1157C22.366 17.056 23.0482 17.004 23.7306 16.9594V17.3045C23.0482 17.3491 22.366 17.4011 21.6842 17.4604V18.0386C22.4506 17.9716 23.2177 17.9141 23.9852 17.8659V18.2107C23.0976 18.2665 22.2108 18.3349 21.3242 18.4155V16.2758C22.2108 16.1952 23.0976 16.1271 23.9852 16.0713Z" fill="white"/>
<path fill-rule="evenodd" clip-rule="evenodd" d="M39.4844 16.3525C40.4173 16.4454 41.3496 16.5521 42.2801 16.6722V17.0173C41.8778 16.9653 41.4748 16.9157 41.0715 16.869V18.6636C40.949 18.6493 40.8265 18.6353 40.7033 18.6214V16.8268C40.2975 16.781 39.8908 16.7381 39.4844 16.6976V16.3525Z" fill="white"/>
<path fill-rule="evenodd" clip-rule="evenodd" d="M27.1404 20.446C28.8535 20.2921 31.1715 20.2502 33.3858 20.4215C33.5117 20.4313 33.6342 20.4617 33.7506 20.5119C34.476 20.8239 35.7632 21.5064 37.1943 22.3435C37.2575 22.3805 37.3169 22.4238 37.3714 22.473C37.7506 22.8146 38.7111 23.8196 38.7111 23.8196L38.4115 23.7589C38.3696 23.7505 38.3303 23.7337 38.2948 23.7093C37.6888 23.293 36.804 22.7511 36.0625 22.369C35.9744 22.324 35.8792 22.295 35.7813 22.2846C35.4206 22.2451 34.933 22.2106 34.6139 22.1973C34.4566 22.1907 34.3494 22.1638 34.1955 22.0839C33.9014 21.9314 33.1889 21.601 32.834 21.4624C32.6822 21.4031 32.6047 21.3892 32.4559 21.3916C31.8461 21.4007 30.4569 21.446 29.7475 21.4911C29.7229 21.4925 29.6994 21.4914 29.6755 21.4876L29.3373 21.4335C30.2962 21.2646 32.6665 21.0486 33.6475 20.9959L33.2483 20.8595C33.1711 20.8333 33.091 20.8193 33.0094 20.8172C32.7964 20.8121 32.3228 20.8024 31.708 20.8015L31.4981 20.8016C30.5669 20.8034 29.3688 20.8268 28.2638 20.9118C28.1672 20.9191 28.0731 20.9429 27.9843 20.983C27.538 21.1835 26.4496 21.7869 25.358 22.4067L25.1157 22.5446C24.8334 22.7053 24.5542 22.8653 24.2891 23.0177C24.2891 23.0177 24.4252 22.8387 24.4515 22.8038C24.4747 22.7734 24.4819 22.7678 24.5133 22.7469C24.5571 22.7175 24.7069 22.6166 24.8579 22.5143L24.9697 22.4383C25.0603 22.3766 25.1412 22.3212 25.1869 22.2891C25.2094 22.2734 25.2237 22.2622 25.252 22.2406C25.5806 21.9873 26.0993 21.5406 26.4085 21.2639C26.4784 21.2014 26.5378 21.1288 26.5866 21.0479C26.6866 20.8825 26.7958 20.7031 26.863 20.6037C26.9203 20.5175 27.0183 20.4571 27.1404 20.446Z" fill="white"/>
<path fill-rule="evenodd" clip-rule="evenodd" d="M27.9687 22.1387C28.008 22.1383 28.0325 22.1816 28.0131 22.2161L27.1852 23.6737C27.1392 23.7595 27.062 23.8234 26.9706 23.8516L25.4183 24.3482C25.2381 24.404 25.0859 24.434 24.8982 24.4487C24.5539 24.4752 23.5312 24.508 23.5312 24.508L23.5538 24.4585C23.5643 24.4351 23.5831 24.4166 23.6063 24.4065L24.0902 24.1964C24.1264 24.1807 24.1581 24.1566 24.1823 24.1256L24.9296 23.1848C24.9696 23.1346 25.0218 23.0864 25.0774 23.0564C25.5712 22.7909 26.4492 22.392 27.0641 22.1819C27.1221 22.1621 27.2002 22.1495 27.2613 22.1488L27.9687 22.1387Z" fill="white"/>
<path fill-rule="evenodd" clip-rule="evenodd" d="M24.1056 24.7581C24.138 24.7553 24.1687 24.7738 24.1813 24.8042C24.224 24.9057 24.2124 25.0191 24.1711 25.1161C24.1551 25.1555 24.1056 25.1939 24.065 25.203L23.7254 25.2801C23.705 25.2846 23.6862 25.2679 23.6876 25.2466L23.7193 24.839C23.7217 24.8115 23.7428 24.7895 23.7698 24.7874L24.1056 24.7581Z" fill="white"/>
<path fill-rule="evenodd" clip-rule="evenodd" d="M31.6339 23.037C31.6847 23.0279 31.7369 23.0352 31.7837 23.0579L32.1382 23.2314C32.173 23.2484 32.1986 23.2809 32.2078 23.32C32.256 23.5273 32.315 23.8019 32.3546 24.0353C32.3706 24.1323 32.3529 24.2314 32.3048 24.3169C32.158 24.5776 31.8567 25.0466 31.6881 25.2985C31.6506 25.355 31.6462 25.4234 31.6578 25.4908C31.7342 25.9228 32.0529 27.4313 32.0529 27.4313L31.8523 27.2446C31.8124 27.2069 31.7861 27.1671 31.769 27.1151C31.6264 26.6884 31.3595 25.7968 31.2367 25.3631C31.2169 25.2915 31.2319 25.2151 31.278 25.1582C31.4872 24.8986 31.7919 24.4834 31.97 24.2203C32.0198 24.1463 32.0362 24.0646 32.0069 24.0036C31.9659 23.9177 31.897 23.7872 31.8308 23.6689C31.813 23.6361 31.7833 23.6117 31.7482 23.5998L31.5076 23.521C31.4657 23.5074 31.4206 23.5081 31.379 23.5234C30.8548 23.7178 30.1498 23.998 29.7185 24.1808C29.6554 24.2077 29.6294 24.2098 29.553 24.1979C29.4281 24.1791 29.0644 24.1124 28.8859 24.0782C28.8538 24.072 28.8378 24.035 28.8542 24.006L29.0657 23.6312C29.0944 23.5806 29.1418 23.5447 29.1978 23.5318C29.8782 23.3734 30.7781 23.1912 31.6339 23.037Z" fill="white"/>
<path fill-rule="evenodd" clip-rule="evenodd" d="M24.2356 23.4297L24.0963 23.6049C24.0885 23.6125 24.081 23.6199 24.0731 23.6279C23.9506 23.7204 23.435 24.1241 23.2955 24.2372C23.2559 24.2693 23.2402 24.2972 23.231 24.3478C23.1996 24.5264 23.1474 24.8659 23.132 25.054C23.1276 25.1092 23.1044 25.1364 23.0494 25.1591C22.8102 25.2585 22.5266 25.3632 22.2973 25.4571C22.2482 25.477 22.2345 25.4846 22.2055 25.5073C22.1827 25.5255 21.878 25.8036 21.878 25.8036C21.878 25.8036 22.5403 25.6368 22.7833 25.5806C22.8413 25.5673 22.8662 25.5708 22.9198 25.5966C22.9699 25.6204 23.0535 25.6542 23.0975 25.6706C23.1651 25.6961 23.2009 25.695 23.2757 25.6783C23.5493 25.6158 24.0097 25.5042 24.2547 25.4389C24.382 25.4051 24.4516 25.3698 24.5594 25.2927C24.6768 25.2093 24.974 24.9815 24.974 24.9815C24.974 24.9815 24.9685 25.0216 24.9644 25.0439C24.9614 25.0631 24.9546 25.0739 24.9423 25.0889C24.8819 25.1633 24.7761 25.2843 24.7235 25.3398C24.6031 25.4672 24.5311 25.5125 24.3799 25.5771C23.6838 25.8737 22.4942 26.3343 21.6019 26.6501C21.5435 26.671 21.5183 26.6881 21.475 26.7335C21.4279 26.7824 21.3651 26.8535 21.3651 26.8535C21.3651 26.8535 22.0926 26.9076 22.3147 26.9338C22.3867 26.9422 22.4383 26.9663 22.4932 27.0148C22.6758 27.1753 23.2801 27.8114 23.461 28.0323C23.461 28.0323 21.7428 28.3243 20.9467 28.5264C20.8484 28.5512 20.7993 28.615 20.7771 28.6956C20.7113 28.9322 20.556 29.6929 20.556 29.6929C20.556 29.6929 20.5007 29.6748 20.4236 29.6294C20.3707 29.5983 20.3437 29.5725 20.2857 29.5097C20.0974 29.3063 19.7879 28.9169 19.6391 28.6911C19.5954 28.6244 19.577 28.5396 19.6316 28.4716C19.793 28.2685 20.1172 27.8979 20.296 27.7074C20.3151 27.6868 20.3393 27.6509 20.3649 27.5992C20.4251 27.477 20.5044 27.1676 20.532 27.0558L20.5408 27.0197L20.542 27.0148C20.542 27.0148 20.5403 27.0158 20.5372 27.0178L20.5046 27.0388C20.4603 27.0673 20.3888 27.1133 20.3581 27.133C20.312 27.1631 20.2994 27.176 20.2803 27.2171C20.2513 27.2793 20.2004 27.3773 20.1619 27.4453C20.1492 27.4677 20.1155 27.5022 20.0974 27.5165C19.8691 27.6948 19.6169 27.8864 19.4374 28.0155C19.4251 28.0242 19.4094 28.0204 19.3989 28.0099C19.376 27.9866 19.2801 27.8752 19.263 27.8491C19.2487 27.8271 19.2422 27.8065 19.2422 27.78C19.2419 27.7336 19.2463 27.6519 19.2508 27.5912C19.2562 27.5193 19.2763 27.4851 19.362 27.3944C19.4579 27.2929 19.5623 27.1861 19.6722 27.0765C19.9414 26.8448 20.6212 26.2809 21.8349 25.3953C21.8578 25.3785 21.8786 25.359 21.8953 25.3356C22.023 25.1598 22.385 24.6796 22.4744 24.5655C22.4871 24.5495 22.501 24.5344 22.5171 24.5215C22.6601 24.406 22.7307 24.3561 22.8757 24.2626C23.2139 24.0449 23.8687 23.6478 24.2356 23.4297Z" fill="white"/>
<path fill-rule="evenodd" clip-rule="evenodd" d="M21.4913 29.4131L21.3415 30.47L20.832 29.8587C20.9248 29.6532 21.1961 29.4591 21.4913 29.4131Z" fill="white"/>
<path fill-rule="evenodd" clip-rule="evenodd" d="M24.8473 29.9736C24.5934 30.4007 24.29 30.8544 24.0607 31.1377C24.0307 31.1747 23.9908 31.2033 23.9454 31.2208C23.6946 31.3167 23.2765 31.4612 22.9688 31.5571L24.8473 29.9736Z" fill="white"/>
<path fill-rule="evenodd" clip-rule="evenodd" d="M35.6796 23.1117C35.814 23.0611 35.9614 23.0646 36.0935 23.1215C37.1179 23.5612 38.8405 24.5955 39.798 25.3241C39.8904 25.3945 39.9273 25.443 39.9515 25.5568C40.1764 26.6022 40.2617 28.2182 40.1201 29.5787C40.1099 29.6764 40.0908 29.7351 40.0409 29.8394C39.4342 31.1078 38.7514 32.3016 38.0327 33.2224L38.0342 33.2074C38.0435 33.1093 38.0951 32.5564 38.0979 32.2572C38.0982 32.2234 38.1136 32.1923 38.1399 32.1718C38.2733 32.0657 38.4565 31.9149 38.5603 31.8232C38.6108 31.7785 38.6388 31.745 38.665 31.7017C38.9578 31.2181 39.4813 30.2054 39.6922 29.5962C39.7437 29.4475 39.7642 29.2902 39.7515 29.1328C39.684 28.2838 39.5536 27.1075 39.3595 26.3398C39.3264 26.209 39.2417 26.0984 39.124 26.0366C38.9565 25.9487 38.6278 25.7955 37.8795 25.4888C37.7758 25.4462 37.6789 25.3872 37.5936 25.3139C37.1029 24.8924 36.3358 24.2605 35.8584 23.8969C35.7188 23.7904 35.5407 23.7517 35.3707 23.7911C35.023 23.8717 34.5804 23.9841 34.3313 24.0532C34.2467 24.0766 34.2133 24.0787 34.1259 24.0682C34.0804 24.0628 34.0216 24.0569 33.9598 24.0512L33.8662 24.0428C33.7575 24.0333 33.6554 24.0252 33.6154 24.0221L33.5977 24.0207C34.4095 23.631 35.1906 23.2946 35.6796 23.1117Z" fill="white"/>
<path fill-rule="evenodd" clip-rule="evenodd" d="M23.5905 28.4747C23.6711 28.4482 23.7567 28.4451 23.8386 28.4653C24.2078 28.556 24.9893 28.7518 25.5799 28.9064C25.6629 28.928 25.7663 29.0072 25.8103 29.0822L25.9389 29.301C25.984 29.3778 25.987 29.472 25.9471 29.5516C25.8397 29.7644 25.6866 30.0526 25.5247 30.3497L25.4022 30.5732C25.1768 30.9822 24.9522 31.3769 24.8248 31.5845C24.7408 31.7216 24.6941 31.7824 24.5446 31.8364C23.9635 32.0455 23.2418 32.2953 22.8128 32.4373C22.7251 32.4663 22.6955 32.5207 22.7125 32.6202C22.7432 32.8013 22.8422 33.4161 22.8801 33.5955C22.8941 33.6618 22.9459 33.7145 23.0422 33.6956C23.2957 33.6464 23.9707 33.4775 23.9707 33.4775C23.9707 33.4775 23.7717 33.6656 23.6526 33.7766C23.6308 33.7975 23.6055 33.8129 23.5772 33.8223C23.3933 33.8851 22.9442 34.0139 22.8043 34.0453C22.6951 34.0693 22.6255 34.0254 22.5975 33.8991C22.5975 33.8991 22.4061 33.0658 22.3368 32.7824C22.3259 32.7392 22.315 32.7018 22.3017 32.6593C22.2498 32.4953 22.1252 32.1728 22.0549 32.0039C22.0468 31.9844 22.0427 31.9635 22.043 31.9418C22.045 31.7489 22.0799 31.3183 22.0799 31.3183C22.0799 31.3183 22.4931 31.7143 22.6931 31.8574C22.7381 31.8898 22.7651 31.8965 22.8203 31.8822C23.095 31.8099 23.7267 31.5964 24.0734 31.4638C24.1525 31.4334 24.2218 31.3825 24.2757 31.3158C24.6344 30.873 25.0841 30.1842 25.3438 29.6646C25.3796 29.5931 25.3865 29.5111 25.3639 29.4343L25.308 29.2459C25.2916 29.1907 25.2346 29.1286 25.1821 29.108C24.5709 28.8704 24.0891 28.6938 23.523 28.4967L23.5905 28.4747Z" fill="white"/>
<path fill-rule="evenodd" clip-rule="evenodd" d="M34.5422 26.3438L34.7534 26.4376C34.8159 26.4652 34.8728 26.5057 34.9199 26.5559C36.2149 27.9377 37.2506 29.3705 37.4581 29.7481C37.498 29.8206 37.5253 29.8932 37.5352 29.9763C37.7679 31.9914 37.5679 34.1263 37.0926 35.9834C37.0496 36.1509 37.0015 36.2367 36.8438 36.3578C36.3363 36.748 35.5788 37.3703 34.8254 38.0048L34.588 38.2053C33.6805 38.9735 32.8183 39.7256 32.4524 40.0716C32.3606 40.1588 32.2805 40.2572 32.2149 40.3665C32.0434 40.6515 31.7814 41.1422 31.6528 41.3857L31.6169 41.4539C31.5911 41.5029 31.5761 41.5316 31.5761 41.5316C31.4055 41.1509 31.0336 40.222 30.9059 39.8465C30.8643 39.7241 30.8568 39.6598 30.9008 39.4958C31.109 38.7173 32.0928 36.4541 32.2842 36.0448L32.2845 36.2123C32.2845 36.2367 32.2808 36.2608 32.2733 36.2838C32.1869 36.5514 31.658 38.3353 31.5505 39.1089C31.5266 39.2809 31.5287 39.3273 31.5505 39.4962C31.5976 39.8573 31.8088 40.5196 31.8088 40.5196C31.8088 40.5196 31.9341 40.2524 32.0508 40.0716C32.1081 39.983 32.1426 39.9404 32.2361 39.8455C32.709 39.3672 33.5159 38.628 34.3563 37.8846L34.6539 37.6224C35.2994 37.0559 35.9439 36.5047 36.4531 36.0835C36.5855 35.9739 36.635 35.9007 36.6643 35.6927C36.8104 34.6682 36.8527 32.8292 36.7646 31.491C36.7479 31.2384 36.6677 30.9941 36.5285 30.7844C36.2091 30.3018 35.8273 29.8451 35.2482 29.2585C35.1656 29.1744 35.1093 29.0669 35.0881 28.9497C34.9192 28.0285 34.5422 26.3438 34.5422 26.3438Z" fill="white"/>
<path fill-rule="evenodd" clip-rule="evenodd" d="M27.7234 27.0146C27.7234 27.0146 27.8411 27.4044 27.9546 27.8276L27.9943 27.9778C28.066 28.2535 28.1299 28.5257 28.1531 28.698C28.1752 28.8637 28.1715 28.9084 28.1138 29.0671C27.974 29.4475 27.7166 30.0592 27.4421 30.6846L27.3237 30.9528C26.9869 31.7115 26.6459 32.4445 26.4803 32.7618C26.3987 32.9181 26.322 33.02 26.1684 33.1795C25.818 33.5441 25.1471 34.2333 24.7318 34.6189C24.581 34.7591 24.5404 34.8788 24.5097 35.0603C24.4602 35.3516 24.411 35.8489 24.3974 36.1057C24.3854 36.3315 24.4213 36.4372 24.5445 36.6609C25.2764 37.9956 27.72 41.0663 28.4161 41.7112C28.4667 41.7579 28.5035 41.7893 28.61 41.8616C28.7123 41.9314 29.0461 42.1526 29.0461 42.1526C29.0594 42.162 29.0706 42.1746 29.0792 42.1889L29.2 42.4063C29.2 42.4063 29.1887 42.4006 29.1683 42.3902L29.1162 42.3637C29.0742 42.3424 29.0187 42.3141 28.955 42.2816L28.7999 42.2022C28.5621 42.0802 28.2786 41.9335 28.1295 41.8514C28.0681 41.8176 28.0104 41.7778 27.9568 41.7321C27.1416 41.0398 24.6434 38.0511 23.9087 36.8033C23.7255 36.4917 23.7067 36.3908 23.7313 36.0959C23.7774 35.5471 23.8487 34.8568 23.9111 34.5543C23.949 34.3718 23.9882 34.2647 24.1251 34.1035C24.5849 33.5623 25.1458 32.8479 25.6923 32.1149L25.8845 31.8557C26.7127 30.7312 27.4757 29.6056 27.7606 29.0322C27.8258 28.9017 27.8313 28.8564 27.8326 28.7332C27.8364 28.3759 27.7248 27.6801 27.6955 27.5042C27.691 27.4767 27.6896 27.4487 27.692 27.4208L27.7234 27.0146Z" fill="white"/>
<path fill-rule="evenodd" clip-rule="evenodd" d="M29.9567 31.4375C29.9567 31.4375 30.0508 32.0087 30.0795 32.1745C30.0955 32.2683 30.0989 32.2935 30.0757 32.3856C30.0005 32.6818 29.6528 34.2432 29.3744 35.8415L29.3311 36.094C29.2174 36.7672 29.1192 37.4354 29.0619 38.0071C29.0295 38.332 29.0401 38.4098 29.124 38.698C29.3619 39.5124 30.2416 41.6403 30.4105 42.0283C30.4293 42.0713 30.4405 42.1163 30.446 42.1627L30.5095 42.6645C30.2276 42.2293 28.6961 39.3516 28.0945 37.7579C28.0235 37.5702 28.0099 37.4777 28.0884 37.1326C28.5067 35.3017 29.6386 32.1905 29.9567 31.4375Z" fill="white"/>
</g>
<defs>
<clipPath id="clip0_4940_38242">
<rect width="32" height="36" fill="white" transform="translate(14 12)"/>
</clipPath>
</defs>
</svg>
