<svg width="61" height="60" viewBox="0 0 61 60" fill="none" xmlns="http://www.w3.org/2000/svg">
<g clip-path="url(#clip0_4940_32501)">
<path d="M12.6641 12H48.6641V48H12.6641V12Z" fill="#22559E"/>
<path d="M21.668 36.1094H39.6787V39.0321H21.668V36.1094Z" fill="white"/>
<path d="M30.5977 21.0352H33.6407L35.1297 30.9317L36.6519 21.0352H39.6617V34.5571H37.6562V24.3737L35.9658 34.5571H34.2327L32.6016 24.3737V34.5372H30.5977V21.0352Z" fill="white"/>
<path d="M26.4277 25.3287H28.4842V24.3737C28.4842 23.4384 28.4842 20.7549 25.044 20.7549C21.6797 20.7549 21.6797 23.8195 21.6797 24.3737C21.6797 24.6689 21.6797 30.8641 21.6797 31.4018C21.6797 33.4536 22.4301 34.798 24.3744 34.8111C25.5241 34.8128 26.3255 34.0936 26.4953 33.8198V34.5373L28.4842 34.557V27.2303H25.2485V28.8567H26.4277C26.4277 28.8567 26.4277 30.7518 26.4277 30.9977C26.4277 32.083 26.088 32.8219 25.077 32.8219C24.0643 32.8219 23.7428 32.0351 23.7428 30.9977C23.7428 30.3544 23.7428 24.7745 23.7428 24.3737C23.7428 23.8359 23.7428 22.6088 25.077 22.6088C26.4277 22.6088 26.4277 23.8558 26.4277 24.3737C26.4277 24.8239 26.4277 25.3287 26.4277 25.3287Z" fill="white"/>
</g>
<defs>
<clipPath id="clip0_4940_32501">
<rect width="36" height="36" fill="white" transform="translate(12.6641 12)"/>
</clipPath>
</defs>
</svg>
