<svg width="61" height="60" viewBox="0 0 61 60" fill="none" xmlns="http://www.w3.org/2000/svg">
<g clip-path="url(#clip0_4940_36182)">
<path d="M16.4709 20.9204C16.7969 21.0214 17.0889 21.2019 17.3443 21.4126C16.5663 20.9686 16.1186 20.8793 16.0897 20.8744L16.0813 20.8735C15.9592 20.8547 15.8583 20.8323 15.7665 20.8087C15.9103 20.7786 16.0503 20.7321 16.1839 20.6701C16.1841 20.6725 16.1842 20.6749 16.1841 20.6774C16.2435 20.8431 16.4007 20.9012 16.4709 20.9204ZM12.7475 21.2058C12.7475 21.2058 12.7809 21.1072 12.7895 21.0832C12.7991 21.0596 12.8909 20.8024 13.1196 20.7783C13.1196 20.7783 13.252 20.7701 13.4559 20.7701C13.4559 20.7701 13.3562 21.0973 12.9636 21.1678C12.9636 21.1678 12.8096 21.2036 12.7478 21.2058H12.7475ZM52.1961 31.7849C52.1155 32.0705 51.7159 32.4515 51.2303 32.6709C50.7206 32.9037 49.657 32.9648 49.0428 32.8624C49.0412 32.8624 47.8514 32.7393 46.8091 31.6285C46.4804 31.2781 46.0759 30.8804 45.7023 30.4875C45.5382 30.3118 45.1339 29.8997 44.462 29.8083C43.7617 29.7122 42.0525 29.6647 41.4094 29.447C40.9801 29.301 40.4616 29.0042 39.7725 27.9628C39.4404 27.4641 39.2048 27.3271 38.7533 27.0349C38.7533 27.0349 39.0994 27.3154 39.2957 27.6699C39.5785 28.1844 39.7214 28.559 39.8755 28.833C40.0296 29.1084 40.2042 29.3521 40.4666 29.5677C40.7933 29.8353 40.9977 29.8856 41.3515 29.9455C41.6909 30.0031 42.8351 29.9927 43.8166 29.9778C44.7826 29.962 45.2134 30.2802 45.5306 30.5529C45.8245 30.805 46.3277 31.5263 46.6373 31.843C47.0063 32.2174 47.2761 32.6003 48.006 32.9755C48.2588 33.1068 48.6738 33.428 48.6524 33.7384C48.3246 34.0734 47.9175 34.1615 46.9407 33.8953C47.0099 33.9642 47.5211 34.5118 48.3957 34.2529C48.1319 34.4777 47.8734 34.5733 47.6034 34.5585C46.6881 34.5069 45.7911 33.3567 45.2885 32.9317C44.9064 32.6096 44.8623 32.5286 44.2135 32.0705C43.2279 31.3745 41.0166 31.5706 41.0166 31.5706L39.3937 31.6567C36.2333 31.9 34.9059 29.0449 34.5562 28.4488C34.4341 28.2421 34.3249 28.0752 34.2197 27.9399C34.0585 27.7205 33.195 26.578 32.3218 26.2029C32.3218 26.2029 33.1797 26.9561 33.1292 27.4541C33.1292 27.4541 32.7733 27.286 31.8063 27.4266C27.6429 28.0319 26.2259 26.9692 26.2259 26.9692C26.4191 26.118 25.8366 25.2444 25.8366 25.2444C26.1577 25.3485 28.2047 26.054 30.1486 25.6514C30.1486 25.6514 26.9851 25.6684 24.7671 23.8641C24.7671 23.8641 26.1474 25.6281 25.8199 26.7834C25.8199 26.7834 25.5933 28.0141 23.1871 27.5176C22.9302 27.466 22.6278 27.3784 19.0261 26.3591C18.1794 26.1005 17.8872 26.5131 17.7343 26.7607C17.7279 27.124 17.3083 27.5477 17.0967 27.6803C15.9824 27.4757 16.4262 26.4209 16.4262 26.4209C15.7248 27.4444 16.4596 27.8964 16.692 27.9285C16.5531 27.9973 16.4212 28.0469 16.3096 28.089C16.3096 28.089 15.3989 27.5358 15.9077 26.6294C16.6178 25.3656 17.3407 24.96 18.6664 24.8364C19.246 24.78 19.7295 24.7379 20.0976 24.7895C21.0593 24.925 21.6618 25.4787 23.102 25.6215C20.0453 24.7031 20.0387 22.8973 20.0282 22.8632C20.0277 22.8627 20.027 22.8593 20.027 22.8593C19.8576 23.4554 19.9506 23.9572 20.1 24.3813C20.0575 24.3659 19.3892 23.9178 19.1344 23.7599C18.0367 23.0763 17.1707 22.9571 17.1707 22.9571C16.8065 22.9099 16.6371 22.4586 16.6371 22.4586C16.6245 22.4355 16.6113 22.4146 16.5989 22.393C16.0923 21.5111 15.5921 21.4936 15.5921 21.4936C15.771 21.7417 15.8388 22.0572 15.8641 22.2541C15.8786 22.3672 15.8927 22.5742 15.8924 22.6365C15.8831 23.578 14.8138 23.8748 14.8138 23.8748C14.0682 24.8396 14.1071 24.8598 13.9416 24.8846C13.7751 24.9084 13.4116 24.7194 13.4116 24.7194C13.3832 24.7041 13.3758 24.662 13.3806 24.6345C13.3896 24.5761 13.4361 24.5391 13.4361 24.5391C13.524 24.4679 13.6088 24.3927 13.6902 24.3139C14.4778 23.4921 14.5722 23.0909 14.4749 22.5584C14.276 21.4897 13.5273 21.6142 13.5273 21.6142C13.1626 21.6495 13.0159 21.9563 13.0159 21.9563C12.8909 22.1533 12.6259 22.7557 12.6259 22.7557C12.4632 23.1148 12.2972 23.196 12.2113 23.2121C12.1683 23.2172 12.1249 23.2188 12.0816 23.2169C11.8285 23.2077 11.6358 22.9693 11.6358 22.9693C11.625 22.9578 11.6145 22.9461 11.6043 22.934C11.3725 22.6803 11.5406 22.3489 11.5406 22.3489C11.8526 21.6069 12.4589 21.4994 12.541 21.4887C12.6259 21.4778 12.9047 21.4364 12.9047 21.4364C13.6749 21.3043 14.0384 20.4864 14.0384 20.4864C13.5192 20.4798 13.2656 20.5149 13.2656 20.5149C12.7549 20.6059 12.581 21.2196 12.581 21.2187C12.1486 21.3196 12.1598 20.9406 12.2357 20.8246C12.3034 20.7178 12.5577 20.2631 14.2185 19.8709C14.2185 19.8709 15.0376 19.6196 16.7881 19.7006L16.7161 19.8371C16.5613 20.1358 15.9473 20.7516 14.9326 20.5234C14.9326 20.5234 14.9415 20.9832 16.042 21.1479C16.042 21.1479 17.0373 21.3291 18.7254 22.7126C18.7254 22.7126 17.918 21.0773 16.5479 20.654C16.5479 20.654 16.3771 20.6166 16.4608 20.5071C16.4608 20.5071 17.2704 19.7313 18.3952 19.732C18.3952 19.732 21.9041 19.8086 24.1326 22.1867C24.1326 22.1867 24.0348 21.7731 23.6842 21.1873L23.537 20.943C23.537 20.943 23.6706 20.9586 24.037 21.0197C24.037 21.0197 25.3763 21.19 28.5229 22.2981C28.5229 22.2981 30.8802 23.0878 32.1703 23.6101C34.1093 24.3976 38.9672 26.317 42.0639 28.0392C42.6171 28.3457 48.2185 31.3248 48.2185 31.3248C49.7696 32.0355 50.8432 31.6036 50.8432 31.6036C51.1924 31.4684 51.8259 30.9719 52.1026 31.2526C52.2457 31.3978 52.2645 31.5934 52.1961 31.7846V31.7849ZM13.8858 22.0621C13.7238 21.9466 13.5428 21.9239 13.3787 21.9507C13.4512 21.896 13.5661 21.8889 13.5661 21.8889C13.642 21.8797 14.001 21.8655 14.1672 22.4387C14.0961 22.2745 13.9993 22.1431 13.8858 22.0621ZM11.2341 22.2232C11.5883 21.6904 12.0501 21.2892 12.0551 21.2851C12.0613 21.2795 12.0682 21.2746 12.0725 21.2685C12.0792 21.2612 12.0844 21.2539 12.0918 21.2471C12.1195 21.2802 12.1562 21.314 12.2044 21.342C11.9351 21.4588 11.2341 22.2232 11.2341 22.2232ZM16.2412 19.3014C22.2748 18.9367 31.0376 22.8267 31.123 22.8661L31.1287 22.8676L31.1337 22.8691C31.8313 23.1521 32.5265 23.4411 33.2193 23.7361C33.065 23.6741 32.2695 23.3517 32.2681 23.3517C30.9873 22.8326 28.6321 22.0424 28.6118 22.0356C25.5239 20.9496 24.1741 20.7579 24.078 20.7453C23.7124 20.6844 23.5731 20.6684 23.5676 20.6681L23.0111 20.6027L23.3181 21.1102C21.1385 19.5369 18.5291 19.4578 18.4012 19.4547H18.3955C17.8698 19.4547 17.4104 19.607 17.0545 19.7819C17.0953 19.7055 17.2325 19.444 17.2325 19.444L16.8005 19.4248C16.0279 19.3892 15.4307 19.4167 14.9987 19.4603C15.6887 19.3301 16.2268 19.3012 16.2414 19.3012L16.2412 19.3014ZM52.5329 31.0908C52.3056 30.5753 51.6799 30.7429 51.6799 30.7429C51.3842 30.8057 51.0469 31.1514 50.5453 31.3027C49.4686 31.628 48.609 31.2497 48.609 31.2497C46.9512 30.5191 41.622 27.4071 38.9119 26.0477C38.9119 26.0477 35.8032 24.4579 31.2344 22.6126C31.2344 22.6126 22.3955 18.6516 16.2245 19.0248C16.2245 19.0248 13.0254 19.1698 12.0248 20.6523C12.0248 20.6523 11.854 20.8501 11.9511 21.0644C11.9511 21.0644 11.9702 21.126 11.9299 21.1666C11.9299 21.1666 11.392 21.6585 11.1184 22.0954C11.0223 22.2543 10.9155 22.5212 11.1127 22.708C11.1127 22.708 11.2017 22.7783 11.2389 22.8399C11.3169 22.97 11.3894 23.1637 11.4862 23.2792C11.6255 23.4493 11.9084 23.7434 12.3063 23.6726C12.453 23.6466 12.4844 23.5901 12.4844 23.5901C12.6836 23.792 13.0068 23.7857 13.0068 23.7857C12.9663 23.6565 12.8279 23.4033 12.8079 23.25C12.7864 23.0814 12.8346 22.9204 12.8346 22.9204C12.8909 22.7289 13.0025 22.4881 13.1256 22.3664C13.2329 22.2575 13.5091 22.1327 13.7314 22.2893C13.9087 22.4175 14.1202 22.835 13.9442 23.431C13.9361 23.476 13.7422 23.8988 13.5339 23.9631C13.5339 23.9631 13.5146 23.9694 13.4745 23.9694C13.3348 23.9694 13.0738 23.82 13.0738 23.82C13.0738 23.82 13.0669 23.858 13.1041 24.0122C13.1277 24.0997 13.154 24.1864 13.1828 24.2723C13.1828 24.2723 13.1323 24.3647 13.0994 24.4185C13.0493 24.5107 13.0068 24.6861 13.1146 24.7664C13.1146 24.7664 13.5762 25.0865 14.0241 25.1143C14.3327 25.1335 14.4494 24.9211 14.4494 24.9211C14.6762 24.6019 14.8477 24.3297 15.0872 24.1073C15.7419 23.4957 16.6614 23.3313 16.6614 23.3313C16.7223 23.3235 17.7264 23.0386 19.433 24.4309C18.9455 24.4708 18.3654 24.5893 17.9223 24.6695C16.6581 24.8994 15.8466 26.1163 15.6105 26.6111C14.9961 27.9029 16.2521 28.3481 16.2521 28.3481C16.2641 28.3362 17.4497 28.2411 18.0224 26.9551C18.0224 26.9551 18.2321 26.3859 18.7886 26.5703C19.1525 26.6907 22.3688 27.8372 23.0932 28.0316C23.0932 28.0316 25.247 28.6033 26.058 27.5932C27.3546 28.027 28.571 28.2372 31.7586 27.8175C32.312 27.7441 32.7471 27.7609 32.7471 27.7609C33.4917 27.8178 34.171 28.3287 34.3771 28.6641C35.215 30.0323 36.2786 32.7502 39.97 32.4193L41.6394 32.2651C42.6581 32.2033 43.4877 32.1627 44.3289 32.6145C44.6953 32.8105 44.899 32.8825 45.5203 33.4876C46.3707 34.3128 47.1537 35.2058 48.1942 34.7186C48.5634 34.5451 48.9784 33.872 48.9784 33.872C48.9384 33.5649 48.8043 33.2694 48.4732 33.0176C49.4187 33.2465 51.5516 33.3949 52.3771 31.9233C52.5904 31.5803 52.6135 31.275 52.5329 31.0908ZM15.3863 20.2018C15.4334 20.2034 15.4806 20.2046 15.5277 20.2054C15.7491 20.2091 15.9988 20.1161 16.1648 20.0371C16.2834 19.9804 16.3599 19.9313 16.3499 19.9313C16.1963 19.9298 15.9502 19.9274 15.8583 19.9274C15.4588 19.9274 15.2489 20.1585 15.2472 20.1796C15.2458 20.1928 15.3007 20.1984 15.3863 20.2018ZM37.2825 36.981V38.9197C37.2825 39.4216 37.2284 39.8181 36.9803 40.1497C36.577 40.6898 35.8371 40.9997 33.7734 40.9997L33.752 40.9999C31.6995 40.9999 30.956 40.6893 30.5529 40.1504C30.3048 39.8186 30.2514 39.4216 30.2514 38.9199V36.9815H31.6713V38.8647C31.6713 39.3702 31.7338 39.6673 31.9156 39.9278C32.2226 40.3694 32.7528 40.5287 33.7064 40.5287H33.8271C34.8243 40.5287 35.3107 40.3694 35.6179 39.9278C35.7997 39.6663 35.8621 39.3566 35.8621 38.8662V36.981H37.2825ZM51.4063 37.4717C51.9387 37.4717 52.1744 37.5221 52.3366 37.6459C52.4904 37.7634 52.5453 37.9427 52.5453 38.222V38.295C52.5453 38.547 52.4864 38.7516 52.3051 38.8798C52.1269 39.0056 51.8774 39.0331 51.4237 39.0331H48.6087V37.472L51.4063 37.4717ZM52.0971 39.4975C52.6309 39.4792 53.0831 39.3972 53.4319 39.2055C53.7935 39.007 53.9657 38.6319 53.9657 38.2431C53.9657 37.7233 53.7379 37.3902 53.3231 37.2043C52.9543 37.0384 52.4988 36.9815 51.5914 36.9815H47.1888V40.8717H48.6087V39.5235H50.474L52.602 40.8717H54.332L52.0971 39.4975ZM27.2711 40.3514V39.0851H28.6843V40.871H24.5751C23.8047 40.871 23.1974 40.7798 22.7392 40.5912C21.9757 40.2774 21.6265 39.7033 21.6265 38.919C21.6265 38.1782 22.0067 37.6644 22.4907 37.3878C23.0051 37.0937 23.5847 36.981 24.55 36.981H28.5398V37.5007H24.9923C24.2321 37.5007 23.818 37.6177 23.5022 37.8794C23.2217 38.1118 23.0724 38.4599 23.0724 38.926C23.0724 39.4077 23.2293 39.7634 23.5292 39.9964C23.8457 40.2421 24.2722 40.3514 25.0039 40.3514H27.2711ZM12.4222 36.9813V38.8783C12.4222 39.4921 12.2839 39.8643 11.9981 40.1628C11.4991 40.6834 10.5419 40.8715 9.18761 40.8715H6.33203V40.3494H8.96101C9.76745 40.3494 10.3125 40.2132 10.6412 39.8818C10.8902 39.6313 11.002 39.2817 11.002 38.7623V36.9815L12.4222 36.9813ZM43.636 40.0431H39.4288L38.7316 40.8715H37.9082L41.2167 36.9815H42.6166L45.928 40.8715H44.3358L43.636 40.0431ZM39.8517 39.5403H43.2117L41.5292 37.5481L39.8517 39.5403ZM18.7981 40.0431H14.5906L13.8934 40.8715H13.0703L16.379 36.9815H17.7782L21.0901 40.8715H19.4979L18.7981 40.0431ZM15.014 39.5398H18.3735L16.6912 37.5476L15.014 39.5398Z" fill="#231F20"/>
</g>
<defs>
<clipPath id="clip0_4940_36182">
<rect width="48" height="22" fill="white" transform="translate(6.33203 19)"/>
</clipPath>
</defs>
</svg>
