<svg width="60" height="60" viewBox="0 0 60 60" fill="none" xmlns="http://www.w3.org/2000/svg">
<g clip-path="url(#clip0_4940_38094)">
<path fill-rule="evenodd" clip-rule="evenodd" d="M38.1983 33.4606L38.6172 32.3252H36.6919L36.9902 31.459H39.0762L39.5342 30.2063H35.5968L35.5421 30.3656L35.6359 30.4576C35.7376 30.5554 35.7332 30.6714 35.6456 30.9239L34.0054 35.6352H37.685L38.1294 34.3743H35.982L36.2981 33.4606H38.1981H38.1983ZM33.6056 30.2095L31.6009 34.1109H31.5587L31.4574 30.2095H29.7801L29.7147 30.3503L29.859 30.4368C29.9976 30.5338 30.0363 30.6325 30.0543 30.9031L30.2813 35.6372H32.1504L35.166 30.2095H33.6058H33.6056ZM18.5671 30.9094L14.4334 32.2562L13.9288 33.6286H17.5743L18.0489 32.3355H15.5216L18.3902 31.3734L18.5671 30.9094ZM22.4821 32.1798C22.3879 32.4117 22.2838 32.4674 22.1484 32.5222C22.0566 32.5577 21.8639 32.5706 21.6772 32.5706H20.9558L21.3484 31.4491H22.2201C22.4811 31.4491 22.5877 31.5834 22.5912 31.7369C22.5928 31.8345 22.5472 32.0132 22.4821 32.1798ZM22.3524 30.2095H19.9872L19.9394 30.3503L20.035 30.4431C20.1361 30.5419 20.1323 30.6583 20.0437 30.9094L18.3912 35.637H19.9015L20.5475 33.7603L21.0584 33.7609L21.627 35.637H23.1448L22.4307 33.717C22.8449 33.6504 23.0534 33.5332 23.2611 33.3499C23.5456 33.0918 23.743 32.7299 23.9063 32.1969C24.1444 31.4237 24.0005 30.982 23.8471 30.7549C23.6366 30.4429 23.1924 30.2093 22.3524 30.2093V30.2095ZM42.6168 32.1798C42.5229 32.4117 42.4178 32.4674 42.284 32.5222C42.1906 32.5577 41.9995 32.5706 41.8139 32.5706H41.0927L41.4822 31.4491H42.3554C42.6147 31.4491 42.723 31.5834 42.7252 31.7369C42.7278 31.8345 42.6812 32.0132 42.6168 32.1798ZM42.4855 30.2095H40.1202L40.0742 30.3503L40.169 30.4431C40.2704 30.5419 40.2655 30.6583 40.1792 30.9094L38.5248 35.6372H40.0369L40.6819 33.7611H41.1932L41.7618 35.6372H43.278L42.5661 33.7172C42.9795 33.6506 43.187 33.5334 43.3945 33.3501C43.6798 33.092 43.878 32.7302 44.0407 32.1971C44.2797 31.4239 44.1356 30.9822 43.9826 30.7551C43.772 30.4431 43.3272 30.2095 42.4855 30.2095ZM45.5869 37.4936C41.4376 39.618 35.9026 40.7879 29.9996 40.7879C24.098 40.7879 18.564 39.6182 14.4141 37.4936C10.4237 35.45 8.22376 32.7884 8.22376 30.0008C8.22376 27.2108 10.4237 24.5494 14.4141 22.5072C18.564 20.3835 24.098 19.2121 29.9998 19.2121C35.9028 19.2121 41.4376 20.3837 45.5871 22.5072C49.5786 24.5492 51.7758 27.2108 51.7758 30.0008C51.7758 32.7882 49.5786 35.45 45.5871 37.4936H45.5869ZM46.1486 21.4298C41.8273 19.2182 36.0925 18 29.9998 18C23.9075 18 18.1727 19.2182 13.8522 21.4298C11.2932 22.7405 7 25.5965 7 30.0008C7 34.4031 11.2932 37.2603 13.8522 38.5708C18.1713 40.7823 23.9059 42 30 42C36.0939 42 41.8285 40.7823 46.1486 38.5708C48.708 37.2603 53 34.4041 53 30.0008C53 25.5957 48.7076 22.7403 46.1486 21.4298ZM45.0057 36.3798C40.5409 38.6648 34.9881 39.533 29.9998 39.533C25.0117 39.533 19.4599 38.6648 14.9943 36.3798C12.631 35.1697 9.49048 32.9389 9.49048 30.0006C9.49048 27.0601 12.6306 24.8315 14.9943 23.6218C19.4599 21.337 25.0113 20.4682 29.9998 20.4682C34.9881 20.4682 40.5409 21.3354 45.0055 23.6218C47.3704 24.8315 50.5099 27.0597 50.5099 30.0008C50.5099 32.9399 47.3698 35.1695 45.0055 36.3798H45.0057ZM45.2373 23.1761C40.7042 20.8542 35.0604 19.9656 29.9998 19.9656C24.939 19.9656 19.2962 20.855 14.7618 23.1761C12.2156 24.479 8.98388 26.8306 8.98388 30.0008C8.98388 33.1686 12.216 35.521 14.7618 36.8257C19.2964 39.1452 24.9404 40.0346 29.9998 40.0346C35.0604 40.0346 40.7042 39.1466 45.2373 36.8255C47.7846 35.521 51.0161 33.1686 51.0161 30.0006C51.0161 26.8306 47.7854 24.4792 45.2373 23.1761ZM27.637 33.0198C27.4489 33.553 27.3014 33.8965 27.0838 34.123C26.9125 34.301 26.687 34.4287 26.1664 34.4287C25.7585 34.4287 25.5315 34.2637 25.5315 33.9509C25.5289 33.7488 25.5838 33.4423 25.8022 32.8465C25.9907 32.3135 26.1378 31.97 26.3563 31.7429C26.5253 31.5654 26.7522 31.4372 27.2726 31.4372C27.6803 31.4372 27.9071 31.6022 27.9067 31.9137C27.9105 32.1178 27.8552 32.4244 27.637 33.0198ZM27.5496 30.1428H27.376C26.3433 30.1428 25.754 30.4187 25.2697 30.9275C24.6679 31.5588 24.1023 33.2638 24.1134 34.1665C24.1246 35.086 24.7254 35.7235 25.9877 35.7235H26.1721C27.2072 35.7235 27.7969 35.4476 28.2808 34.9386C28.8826 34.3065 29.4362 32.6019 29.4253 31.7006C29.4131 30.7809 28.8127 30.1428 27.5496 30.1428ZM16.6661 29.0356L20.4044 29.0348L20.8561 27.741H18.683L20.1189 23.6085H18.2443L18.1973 23.7485L18.2911 23.8409C18.3928 23.9397 18.3892 24.0563 18.3008 24.3078L16.6661 29.0356ZM26.5151 29.0335H27.8893L29.0871 25.5223L29.7882 29.0335H31.1632L33.0376 23.6067L31.6003 23.6087L30.5992 26.5585L30.0274 23.6087H28.0905L28.0433 23.7485L28.1381 23.8409C28.2398 23.9397 28.235 24.0563 28.1482 24.3078L26.5151 29.0335ZM35.015 24.8959H35.6136C36.0215 24.8959 36.2465 25.031 36.2519 25.3442C36.255 25.5459 36.2007 25.8218 35.9889 26.4173C35.8021 26.9496 35.6529 27.2579 35.4402 27.4842C35.2701 27.6619 35.0436 27.741 34.5232 27.741H34.0231L35.015 24.8959ZM33.7009 24.3078L32.0655 29.0356H34.4788C35.5133 29.0356 36.1032 28.8089 36.5829 28.2998C37.1835 27.67 37.7331 26.0309 37.715 25.129C37.6974 24.2083 37.0974 23.6087 35.8357 23.6087H33.6427L33.5971 23.7485L33.6924 23.8409C33.7931 23.9397 33.7892 24.0563 33.7009 24.3078ZM42.8066 25.5548H39.1619L38.6873 26.8469H41.2133L38.3442 27.8116L38.1671 28.274L42.3008 26.9272L42.8066 25.5548ZM24.6184 25.1088H24.6681L24.6938 26.7481H23.6852L24.6184 25.1088ZM20.7919 29.0335H22.3818L23.0708 27.8342H24.7175L24.7337 29.0333H26.1767L25.8655 23.6087H23.7053L23.6573 23.7485L23.727 23.8175C23.8409 23.9278 23.7938 24.0869 23.3734 24.748L20.7919 29.0335Z" fill="#0C121C"/>
</g>
<defs>
<clipPath id="clip0_4940_38094">
<rect width="46" height="24" fill="white" transform="translate(7 18)"/>
</clipPath>
</defs>
</svg>
