<svg width="60" height="60" viewBox="0 0 60 60" fill="none" xmlns="http://www.w3.org/2000/svg">
<g clip-path="url(#clip0_4940_30447)">
<path fill-rule="evenodd" clip-rule="evenodd" d="M40.9988 48.6667C40.9988 49.4031 40.4196 50 39.705 50H20.2978C19.5832 50 19.0039 49.4032 19.0039 48.6667V11.3334C19.0039 10.5969 19.5832 10 20.2978 10H39.705C40.4195 10 40.9988 10.5969 40.9988 11.3334V48.6667Z" fill="black"/>
<path fill-rule="evenodd" clip-rule="evenodd" d="M40.4597 15.6104V14.2139H19.543V15.6104H40.4597Z" fill="#EC1B23"/>
<path fill-rule="evenodd" clip-rule="evenodd" d="M19.543 12.4395V13.8361H40.4597V12.4395H19.543Z" fill="white"/>
<path fill-rule="evenodd" clip-rule="evenodd" d="M40.4597 12.0615V11.7223C40.4597 11.1087 39.9768 10.6113 39.3814 10.6113H20.6211C20.0256 10.6113 19.543 11.1087 19.543 11.7223V12.0615H40.4597Z" fill="#00994D"/>
<path fill-rule="evenodd" clip-rule="evenodd" d="M19.543 15.9883V48.2779C19.543 48.8915 20.0256 49.389 20.6211 49.389H39.3814C39.9768 49.389 40.4597 48.8915 40.4597 48.2779V15.9883H19.543Z" fill="#FFF100"/>
<path fill-rule="evenodd" clip-rule="evenodd" d="M28.7984 32.0795C28.7984 32.0795 28.7798 31.5895 28.8712 31.6271C28.9627 31.665 30.2115 32.7445 30.3206 33.008C30.4309 33.2717 30.6266 33.14 30.6869 32.9515C30.7467 32.7632 30.9845 31.9287 31.149 31.891C31.3133 31.8531 31.5696 31.9096 31.4782 32.1175C31.3867 32.3243 31.277 32.5181 31.2586 32.6127C31.2405 32.7064 31.2221 33.0272 31.0755 33.2531C30.9297 33.4789 30.9898 33.6295 30.7836 33.6681C30.5766 33.7054 30.5037 33.7243 30.3758 33.7243C30.2479 33.7243 29.8271 33.6295 29.7544 33.3664C29.6811 33.1021 29.7311 32.9569 29.3829 32.5938C29.0366 32.2304 28.7984 32.0795 28.7984 32.0795Z" fill="white"/>
<path fill-rule="evenodd" clip-rule="evenodd" d="M29.0162 17.9961C29.0806 18.1508 29.3057 18.2675 29.2138 18.4638C29.0774 18.482 28.9745 18.3891 28.8592 18.35C28.8175 18.3188 28.7721 18.29 28.7609 18.242C28.733 18.1148 28.9058 18.073 28.871 17.9423C28.8791 17.9188 28.8886 17.8933 28.9118 17.8823C28.9874 17.8632 28.9698 17.9606 29.0162 17.9961Z" fill="black"/>
<path fill-rule="evenodd" clip-rule="evenodd" d="M29.6866 17.985C29.8372 18.0674 29.8752 18.2534 30.0348 18.3326C30.1047 18.3987 30.1165 18.5036 30.1985 18.56C30.6109 18.5036 30.9884 18.6278 31.2562 18.9737C31.3476 19.0846 31.4965 19.0544 31.6341 19.0694C31.7834 19.0619 31.9473 19.0832 32.0936 19.0514C32.2018 19.0574 32.3092 19.0756 32.4079 19.1292C32.4384 19.1548 32.4462 19.2013 32.4363 19.2435C32.4067 19.282 32.3441 19.261 32.3086 19.2853C32.0909 19.338 31.8718 19.3945 31.7041 19.5429C31.7543 19.5876 31.8344 19.5967 31.9072 19.6206C32.1349 19.7146 32.3426 19.8945 32.5237 20.1003C32.6028 20.155 32.7057 20.1581 32.8027 20.1896C33.1454 20.2687 33.1896 20.6567 33.4479 20.8667C33.4439 20.8754 33.4327 20.881 33.4304 20.8908C33.15 20.9338 33.0896 20.5447 32.8487 20.5253C32.5053 20.5548 32.2281 20.399 31.9594 20.2435C31.9048 20.2297 31.828 20.2137 31.791 20.2614C31.7949 20.3319 31.8734 20.3319 31.9187 20.3697C32.132 20.4172 32.244 20.6629 32.4077 20.8071C32.4821 20.8858 32.6104 20.8485 32.7151 20.8728C33.0205 20.9171 33.3015 21.0325 33.5292 21.292C33.5632 21.3294 33.5751 21.3863 33.564 21.4418C33.5553 21.4636 33.525 21.4699 33.5114 21.46C33.434 21.3845 33.3783 21.2917 33.2908 21.2382C33.2221 21.2018 33.1533 21.1702 33.0811 21.1604C32.8249 21.2018 32.4779 21.2974 32.2679 21.1004L32.2154 21.0826V21.1066C32.2961 21.2288 32.3764 21.4126 32.5411 21.4481C32.7408 21.4924 32.9193 21.6031 33.0987 21.7236C33.1522 21.7513 33.2261 21.7364 33.2908 21.7593C33.3 21.7735 33.312 21.7978 33.3024 21.8191C33.1326 21.9833 32.9284 21.8141 32.7562 21.7892C32.5691 21.7137 32.3412 21.7467 32.1805 21.6276L31.9071 21.4835C31.8804 21.4816 31.8602 21.4967 31.8554 21.5198C31.9646 21.6942 32.1498 21.8098 32.2853 21.9814C32.4196 22.1076 32.4719 22.2722 32.5237 22.4424C32.6495 22.5763 32.8557 22.675 32.8314 22.9033C32.8907 23.0318 33.0166 23.099 33.1162 23.1972C33.1134 23.2085 33.1084 23.2191 33.1015 23.2283C33.0946 23.2375 33.086 23.2452 33.0761 23.2509C32.828 23.2488 32.6676 23.0029 32.5119 22.8317C32.2267 22.693 31.9607 22.4957 31.7329 22.2623C31.7193 22.256 31.7134 22.2664 31.7096 22.2747C31.7121 22.3712 31.7965 22.4339 31.8554 22.5144C32.1015 22.7416 32.5139 22.8517 32.5872 23.239C32.6522 23.4882 32.9207 23.5212 33.1223 23.5925C33.1593 23.6275 33.2374 23.6533 33.221 23.7244C33.0929 23.8014 32.9079 23.7747 32.7793 23.7484C32.5985 23.6935 32.4382 23.5692 32.3138 23.419C32.1421 23.2861 31.9126 23.307 31.7329 23.2149C31.7074 23.2184 31.6805 23.2216 31.6746 23.2508C31.6633 23.3158 31.6759 23.3846 31.744 23.4126C31.9606 23.4944 31.9834 23.7967 32.2269 23.8321C32.4414 23.9252 32.6453 24.1439 32.7503 24.3653C32.8118 24.4453 32.844 24.5618 32.9475 24.6111C32.9481 24.6457 32.9182 24.6579 32.8958 24.6708C32.7264 24.6397 32.6375 24.4211 32.4826 24.3776C32.2963 24.3509 32.1711 24.1831 31.9771 24.1979C31.9443 24.2072 31.9616 24.2338 31.9771 24.2516L32.1632 24.4496C32.1784 24.4707 32.1528 24.4961 32.1397 24.5095C32.014 24.5258 31.93 24.4095 31.8259 24.3776C31.7586 24.3462 31.6876 24.3343 31.6221 24.3174C31.5911 24.324 31.583 24.3571 31.5994 24.3834C31.7544 24.6068 32.0408 24.5352 32.2446 24.6708C32.4169 24.8103 32.5811 24.9766 32.8086 25.0008C32.8413 25.0246 32.8589 25.074 32.8379 25.1144C32.6411 25.194 32.4082 25.1205 32.233 25.0425C32.0408 24.9231 31.7846 24.7791 31.5703 24.9347L31.5938 24.9587C31.7761 24.9797 31.9648 24.9948 32.1286 25.0843C32.2688 25.2073 32.3996 25.3646 32.5584 25.462C32.5583 25.4829 32.5418 25.4979 32.5296 25.5161C32.3344 25.4591 32.1701 25.2989 31.9542 25.3537C31.7268 25.3945 31.4708 25.3945 31.2387 25.378C31.2298 25.3856 31.2124 25.3901 31.2215 25.4077C31.2933 25.4664 31.3806 25.5022 31.4717 25.5398C31.7802 25.5668 32.0303 25.8021 32.233 26.067C32.4416 26.2303 32.747 26.1645 32.965 26.055C32.9897 26.0355 33.0056 25.977 33.047 26.007C33.0639 26.046 33.0328 26.0804 33.0173 26.115C32.7887 26.3289 32.4138 26.3556 32.1339 26.2525C31.8878 26.1252 31.6436 26.0025 31.3604 25.9891C31.2381 25.9425 31.1133 25.9083 30.9945 25.8753C30.9827 25.8826 30.9683 25.8918 30.977 25.911C31.0032 25.9518 31.0515 25.9458 31.0934 25.9653C31.3767 26.0686 31.6551 26.1945 31.8843 26.4562C31.9389 26.5072 32.0207 26.5566 32.0526 26.6363C32.0449 26.6734 32.0638 26.7335 32.0235 26.7498C31.926 26.717 31.8578 26.6222 31.7792 26.5645C31.6284 26.4413 31.4533 26.3728 31.262 26.3906C31.2485 26.3951 31.2459 26.4053 31.2505 26.4205C31.3254 26.4862 31.436 26.4757 31.5179 26.5462C31.6368 26.6387 31.7762 26.7798 31.826 26.9357C31.8823 27.033 31.9885 27.1094 32.0762 27.1752C32.0857 27.2006 32.0519 27.2139 32.0415 27.2295C31.7444 27.1361 31.5397 26.8249 31.2506 26.7317C31.0832 26.6405 30.8754 26.6631 30.7161 26.5762C30.6091 26.5236 30.5251 26.4277 30.4074 26.4265C30.3669 26.4458 30.3809 26.4909 30.3729 26.5285C30.349 27.1646 30.6949 27.6482 31.0179 28.1457C31.2339 28.4613 31.4944 28.7787 31.7857 29.0565C32.0363 29.2072 32.282 29.3854 32.5296 29.5718C32.9006 29.8809 33.2622 30.215 33.5873 30.6024C33.8945 31.0025 34.1491 31.4293 34.2965 31.9084C34.341 31.9611 34.4253 31.9461 34.4949 31.9441C34.7856 31.9084 35.0326 31.7559 35.2794 31.597C35.8028 31.176 36.1018 30.6012 36.0754 29.9193C36.0729 29.4125 36.0124 28.9078 35.8953 28.4156C35.7788 28.0048 35.6078 27.6214 35.5993 27.1752C35.5121 26.1613 36.1075 25.2673 36.9708 24.8268H36.9943V24.8806C36.5422 25.2612 36.2519 25.7434 36.0995 26.2706C36.044 26.4728 36.044 26.7227 36.0754 26.9418C36.0819 26.961 36.105 26.9564 36.1281 26.9596C36.3973 26.6702 36.6367 26.3275 36.965 26.1088C37.0944 25.9488 37.176 25.7645 37.2905 25.6056C37.2962 25.598 37.3021 25.6091 37.3135 25.6175C37.35 25.8167 37.2464 25.9728 37.1975 26.1448C37.0346 26.4427 36.7642 26.6976 36.6515 27.0196C36.5508 27.2917 36.4547 27.6572 36.599 27.9479C36.6174 27.9731 36.6554 27.9823 36.6911 27.9722C36.825 27.8851 36.8163 27.7184 36.9246 27.6125C37.0609 27.4009 37.315 27.2845 37.4008 27.0434C37.421 26.9907 37.421 26.9115 37.4824 26.8995C37.5401 26.9981 37.5561 27.1329 37.5172 27.2529C37.2716 27.5643 37.0968 27.9086 37.0465 28.3073C36.9302 28.8938 37.1387 29.4347 37.1799 30.009C37.1957 30.417 37.1554 30.8183 37.058 31.1892C36.8774 31.7539 36.3253 32.2002 35.8021 32.3813C35.7501 32.3978 35.7905 32.4414 35.7905 32.4773C35.8361 32.5809 35.8778 32.6898 35.9182 32.8071C35.9675 32.9793 35.9882 33.2247 35.9243 33.4057C35.8663 33.6363 35.8724 33.9116 35.9182 34.1551L35.9126 34.2266C35.8778 34.2245 35.8649 34.1964 35.8602 34.1789C35.6661 33.8369 35.6776 33.4145 35.6041 33.0346C35.5537 32.8817 35.4407 32.7618 35.3369 32.6452C35.3056 32.6226 35.2747 32.6436 35.2673 32.6748C35.2589 32.8304 35.4281 32.916 35.436 33.0764C35.5526 33.5763 35.3866 34.0632 35.1979 34.4903C34.9743 34.8165 34.6323 35.0963 34.6511 35.5331C34.6324 35.5504 34.605 35.5353 34.587 35.5448C34.525 35.4843 34.5194 35.4061 34.512 35.335C34.4785 35.062 34.576 34.8344 34.7152 34.6342C34.9084 34.2477 35.0901 33.786 34.9421 33.3342C34.9202 33.3052 34.8866 33.2995 34.8662 33.3158C34.7563 33.4522 34.8173 33.665 34.7382 33.8194C34.6962 33.931 34.6414 34.0393 34.6511 34.1789C34.6542 34.2488 34.6603 34.3372 34.6456 34.4127C34.6353 34.4183 34.6224 34.4119 34.6162 34.4184C34.5575 34.363 34.5585 34.2867 34.5405 34.2266C34.4714 33.8848 34.6078 33.59 34.5811 33.2505C34.5759 33.0717 34.5759 32.8925 34.4477 32.7828C34.406 32.771 34.3735 32.7647 34.343 32.7888C34.2679 32.8775 34.3085 33.0193 34.2846 33.1364C34.117 34.1488 33.2221 34.9466 32.4077 35.5153C32.1525 35.7749 32.03 36.1703 32.1745 36.5336C32.2223 36.7407 32.4382 36.8814 32.4712 37.1088C32.4544 37.3127 32.5269 37.5282 32.4298 37.7139C32.0735 37.9282 31.7028 38.1155 31.4127 38.4747C31.2846 38.6798 31.0931 38.8792 30.8841 38.996C30.7996 39.0846 30.8053 39.2175 30.7443 39.3255C30.6323 39.5039 30.457 39.6859 30.273 39.7867C30.2149 39.8469 30.2554 39.9515 30.2387 40.0381C30.2369 40.3706 29.8879 40.4727 29.6633 40.6013C29.4594 40.6686 29.2256 40.7858 29.0061 40.6855C28.9174 40.6105 28.9222 40.4875 28.9361 40.3857C29.0034 40.0593 29.1708 39.7824 29.384 39.529C29.535 39.3477 29.718 39.2164 29.8256 39.0258C29.9506 38.8644 30.1111 38.7624 30.2905 38.7202C30.606 38.4105 30.8878 38.0812 31.1922 37.7553C31.3105 37.5689 31.4748 37.3993 31.465 37.1744C31.1432 36.6494 30.8007 36.139 30.6282 35.5624C30.4737 35.1366 30.3694 34.6293 30.4884 34.167C30.5652 33.8161 30.7443 33.5139 30.9652 33.2324C31.1279 32.9867 31.1366 32.6764 31.1689 32.3813C31.2027 32.2512 31.2749 32.1405 31.3491 32.0338C31.36 31.9953 31.3224 31.9787 31.3082 31.9678C31.1889 31.9609 31.113 32.0938 31.0756 32.1901C31.0491 32.3427 31.0523 32.5119 31.006 32.6633C30.9692 32.8098 30.9114 32.9493 30.8547 33.0944C30.7644 33.2425 30.6716 33.4777 30.4712 33.5017C30.2762 33.4609 30.0611 33.2863 30.0294 33.0821C30.0131 32.7002 29.7201 32.4373 29.4538 32.178C29.0365 31.7557 28.5367 31.5521 28.1048 31.1893C27.4586 30.6763 26.7625 30.0575 26.4193 29.3201C26.3936 29.2264 26.4952 29.2072 26.5067 29.1343L26.4719 29.1108C25.9969 29.1504 25.4884 29.1204 25.2157 28.6734C24.9086 28.4448 24.5512 28.3475 24.2451 28.1336C24.0468 28.0422 23.8999 27.8158 23.6577 27.8703C23.492 27.9643 23.5136 28.159 23.5241 28.3319C23.5804 28.556 23.6938 28.7608 23.7156 29.0084C23.7474 29.2459 23.7999 29.4798 23.8959 29.6979C23.9173 29.8362 24.0817 29.9188 24.0935 30.0686C24.124 30.1585 24.0688 30.2914 24.1635 30.3567C24.4011 30.3799 24.6337 30.5894 24.6924 30.8359C24.7662 31.1598 24.798 31.5867 24.5527 31.8426C24.5235 31.8532 24.4973 31.874 24.4658 31.8783C24.1529 31.7993 23.9992 31.4456 23.8324 31.2075C23.6718 30.9666 23.6456 30.6628 23.3901 30.4825C23.1955 30.2957 23.271 29.998 23.1632 29.7815C23.1168 29.6312 23.108 29.4707 23.0818 29.32C23.015 28.8999 22.8871 28.5091 22.8319 28.0919C22.7927 27.8383 22.7025 27.5584 22.7973 27.3071C22.899 27.1284 22.9612 26.9144 23.1632 26.8036C23.4698 26.558 23.9187 26.7198 24.2507 26.8036C24.4783 26.7914 24.6685 26.8815 24.8846 26.9177C24.9378 26.8692 24.865 26.8198 24.8496 26.7796C24.8053 26.7333 24.7646 26.6852 24.7156 26.6661C24.4335 26.4097 24.2066 26.1131 24.0008 25.8211C23.9011 25.7539 23.7869 25.6267 23.675 25.713C23.5818 25.8271 23.6135 25.9979 23.5587 26.1326C23.49 26.3554 23.3579 26.6491 23.0994 26.7016C22.6679 26.9787 22.6022 27.5031 22.6753 27.9901C22.7012 28.1724 22.7827 28.3356 22.7854 28.5351C22.8016 28.6139 22.8222 28.6945 22.8263 28.7869C22.803 28.9986 22.5953 29.1167 22.4948 29.3021C22.4047 29.3834 22.3177 29.487 22.1924 29.4639C22.1142 29.3644 22.1258 29.2323 22.0935 29.1222C22.0792 28.87 22.1081 28.6406 22.1579 28.4213C22.1547 28.1873 22.1257 27.9161 22.2043 27.7083C22.4544 27.2691 22.4991 26.7454 22.7102 26.2943C22.7899 26.1294 22.8318 25.9515 22.8552 25.7671C22.9193 25.4484 23.0367 25.1532 23.1692 24.8683C23.1867 24.6528 23.3652 24.472 23.547 24.3831C23.9203 24.2237 24.3053 24.4015 24.5757 24.6887C24.8327 25.0154 25.2074 25.1054 25.5178 25.3359L25.8029 25.5212C25.8982 25.5365 25.9707 25.4545 26.0583 25.4257C26.1924 25.4165 26.2641 25.2459 26.3784 25.1798C26.6591 24.9165 27.0357 24.8641 27.2796 24.5273C27.3729 24.093 27.8432 23.9057 28.0761 23.5444C28.5625 23.0252 28.7809 22.3829 29.0174 21.7533C29.0249 21.6565 29.0102 21.5518 28.9187 21.5014C28.6777 21.4561 28.4175 21.468 28.1923 21.3997C28.0365 21.366 27.8985 21.297 27.7559 21.2498C27.6592 21.2899 27.5617 21.2539 27.4652 21.2498C27.1942 21.3272 26.8219 21.5848 26.5814 21.2916C26.5778 21.2552 26.5999 21.2209 26.6336 21.2138C26.8038 21.1548 26.9948 21.1373 27.14 21.0218C27.149 20.996 27.1393 20.968 27.128 20.9502C27.1021 20.9167 27.0616 20.9346 27.0352 20.944C26.8178 21.0338 26.5838 21.0813 26.3433 21.1062C26.1723 21.0234 26.2537 20.8047 26.2274 20.6509C26.2449 20.3959 26.475 20.2323 26.5636 20.0096C26.6695 19.8145 26.8917 19.8807 27.0762 19.8598C27.6438 19.761 28.0629 19.2832 28.6164 19.1349C28.6457 19.0853 28.7334 19.0947 28.7271 19.0272C28.6921 18.9685 28.5612 19.0001 28.6222 18.8952C28.579 18.8502 28.5296 18.8774 28.477 18.8712C28.2684 18.7921 28.0542 18.6961 27.8144 18.7453C27.7687 18.7529 27.729 18.7754 27.6802 18.7695C27.6678 18.756 27.6733 18.7364 27.6747 18.7218C27.7489 18.6529 27.8432 18.6316 27.9364 18.6017C28.0439 18.5657 28.131 18.6406 28.2444 18.6075C28.259 18.5954 28.2602 18.5774 28.2622 18.5594C28.2056 18.5043 28.1302 18.5071 28.0641 18.4937C28.0353 18.4759 28.0425 18.4369 28.0523 18.4161C28.0922 18.3578 28.1849 18.3994 28.2503 18.3801C28.5978 18.2559 28.8782 18.4835 29.181 18.5774C29.2848 18.5945 29.3984 18.5808 29.471 18.4996C29.4829 18.386 29.3475 18.3153 29.3892 18.1941C29.4406 18.0865 29.5185 17.9904 29.5701 17.8824C29.6398 17.8638 29.6357 17.9536 29.6866 17.985Z" fill="black"/>
<path fill-rule="evenodd" clip-rule="evenodd" d="M30.7583 18.9732C30.7505 18.9865 30.7666 18.9925 30.7639 19.0092C30.7269 19.0317 30.6806 19.0167 30.6535 18.9974C30.6039 18.9883 30.5472 18.9911 30.5258 18.9431C30.5241 18.9071 30.5618 18.91 30.5837 18.8951C30.6547 18.8822 30.7186 18.9045 30.7583 18.9732ZM30.845 19.2966C30.8267 19.3143 30.8044 19.3269 30.78 19.3332C30.7557 19.3395 30.7302 19.3393 30.7059 19.3326C30.6829 19.3295 30.6654 19.3055 30.6593 19.2905C30.6677 19.2578 30.7001 19.2504 30.7286 19.243C30.7694 19.2472 30.826 19.2472 30.845 19.2966ZM29.4093 19.3806C29.3914 19.448 29.3193 19.4749 29.2641 19.4887C29.231 19.4865 29.2103 19.4675 29.2054 19.4404C29.2103 19.3806 29.2729 19.3564 29.3221 19.3446C29.3524 19.3459 29.4023 19.3313 29.4093 19.3806ZM28.2817 19.6437C28.2756 19.7189 28.1914 19.771 28.142 19.818C27.9678 19.8988 27.7994 19.9838 27.607 20.0096C27.5623 20.0363 27.4925 20.0306 27.4497 20.0159C27.4574 19.9825 27.4986 19.9737 27.5261 19.9557C27.7485 19.8087 27.9912 19.7131 28.2465 19.638L28.2817 19.6437ZM29.0607 19.7998C29.0998 19.8821 29.1536 19.9898 29.1013 20.0874C28.9986 20.1531 28.8763 20.0932 28.7873 20.0518C28.709 20.014 28.6481 19.9479 28.5785 19.9078C28.5475 19.8625 28.5736 19.8104 28.6012 19.7762C28.6636 19.713 28.7466 19.6933 28.8338 19.68C28.9221 19.6784 29.0055 19.7113 29.0607 19.7998ZM30.8511 20.0039C30.854 20.0514 30.7666 20.1141 30.8511 20.1415L31.1301 20.0999C31.1476 20.1052 31.1486 20.1397 31.1418 20.1594C30.9903 20.2266 30.8406 20.291 30.7059 20.387C30.6677 20.3959 30.6211 20.4168 30.5894 20.3928C30.5078 20.2879 30.6051 20.1861 30.6362 20.0936C30.6664 20.0127 30.7465 19.9735 30.8273 19.9677L30.8511 20.0039ZM26.828 20.4052C26.8388 20.4528 26.8521 20.511 26.828 20.5608C26.7417 20.6457 26.6371 20.7235 26.5262 20.7345C26.4742 20.7043 26.4796 20.6341 26.4911 20.5849C26.5221 20.4889 26.5584 20.3736 26.6649 20.3333C26.7255 20.3354 26.7883 20.3389 26.828 20.4052ZM27.1361 20.411C27.1484 20.4482 27.1241 20.4914 27.0897 20.5128C27.0552 20.523 27.038 20.4946 27.0199 20.4768C27.0003 20.4452 27.0233 20.4168 27.0374 20.3927C27.0625 20.3445 27.1151 20.378 27.1361 20.411ZM29.2054 20.7707C29.2103 20.8389 29.1215 20.8529 29.1068 20.9143C29.0956 20.9649 29.0809 21.0187 29.0375 21.052C28.9153 21.0652 28.8094 21.1161 28.688 21.124C28.6667 21.1147 28.6768 21.0954 28.6768 21.0823C28.8342 20.9742 28.9895 20.854 29.1536 20.7524C29.1697 20.7507 29.1929 20.7463 29.2054 20.7707ZM27.5087 20.8424C27.5176 20.8765 27.49 20.9036 27.4675 20.9204C27.4303 20.9305 27.4176 20.9006 27.4096 20.8787C27.4183 20.8498 27.4043 20.8076 27.4446 20.8006C27.4681 20.8014 27.4946 20.8138 27.5087 20.8424ZM31.1418 20.8483C31.1629 20.8824 31.12 20.8987 31.1011 20.9143C31.0745 20.9138 31.0499 20.8945 31.072 20.8725C31.08 20.8618 31.0909 20.8538 31.1033 20.8495C31.1157 20.8452 31.1291 20.8448 31.1418 20.8483ZM29.7992 20.944C29.7971 21.128 29.5932 21.1846 29.4733 21.2498C29.4458 21.2613 29.4165 21.2494 29.3975 21.2377C29.4326 21.1026 29.5795 21.0261 29.6655 20.9202C29.6974 20.8796 29.7814 20.8853 29.7992 20.944ZM31.2287 21.124C31.223 21.1406 31.2139 21.1557 31.2018 21.1682C31.1898 21.1806 31.1752 21.1902 31.1591 21.1961C31.1387 21.2048 31.1097 21.1938 31.1068 21.1721C31.1051 21.1603 31.1077 21.1482 31.1142 21.1382C31.1207 21.1283 31.1305 21.1212 31.1418 21.1183C31.1675 21.1174 31.2081 21.0845 31.2287 21.124ZM30.0428 21.2321C30.0502 21.3241 29.9859 21.393 29.9266 21.4534C29.7856 21.5248 29.6404 21.5787 29.4791 21.5912C29.4543 21.5832 29.425 21.5803 29.421 21.5554C29.4439 21.4632 29.5515 21.4721 29.6242 21.4415C29.7709 21.3993 29.8652 21.2267 30.0254 21.2078L30.0428 21.2321ZM31.2232 21.4357C31.2007 21.4771 31.1502 21.4931 31.1067 21.4957C31.0847 21.4832 31.0906 21.4546 31.101 21.4415C31.1312 21.4201 31.2049 21.3721 31.2232 21.4357ZM31.2111 21.6575C31.1979 21.7318 31.1151 21.7287 31.0662 21.7534C31.0371 21.7381 31.0544 21.7207 31.0607 21.7056C31.0951 21.6553 31.1605 21.6236 31.2111 21.6575ZM31.2111 21.9567C31.2254 21.9962 31.1827 22.0309 31.1536 22.0526C31.1128 22.0517 31.0791 22.082 31.0434 22.0645C31.0208 22.0336 31.0487 22.01 31.0608 21.9865C31.0961 21.9455 31.1675 21.9024 31.2111 21.9567ZM31.2232 22.2923C31.2301 22.3305 31.1939 22.347 31.1711 22.3643C31.1168 22.3684 31.0469 22.3936 31.0082 22.352C31.0119 22.3247 31.0383 22.2975 31.0663 22.2923C31.105 22.2648 31.1867 22.2361 31.2232 22.2923ZM29.5723 22.3643C29.5735 22.5399 29.4907 22.6959 29.4326 22.8555C29.2203 23.2858 28.9195 23.6948 28.5606 24.0477C28.5433 24.0557 28.5229 24.0495 28.5086 24.0536C28.4724 24.0362 28.481 23.9974 28.4907 23.9761C28.719 23.7183 28.7599 23.3833 28.9503 23.1134C29.0651 22.8606 29.2181 22.6256 29.3741 22.3941C29.4049 22.371 29.4121 22.3233 29.4558 22.3221C29.4982 22.3172 29.5473 22.3185 29.5723 22.3643ZM31.1885 22.6098C31.1675 22.6781 31.0848 22.6913 31.0254 22.7057C31.008 22.7032 30.9964 22.6975 30.9907 22.6878C31.001 22.6135 31.0755 22.5941 31.1362 22.5803C31.1573 22.5699 31.1763 22.5879 31.1885 22.6098ZM31.1943 22.9154C31.1588 22.9955 31.0624 22.9925 30.9906 23.0053C30.964 22.988 30.9581 22.9595 30.9733 22.9391C31.0225 22.8893 31.1476 22.8155 31.1943 22.9154ZM31.1885 23.2328C31.2008 23.2813 31.1629 23.3085 31.1301 23.3229C31.0659 23.3217 30.9813 23.3489 30.9386 23.2987C30.9438 23.2156 31.0311 23.2005 31.0892 23.1729C31.1279 23.1676 31.1629 23.1947 31.1885 23.2328ZM31.0837 23.5263C31.0616 23.5868 30.9976 23.5855 30.9557 23.6103C30.9175 23.6112 30.887 23.5913 30.8743 23.5623C30.8518 23.5298 30.8785 23.5045 30.8973 23.4845C30.9566 23.4598 31.0469 23.4654 31.0837 23.5263ZM31.0021 23.8441C31.0049 23.9132 30.9279 23.9388 30.8862 23.9699C30.8422 23.9659 30.7984 23.9748 30.7759 23.9398C30.7565 23.8864 30.8043 23.855 30.8393 23.8378C30.887 23.8278 30.9596 23.768 31.0021 23.8441ZM30.8511 24.2157C30.858 24.2237 30.8519 24.2415 30.8569 24.2572C30.8233 24.3043 30.7681 24.3103 30.7232 24.299C30.6967 24.2815 30.691 24.2535 30.7059 24.2335C30.7286 24.1709 30.81 24.1918 30.8511 24.2157ZM30.7876 24.5329C30.7773 24.5824 30.7201 24.5888 30.6884 24.6109C30.6587 24.6111 30.6303 24.6065 30.6243 24.5806C30.624 24.5514 30.6358 24.5242 30.6654 24.5149C30.6967 24.4973 30.7638 24.4854 30.7876 24.5329ZM23.8806 24.7488C23.8744 24.8372 23.7625 24.8147 23.7003 24.8386C23.6598 24.8404 23.6058 24.8342 23.5842 24.7969C23.5683 24.7431 23.6261 24.7268 23.6539 24.7065C23.7247 24.6908 23.8339 24.6695 23.8806 24.7488ZM30.6828 24.8446C30.6838 24.8776 30.6532 24.8941 30.6303 24.9106C30.5932 24.9195 30.5489 24.9136 30.5313 24.8926C30.5207 24.854 30.5511 24.8221 30.5836 24.8146C30.6139 24.8044 30.6663 24.7951 30.6828 24.8446ZM28.6417 25.1079C28.6435 25.1412 28.6811 25.1771 28.6538 25.2159C28.5724 25.2519 28.4942 25.1847 28.4208 25.1678C28.1453 25.0962 27.8195 25.0365 27.5492 25.15C27.4795 25.1441 27.3925 25.243 27.351 25.15C27.3652 25.0499 27.475 25.0108 27.5546 24.9824C27.8487 24.9073 28.2465 24.7997 28.5318 24.9824L28.6417 25.1079ZM30.5894 25.0959C30.5909 25.1234 30.5589 25.1323 30.5428 25.1439C30.5195 25.1519 30.493 25.1458 30.4732 25.1502C30.4416 25.1337 30.4439 25.0977 30.4557 25.0786C30.4931 25.0381 30.5644 25.0395 30.5894 25.0959ZM23.3632 25.3417C23.3822 25.4725 23.3066 25.5784 23.2933 25.7072C23.222 25.8196 23.2206 25.9917 23.084 26.0547C23.0406 26.0232 23.0665 25.9752 23.0608 25.929C23.0946 25.7776 23.1027 25.6188 23.1652 25.4853C23.1856 25.4062 23.2527 25.3346 23.3167 25.2937C23.34 25.2924 23.35 25.3214 23.3632 25.3417ZM24.6365 26.0006C24.6315 26.0131 24.6421 26.0324 24.6248 26.0428C24.5198 25.9935 24.4152 25.8917 24.363 25.7909L24.3693 25.7613C24.4763 25.788 24.5735 25.9005 24.6365 26.0006ZM29.2229 25.9348C29.2683 26.0037 29.2798 26.1268 29.2344 26.2046C29.1521 26.2657 29.0581 26.1881 28.9848 26.1565C28.9459 26.1221 28.914 26.0815 28.9381 26.0364C28.9617 25.9585 29.0384 25.9093 29.1132 25.8992C29.1522 25.896 29.1873 25.9125 29.2229 25.9348ZM25.8458 26.049C25.8212 26.2718 25.7259 26.4668 25.6653 26.6781C25.6181 26.8379 25.4887 27.0159 25.3278 27.0791C25.3073 27.0804 25.2944 27.0699 25.2932 27.0551V27.0195C25.4237 26.7732 25.5486 26.5282 25.6129 26.2585C25.6542 26.1601 25.7157 26.0721 25.7932 26.0006C25.8212 25.9948 25.8346 26.0232 25.8458 26.049ZM30.171 27.0972C30.2773 27.5733 30.4801 28.0103 30.7582 28.4214C30.8714 28.5931 31.0224 28.7515 31.1417 28.9305C31.0601 28.9269 30.9916 28.8641 30.9261 28.8229C30.435 28.4703 30.198 27.949 30.0254 27.4389C29.9889 27.3022 29.9311 27.1657 29.9734 27.0196C29.9835 26.9951 30.0036 26.9684 30.0315 26.9654C30.1054 26.9561 30.1417 27.0355 30.171 27.0972ZM23.2528 27.0252C23.249 27.0708 23.2362 27.115 23.2152 27.1553C23.1941 27.1955 23.1653 27.2308 23.1304 27.2591H23.1074C23.0946 27.1555 23.1304 27.0493 23.2179 26.9955C23.2307 26.9967 23.2468 27.0056 23.2528 27.0252ZM25.014 28.1516C25.0282 28.1706 25.0546 28.196 25.0378 28.2296C25.0196 28.2529 24.9817 28.2459 24.9615 28.2414C24.7203 28.1738 24.5476 27.9401 24.3224 27.8463C24.3351 27.8352 24.3903 27.8293 24.4155 27.8521C24.6245 27.9223 24.8308 28.0029 25.014 28.1516ZM23.2877 28.6251C23.3702 28.8202 23.3848 29.0571 23.4094 29.2777C23.4038 29.3087 23.3702 29.2847 23.3573 29.2838C23.2306 29.0584 23.193 28.7994 23.1653 28.541C23.1683 28.4776 23.1714 28.4135 23.2179 28.3795C23.321 28.3965 23.2615 28.5404 23.2877 28.6251ZM22.4567 28.8827C22.4519 28.9091 22.4303 28.9313 22.404 28.9424C22.3751 28.9389 22.3448 28.9192 22.3398 28.8944C22.34 28.8655 22.3678 28.8548 22.3868 28.8465C22.4141 28.843 22.4403 28.858 22.4567 28.8827ZM36.5947 29.4874C36.7037 29.9093 36.6862 30.4347 36.5423 30.8414C36.4217 31.2165 36.1577 31.5786 35.8219 31.818C35.7943 31.8245 35.7608 31.8323 35.74 31.8243C35.6796 31.7297 35.7608 31.6403 35.8042 31.5665C36.0789 31.215 36.3218 30.8508 36.4205 30.4282C36.4758 30.0393 36.4758 29.6138 36.4437 29.2297C36.4509 29.2099 36.4774 29.1888 36.496 29.218C36.5423 29.2968 36.5569 29.3941 36.5947 29.4874ZM27.6769 29.8893C28.0168 30.2116 28.225 30.6054 28.6012 30.8957C28.7265 31.0457 28.8824 31.1821 28.9848 31.357V31.3688H28.9675C28.5416 31.0982 28.1565 30.7358 27.7581 30.4164C27.574 30.2386 27.4422 30.0456 27.2872 29.8651C27.2708 29.7941 27.2267 29.7013 27.2872 29.6435C27.3476 29.6021 27.4175 29.6529 27.4735 29.6916L27.6769 29.8893ZM31.0254 30.3503C31.1129 30.5094 30.9416 30.6221 30.9037 30.764C30.8609 30.8079 30.8892 30.8915 30.8226 30.9253C30.8072 30.9272 30.7915 30.925 30.7771 30.9187C30.7627 30.9125 30.7502 30.9024 30.7408 30.8896C30.7129 30.7508 30.7773 30.622 30.7986 30.4946C30.7957 30.4228 30.8087 30.3512 30.88 30.3268C30.9209 30.2894 30.9874 30.3031 31.0254 30.3503ZM24.4155 31.3152C24.4294 31.3442 24.4119 31.383 24.3868 31.405C24.3588 31.4203 24.3278 31.4083 24.3049 31.3991C24.2785 31.3662 24.2423 31.3442 24.2581 31.303C24.2687 31.2776 24.2929 31.2675 24.3169 31.261C24.3589 31.2496 24.4008 31.2692 24.4155 31.3152Z" fill="white"/>
<path fill-rule="evenodd" clip-rule="evenodd" d="M29.1418 32.1236C29.5492 32.381 29.8786 32.8034 29.9266 33.2919C30.033 33.4504 30.1972 33.5539 30.3394 33.681C30.3741 33.7171 30.3861 33.7767 30.3746 33.8372L30.3513 33.8911C30.2619 34.2876 30.2826 34.7547 30.3568 35.1607C30.45 35.5542 30.5978 35.9318 30.7811 36.2993C30.7827 36.4318 30.6587 36.529 30.6303 36.6645C30.614 36.7042 30.5876 36.7387 30.5538 36.7641C30.52 36.7895 30.4801 36.8049 30.4385 36.8087C30.1066 36.7989 29.8553 36.598 29.5783 36.4792C29.2118 36.3176 28.8234 36.2145 28.4267 36.1736C28.1192 36.0126 27.7066 36.1804 27.4038 36.0296C27.3129 35.866 27.1222 35.9765 26.9967 35.9578C26.7362 36.0532 26.4006 36.0532 26.1536 35.9338C25.8437 35.8333 25.6267 35.5083 25.4679 35.2447C25.4533 35.2071 25.4629 35.1695 25.4853 35.1488C25.677 35.0029 25.9555 35.0063 26.1827 35.0768C26.5093 35.0498 26.8259 35.0915 27.1009 35.2267C27.2631 35.264 27.3983 35.1437 27.572 35.1913C27.7502 35.2205 27.9182 35.2829 28.0784 35.3829C28.5026 35.4944 28.9152 35.6653 29.3914 35.6522C29.5561 35.6416 29.771 35.7476 29.8975 35.5983C29.985 35.3627 29.7477 35.2264 29.6767 35.0471C29.1913 34.2756 28.8223 33.4593 28.6481 32.5668C28.6261 32.3855 28.5822 32.1997 28.6187 32.0278C28.6275 32.0039 28.6425 31.9828 28.662 31.9668C28.6815 31.9509 28.7048 31.9407 28.7295 31.9374C28.8919 31.9257 29.011 32.0324 29.1418 32.1236Z" fill="black"/>
<path fill-rule="evenodd" clip-rule="evenodd" d="M33.8492 32.6927C33.9005 32.8243 33.877 33.0012 33.779 33.1121C33.7442 33.1165 33.7305 33.0955 33.7271 33.0763C33.716 32.9595 33.6753 32.8604 33.628 32.7707C33.6151 32.6927 33.6522 32.6329 33.7155 32.597C33.7711 32.5866 33.8175 32.6416 33.8492 32.6927ZM31.0701 33.7293C31.0725 33.8845 30.9519 34.0045 30.9243 34.1605C30.8707 34.2574 30.8562 34.376 30.8253 34.4901C30.8103 34.5002 30.7966 34.5135 30.7792 34.514C30.7066 34.3726 30.7589 34.1975 30.7792 34.0586C30.8241 33.9205 30.8793 33.7858 31.0002 33.6932C31.0276 33.681 31.0557 33.6976 31.0701 33.7293ZM26.2278 35.3708C26.244 35.4047 26.1968 35.4403 26.1691 35.4606C26.1397 35.4795 26.097 35.4856 26.0643 35.4787C26.0363 35.4644 26.0073 35.4348 26.0007 35.4127C25.9812 35.3661 26.0291 35.3643 26.0466 35.347C26.1019 35.3222 26.1847 35.3222 26.2278 35.3708ZM27.6165 35.4606C27.619 35.4749 27.5968 35.4795 27.5878 35.4908C27.5499 35.4873 27.5157 35.4873 27.4947 35.4669C27.4849 35.4437 27.5036 35.4298 27.518 35.4307C27.5537 35.4239 27.5914 35.4226 27.6165 35.4606ZM28.4715 35.7003C28.5602 35.7115 28.6594 35.7115 28.756 35.7243C28.9378 35.7622 29.1357 35.7714 29.3081 35.8556C29.3174 35.8671 29.3464 35.8777 29.3375 35.9097C29.3027 35.9646 29.242 35.9166 29.1986 35.9276C29.0123 35.8075 28.7755 35.9336 28.605 35.7959C28.4659 35.7178 28.287 35.7492 28.1687 35.6402C28.1504 35.6155 28.1444 35.5932 28.1687 35.5802C28.2772 35.5904 28.3724 35.6429 28.4715 35.7003ZM31.2442 35.7842C31.2648 35.9487 31.2355 36.1416 31.3142 36.2936C31.315 36.3123 31.2834 36.3182 31.2737 36.3116C31.1744 36.1445 31.1119 35.9675 31.0527 35.7959C31.0468 35.7145 31.0439 35.6278 31.1167 35.5984C31.2076 35.6008 31.2164 35.7083 31.2442 35.7842ZM30.2272 35.7541C30.2415 35.7973 30.1962 35.8284 30.1691 35.85C30.1323 35.8493 30.1004 35.8885 30.0701 35.8619C30.0526 35.7985 30.1191 35.7639 30.1571 35.7424C30.1777 35.7235 30.203 35.7359 30.2272 35.7541ZM32.2212 37.4077C32.2132 37.4558 32.1637 37.495 32.1286 37.5332C32.1117 37.5385 32.0887 37.5205 32.0875 37.5096C32.0691 37.462 32.0801 37.4097 32.1286 37.3958C32.1482 37.3768 32.2059 37.3617 32.2212 37.4077ZM31.5587 37.7493C31.5555 37.8456 31.452 37.9203 31.4013 38.013C31.2834 38.1718 31.1149 38.3397 30.9654 38.4679C30.8809 38.569 30.7647 38.6134 30.6747 38.708L30.6516 38.702C30.6498 38.6226 30.6948 38.5675 30.7389 38.5159C30.9292 38.2945 31.1382 38.1074 31.3142 37.8985C31.3893 37.8364 31.4663 37.7754 31.5587 37.7493ZM30.1746 39.1033C30.1809 39.1706 30.1088 39.2086 30.0644 39.2468C30.0397 39.2519 30.0075 39.2729 29.9888 39.2533C29.9744 39.2035 30.0017 39.1619 30.0296 39.133C30.0613 39.0855 30.1355 39.033 30.1746 39.1033ZM29.5352 40.0315C29.5384 40.1068 29.5076 40.1861 29.4539 40.2535C29.3986 40.2742 29.3409 40.3061 29.2797 40.2953C29.2333 40.2188 29.3016 40.1681 29.3375 40.1213C29.3956 40.0736 29.4597 39.9557 29.5352 40.0315Z" fill="white"/>
<path fill-rule="evenodd" clip-rule="evenodd" d="M38.1123 43.7004C38.4582 43.7004 38.7395 43.5949 38.7395 43.4684C38.7395 43.338 38.4583 43.2363 38.1123 43.2363C37.7681 43.2363 37.4871 43.338 37.4871 43.4684C37.4871 43.5949 37.7682 43.7004 38.1123 43.7004ZM22.3936 46.6566V47.1476H20.5312V46.6566H20.8772C20.8772 46.6566 21.0595 46.6684 21.0595 46.4385V43.8961C21.0595 43.8961 21.0725 43.7769 20.9443 43.7769H20.6075V43.2518H36.9571V43.6907H22.0382C22.0382 43.6907 21.8745 43.6967 21.8745 43.8999L21.8727 44.9869H22.0941C22.0941 44.9869 22.2038 44.9946 22.2038 44.8702V44.6745L22.5537 44.6686L22.5499 45.7327H22.2037V45.5026C22.2037 45.5026 22.2037 45.4069 22.122 45.4029L21.8745 45.4049V46.4613C21.8745 46.4613 21.8652 46.6567 22.0475 46.6567L22.3936 46.6566Z" fill="black"/>
<path fill-rule="evenodd" clip-rule="evenodd" d="M24.2242 46.9117C24.2242 46.9117 24.0213 46.9117 24.0213 46.6626L24.0195 45.8936H25.5844V44.8622C25.5844 44.8622 25.6044 44.2949 24.933 44.2949H23.7478C23.7478 44.2949 23.2383 44.2469 23.2383 44.8355V46.6566C23.2383 46.6566 23.2475 47.1476 23.7814 47.1476H25.0409C25.0409 47.1476 25.5845 47.1476 25.5845 46.6566V46.2793H24.8307V46.6566C24.8307 46.6566 24.8307 46.9117 24.6408 46.9117H24.2242ZM28.395 45.8573H27.7236V44.8355C27.7236 44.8355 27.7514 44.6034 27.614 44.7071C27.4723 44.8164 27.0687 45.0443 27.0558 45.2649V46.7277H27.3402V47.1476H26.0196V46.7277H26.3285V44.6609H26.0456V44.2949H27.0651V44.7071C27.0651 44.7071 27.4685 44.3234 27.8223 44.3159C28.1795 44.3044 28.3934 44.4311 28.3951 44.7895L28.395 45.8573ZM33.437 44.2949C33.437 44.2949 34.0101 44.2585 34.0101 44.9448V46.7277H34.2276L34.2333 47.1476H32.2779C32.2779 47.1476 31.7978 47.1476 31.7978 46.6566V45.8861C31.7978 45.8861 31.7849 45.4836 32.2798 45.4836L33.2471 45.4873V44.6819C33.2471 44.6819 33.2471 44.5058 33.0927 44.5038H32.7206C32.7206 44.5038 32.5478 44.4978 32.5478 44.6973L32.5495 45.1209H31.8424V44.6993C31.8424 44.6993 31.8035 44.2948 32.3021 44.2948H33.437V44.2949ZM31.3756 45.8573H30.7023V44.8355C30.7023 44.8355 30.7302 44.6034 30.5907 44.7071C30.4509 44.8164 30.0475 45.0443 30.038 45.2649V46.7277H30.3188V47.1476H28.9961V46.7277H29.3069L29.3106 44.6609H29.0239V44.2949H30.0416L30.0453 44.7071C30.0453 44.7071 30.4472 44.3234 30.8025 44.3159C31.156 44.3044 31.3682 44.4311 31.3755 44.7895L31.3756 45.8573ZM36.9789 45.8573H36.306V44.8355C36.306 44.8355 36.3336 44.6034 36.1959 44.7071C36.0545 44.8164 35.6493 45.0443 35.6377 45.2649V46.7277H35.9187V47.1476H34.5996V46.7277H34.9067V44.6609H34.6258L34.6276 44.2949H35.6453V44.7071C35.6453 44.7071 36.0472 44.3234 36.4025 44.3159C36.7562 44.3044 36.9698 44.4311 36.979 44.7895V45.8573H36.9789ZM38.5103 46.6415C38.5103 46.6415 38.5215 46.7278 38.5997 46.7278H38.7706V47.1477H37.4555V46.7278H37.6267C37.6267 46.7278 37.7293 46.7278 37.7233 46.6341V44.7437C37.7233 44.7437 37.7381 44.64 37.6582 44.64H37.4706L37.4724 44.2951H38.7948V44.6439H38.5792C38.5792 44.6439 38.5104 44.64 38.5104 44.7319V46.6415H38.5103Z" fill="black"/>
<path fill-rule="evenodd" clip-rule="evenodd" d="M24.0195 45.6381H24.8343L24.8288 44.7621C24.8288 44.7621 24.8382 44.5703 24.6261 44.5703H24.1962C24.1962 44.5703 24.0195 44.5703 24.0195 44.7431V45.6381ZM33.2455 45.7323V46.9112H32.7264C32.7264 46.9112 32.5646 46.9112 32.5646 46.7272V45.9145C32.5646 45.9145 32.5591 45.7323 32.7413 45.7323H33.2455Z" fill="#F4EA27"/>
</g>
<defs>
<clipPath id="clip0_4940_30447">
<rect width="22" height="40" fill="white" transform="translate(19 10)"/>
</clipPath>
</defs>
</svg>
