<svg width="61" height="60" viewBox="0 0 61 60" fill="none" xmlns="http://www.w3.org/2000/svg">
<g clip-path="url(#clip0_4940_102721)">
<path d="M30.8872 37.6626C31.1474 38.1385 31.9042 38.0035 32.0122 37.5251C32.3235 37.9654 33.0443 37.7598 33.113 37.2967C33.4145 37.6156 34.0126 37.4879 34.1481 37.0749C34.1461 37.081 34.15 37.0689 34.1481 37.0749C36.3664 36.1896 37.99 34.5878 38.625 32.6758C38.7598 32.6211 38.8776 32.5334 38.9671 32.4213C39.6531 32.5779 40.4198 32.8911 40.7022 32.1471C41.3078 32.3038 42.5775 32.7139 42.9618 31.7167C43.8495 31.8342 45.1405 31.9124 45.3022 31.0118C46.0689 31.0118 47.4001 30.8942 47.4001 30.0327C48.1671 30.0327 49.4983 29.5235 49.3369 28.9361C50.023 28.8579 50.9513 28.153 50.9513 27.6832C51.6371 27.4875 52.404 26.9783 52.2423 26.3127C52.6456 26.0776 53.3317 25.8035 53.3317 25.4121C53.3317 25.0207 53.009 24.7072 52.6456 24.7072C52.2823 24.7072 50.9104 24.7879 50.4263 24.7879C49.9425 24.7879 44.0914 24.7094 42.7196 24.7879C41.3477 24.866 39.6126 24.9029 38.7651 24.8247C38.1409 24.7663 36.0142 24.6481 34.7373 24.9794C32.0328 23.6789 28.6315 23.6786 25.9265 24.9794C24.6499 24.6484 22.5229 24.7666 21.8983 24.8241C21.0509 24.9026 19.316 24.8654 17.9438 24.7873C16.572 24.7088 10.7209 24.7873 10.2368 24.7873C9.75265 24.7873 8.3808 24.7066 8.01746 24.7066C7.65413 24.7066 7.33203 25.0201 7.33203 25.4115C7.33203 25.8032 8.01812 26.0773 8.42172 26.3121C8.26002 26.9779 9.02696 27.4869 9.71272 27.6825C9.71272 28.1524 10.6407 28.8573 11.3268 28.9355C11.1654 29.5232 12.497 30.0321 13.2636 30.0321C13.2636 30.8933 14.5952 31.0111 15.3618 31.0111C15.5232 31.9117 16.8145 31.8336 17.7022 31.7161C18.0865 32.7136 19.3566 32.3034 19.9618 32.1465C20.2443 32.8908 21.0109 32.5773 21.697 32.4207C21.7906 32.5388 21.9085 32.6208 22.0391 32.6751C22.6741 34.5875 24.298 36.1892 26.516 37.0746C26.514 37.0686 26.5176 37.0806 26.516 37.0746C26.6515 37.4876 27.2495 37.6153 27.551 37.2963C27.6198 37.7595 28.3405 37.9647 28.6518 37.5247C28.7595 38.0032 29.5166 38.1382 29.7765 37.6623C29.8384 38.1074 30.8253 38.1074 30.8872 37.6626Z" fill="black"/>
<path d="M23.3531 32.5781C23.5904 33.1045 24.3403 32.9949 24.7894 32.8307C25.3884 33.7151 26.3848 34.4349 27.6117 34.8698L26.6372 36.4728C24.743 35.672 23.3407 34.3314 22.7227 32.7528C22.9414 32.7294 23.1545 32.6703 23.3531 32.5781Z" fill="white"/>
<path d="M26.4926 36.8891C24.4012 36.0321 22.8641 34.5326 22.2274 32.7352C22.3325 32.7575 22.4415 32.766 22.5505 32.7641C23.1741 34.3992 24.614 35.7887 26.5616 36.6137C26.5224 36.701 26.4991 36.7942 26.4926 36.8891ZM27.5868 36.9371C27.5866 36.9381 27.5862 36.939 27.5858 36.94C27.2759 37.6801 26.3564 37.2519 26.7724 36.553L27.7633 34.9234C27.9449 34.9831 28.1312 35.0365 28.3217 35.0841C28.3256 35.1092 27.5976 36.9034 27.5868 36.9371ZM28.6346 37.1674C28.4428 37.9079 27.523 37.6821 27.7394 36.9889L28.5269 35.1318C28.7142 35.1731 28.905 35.208 29.0991 35.2363C29.1011 35.2433 28.6346 37.1674 28.6346 37.1674ZM29.7145 37.2843C29.6461 38.0811 28.6382 37.9429 28.8189 37.1493C28.8189 37.15 29.269 35.2639 29.2706 35.2598C29.4598 35.283 29.6516 35.3008 29.8464 35.3116C29.8533 35.3287 29.7151 37.2684 29.7145 37.2843ZM29.8899 37.2723C29.8899 37.2726 29.9973 35.3436 29.9989 35.3389C30.1875 35.3465 30.466 35.3519 30.6601 35.3328C30.6693 35.3494 30.7944 37.2522 30.7963 37.2678C30.8572 38.0477 29.8418 38.0636 29.8899 37.2723ZM7.99403 25.1755C8.08437 25.1085 8.27881 25.112 8.52463 25.0986C9.77537 25.0986 12.6808 25.1771 13.2457 25.1771C13.8107 25.1771 17.8055 25.6079 18.4307 25.8039C18.7132 25.8823 18.7737 26.1562 18.4307 26.1759C18.0876 26.1956 13.8232 26.2547 13.2179 26.2547C12.7485 26.2547 10.307 26.2467 8.89583 25.9751C8.13249 25.828 7.72267 25.3763 7.99403 25.1755ZM9.36784 26.6257C10.0942 26.6454 13.7256 26.6651 14.1495 26.6454C14.5731 26.6257 17.8618 26.4497 18.2451 26.43C19.0742 26.3878 19.3426 26.7461 18.467 26.9392C18.0232 27.0374 13.9276 27.4875 10.8205 27.4288C10.2353 27.4485 9.44869 27.1546 9.24673 26.8805C9.04509 26.6063 9.26702 26.6257 9.36784 26.6257ZM10.7803 27.9183C11.2847 27.9183 17.2363 27.4875 18.4873 27.2331C19.5754 27.0723 19.3299 27.6149 18.8906 27.7029C18.5214 27.777 14.1089 28.6035 11.8696 28.6426C11.123 28.6232 10.2556 27.9377 10.7803 27.9183ZM12.2932 29.1322C12.9996 29.0537 17.7004 28.3294 18.9714 27.9965C20.121 27.7074 19.889 28.4488 19.4759 28.5645C19.1079 28.6674 15.1017 29.6137 14.1898 29.6611C13.8031 29.6808 13.4154 29.6554 13.0349 29.5855C11.7466 29.3355 12.2932 29.1322 12.2932 29.1322ZM14.1898 30.1503C14.6942 30.0525 18.7898 29.1515 19.96 28.7211C20.5302 28.5283 20.7017 29.0718 20.3433 29.23C20.1214 29.3278 16.9741 30.6004 15.4811 30.6789C14.9364 30.6789 13.9289 30.3943 14.1898 30.1503ZM20.8677 29.3278C20.4038 29.5432 17.5793 30.6986 16.4896 30.9337C16.3384 30.9728 16.1786 31.0376 16.1914 31.1192C16.2883 31.7444 18.2935 31.2126 18.4327 31.1694C19.2038 30.9296 20.776 30.3695 21.4428 29.7389C21.2814 29.6608 20.9083 29.4063 20.8677 29.3278ZM21.7151 29.9937C21.4127 30.1894 19.4353 31.1885 18.5276 31.4623C18.0533 31.6157 18.5525 32.0891 19.4788 31.8327C20.5027 31.6786 21.9976 30.5029 22.2399 30.2875C22.1187 30.2288 21.8565 30.0722 21.7151 29.9937ZM22.6435 30.5226C22.2778 30.7653 21.5741 31.219 21.1273 31.5084C20.943 31.6278 20.503 31.8638 20.5125 32.0525C20.5171 32.1428 20.6939 32.314 21.5014 32.0293C22.0035 31.8298 22.6114 31.4242 23.1276 30.6989C23.0268 30.6691 22.7642 30.5811 22.6435 30.5226ZM23.5511 30.8161C23.3619 30.9998 23.1174 31.2507 22.8782 31.482C22.6579 31.7577 22.1669 31.9563 22.3358 32.2749C22.5187 32.6199 23.0948 32.1234 23.3024 31.9334C23.5957 31.6643 23.8788 31.3089 23.9852 30.9531C23.8438 30.914 23.6824 30.8749 23.5511 30.8161Z" fill="white"/>
<path d="M16.5331 25.0201C17.0578 25.0201 18.8329 25.1376 19.4787 25.1376C21.3341 25.1376 23.8447 24.8199 25.5704 25.164C26.6431 25.3778 26.7969 25.6792 26.7969 26.0033C26.7969 26.4248 26.4339 26.678 26.1766 26.861C25.8742 27.0764 24.9459 27.605 24.9056 28.9757C24.6637 28.8779 24.3206 28.8191 24.5629 28.3296C24.9855 27.509 25.9357 26.5096 24.3105 26.0839C24.0542 26.0169 23.7383 25.9731 23.3524 25.9604C22.1622 25.9213 20.4362 25.9127 19.8509 25.8149C19.266 25.717 17.0575 25.2164 16.5936 25.1579C16.3917 25.1373 16.3917 25.0394 16.5331 25.0201Z" fill="white"/>
<path d="M21.1952 26.2112C21.6187 26.2112 22.916 26.2026 23.351 26.2226C24.5543 26.2782 25.4135 26.8472 24.5444 27.9149C24.3742 28.1236 23.9192 28.561 23.7376 28.7177C23.5762 28.8352 23.2734 28.6392 23.5356 28.3457C23.1926 28.5413 22.769 28.5023 22.9706 28.0521C22.6678 28.2872 22.1638 28.3066 22.4662 27.6998C22.2646 27.8564 21.6996 27.8371 22.0626 27.3669C21.7602 27.4647 21.4171 27.2884 21.639 26.9949C21.2557 27.054 21.0338 26.7795 21.4374 26.5645C21.0541 26.6613 20.9533 26.2306 21.1952 26.2112ZM20.0115 26.0031C19.8482 25.993 19.1395 25.8811 19.1566 26.2519C19.1736 26.6229 19.9608 26.4828 20.1225 26.4536C20.4204 26.3999 20.6584 26.3116 20.6515 26.1918C20.6446 26.0689 20.3343 26.0228 20.0115 26.0031ZM20.0403 26.6388C19.8682 26.6515 19.2492 26.6219 19.3458 26.9612C19.3762 27.068 19.6037 27.284 20.3647 27.1045C20.6983 27.0257 20.8711 26.8523 20.8711 26.7144C20.8711 26.594 20.4227 26.6105 20.0403 26.6388ZM20.5291 27.1896C20.4066 27.2093 19.697 27.2563 19.8158 27.6036C19.8989 27.8456 20.0266 27.7691 20.243 27.7942C20.3857 27.8107 21.443 27.5216 21.2777 27.1925C21.2286 27.0947 20.9176 27.1277 20.5291 27.1896ZM20.88 27.6817C20.1762 27.959 20.1854 28.1468 20.2174 28.2481C20.2492 28.3498 20.5719 28.4753 21.2397 28.1585C21.5778 27.9981 21.5821 27.8158 21.4989 27.6868C21.3952 27.5251 21.1327 27.582 20.88 27.6817ZM21.3726 28.1481C20.64 28.3958 20.6819 28.622 20.7399 28.7548C20.8037 28.9016 21.0351 29.0579 21.6466 28.6798C22.0158 28.4518 22.2561 28.2605 22.1903 28.1087C22.1307 27.9708 21.7814 28.0067 21.3726 28.1481ZM21.6593 28.8603C21.4672 28.9734 21.3798 29.1265 21.5009 29.3009C21.7176 29.6135 22.3566 29.062 22.5169 28.8933C22.6361 28.7682 22.7124 28.6366 22.6449 28.5404C22.5752 28.4413 22.3585 28.4489 21.6593 28.8603ZM22.8161 28.9133C21.9631 29.3355 22.0449 29.5401 22.1638 29.6275C22.295 29.724 22.6043 29.8254 23.1215 29.2453C23.3484 28.9912 23.2237 28.7129 22.8161 28.9133ZM23.242 29.3562C23.062 29.5515 22.64 29.846 22.9667 30.0655C23.242 30.2504 23.4034 30.0474 23.5389 29.9216C24.3225 29.19 24.0633 28.7269 23.242 29.3562Z" fill="white"/>
<path d="M25.8175 25.5203C26.4165 25.8109 26.6643 26.1197 26.0492 26.5416C25.974 26.593 26.0669 26.7211 26.1422 26.6696C26.8191 26.2058 26.6735 25.7245 25.8898 25.3802C25.8073 25.3401 25.7353 25.4802 25.8175 25.5203Z" fill="black"/>
<path d="M34.038 32.1486C34.038 31.524 33.3751 30.8995 32.639 30.6841C32.4422 30.6409 32.4733 30.4713 32.6265 30.4042C32.7738 30.3394 33.6331 29.7581 33.621 29.0258C33.621 28.3152 32.7614 27.2383 30.2573 27.2383C28.7843 27.2383 27.5568 27.5614 26.8203 28.1646C26.9918 28.2939 27.1886 28.4877 27.1886 28.7031V32.6445C27.164 32.8815 27.0413 33.0752 26.8445 33.2906C27.5057 33.7462 28.6897 34.1807 30.3895 34.1753C32.2062 34.1321 34.038 33.6131 34.038 32.1486Z" fill="white"/>
<path d="M30.3835 30.2508C31.1648 30.2508 31.7982 29.7599 31.7982 29.1542C31.7982 28.5486 31.1648 28.0576 30.3835 28.0576C29.6021 28.0576 28.9688 28.5486 28.9688 29.1542C28.9688 29.7599 29.6021 30.2508 30.3835 30.2508Z" fill="black"/>
<path d="M30.5664 33.284C31.4423 33.284 32.1523 32.7657 32.1523 32.1264C32.1523 31.487 31.4423 30.9688 30.5664 30.9688C29.6905 30.9688 28.9805 31.487 28.9805 32.1264C28.9805 32.7657 29.6905 33.284 30.5664 33.284Z" fill="black"/>
<path d="M24.2378 30.2354C24.2931 29.9682 24.3818 29.7087 24.5003 29.4593C24.4934 29.4494 24.2836 29.1889 23.7668 29.9139C23.4813 30.3138 23.9854 30.4749 24.2378 30.2354ZM24.2211 31.4667C24.0083 31.7065 23.8077 31.9079 23.6751 32.0687C23.3982 32.4048 24.1187 32.819 24.5069 32.3412C24.3723 32.0632 24.2763 31.7691 24.2211 31.4667ZM34.1511 25.2015C34.2652 25.1387 34.3854 25.0868 34.5098 25.0465C31.9265 23.8647 28.7393 23.8647 26.1563 25.0465C26.2905 25.0916 26.411 25.143 26.5147 25.2015C28.9069 24.1903 31.7799 24.1992 34.1511 25.2015Z" fill="white"/>
<path d="M35.3386 28.3111C35.0486 27.332 34.3245 26.9337 34.0437 26.7431C33.479 26.3603 33.5098 25.7945 33.9923 25.3069C31.6869 24.3637 28.9488 24.3745 26.6705 25.3069C27.153 25.7945 27.1835 26.3603 26.6191 26.7431C26.3383 26.9337 25.6139 27.332 25.3242 28.3111C27.7867 25.8482 32.8761 25.8479 35.3386 28.3111ZM37.3121 32.5781C37.0745 33.1045 36.3245 32.9949 35.8758 32.8307C35.2768 33.7151 34.2804 34.4349 33.0532 34.8698L34.028 36.4728C35.9223 35.672 37.3242 34.3314 37.9429 32.7528C37.724 32.7294 37.5107 32.6704 37.3121 32.5781Z" fill="white"/>
<path d="M34.1708 36.8891C36.2621 36.0321 37.7996 34.5326 38.4359 32.7352C38.3298 32.757 38.2213 32.7667 38.1129 32.7641C37.4893 34.3992 36.0494 35.7887 34.1017 36.6137C34.1409 36.701 34.1643 36.7942 34.1708 36.8891ZM33.0762 36.9371L33.0775 36.94C33.3875 37.6801 34.307 37.2519 33.8909 36.553L32.9001 34.9234C32.7184 34.9831 32.5325 35.0365 32.3417 35.0841C32.3377 35.1092 33.0657 36.9034 33.0762 36.9371ZM32.0284 37.1674C32.2206 37.9079 33.14 37.6821 32.9237 36.9889C32.9237 36.9889 32.1774 35.228 32.1361 35.1318C31.9492 35.1731 31.7584 35.208 31.5643 35.2363C31.5623 35.2433 32.0284 37.1674 32.0284 37.1674ZM30.9489 37.2843C31.0173 38.0811 32.0248 37.9429 31.8441 37.1493C31.8445 37.15 31.3944 35.2639 31.3924 35.2598C31.2032 35.283 31.0111 35.3008 30.8166 35.3116C30.8101 35.3287 30.9482 37.2684 30.9489 37.2843ZM52.6693 25.1755C52.579 25.1085 52.3846 25.112 52.1387 25.0986C50.888 25.0986 47.9826 25.1771 47.4176 25.1771C46.8526 25.1771 42.8579 25.6079 42.2327 25.8039C41.9502 25.8823 41.8896 26.1562 42.2327 26.1759C42.5757 26.1956 46.8399 26.2547 47.4451 26.2547C47.9148 26.2547 50.3564 26.2467 51.7672 25.9751C52.5312 25.828 52.941 25.3763 52.6693 25.1755ZM51.2952 26.6257C50.5688 26.6454 46.9377 26.6651 46.5138 26.6454C46.0903 26.6257 42.8016 26.4497 42.4183 26.43C41.5891 26.3878 41.3204 26.7461 42.1963 26.9392C42.6399 27.0374 46.7358 27.4875 49.8425 27.4288C50.4274 27.4485 51.2143 27.1546 51.4163 26.8805C51.6183 26.6063 51.3963 26.6257 51.2952 26.6257ZM49.8831 27.9183C49.3787 27.9183 43.4271 27.4875 42.176 27.2331C41.088 27.0723 41.3335 27.6149 41.7728 27.7029C42.142 27.777 46.5541 28.6035 48.7937 28.6426C49.54 28.6232 50.4075 27.9377 49.8831 27.9183ZM48.3701 29.1322C47.6641 29.0537 42.9629 28.3294 41.6922 27.9965C40.5427 27.7074 40.7744 28.4488 41.1878 28.5645C41.5554 28.6674 45.5616 29.6137 46.4736 29.6611C46.8603 29.6808 47.248 29.6554 47.6284 29.5855C48.9168 29.3355 48.3701 29.1322 48.3701 29.1322ZM46.4736 30.1503C45.9692 30.0525 41.8736 29.1515 40.7034 28.7211C40.1335 28.5283 39.9616 29.0718 40.3201 29.23C40.542 29.3278 43.6893 30.6004 45.1823 30.6789C45.7269 30.6789 46.7345 30.3943 46.4736 30.1503ZM39.7954 29.3278C40.2592 29.5432 43.0841 30.6986 44.1734 30.9337C44.3246 30.9728 44.4844 31.0376 44.4716 31.1192C44.3747 31.7444 42.3695 31.2126 42.2304 31.1694C41.4595 30.9296 39.887 30.3695 39.2202 29.7389C39.3819 29.6608 39.7551 29.4063 39.7954 29.3278ZM38.9479 29.9937C39.2503 30.1894 41.2278 31.1885 42.1355 31.4623C42.6098 31.6157 42.1106 32.0891 41.1842 31.8327C40.1603 31.6786 38.6654 30.5029 38.4232 30.2875C38.5446 30.2288 38.8068 30.0722 38.9479 29.9937ZM38.0202 30.5226C38.3855 30.7653 39.0896 31.219 39.5364 31.5084C39.7207 31.6278 40.1607 31.8638 40.1512 32.0525C40.1466 32.1428 39.9698 32.314 39.1623 32.0293C38.6602 31.8298 38.0523 31.4242 37.5361 30.6989C37.6366 30.6691 37.8988 30.5811 38.0202 30.5226ZM37.1119 30.8161C37.3011 30.9998 37.5459 31.2507 37.7852 31.482C38.0058 31.7577 38.4968 31.9563 38.3276 32.2749C38.1446 32.6199 37.5685 32.1234 37.3613 31.9334C37.068 31.6643 36.7846 31.3089 36.6782 30.9531C36.8196 30.914 36.981 30.8749 37.1119 30.8161Z" fill="white"/>
<path d="M44.131 25.0201C43.6063 25.0201 41.8312 25.1376 41.1854 25.1376C39.3297 25.1376 36.8191 24.8199 35.0937 25.164C34.021 25.3778 33.8672 25.6792 33.8672 26.0033C33.8672 26.4248 34.2299 26.678 34.4872 26.861C34.7899 27.0764 35.7183 27.605 35.7585 28.9757C36.0004 28.8779 36.3435 28.8191 36.1016 28.3296C35.6786 27.509 34.7287 26.5096 36.3539 26.0839C36.6102 26.0169 36.9261 25.9731 37.3124 25.9604C38.5025 25.9213 40.2286 25.9127 40.8135 25.8149C41.3984 25.717 43.607 25.2164 44.0708 25.1579C44.2724 25.1373 44.2724 25.0394 44.131 25.0201Z" fill="white"/>
<path d="M39.4688 26.2112C39.0453 26.2112 37.7481 26.2026 37.313 26.2226C36.1098 26.2782 35.2505 26.8472 36.1196 27.9149C36.2898 28.1236 36.7448 28.561 36.9265 28.7177C37.0878 28.8352 37.3906 28.6392 37.1281 28.3457C37.4715 28.5413 37.895 28.5023 37.6934 28.0521C37.9959 28.2872 38.5003 28.3066 38.1978 27.6998C38.3995 27.8564 38.9644 27.8371 38.6011 27.3669C38.9039 27.4647 39.2469 27.2884 39.0247 26.9949C39.4083 27.054 39.6302 26.7795 39.2263 26.5645C39.6103 26.6613 39.7111 26.2306 39.4688 26.2112ZM40.6528 26.0031C40.8161 25.993 41.5248 25.8811 41.5078 26.2519C41.4908 26.6229 40.7035 26.4828 40.5418 26.4536C40.244 26.3999 40.006 26.3116 40.0129 26.1918C40.0197 26.0689 40.3301 26.0228 40.6528 26.0031ZM40.6243 26.6388C40.7962 26.6515 41.4155 26.6219 41.3186 26.9612C41.2882 27.068 41.061 27.284 40.2999 27.1045C39.9661 27.0257 39.7936 26.8523 39.7936 26.7144C39.7936 26.594 40.2417 26.6105 40.6243 26.6388ZM40.135 27.1896C40.2574 27.2093 40.967 27.2563 40.8482 27.6036C40.7651 27.8456 40.6374 27.7691 40.4211 27.7942C40.2783 27.8107 39.2211 27.5216 39.3864 27.1925C39.4358 27.0947 39.7468 27.1277 40.135 27.1896ZM39.7844 27.6817C40.4878 27.959 40.4787 28.1468 40.4469 28.2481C40.4148 28.3498 40.0924 28.4753 39.4247 28.1585C39.0865 27.9981 39.0819 27.8158 39.1651 27.6868C39.2692 27.5251 39.5317 27.582 39.7844 27.6817ZM39.2914 28.1481C40.024 28.3958 39.9821 28.622 39.9242 28.7548C39.8603 28.9016 39.6289 29.0579 39.0171 28.6798C38.6479 28.4518 38.4076 28.2605 38.4738 28.1087C38.5337 27.9708 38.8826 28.0067 39.2914 28.1481ZM39.0047 28.8603C39.1968 28.9734 39.2842 29.1265 39.1631 29.3009C38.9467 29.6135 38.3075 29.062 38.1471 28.8933C38.0283 28.7682 37.9517 28.6366 38.0191 28.5404C38.0888 28.4413 38.3058 28.4489 39.0047 28.8603ZM37.8482 28.9133C38.7013 29.3355 38.6194 29.5401 38.5006 29.6275C38.3693 29.724 38.06 29.8254 37.5428 29.2453C37.316 28.9912 37.4407 28.7129 37.8482 28.9133ZM37.422 29.3562C37.6021 29.5515 38.024 29.846 37.6977 30.0655C37.422 30.2504 37.2607 30.0474 37.1255 29.9216C36.3418 29.19 36.6011 28.7269 37.422 29.3562Z" fill="white"/>
<path d="M34.8459 25.5203C34.2469 25.8109 33.9991 26.1197 34.6145 26.5416C34.6895 26.593 34.5965 26.7211 34.5212 26.6696C33.8446 26.2058 33.9903 25.7245 34.7739 25.3802C34.8561 25.3401 34.9281 25.4802 34.8459 25.5203Z" fill="black"/>
<path d="M36.4292 30.2358C36.3736 29.9687 36.2852 29.7091 36.1664 29.4597C36.1732 29.4499 36.3831 29.1894 36.8999 29.9143C37.1857 30.3143 36.6816 30.4753 36.4292 30.2358ZM36.4456 31.4671C36.6584 31.707 36.8593 31.9084 36.9919 32.0691C37.2688 32.4052 36.5484 32.8195 36.1602 32.3417C36.2947 32.0618 36.3916 31.7689 36.4456 31.4671Z" fill="white"/>
</g>
<defs>
<clipPath id="clip0_4940_102721">
<rect width="46" height="14" fill="white" transform="translate(7.33203 24)"/>
</clipPath>
</defs>
</svg>
