<svg width="60" height="60" viewBox="0 0 60 60" fill="none" xmlns="http://www.w3.org/2000/svg">
<path d="M20.5639 28.9504H21.1269L20.8313 28.1964L20.5639 28.9504ZM19.9727 29.6807L20.8078 27.6938H21.0331L21.8682 29.6807H21.4413L21.2583 29.1781H20.5122L20.3105 29.6807H19.9727ZM21.9386 29.5906L21.9152 29.2255C22.0935 29.3867 22.2999 29.4768 22.5017 29.4768C22.6143 29.4768 22.7034 29.4531 22.7738 29.4104C22.8723 29.3346 22.8911 29.1875 22.8113 29.088C22.8066 29.0832 22.802 29.0737 22.7926 29.069C22.7269 28.9789 22.5908 28.9315 22.2952 28.794C22.0231 28.6564 21.887 28.4762 21.887 28.2249C21.887 28.0637 21.9527 27.9261 22.07 27.8123C22.3187 27.5847 22.7457 27.6748 22.7926 27.6748C22.8817 27.6985 22.9521 27.7222 23.0178 27.7412L23.0413 28.0826C22.9662 28.0257 22.8817 27.9783 22.7926 27.9451C22.5204 27.855 22.2295 27.9214 22.2295 28.149C22.2295 28.2628 22.2952 28.334 22.4547 28.4241C22.7926 28.609 22.9756 28.6754 23.0882 28.8366C23.2477 29.0168 23.2477 29.4057 22.999 29.5906C22.863 29.6807 22.7034 29.7519 22.4782 29.7519C22.2342 29.7234 22.0278 29.6333 21.9386 29.5906ZM23.8107 29.6807V27.9214C23.6512 27.9214 23.4729 27.9451 23.2242 27.9688L23.2477 27.6701H24.7585L24.782 27.9688C24.4676 27.9214 24.2846 27.9214 24.1955 27.9214V29.657H23.8107V29.6807ZM25.7767 29.4721C26.0911 29.4721 26.3632 29.2207 26.3632 28.6754C26.3632 28.628 26.3632 28.1964 26.0911 27.9688C26.0019 27.9024 25.9081 27.8787 25.7767 27.8787C25.3685 27.8787 25.1902 28.2676 25.1902 28.6754C25.2137 29.2255 25.4858 29.4721 25.7767 29.4721ZM25.7767 29.7234C25.1902 29.7234 24.782 29.2919 24.782 28.6944C24.782 28.0779 25.1902 27.6653 25.7767 27.6653C26.3632 27.6653 26.7714 28.0779 26.7714 28.6944C26.7714 29.2919 26.3632 29.7234 25.7767 29.7234ZM27.0858 29.6807V27.6938H27.2875L28.4606 29.0405V27.6938H28.7327V29.6807H28.5309L27.3579 28.334V29.6807H27.0858ZM29.7978 29.6807L30.023 27.6938H30.2248L30.9239 29.088L31.5995 27.6938H31.8013L32.0265 29.6807H31.6183L31.5057 28.4478L30.9661 29.5906H30.7831L30.2201 28.4478L30.1075 29.657H29.7931L29.7978 29.6807ZM32.7538 28.9504H33.3168L33.0212 28.1964L32.7538 28.9504ZM32.1673 29.6807L33.0025 27.6938H33.2277L34.0629 29.6807H33.6359L33.4576 29.1781H32.7115L32.5098 29.6807H32.1673ZM34.5837 28.5853C34.6306 28.5853 34.6963 28.609 34.7432 28.609C35.0576 28.609 35.1514 28.4241 35.1514 28.2676C35.1514 28.0162 34.9731 27.9261 34.7432 27.9261H34.6071V28.59L34.5837 28.5853ZM34.2224 29.7044V27.7175C34.335 27.6938 34.4711 27.6938 34.6728 27.6938C34.8558 27.6938 35.0106 27.7175 35.1233 27.7602C35.3016 27.8266 35.5315 27.9641 35.5315 28.2628C35.5315 28.3766 35.4845 28.4905 35.4189 28.6043C35.3532 28.6944 35.2406 28.7655 35.1045 28.8082L35.8036 29.6997H35.3532L34.7432 28.8556H34.6071V29.6997H34.2224V29.7044ZM36.254 29.6807V27.9214C36.0945 27.9214 35.9162 27.9451 35.6675 27.9688L35.691 27.6701H37.2018L37.2253 27.9688C36.9109 27.9214 36.7279 27.9214 36.6388 27.9214V29.657H36.254V29.6807ZM37.474 27.6938H37.8587V29.6807H37.474V27.6938ZM38.2388 29.6807V27.6938H38.4405L39.6135 29.0405V27.6938H39.8857V29.6807H39.6839L38.5109 28.334V29.6807H38.2388Z" fill="black"/>
<path d="M53.9102 25.3651C53.7742 25.1375 53.5255 25 53.2346 25H33.8846C33.5702 25 33.0729 25 32.5521 25.5264C32.416 25.6686 32.2987 25.8299 32.2142 26.0053C32.0547 26.3041 31.9421 26.508 31.4025 26.508H28.5826C28.0618 26.508 27.9257 26.3041 27.7709 26.0053C27.6817 25.8441 27.5879 25.6876 27.433 25.5264C26.9122 25 26.4149 25 26.1005 25H6.76461C6.45024 25 6.20156 25.1375 6.08896 25.3651C5.95289 25.5928 5.97635 25.8915 6.13588 26.1428L6.4737 26.7356C6.652 27.0533 6.90068 27.1008 7.08367 27.1482C7.2432 27.1719 7.35581 27.1956 7.46842 27.4232L7.78278 27.9686C8.03146 28.4238 8.3036 28.4712 8.50536 28.5139C8.66488 28.5376 8.81972 28.5613 9.02617 28.9265C9.22793 29.2916 9.52353 29.837 10.2696 30.0693C10.3353 30.093 17.4718 32.1938 17.4953 32.1938C18.2413 32.4451 18.4431 32.7202 18.6683 33.0616C18.8044 33.2655 19.1891 33.8156 20.09 34.0669L26.9545 35.94C27.7005 36.144 28.1509 35.7788 28.3761 35.5749L29.6195 34.3894C29.8025 34.2281 29.8917 34.1618 30.0043 34.1618C30.1169 34.1618 30.206 34.2281 30.389 34.3894L31.6324 35.5749C31.8576 35.7598 32.3081 36.1202 33.0541 35.94L39.9186 34.0669C40.8429 33.8156 41.2042 33.2702 41.3402 33.0616C41.5655 32.7202 41.7672 32.4214 42.5133 32.1938C42.5133 32.1938 49.6498 30.093 49.739 30.0693C50.4616 29.8417 50.7759 29.2916 50.9824 28.9265C51.1841 28.5613 51.3202 28.5376 51.4797 28.5139C51.6815 28.4665 51.9771 28.4238 52.2258 27.9686L52.5401 27.4232C52.6762 27.1956 52.7654 27.1719 52.9249 27.1482C53.1032 27.1008 53.3519 27.0581 53.5349 26.7356L53.8727 26.1428C54.0228 25.8678 54.0463 25.5928 53.9102 25.3651ZM40.7021 26.9632V30.387H19.297V26.9632H40.7021ZM33.026 35.4279C32.5051 35.4279 32.3268 34.9727 32.1908 34.6075C32.0312 34.1949 31.1961 31.5062 30.9474 30.7759H32.0078C32.5708 31.7575 33.6125 33.4931 34.0629 34.2234C34.152 34.3609 34.3773 34.7498 34.7855 35.0011C33.162 35.4279 33.2043 35.4279 33.026 35.4279ZM35.5315 34.745C34.945 34.745 34.6306 34.2898 34.4476 33.991C34.0629 33.3746 33.1855 31.8903 32.5286 30.7711H33.7016C34.4476 31.5678 36.0054 33.237 36.6154 33.8725C36.7045 33.9626 36.911 34.1712 37.2019 34.3514C35.7567 34.7213 35.7567 34.745 35.5315 34.745ZM37.9244 34.0859C37.474 34.0859 37.1362 33.7682 36.9063 33.5405C36.3667 32.9952 35.0764 31.6247 34.2881 30.7569H35.5737C36.3855 31.3734 38.2623 32.7628 39.0036 33.2655C39.2288 33.4125 39.4728 33.5358 39.7262 33.6306C38.0605 34.0859 38.1074 34.0859 37.9244 34.0859ZM40.9508 32.8055C40.7491 33.1232 40.5895 33.2845 40.2282 33.2845C39.8904 33.2845 39.5526 33.1232 39.257 32.9193C38.647 32.4878 37.2253 31.4588 36.3198 30.7759H37.8588C39.7309 31.7101 40.5238 32.1464 41.0447 32.3028L41.3168 32.3692C41.1526 32.4878 41.0634 32.6443 40.9508 32.8055ZM41.5139 31.914C41.0869 31.914 40.5191 31.6152 38.8065 30.7522H40.4769L42.8229 31.3449C42.9825 31.3924 43.1373 31.4113 43.2734 31.4588C41.9455 31.8713 41.7391 31.914 41.5139 31.914ZM46.0745 30.6384C44.6951 31.0509 44.4698 31.141 44.0898 31.141C43.8176 31.141 43.4798 31.0936 42.9168 30.9371L41.0634 30.4582V29.7943L46.0745 30.6384ZM47.5197 30.2258C47.0692 30.3396 46.661 30.2922 46.0276 30.1784L41.1056 29.358V28.8316L49.1666 29.7421L47.5197 30.2258ZM50.546 28.6988C50.4803 28.8127 50.41 28.9265 50.3443 29.0166C50.0721 29.4054 49.8938 29.3817 49.0352 29.2916L41.0634 28.3811V27.8785L50.2551 28.4238C50.3208 28.4238 50.5038 28.4475 50.7056 28.4475C50.6586 28.5139 50.593 28.6087 50.546 28.6988ZM52.1038 27.1671C52.1038 27.1671 51.9208 27.4659 51.8551 27.6224C51.583 28.0539 51.4469 28.0539 50.6821 27.9875L41.0869 27.4185V27.0059H52.2164C52.1742 27.077 52.1507 27.1245 52.1038 27.1671ZM53.4832 25.8915L53.2346 26.323C53.0516 26.5981 52.9859 26.5981 52.3994 26.5981H32.416C32.6177 26.3468 32.6881 26.0954 32.9133 25.8678C33.2981 25.479 33.6125 25.479 33.9081 25.479H53.258C53.3941 25.479 53.4832 25.5264 53.5302 25.5928C53.5489 25.6639 53.5489 25.7777 53.4832 25.8915ZM27.9679 35.3141C28.0571 35.2003 28.1275 35.039 28.2401 34.7687C28.3996 34.3562 29.277 31.5489 29.5257 30.7759H30.4969C30.7456 31.5726 31.6277 34.3609 31.7826 34.7687C31.8717 35.0438 31.9609 35.2003 32.0547 35.3141C32.0312 35.2904 31.989 35.2667 31.9656 35.2477L30.7222 34.0622C30.5204 33.882 30.314 33.697 30.0231 33.697C29.7275 33.697 29.5022 33.8772 29.3239 34.0622L28.0805 35.2477C28.0336 35.2714 27.9914 35.2951 27.9679 35.3141ZM25.2137 34.9727C25.6219 34.7213 25.8706 34.3325 25.9363 34.1949C26.3867 33.4884 27.4284 31.7291 27.9914 30.7474H29.0518C28.8266 31.4777 27.9679 34.1712 27.8084 34.5791C27.6723 34.9442 27.494 35.3994 26.9732 35.3994C26.7949 35.4279 26.8372 35.4279 25.2137 34.9727ZM22.8208 34.3325C23.1164 34.1712 23.3181 33.9673 23.4073 33.8535C24.0172 33.237 25.5985 31.5489 26.321 30.7522H27.494C26.8372 31.8713 25.9597 33.3556 25.575 33.9721C25.392 34.2708 25.0776 34.7261 24.4911 34.7261C24.2659 34.745 24.2425 34.7213 22.8208 34.3325ZM20.2918 33.6259C20.6061 33.5358 20.8783 33.3509 21.0143 33.2608C21.7604 32.7581 23.6325 31.3687 24.4442 30.7522H25.7298C24.9416 31.62 23.6513 32.9905 23.1117 33.5358C22.8865 33.7634 22.5721 34.0811 22.0935 34.0811C21.9152 34.0859 21.9387 34.0859 20.2918 33.6259ZM18.7105 32.3503C18.7997 32.3266 18.8935 32.3266 18.9827 32.2839C19.5223 32.1226 20.3152 31.7148 22.1686 30.7569H23.7029C22.7785 31.4398 21.3756 32.4688 20.7657 32.9004C20.4935 33.1043 20.1322 33.2655 19.7944 33.2655C19.4331 33.2655 19.2736 33.1043 19.0718 32.7865C18.9592 32.6443 18.8466 32.4878 18.7105 32.3503ZM16.7446 31.4825C16.8806 31.4588 17.0402 31.4161 17.195 31.3687L19.541 30.7759H21.2114C19.4941 31.6437 18.9311 31.9377 18.5041 31.9377C18.2601 31.914 18.0537 31.8713 16.7446 31.4825ZM18.9358 29.7943V30.4582L17.0824 30.9371C16.5194 31.0746 16.1815 31.141 15.9094 31.141C15.5246 31.141 15.2994 31.0509 13.9247 30.6384L18.9358 29.7943ZM10.8748 29.7468L18.9358 28.8364V29.3627L14.0138 30.1831C13.3569 30.2969 12.9534 30.3444 12.5217 30.2305C12.5217 30.2258 10.8748 29.7468 10.8748 29.7468ZM9.29362 28.4475C9.47661 28.4238 9.67837 28.4238 9.74405 28.4238L18.9358 27.8785V28.3811L10.964 29.2916C10.1053 29.3817 9.92704 29.4054 9.6549 29.0166C9.58922 28.9265 9.51884 28.8127 9.45315 28.6988C9.40623 28.6087 9.364 28.5139 9.29362 28.4475ZM7.80624 27.0344H18.9358V27.4469L9.34054 28.016C8.57104 28.0634 8.43967 28.0824 8.16753 27.6508C8.08307 27.4991 7.99862 27.3473 7.91885 27.1956C7.87193 27.1245 7.82501 27.077 7.80624 27.0344ZM6.49716 25.5928C6.54408 25.5264 6.63323 25.479 6.7693 25.479H26.1193C26.4149 25.479 26.7527 25.479 27.114 25.8678C27.3392 26.0954 27.4096 26.3468 27.6113 26.5981H7.62325C7.03675 26.5981 6.96637 26.5981 6.78807 26.323L6.53939 25.8915C6.4737 25.7777 6.45024 25.6639 6.49716 25.5928Z" fill="black"/>
</svg>
