<svg width="61" height="60" viewBox="0 0 61 60" fill="none" xmlns="http://www.w3.org/2000/svg">
<g clip-path="url(#clip0_4940_106676)">
<path d="M22.304 48.8888H23.1657V45.755H25.356V45.0254H20.1133V45.755H22.304V48.8888Z" fill="black"/>
<path d="M19.1278 45.0254H18.2656V48.8888H19.1278V45.0254Z" fill="black"/>
<path d="M48.6811 45.0439H45.5273V48.9014H46.3895V45.7731H48.478C49.2915 45.7731 49.8005 46.0724 49.8005 46.9812V48.901H50.6627V46.8735C50.6623 45.845 50.0697 45.0439 48.6811 45.0439Z" fill="black"/>
<path d="M42.4417 44.5652H43.7102C43.8542 44.5652 43.9794 44.4396 43.9794 44.2897C43.9794 44.1344 43.8538 44.0088 43.7102 44.0088H42.4417C42.2863 44.0088 42.1602 44.1344 42.1602 44.2897C42.1602 44.4396 42.2863 44.5652 42.4417 44.5652Z" fill="black"/>
<path d="M30.0602 47.3748C31.2535 47.3469 31.6456 47.0288 31.6456 46.2163C31.6456 45.4802 31.1191 45.0439 30.2276 45.0439H26.3438V48.9014H27.2055V45.7731H30.2336C30.5748 45.7731 30.7545 45.9275 30.7545 46.2337C30.7545 46.5027 30.6692 46.7635 30.1139 46.7465H27.936V46.9692L30.5931 48.889H31.8437L29.6346 47.3744H30.0602V47.3748Z" fill="black"/>
<path d="M36.3792 44.9618C36.1169 44.9513 35.8491 44.9453 35.5827 44.9453C35.1291 44.9453 34.8351 44.9618 34.8324 44.9618H34.8177C34.1908 44.982 33.6566 45.191 33.2732 45.5658C32.9054 45.9256 32.7031 46.4238 32.7031 46.9701V46.9756C32.7031 48.1474 33.5552 48.9545 34.8237 48.9838C35.0865 48.9953 35.3543 49.0003 35.6207 49.0003C36.0738 49.0003 36.3682 48.9843 36.371 48.9838H36.3852C37.0121 48.9636 37.5464 48.7547 37.9302 48.3798C38.298 48.0209 38.5002 47.5218 38.5002 46.9756V46.9701C38.5002 45.8216 37.6477 45.0145 36.3792 44.9618ZM37.5812 46.9627C37.5785 47.7065 37.0942 48.1891 36.3173 48.2217H36.2999L36.2834 48.2226C36.2362 48.2262 36.0536 48.2391 35.6597 48.2391C35.3965 48.2391 35.1438 48.2336 34.9094 48.2221L34.8957 48.2217C34.1101 48.2015 33.6222 47.7189 33.6222 46.9623C33.6222 46.2139 34.1064 45.729 34.886 45.6965H34.9035L34.9195 45.696C34.9223 45.6955 35.2465 45.6795 35.6909 45.6795C35.9408 45.6795 36.0477 45.6845 36.2605 45.6946L36.2939 45.696C37.1002 45.7336 37.5812 46.2042 37.5812 46.9563V46.9627Z" fill="black"/>
<path d="M44.3249 48.1714H40.4828V47.3043H43.8521V46.6054H40.4828V45.7731H44.3249V45.0439H39.6211V48.9014H44.3249V48.1714Z" fill="black"/>
<path d="M40.2386 44.5652H41.5011C41.6511 44.5652 41.7767 44.4396 41.7767 44.2897C41.7767 44.1344 41.6511 44.0088 41.5011 44.0088H40.2386C40.0831 44.0088 39.957 44.1344 39.957 44.2897C39.957 44.4396 40.0827 44.5652 40.2386 44.5652Z" fill="black"/>
<path d="M13.7511 45.0561H13.7378C13.1233 45.0753 12.5991 45.2733 12.2226 45.6289C11.8622 45.9704 11.6641 46.4433 11.6641 46.9617V46.9672C11.6641 48.079 12.4996 48.8448 13.7429 48.8732C14.0928 48.8879 15.148 48.8893 15.586 48.8893C16.1519 48.8893 16.6921 48.887 16.8522 48.8838V48.1459C16.6114 48.1487 14.7789 48.1514 14.5629 48.1514C14.3074 48.1514 14.0511 48.1464 13.8204 48.1358C13.0582 48.1175 12.5647 47.6587 12.5647 46.9672C12.5647 46.2751 13.0513 45.8095 13.8043 45.7806H13.8213L13.8374 45.7797C13.8401 45.7797 14.1561 45.7646 14.5931 45.7646C14.7151 45.7646 16.5972 45.7669 16.8526 45.771V45.046C16.6829 45.0423 16.4183 45.04 16.0652 45.04C15.0967 45.04 13.7644 45.0556 13.7511 45.0561Z" fill="black"/>
<path d="M31.1659 11C24.7722 11 19.5703 17.4514 19.5703 25.3808C19.5703 33.3103 24.7722 39.7621 31.1659 39.7621C37.5597 39.7621 42.762 33.3107 42.762 25.3808C42.762 17.451 37.5602 11 31.1659 11ZM21.7074 30.3584L21.6964 30.3249C21.3121 29.1375 21.1979 28.0972 21.197 28.0866L21.1956 28.072L21.2075 28.0632L31.1659 20.7039L41.1368 28.072L41.1354 28.0866C41.134 28.0972 41.0203 29.1375 40.636 30.3249L40.625 30.3584L40.5965 30.3373L40.5961 30.3387L31.1655 23.3492L21.7078 30.3598L21.7074 30.3584ZM31.1659 38.4047C27.8448 38.4047 24.7355 36.3492 22.8112 32.8955L22.7883 32.8511L31.1655 26.6604L39.544 32.852L39.522 32.8918L39.5225 32.8923C37.5987 36.3478 34.4894 38.4047 31.1659 38.4047ZM31.1659 17.3373L20.9374 24.9189L20.9388 24.8666C21.0419 21.5032 22.1522 18.3579 24.0641 16.0105C25.9833 13.6549 28.5052 12.3575 31.1659 12.3575C33.8267 12.3575 36.3485 13.6549 38.2678 16.0105C40.1801 18.3579 41.2899 21.5032 41.3931 24.8666L41.3945 24.9189L41.3523 24.8877L31.1659 17.3373Z" fill="black"/>
</g>
<defs>
<clipPath id="clip0_4940_106676">
<rect width="39" height="38" fill="white" transform="translate(11.6641 11)"/>
</clipPath>
</defs>
</svg>
