<svg width="61" height="60" viewBox="0 0 61 60" fill="none" xmlns="http://www.w3.org/2000/svg">
<g clip-path="url(#clip0_4940_79206)">
<path d="M17.3826 29.406H13.4341L13.1289 27.5635H30.0829V29.406H29.625V27.9955H17.2392L17.3826 29.406ZM13.0602 27.1431H30.0783V25.7925H12.8396L13.0602 27.1431ZM23.7045 31.6743H30.0806V30.7068H23.7068L23.7045 31.6743ZM12.6733 25.3628H16.7065L15.9433 24.0114H29.6257V25.3573H30.0836V23.5444H11.424L12.6733 25.3628ZM37.0175 23.5444H30.585V26.2587H37.0206L37.0175 23.5444ZM14.3522 34.011C14.4567 34.1726 14.6506 34.3607 15.2939 34.5386C15.6053 34.6163 15.9517 34.694 16.431 34.8028H23.2588V33.8447H14.2637C14.2875 33.9028 14.3166 33.9584 14.3507 34.011H14.3522ZM13.9622 32.547H23.2588V29.8404H13.5051L13.9622 32.547ZM23.7045 36.3438C26.0855 36.8209 28.4131 37.2615 30.0844 37.5281V32.986H23.7045V36.3438ZM37.4586 29.406H47.233L47.6794 26.6908H37.4586V29.406ZM37.4586 24.4077V25.3713L47.9717 25.3674L48.6311 24.4077H37.4586ZM53.332 21.4004L50.2352 25.8523C49.8956 27.743 49.0081 32.613 48.9073 33.087C48.6158 34.45 48.4762 35.2792 45.8486 35.9156C42.3504 36.7603 34.3488 38.4023 30.3294 39.0434C26.3114 38.4031 18.3137 36.7603 14.8154 35.9156C12.1879 35.2792 12.0483 34.45 11.7567 33.087C11.656 32.6161 10.7685 27.743 10.4289 25.8523L7.33203 21.4004H53.332ZM50.89 22.2373H9.77714L12.2192 25.7878C12.8297 29.4806 13.2075 31.8546 13.3639 32.6822C13.6356 34.1221 13.6837 34.743 15.1443 35.144C18.0489 35.8434 26.4663 37.6058 30.3347 38.2003C34.2031 37.6058 42.6213 35.8457 45.5274 35.144C46.988 34.743 47.0361 34.1221 47.3078 32.6822C47.4604 31.8546 47.842 29.4806 48.4525 25.7878L50.89 22.2373ZM30.585 31.6743H31.0429V30.3074H43.2059C43.1899 30.4403 43.0761 31.3565 43.0174 31.6782H46.8583L47.1635 29.8404H30.585V31.6743ZM30.585 33.4445H46.5347L46.7927 32.0993H30.585V33.4445ZM37.0206 27.5643H30.585V28.5333H37.0206V27.5643ZM30.585 33.8447H46.4065C46.3842 33.9032 46.3556 33.959 46.321 34.011C46.2165 34.1726 46.0249 34.3716 45.3778 34.5355C42.5129 35.2613 34.6396 36.8512 30.585 37.5265V33.8447ZM31.0429 36.9826C31.7725 36.8481 33.5552 36.5319 34.1909 36.4083C40.6638 35.1486 41.7742 34.9567 42.3138 34.3102H31.0429V36.9826Z" fill="black"/>
</g>
<defs>
<clipPath id="clip0_4940_79206">
<rect width="46" height="32" fill="white" transform="translate(7.33203 14)"/>
</clipPath>
</defs>
</svg>
