<svg width="61" height="60" viewBox="0 0 61 60" fill="none" xmlns="http://www.w3.org/2000/svg">
<g clip-path="url(#clip0_4940_79314)">
<path fill-rule="evenodd" clip-rule="evenodd" d="M30.122 35.2751C29.8388 34.9381 29.3695 34.7488 28.908 34.7488C27.7789 34.7488 27.0325 35.5744 27.0325 36.621C27.0325 37.5883 27.7364 38.4148 28.908 38.4148C29.4837 38.4148 29.9237 38.1809 30.2223 37.7964L30.7973 38.1928C30.6476 38.3831 30.0441 38.9995 28.8941 38.9995C27.2949 38.9995 26.3086 37.7766 26.3086 36.621C26.3086 35.1918 27.3798 34.1641 28.9288 34.1641C29.5895 34.1641 30.2864 34.392 30.69 34.8786L30.122 35.2751Z" fill="black"/>
<path fill-rule="evenodd" clip-rule="evenodd" d="M36.7747 38.4148C35.702 38.4148 35.0073 37.5882 35.0073 36.5813C35.0073 35.5744 35.702 34.7488 36.7747 34.7488C37.8475 34.7488 38.5421 35.5744 38.5421 36.5813C38.5421 37.5882 37.8475 38.4148 36.7747 38.4148ZM36.7747 38.9995C38.2049 38.9995 39.2175 37.947 39.2175 36.5813C39.2175 35.2176 38.2049 34.1641 36.7747 34.1641C35.3438 34.1641 34.332 35.2176 34.332 36.5813C34.332 37.947 35.3438 38.9995 36.7747 38.9995Z" fill="black"/>
<path fill-rule="evenodd" clip-rule="evenodd" d="M6.33203 34.3994H6.97974V38.4153H9.17348V39H6.33203V34.3994Z" fill="black"/>
<path fill-rule="evenodd" clip-rule="evenodd" d="M13.0391 34.3994H13.6868V39H13.0391V34.3994Z" fill="black"/>
<path fill-rule="evenodd" clip-rule="evenodd" d="M18.0391 34.3994H18.9073L21.5947 38.1824H21.6094V34.3994H22.2708V39H21.4295L18.7144 35.219H18.7005V39H18.0391L18.0391 34.3994Z" fill="black"/>
<path fill-rule="evenodd" clip-rule="evenodd" d="M43.4805 34.3994H44.1282V38.4153H46.3219V39H43.4805V34.3994Z" fill="black"/>
<path fill-rule="evenodd" clip-rule="evenodd" d="M50.1875 34.3994H51.0367L53.6699 38.1824H53.6834V34.3994H54.3311V39H53.507L50.8497 35.219H50.8333V39H50.1875L50.1875 34.3994Z" fill="black"/>
<path fill-rule="evenodd" clip-rule="evenodd" d="M31.9074 27.0396C31.901 25.728 31.8213 24.2475 31.5979 22.8848C31.5979 22.8848 31.1336 22.8336 30.5289 22.8255C30.4875 22.292 30.4539 22 30.4539 22H30.304C30.304 22 30.2705 22.292 30.229 22.8255C29.6243 22.8336 29.16 22.8848 29.16 22.8848C28.9351 24.2475 28.8553 25.728 28.8497 27.0396C28.3527 27.0929 27.957 27.1455 27.957 27.1455V27.2804C27.957 27.2804 28.3527 27.3323 28.8497 27.3864C28.8553 28.6979 28.9351 30.1777 29.16 31.5404C29.16 31.5404 29.6243 31.5923 30.229 31.6005C30.2705 32.134 30.304 32.4252 30.304 32.4252H30.4539C30.4539 32.4252 30.4875 32.134 30.5289 31.6005C31.1336 31.5923 31.5979 31.5404 31.5979 31.5404C31.8213 30.1777 31.901 28.6979 31.9074 27.3864C32.4044 27.3323 32.8009 27.2804 32.8009 27.2804V27.1455C32.8009 27.1455 32.4044 27.0929 31.9074 27.0396ZM31.2636 23.2871C31.4591 24.5639 31.5094 26.1667 31.5149 26.9996C31.2309 26.9721 30.9398 26.9492 30.6877 26.9381C30.6813 25.396 30.6207 24.1445 30.5624 23.2871H31.2636ZM29.4935 23.2871H30.1947C30.138 24.1445 30.0758 25.396 30.0702 26.9381C29.8181 26.9492 29.5254 26.9721 29.243 26.9996C29.2486 26.1667 29.2972 24.5639 29.4935 23.2871ZM29.4935 31.1388C29.2972 29.8613 29.2486 28.2593 29.243 27.4264C29.5254 27.453 29.8181 27.476 30.0702 27.4879C30.0758 29.0299 30.138 30.2807 30.1947 31.1388H29.4935H31.2636H30.5624C30.6207 30.2807 30.6813 29.0299 30.6877 27.4879C30.9398 27.476 31.2309 27.453 31.5149 27.4264C31.5094 28.2593 31.4591 29.8613 31.2636 31.1388H29.4935Z" fill="black"/>
</g>
<defs>
<clipPath id="clip0_4940_79314">
<rect width="48" height="17" fill="white" transform="translate(6.33203 22)"/>
</clipPath>
</defs>
</svg>
