<svg width="60" height="60" viewBox="0 0 60 60" fill="none" xmlns="http://www.w3.org/2000/svg">
<g clip-path="url(#clip0_4940_69155)">
<path d="M29.9999 20.0039C28.232 20.0042 26.4927 20.4699 24.9425 21.3579C23.3924 22.2459 22.0812 23.5277 21.1302 25.0848H6L7.50625 26.6587H20.3443C20.1006 27.251 19.9073 27.8645 19.7665 28.4923H9.26108L10.7489 30.0469H19.5229C19.4941 30.3638 19.4785 30.6819 19.4761 31.0002C19.4789 31.2942 19.493 31.5879 19.5183 31.8807H12.504L13.9918 33.4353H19.7471C19.8805 34.0623 20.0662 34.6758 20.3021 35.2689H15.7467L17.2529 36.8428H21.0994C22.0449 38.418 23.3573 39.717 24.9139 40.6183C26.4705 41.5196 28.2203 41.9937 29.9999 41.9963C31.7795 41.9937 33.5294 41.5196 35.086 40.6183C36.6426 39.7171 37.9551 38.4181 38.9006 36.8428H42.7471L44.2533 35.2689H39.6979C39.9338 34.6758 40.1195 34.0623 40.2529 33.4353H46.0082L47.496 31.8807H40.4818C40.507 31.5879 40.5211 31.2942 40.5239 31.0002C40.5215 30.6819 40.506 30.3638 40.4772 30.0469H49.251L50.7389 28.4923H40.2335C40.0927 27.8645 39.8994 27.251 39.6557 26.6587H52.4938L54 25.0848H38.8698C37.9187 23.5276 36.6076 22.2459 35.0574 21.3578C33.5072 20.4698 31.7678 20.0042 29.9999 20.0039ZM29.9999 21.4944C31.1946 21.4944 32.3776 21.7403 33.4814 22.218C34.5851 22.6957 35.588 23.3959 36.4328 24.2786C37.2776 25.1613 37.9477 26.2092 38.4049 27.3625C38.8621 28.5158 39.0974 29.7519 39.0974 31.0002C39.0974 32.2485 38.8621 33.4846 38.4049 34.6379C37.9477 35.7912 37.2776 36.8391 36.4328 37.7218C35.588 38.6045 34.5851 39.3047 33.4814 39.7824C32.3776 40.2601 31.1946 40.506 29.9999 40.506C27.5871 40.506 25.2731 39.5045 23.567 37.7218C21.8609 35.9391 20.9025 33.5213 20.9025 31.0002C20.9025 28.4791 21.8609 26.0613 23.567 24.2786C25.2731 22.4959 27.5871 21.4944 29.9999 21.4944ZM22.7629 28.5365V33.4638H23.7463V29.5852L24.7836 33.4638H25.8029L26.8437 29.5852V33.4638H27.8273V28.5365H26.2392L25.2986 31.8975L24.3473 28.5365H22.7629ZM28.8537 28.5365V33.4638H29.9124V28.5365H28.8537ZM30.928 28.5365V33.4638H31.9116V30.2507L34.0255 33.4638H35.0878V28.5365H34.1042V31.8269L31.9583 28.5365H30.928ZM36.1785 28.5365V33.4638H37.2371V28.5365H36.1785Z" fill="#120A08"/>
</g>
<defs>
<clipPath id="clip0_4940_69155">
<rect width="48" height="22" fill="white" transform="translate(6 20)"/>
</clipPath>
</defs>
</svg>
