<svg width="61" height="60" viewBox="0 0 61 60" fill="none" xmlns="http://www.w3.org/2000/svg">
<g clip-path="url(#clip0_4940_70701)">
<path d="M15.3042 36.4451V40.8663L13.8002 36.6047C13.7682 36.493 13.6882 36.4451 13.5282 36.4451H12.1362V41.824H13.0962V37.4506L14.5842 41.6484C14.6162 41.7602 14.7122 41.808 14.8242 41.808H16.2642V36.4291H15.3042V36.4451ZM20.2642 36.4451V41.824H21.3842V39.5256H23.3842V38.536H21.3842V37.4187H23.4162V36.4291H20.2642V36.4451ZM45.9122 36.4451V37.4826H47.1442V41.824H48.2642V37.4666H49.4962V36.4291H45.8962L45.9122 36.4451ZM27.3042 41.824H28.5042V36.4451H27.3042V41.824ZM40.9042 41.824H42.1042V36.4451H40.9042V41.824ZM53.3042 41.824H54.4882V36.4451H53.3042V41.824ZM6.82422 41.824H8.02422V36.4451H6.82422V41.824ZM36.7922 36.4451H35.8322V40.8663L34.3282 36.6047C34.2962 36.493 34.2162 36.4451 34.0722 36.4451H32.6642V41.824H33.6242V37.4506L35.1122 41.6484C35.1442 41.7602 35.2402 41.808 35.3522 41.808H36.7922V36.4291V36.4451ZM35.5442 27.6186L30.6642 21.0745L25.7842 27.6186C24.1362 27.459 21.3042 26.3896 21.3042 24.4902C21.3042 22.096 25.4642 19.8615 30.6802 19.8615C36.1682 19.8615 40.0562 22.096 40.0562 24.4902C40.0562 26.4055 37.2082 27.4749 35.5762 27.6026M30.6642 19.1592C23.9122 19.1592 19.2082 21.7928 19.2082 25.1925C19.2082 26.7886 20.2322 28.5763 22.4082 29.6616C24.4402 30.6672 27.2882 31.0183 27.6882 31.0662L30.6642 22.3993L33.6402 31.0662C35.4605 30.8628 37.2401 30.3894 38.9202 29.6616C41.0962 28.5763 42.1202 26.7886 42.1202 25.1925C42.1042 21.7768 37.4162 19.1592 30.6642 19.1592Z" fill="#231F20"/>
</g>
<defs>
<clipPath id="clip0_4940_70701">
<rect width="48" height="23" fill="white" transform="translate(6.66406 19)"/>
</clipPath>
</defs>
</svg>
