<svg width="61" height="60" viewBox="0 0 61 60" fill="none" xmlns="http://www.w3.org/2000/svg">
<g clip-path="url(#clip0_4940_17866)">
<path d="M44.357 31.0749C44.3228 32.9663 44.7298 33.9681 46.2829 33.9681C47.8335 33.9681 48.056 32.2615 48.056 30.9629C48.056 29.6635 47.7618 28.402 46.1327 28.402C45.1333 28.402 44.3954 29.1816 44.357 31.0749ZM41.2148 38.9785V26.1759H44.3954C44.3954 26.1759 44.3954 26.3613 44.3954 26.6952C44.3954 27.3879 44.6737 27.1023 44.8979 26.8323C44.9355 26.7872 45.6444 25.9162 47.2408 25.9162C48.8323 25.9162 51.3083 27.0291 51.3083 30.9629C51.3083 34.0058 49.8311 36.2319 47.28 36.2319C45.8743 36.2319 45.0616 35.6763 44.8757 35.4521C44.6896 35.231 44.4313 35.1924 44.4313 35.4521C44.4313 35.7123 44.4313 38.9785 44.4313 38.9785H41.2148Z" fill="#231F20"/>
<path d="M16.6333 22.0203H20.0713C20.0713 22.0203 20.0713 29.5154 20.0713 31.0745C20.0713 32.6319 19.4052 35.8984 14.6373 35.8984C9.8689 35.8984 9.35156 32.8539 9.35156 31.1482V29.4785H12.6787C12.6787 29.4785 12.6787 30.1093 12.6787 31.1105C12.6787 32.1123 13.3443 33.0396 14.6003 33.0396C15.857 33.0396 16.6333 32.3348 16.6333 31.1482C16.6333 29.9607 16.6333 22.0203 16.6333 22.0203Z" fill="#231F20"/>
<path d="M27.2604 29.7013C27.2604 28.7726 26.7439 27.8822 25.561 27.8822C24.4151 27.8822 24.0081 28.6977 24.0081 29.7013H27.2604ZM25.2295 25.8046C27.9294 25.8046 30.2941 26.8432 30.2941 31.6303H23.8997C23.8997 33.1517 24.5275 33.7827 25.6364 33.7827C26.7456 33.7827 27.115 32.8915 27.115 32.8915H30.258C30.258 34.2649 28.3725 36.1203 25.5254 36.0834C22.2734 36.0834 20.6836 33.6713 20.6836 31.185C20.6836 28.6977 22.0873 25.8046 25.2295 25.8046Z" fill="#231F20"/>
<path d="M37.4839 29.7013C37.4839 28.7726 36.9669 27.8822 35.7839 27.8822C34.6386 27.8822 34.2308 28.6977 34.2308 29.7013H37.4839ZM35.453 25.8046C38.1527 25.8046 40.5168 26.8432 40.5168 31.6303H34.1227C34.1227 33.1517 34.751 33.7827 35.8608 33.7827C36.9689 33.7827 37.3388 32.8915 37.3388 32.8915H40.4818C40.4818 34.2649 38.596 36.1203 35.7498 36.0834C32.4961 36.0834 30.9062 33.6713 30.9062 31.185C30.9062 28.6977 32.3117 25.8046 35.453 25.8046Z" fill="#231F20"/>
<path d="M49.2035 37.4439C49.2035 36.9368 49.6147 36.5249 50.1215 36.5249C50.6266 36.5249 51.037 36.9368 51.037 37.4439C51.037 37.9501 50.6266 38.3646 50.1215 38.3646C49.6147 38.3646 49.2035 37.9501 49.2035 37.4439ZM49.0977 37.4439C49.0977 38.0112 49.5552 38.4717 50.1215 38.4717C50.6841 38.4717 51.1442 38.0112 51.1442 37.4439C51.1442 36.8766 50.6841 36.4161 50.1215 36.4161C49.5552 36.4161 49.0977 36.8766 49.0977 37.4439Z" fill="#231F20"/>
<path d="M50.5325 37.9697L50.3199 37.4658C50.3873 37.4424 50.4098 37.4258 50.4457 37.3873C50.4923 37.337 50.5217 37.2576 50.5217 37.1856C50.5217 37.0039 50.3825 36.8802 50.1808 36.8802H49.7539V37.9697H49.8805V37.4978H50.189L50.3916 37.9697H50.5325ZM49.8771 37.3873V36.9988H50.1782C50.304 36.9988 50.3839 37.0708 50.3839 37.1822C50.3839 37.3087 50.2991 37.3873 50.1605 37.3873H49.8771Z" fill="#231F20"/>
</g>
<defs>
<clipPath id="clip0_4940_17866">
<rect width="42" height="17" fill="white" transform="translate(9.33203 22)"/>
</clipPath>
</defs>
</svg>
