<svg width="60" height="60" viewBox="0 0 60 60" fill="none" xmlns="http://www.w3.org/2000/svg">
<g clip-path="url(#clip0_4940_83848)">
<path d="M43.9977 29.9703C50.5492 26.0122 59.357 25.8853 49.0812 32.2792L49.2443 32.0762C52.1531 28.3464 46.2268 29.1837 44.1336 29.9195L43.9977 29.9703ZM20.0208 32.7866H22.7936V33.8015H19.5858C18.2266 33.8015 17.6285 33.4209 17.6285 32.406V32.1777C17.6285 31.315 18.1722 30.7568 19.5314 30.7568H22.7936V31.7717H20.0208C19.891 31.7717 19.7665 31.8198 19.6748 31.9055C19.583 31.9911 19.5314 32.1073 19.5314 32.2284V32.3553C19.5384 32.4719 19.593 32.5817 19.684 32.6619C19.775 32.7422 19.8956 32.7868 20.0208 32.7866ZM25.2402 30.2494V32.7866H26.8713V33.8015H23.0654V30.2494H25.2402ZM14.9372 30.7061C15.3151 30.4208 15.7834 30.2602 16.2693 30.2494H17.3567V33.8015H15.1819V32.0254L13.0887 33.8015H11.1042V32.0254L8.68474 33.8015H6.21094L10.5333 30.7568C10.9411 30.4777 11.2129 30.2494 11.9197 30.2494H13.279V32.0254L14.9372 30.7061ZM33.3956 31.0867C33.3953 31.0056 33.4131 30.9253 33.4478 30.851C33.4826 30.7766 33.5336 30.7099 33.5975 30.655C33.6615 30.6001 33.737 30.5582 33.8192 30.5321C33.9015 30.5059 33.9887 30.496 34.0752 30.5031H36.6578V31.518H35.2986V33.8015H33.3956V31.0867ZM46.1452 30.5031C47.7763 30.5031 48.3472 30.8329 48.3472 31.9493V33.8015H46.4443V32.5329C46.4443 32.331 46.3583 32.1374 46.2054 31.9947C46.0525 31.8519 45.845 31.7717 45.6287 31.7717H44.8132V33.8015H42.9103V30.5031H46.1452ZM31.3024 30.5031C32.5529 30.5031 33.1238 30.9852 33.1238 31.7971V32.5583C33.1238 33.497 32.5529 33.8015 31.1665 33.8015H29.0189C28.2305 33.8015 27.6597 33.7254 27.3606 33.4717C27.2177 33.3066 27.1408 33.1003 27.1431 32.8881V32.7612C27.1431 32.2538 27.4694 31.7717 28.5024 31.7717H30.949C30.949 31.5434 30.9762 31.518 30.6772 31.518H27.415V30.5031H31.3024ZM30.949 32.6597V32.5329H29.4538C29.4178 32.5329 29.3832 32.5462 29.3577 32.57C29.3322 32.5938 29.3179 32.6261 29.3179 32.6597C29.3179 32.6934 29.3322 32.7257 29.3577 32.7494C29.3832 32.7732 29.4178 32.7866 29.4538 32.7866H30.8131C30.8491 32.7866 30.8837 32.7732 30.9092 32.7494C30.9347 32.7257 30.949 32.6934 30.949 32.6597ZM40.8986 30.5031C42.3394 30.5031 42.6384 30.909 42.6384 31.4672V31.5941C42.6384 32.203 42.1219 32.5329 41.2792 32.5329H38.8326C38.8326 32.7612 39.0772 32.7866 39.3763 32.7866H42.3666V33.8015H38.6423C37.4733 33.8015 36.9296 33.3448 36.9296 32.5075V31.9239C36.9296 30.9598 37.5005 30.5031 38.8054 30.5031H40.8986ZM40.5996 31.7717C40.6356 31.7717 40.6702 31.7583 40.6957 31.7346C40.7212 31.7108 40.7355 31.6785 40.7355 31.6448C40.7355 31.6112 40.7212 31.5789 40.6957 31.5551C40.6702 31.5314 40.6356 31.518 40.5996 31.518H38.9685C38.9324 31.518 38.8979 31.5314 38.8724 31.5551C38.8469 31.5789 38.8326 31.6112 38.8326 31.6448V31.7717H40.5996Z" fill="black"/>
</g>
<defs>
<clipPath id="clip0_4940_83848">
<rect width="48" height="7" fill="white" transform="translate(6 27)"/>
</clipPath>
</defs>
</svg>
