<svg width="61" height="60" viewBox="0 0 61 60" fill="none" xmlns="http://www.w3.org/2000/svg">
<g clip-path="url(#clip0_4940_69147)">
<path fill-rule="evenodd" clip-rule="evenodd" d="M47.887 27.1582L42.2695 33.7756H45.0219L50.628 27.1636L47.887 27.1582ZM51.7654 27.1582L46.148 33.7756H48.9003L54.5065 27.1636L51.7654 27.1582Z" fill="#D50000"/>
<path fill-rule="evenodd" clip-rule="evenodd" d="M19.512 28.7491C18.7143 28.7466 15.915 28.8184 15.915 30.1208C15.915 31.0372 17.2246 31.3012 18.3058 31.4198C19.0711 31.5037 19.7199 31.4997 19.7199 31.4997C19.7199 31.4997 20.3281 31.5244 21.0648 31.4819C22.2079 31.4158 23.663 31.1537 23.663 30.1204C23.663 28.7562 19.8635 28.7513 19.7173 28.7513C19.699 28.7513 19.6259 28.7494 19.512 28.7491ZM11.9972 28.7872L8.28555 28.7887C8.28555 28.7887 8.11165 28.7735 8.00802 28.8559C7.91126 28.9328 7.91035 29.1063 7.91035 29.1063L7.88281 31.1572C7.88281 31.4749 8.23715 31.4498 8.23715 31.4498L12.1267 31.4467C12.1267 31.4467 13.4051 31.4791 14.277 31.1786C14.8486 30.9817 15.1424 30.6044 15.1424 30.125C15.1424 29.5887 14.6346 29.2184 13.9465 29.024C13.0821 28.7801 11.9972 28.7872 11.9972 28.7872ZM28.5452 28.7872L24.8348 28.7887C24.8348 28.7887 24.6607 28.7735 24.5571 28.8559C24.4603 28.9328 24.4596 29.1063 24.4596 29.1063L24.4316 31.1572C24.4316 31.4749 24.7859 31.4498 24.7859 31.4498L28.6768 31.4467C28.6768 31.4467 29.9533 31.4791 30.8256 31.1786C31.3971 30.9817 31.6923 30.6044 31.6923 30.125C31.6923 29.5887 31.1847 29.2184 30.4947 29.024C29.6318 28.7801 28.5452 28.7872 28.5452 28.7872ZM39.6503 28.7902C39.6165 28.7902 35.3451 28.7935 35.3451 28.7935C35.3451 28.7935 35.0255 28.7917 34.6007 28.8305C33.749 28.9081 32.4706 29.1725 32.4706 30.1208C32.4706 30.5621 32.7056 30.8746 33.1117 31.072C33.9953 31.4787 35.5331 31.4483 35.5331 31.4483H39.3759C39.7124 31.4483 39.7462 31.2459 39.7462 31.1093C39.7462 30.973 39.7556 30.432 39.7556 30.1208C39.7556 29.8098 39.4247 29.8362 39.4247 29.8362H36.005C35.8546 29.8362 35.8546 29.9607 35.8546 29.9607C35.8546 29.9607 35.8471 30.121 35.8471 30.2633C35.8471 30.406 35.99 30.4022 35.99 30.4022H37.9621C38.0918 30.4022 38.1069 30.5087 38.1069 30.5087V30.7497C38.1069 30.8737 37.9771 30.8819 37.9771 30.8819H35.7136C35.3639 30.8819 34.1382 30.8819 34.1382 30.1208C34.1382 29.3599 35.5858 29.3528 35.5858 29.3528H39.6297C39.7932 29.3528 39.7707 29.1526 39.7707 29.1526V28.9019C39.7707 28.7929 39.6842 28.7902 39.6503 28.7902ZM40.9776 28.792C40.6749 28.792 40.5772 28.8423 40.5678 29.1267C40.5603 29.3517 40.5358 30.757 40.5358 31.0822C40.5358 31.407 40.7125 31.4483 40.9231 31.4483H47.1196C47.2587 31.4483 47.2531 31.3385 47.2531 31.3134V31.0003C47.2531 30.8811 47.082 30.8819 47.082 30.8819H42.3951C42.2128 30.8819 42.2184 30.7668 42.2184 30.7668C42.2184 30.7668 42.2203 30.6577 42.2203 30.5359C42.2203 30.4144 42.3293 30.3947 42.382 30.3947H46.7925C46.9222 30.3947 46.9203 30.2708 46.9203 30.2708V29.9607C46.9203 29.8266 46.7605 29.8318 46.7605 29.8318H42.3669C42.2203 29.8318 42.2184 29.6805 42.2184 29.6805L42.2222 29.5116C42.2222 29.3651 42.3669 29.3528 42.3669 29.3528H47.0143C47.1515 29.3528 47.1703 29.252 47.1703 29.1526V28.9019C47.1703 28.7812 47.0068 28.792 47.0068 28.792H40.9776ZM19.7299 29.314C20.1183 29.314 21.9962 29.3484 21.9962 30.1302C21.9983 30.9701 20.2439 30.9215 19.7299 30.9215C19.2157 30.9215 17.5951 30.8894 17.5951 30.1302C17.5951 29.2901 19.3413 29.314 19.7299 29.314ZM12.0318 29.3528C12.0318 29.3528 12.5537 29.3733 12.9526 29.5273C13.2653 29.648 13.4764 29.8656 13.4764 30.122C13.4764 30.3377 13.339 30.5552 13.0905 30.6711C12.6654 30.8691 12.0299 30.8811 12.0299 30.8811L9.6352 30.8827C9.6352 30.8827 9.50006 30.8861 9.50006 30.7585C9.50006 30.7585 9.52136 29.4967 9.52136 29.4802C9.52136 29.4636 9.5198 29.3544 9.66265 29.3544C9.82696 29.3544 12.0318 29.3528 12.0318 29.3528ZM28.58 29.3528C28.58 29.3528 29.1026 29.3733 29.5012 29.5273C29.8151 29.648 30.0257 29.8656 30.0257 30.122C30.0257 30.3377 29.8884 30.5552 29.6384 30.6711C29.2135 30.8691 28.5781 30.8811 28.5781 30.8811L26.1839 30.8827C26.1839 30.8827 26.0493 30.8861 26.0493 30.7585C26.0493 30.7585 26.0702 29.4967 26.0702 29.4802C26.0702 29.4636 26.0687 29.3544 26.2115 29.3544C26.3757 29.3544 28.58 29.3528 28.58 29.3528Z" fill="black"/>
</g>
<defs>
<clipPath id="clip0_4940_69147">
<rect width="47" height="7" fill="white" transform="translate(7.66406 27)"/>
</clipPath>
</defs>
</svg>
