<svg width="61" height="60" viewBox="0 0 61 60" fill="none" xmlns="http://www.w3.org/2000/svg">
<path d="M20.8959 28.9504H21.4589L21.1633 28.1964L20.8959 28.9504ZM20.3047 29.6807L21.1399 27.6938H21.3651L22.2003 29.6807H21.7733L21.5903 29.1781H20.8443L20.6425 29.6807H20.3047ZM22.2707 29.5906L22.2472 29.2255C22.4255 29.3867 22.6319 29.4768 22.8337 29.4768C22.9463 29.4768 23.0355 29.4531 23.1058 29.4104C23.2044 29.3346 23.2231 29.1875 23.1434 29.088C23.1387 29.0832 23.134 29.0737 23.1246 29.069C23.0589 28.9789 22.9228 28.9315 22.6272 28.794C22.3551 28.6564 22.219 28.4762 22.219 28.2249C22.219 28.0637 22.2847 27.9261 22.402 27.8123C22.6507 27.5847 23.0777 27.6748 23.1246 27.6748C23.2138 27.6985 23.2841 27.7222 23.3498 27.7412L23.3733 28.0826C23.2982 28.0257 23.2138 27.9783 23.1246 27.9451C22.8525 27.855 22.5616 27.9214 22.5616 28.149C22.5616 28.2628 22.6272 28.334 22.7868 28.4241C23.1246 28.609 23.3076 28.6754 23.4202 28.8366C23.5797 29.0168 23.5797 29.4057 23.3311 29.5906C23.195 29.6807 23.0355 29.7519 22.8102 29.7519C22.5663 29.7234 22.3598 29.6333 22.2707 29.5906ZM24.1428 29.6807V27.9214C23.9832 27.9214 23.8049 27.9451 23.5563 27.9688L23.5797 27.6701H25.0906L25.114 27.9688C24.7997 27.9214 24.6167 27.9214 24.5275 27.9214V29.657H24.1428V29.6807ZM26.1087 29.4721C26.4231 29.4721 26.6952 29.2207 26.6952 28.6754C26.6952 28.628 26.6952 28.1964 26.4231 27.9688C26.334 27.9024 26.2401 27.8787 26.1087 27.8787C25.7005 27.8787 25.5222 28.2676 25.5222 28.6754C25.5457 29.2255 25.8178 29.4721 26.1087 29.4721ZM26.1087 29.7234C25.5222 29.7234 25.114 29.2919 25.114 28.6944C25.114 28.0779 25.5222 27.6653 26.1087 27.6653C26.6952 27.6653 27.1035 28.0779 27.1035 28.6944C27.1035 29.2919 26.6952 29.7234 26.1087 29.7234ZM27.4178 29.6807V27.6938H27.6196L28.7926 29.0405V27.6938H29.0647V29.6807H28.863L27.69 28.334V29.6807H27.4178ZM30.1298 29.6807L30.355 27.6938H30.5568L31.2559 29.088L31.9316 27.6938H32.1333L32.3585 29.6807H31.9503L31.8377 28.4478L31.2981 29.5906H31.1151L30.5521 28.4478L30.4395 29.657H30.1251L30.1298 29.6807ZM33.0858 28.9504H33.6488L33.3533 28.1964L33.0858 28.9504ZM32.4993 29.6807L33.3345 27.6938H33.5597L34.3949 29.6807H33.9679L33.7896 29.1781H33.0436L32.8418 29.6807H32.4993ZM34.9157 28.5853C34.9626 28.5853 35.0283 28.609 35.0752 28.609C35.3896 28.609 35.4834 28.4241 35.4834 28.2676C35.4834 28.0162 35.3051 27.9261 35.0752 27.9261H34.9392V28.59L34.9157 28.5853ZM34.5544 29.7044V27.7175C34.667 27.6938 34.8031 27.6938 35.0048 27.6938C35.1878 27.6938 35.3427 27.7175 35.4553 27.7602C35.6336 27.8266 35.8635 27.9641 35.8635 28.2628C35.8635 28.3766 35.8166 28.4905 35.7509 28.6043C35.6852 28.6944 35.5726 28.7655 35.4365 28.8082L36.1356 29.6997H35.6852L35.0752 28.8556H34.9392V29.6997H34.5544V29.7044ZM36.5861 29.6807V27.9214C36.4265 27.9214 36.2482 27.9451 35.9996 27.9688L36.023 27.6701H37.5339L37.5573 27.9688C37.243 27.9214 37.06 27.9214 36.9708 27.9214V29.657H36.5861V29.6807ZM37.806 27.6938H38.1907V29.6807H37.806V27.6938ZM38.5708 29.6807V27.6938H38.7726L39.9456 29.0405V27.6938H40.2177V29.6807H40.0159L38.8429 28.334V29.6807H38.5708Z" fill="black"/>
<path d="M54.2423 25.3651C54.1062 25.1375 53.8575 25 53.5666 25H34.2166C33.9023 25 33.4049 25 32.8841 25.5264C32.748 25.6686 32.6307 25.8299 32.5463 26.0053C32.3867 26.3041 32.2741 26.508 31.7345 26.508H28.9146C28.3938 26.508 28.2577 26.3041 28.1029 26.0053C28.0138 25.8441 27.9199 25.6876 27.7651 25.5264C27.2443 25 26.7469 25 26.4325 25H7.09664C6.78227 25 6.5336 25.1375 6.42099 25.3651C6.28492 25.5928 6.30838 25.8915 6.46791 26.1428L6.80573 26.7356C6.98403 27.0533 7.23271 27.1008 7.4157 27.1482C7.57523 27.1719 7.68784 27.1956 7.80045 27.4232L8.11481 27.9686C8.36349 28.4238 8.63563 28.4712 8.83739 28.5139C8.99692 28.5376 9.15175 28.5613 9.3582 28.9265C9.55996 29.2916 9.85556 29.837 10.6016 30.0693C10.6673 30.093 17.8039 32.1938 17.8273 32.1938C18.5734 32.4451 18.7751 32.7202 19.0003 33.0616C19.1364 33.2655 19.5212 33.8156 20.422 34.0669L27.2865 35.94C28.0325 36.144 28.483 35.7788 28.7082 35.5749L29.9516 34.3894C30.1346 34.2281 30.2237 34.1618 30.3363 34.1618C30.4489 34.1618 30.5381 34.2281 30.7211 34.3894L31.9644 35.5749C32.1897 35.7598 32.6401 36.1202 33.3861 35.94L40.2506 34.0669C41.1749 33.8156 41.5362 33.2702 41.6723 33.0616C41.8975 32.7202 42.0993 32.4214 42.8453 32.1938C42.8453 32.1938 49.9819 30.093 50.071 30.0693C50.7936 29.8417 51.108 29.2916 51.3144 28.9265C51.5162 28.5613 51.6522 28.5376 51.8118 28.5139C52.0135 28.4665 52.3091 28.4238 52.5578 27.9686L52.8722 27.4232C53.0082 27.1956 53.0974 27.1719 53.2569 27.1482C53.4352 27.1008 53.6839 27.0581 53.8669 26.7356L54.2047 26.1428C54.3549 25.8678 54.3783 25.5928 54.2423 25.3651ZM41.0342 26.9632V30.387H19.6291V26.9632H41.0342ZM33.358 35.4279C32.8372 35.4279 32.6589 34.9727 32.5228 34.6075C32.3633 34.1949 31.5281 31.5062 31.2794 30.7759H32.3398C32.9029 31.7575 33.9445 33.4931 34.3949 34.2234C34.4841 34.3609 34.7093 34.7498 35.1175 35.0011C33.4941 35.4279 33.5363 35.4279 33.358 35.4279ZM35.8635 34.745C35.277 34.745 34.9627 34.2898 34.7797 33.991C34.3949 33.3746 33.5175 31.8903 32.8606 30.7711H34.0336C34.7797 31.5678 36.3374 33.237 36.9474 33.8725C37.0365 33.9626 37.243 34.1712 37.5339 34.3514C36.0888 34.7213 36.0888 34.745 35.8635 34.745ZM38.2565 34.0859C37.806 34.0859 37.4682 33.7682 37.2383 33.5405C36.6987 32.9952 35.4084 31.6247 34.6201 30.7569H35.9058C36.7175 31.3734 38.5943 32.7628 39.3356 33.2655C39.5609 33.4125 39.8048 33.5358 40.0582 33.6306C38.3925 34.0859 38.4395 34.0859 38.2565 34.0859ZM41.2828 32.8055C41.0811 33.1232 40.9216 33.2845 40.5603 33.2845C40.2224 33.2845 39.8846 33.1232 39.589 32.9193C38.979 32.4878 37.5574 31.4588 36.6518 30.7759H38.1908C40.0629 31.7101 40.8559 32.1464 41.3767 32.3028L41.6488 32.3692C41.4846 32.4878 41.3955 32.6443 41.2828 32.8055ZM41.8459 31.914C41.4189 31.914 40.8512 31.6152 39.1386 30.7522H40.8089L43.155 31.3449C43.3145 31.3924 43.4693 31.4113 43.6054 31.4588C42.2776 31.8713 42.0711 31.914 41.8459 31.914ZM46.4065 30.6384C45.0271 31.0509 44.8019 31.141 44.4218 31.141C44.1497 31.141 43.8118 31.0936 43.2488 30.9371L41.3954 30.4582V29.7943L46.4065 30.6384ZM47.8517 30.2258C47.4013 30.3396 46.993 30.2922 46.3596 30.1784L41.4377 29.358V28.8316L49.4986 29.7421L47.8517 30.2258ZM50.8781 28.6988C50.8124 28.8127 50.742 28.9265 50.6763 29.0166C50.4042 29.4054 50.2259 29.3817 49.3672 29.2916L41.3954 28.3811V27.8785L50.5872 28.4238C50.6528 28.4238 50.8358 28.4475 51.0376 28.4475C50.9907 28.5139 50.925 28.6087 50.8781 28.6988ZM52.4358 27.1671C52.4358 27.1671 52.2528 27.4659 52.1871 27.6224C51.915 28.0539 51.7789 28.0539 51.0141 27.9875L41.4189 27.4185V27.0059H52.5484C52.5062 27.077 52.4827 27.1245 52.4358 27.1671ZM53.8153 25.8915L53.5666 26.323C53.3836 26.5981 53.3179 26.5981 52.7314 26.5981H32.748C32.9498 26.3468 33.0202 26.0954 33.2454 25.8678C33.6301 25.479 33.9445 25.479 34.2401 25.479H53.5901C53.7261 25.479 53.8153 25.5264 53.8622 25.5928C53.881 25.6639 53.881 25.7777 53.8153 25.8915ZM28.3 35.3141C28.3891 35.2003 28.4595 35.039 28.5721 34.7687C28.7316 34.3562 29.609 31.5489 29.8577 30.7759H30.829C31.0777 31.5726 31.9598 34.3609 32.1146 34.7687C32.2037 35.0438 32.2929 35.2003 32.3867 35.3141C32.3633 35.2904 32.321 35.2667 32.2976 35.2477L31.0542 34.0622C30.8524 33.882 30.646 33.697 30.3551 33.697C30.0595 33.697 29.8343 33.8772 29.656 34.0622L28.4126 35.2477C28.3657 35.2714 28.3234 35.2951 28.3 35.3141ZM25.5457 34.9727C25.9539 34.7213 26.2026 34.3325 26.2683 34.1949C26.7188 33.4884 27.7604 31.7291 28.3234 30.7474H29.3838C29.1586 31.4777 28.3 34.1712 28.1404 34.5791C28.0044 34.9442 27.8261 35.3994 27.3053 35.3994C27.127 35.4279 27.1692 35.4279 25.5457 34.9727ZM23.1528 34.3325C23.4484 34.1712 23.6502 33.9673 23.7393 33.8535C24.3493 33.237 25.9305 31.5489 26.6531 30.7522H27.8261C27.1692 31.8713 26.2918 33.3556 25.907 33.9721C25.724 34.2708 25.4097 34.7261 24.8232 34.7261C24.5979 34.745 24.5745 34.7213 23.1528 34.3325ZM20.6238 33.6259C20.9382 33.5358 21.2103 33.3509 21.3464 33.2608C22.0924 32.7581 23.9645 31.3687 24.7762 30.7522H26.0619C25.2736 31.62 23.9833 32.9905 23.4437 33.5358C23.2185 33.7634 22.9041 34.0811 22.4255 34.0811C22.2472 34.0859 22.2707 34.0859 20.6238 33.6259ZM19.0426 32.3503C19.1317 32.3266 19.2256 32.3266 19.3147 32.2839C19.8543 32.1226 20.6473 31.7148 22.5006 30.7569H24.0349C23.1106 31.4398 21.7077 32.4688 21.0977 32.9004C20.8255 33.1043 20.4643 33.2655 20.1264 33.2655C19.7651 33.2655 19.6056 33.1043 19.4039 32.7865C19.2913 32.6443 19.1786 32.4878 19.0426 32.3503ZM17.0766 31.4825C17.2127 31.4588 17.3722 31.4161 17.527 31.3687L19.8731 30.7759H21.5434C19.8261 31.6437 19.2631 31.9377 18.8361 31.9377C18.5921 31.914 18.3857 31.8713 17.0766 31.4825ZM19.2678 29.7943V30.4582L17.4144 30.9371C16.8514 31.0746 16.5136 31.141 16.2414 31.141C15.8567 31.141 15.6315 31.0509 14.2567 30.6384L19.2678 29.7943ZM11.2069 29.7468L19.2678 28.8364V29.3627L14.3458 30.1831C13.689 30.2969 13.2854 30.3444 12.8538 30.2305C12.8538 30.2258 11.2069 29.7468 11.2069 29.7468ZM9.62565 28.4475C9.80864 28.4238 10.0104 28.4238 10.0761 28.4238L19.2678 27.8785V28.3811L11.296 29.2916C10.4374 29.3817 10.2591 29.4054 9.98694 29.0166C9.92125 28.9265 9.85087 28.8127 9.78518 28.6988C9.73826 28.6087 9.69603 28.5139 9.62565 28.4475ZM8.13827 27.0344H19.2678V27.4469L9.67257 28.016C8.90308 28.0634 8.7717 28.0824 8.49956 27.6508C8.4151 27.4991 8.33065 27.3473 8.25088 27.1956C8.20396 27.1245 8.15704 27.077 8.13827 27.0344ZM6.82919 25.5928C6.87611 25.5264 6.96526 25.479 7.10133 25.479H26.4513C26.7469 25.479 27.0847 25.479 27.446 25.8678C27.6712 26.0954 27.7416 26.3468 27.9434 26.5981H7.95528C7.36878 26.5981 7.2984 26.5981 7.1201 26.323L6.87142 25.8915C6.80573 25.7777 6.78227 25.6639 6.82919 25.5928Z" fill="black"/>
</svg>
