<svg width="60" height="60" viewBox="0 0 60 60" fill="none" xmlns="http://www.w3.org/2000/svg">
<g clip-path="url(#clip0_4940_70010)">
<path d="M29.9987 17.1797C19.056 17.1797 10.1836 22.9193 10.1836 29.9974C10.1836 37.0781 19.056 42.8203 29.9987 42.8203C40.9414 42.8203 49.8138 37.0807 49.8138 29.9974C49.8138 22.9141 40.9414 17.1797 29.9987 17.1797ZM29.9987 37.3177C28.3711 37.3177 27.043 34.112 26.9596 30.0781C27.9388 30.1641 28.957 30.2109 29.9987 30.2109C31.0404 30.2109 32.0586 30.1641 33.0378 30.0781C32.9544 34.1094 31.6263 37.3177 29.9987 37.3177ZM27.1602 26.875C27.6029 24.0234 28.707 22 29.9987 22C31.2904 22 32.3945 24.0234 32.8372 26.875C31.9284 26.9557 30.9805 27 29.9987 27C29.0169 27 28.069 26.9557 27.1602 26.875ZM29.9987 19.0339C27.8737 19.0339 26.0612 22.2161 25.3919 26.6589C21.3633 26.0312 18.5508 24.599 18.5508 22.9349C18.5508 20.6901 23.6758 18.8698 29.9987 18.8698C36.3216 18.8698 41.4466 20.6901 41.4466 22.9349C41.4466 24.599 38.6341 26.0312 34.6055 26.6589C33.9362 22.2161 32.1237 19.0339 29.9987 19.0339ZM13.0247 29.5182C13.0247 27.3464 13.8607 25.3073 15.3164 23.5573C15.3008 23.6797 15.2904 23.8047 15.2904 23.9297C15.2904 26.6667 19.3945 29 25.1211 29.8594C25.1159 30.0573 25.1159 30.2578 25.1159 30.4583C25.1159 35.5599 26.5456 39.8802 28.5221 41.3464C19.8372 40.8229 13.0247 35.7266 13.0247 29.5182ZM31.4753 41.3464C33.4518 39.8802 34.8815 35.5599 34.8815 30.4583C34.8815 30.2552 34.8789 30.0573 34.8763 29.8594C40.6003 29 44.707 26.6693 44.707 23.9297C44.707 23.8047 44.6966 23.6797 44.681 23.5573C46.1367 25.3125 46.9727 27.3464 46.9727 29.5182C46.9727 35.7266 40.1602 40.8229 31.4753 41.3464Z" fill="#282830"/>
</g>
<defs>
<clipPath id="clip0_4940_70010">
<rect width="40" height="26" fill="white" transform="translate(10 17)"/>
</clipPath>
</defs>
</svg>
