<svg width="61" height="60" viewBox="0 0 61 60" fill="none" xmlns="http://www.w3.org/2000/svg">
<g clip-path="url(#clip0_4940_69141)">
<path d="M30.6646 48.9258L35.9599 19.0178C41.0072 19.0178 42.5992 19.5737 42.8291 21.8424C42.8291 21.8424 46.215 20.5745 47.9227 17.9996C41.2587 14.8984 34.5629 14.7586 34.5629 14.7586L30.6558 19.5377L30.6646 19.5371L26.7575 14.7578C26.7575 14.7578 20.0615 14.8978 13.3984 17.999C15.1047 20.5739 18.4919 21.8418 18.4919 21.8418C18.7231 19.5729 20.3132 19.0171 25.3267 19.0135L30.6646 48.9258Z" fill="#E82127"/>
<path d="M30.6637 13.3777C36.0506 13.3363 42.2165 14.2146 48.5285 16.9774C49.3721 15.4524 49.589 14.7785 49.589 14.7785C42.689 12.037 36.2273 11.0987 30.6629 11.0752C25.0988 11.0987 18.6374 12.0371 11.7383 14.7785C11.7383 14.7785 12.0461 15.6086 12.798 16.9774C19.1089 14.2146 25.2758 13.3363 30.6629 13.3777H30.6637Z" fill="#E82127"/>
</g>
<defs>
<clipPath id="clip0_4940_69141">
<rect width="38" height="38" fill="white" transform="translate(11.6641 11)"/>
</clipPath>
</defs>
</svg>
