<svg width="61" height="60" viewBox="0 0 61 60" fill="none" xmlns="http://www.w3.org/2000/svg">
<g clip-path="url(#clip0_4940_70645)">
<path fill-rule="evenodd" clip-rule="evenodd" d="M12.7957 33.4971H47.7564V27.8821H12.7957V33.4971ZM40.7097 38.5173C40.7097 38.5173 36.1977 42.7204 30.2759 44.2372C24.3544 42.7204 19.8444 38.5173 19.8444 38.5173C21.1889 37.6958 21.6425 36.6354 21.7938 35.9785H38.7589C38.9112 36.6354 39.3635 37.6958 40.7097 38.5173ZM19.8054 21.7449C19.8054 21.7449 24.889 22.0171 30.2759 17.9309C35.6631 22.0171 40.7464 21.7449 40.7464 21.7449C39.0981 23.452 38.8238 24.8141 38.7903 25.4004H21.7608C21.728 24.8141 21.4544 23.452 19.8054 21.7449ZM50.2198 25.4004H41.4569C41.5079 23.9802 43.3073 23.3013 43.3073 23.3013V19.6433C33.5221 19.0988 30.2759 14.0781 30.2759 14.0781C30.2759 14.0781 27.0298 19.0988 17.245 19.6433V23.3013C17.245 23.3013 19.044 23.9802 19.0954 25.4004H10.332V35.9785H19.0661C18.5669 37.8022 16.0784 38.2642 16.0784 38.2642C23.2078 45.7945 30.2759 47.0002 30.2759 47.0002C30.2759 47.0002 37.3451 45.7945 44.4735 38.2642C44.4735 38.2642 41.9844 37.8022 41.4869 35.9785H50.2198V25.4004Z" fill="#0A0B09"/>
<mask id="mask0_4940_70645" style="mask-type:luminance" maskUnits="userSpaceOnUse" x="10" y="14" width="41" height="33">
<path d="M10.332 14.0781H50.2198V46.9932H10.332V14.0781Z" fill="#0A0B09"/>
</mask>
<g mask="url(#mask0_4940_70645)">
</g>
<path fill-rule="evenodd" clip-rule="evenodd" d="M45.6749 38.784C45.3676 38.784 45.1175 38.5294 45.1175 38.2138C45.1175 37.9009 45.3676 37.6456 45.6749 37.6456C45.9799 37.6456 46.2329 37.9009 46.2329 38.2138C46.2329 38.5294 45.9799 38.784 45.6749 38.784ZM45.6749 37.5664C45.3258 37.5664 45.0391 37.8581 45.0391 38.2138C45.0391 38.5719 45.3258 38.8607 45.6749 38.8607C46.0216 38.8607 46.3084 38.5719 46.3084 38.2138C46.3084 37.8581 46.0216 37.5664 45.6749 37.5664Z" fill="#0A0B09"/>
<path fill-rule="evenodd" clip-rule="evenodd" d="M45.6865 38.1902H45.5064V37.9226H45.6865C45.7803 37.9226 45.8636 37.9352 45.8609 38.0523C45.8582 38.1717 45.7829 38.1902 45.6865 38.1902ZM45.952 38.3757C45.9498 38.3283 45.9415 38.2937 45.9284 38.2724C45.9158 38.254 45.895 38.2379 45.8636 38.23C45.9365 38.1958 45.97 38.1294 45.97 38.0496C45.97 38.0043 45.9626 37.9674 45.9448 37.9352C45.895 37.8372 45.7957 37.8291 45.7046 37.8291H45.4023V38.6203H45.5064V38.283H45.6786C45.6814 38.283 45.6814 38.283 45.6837 38.283C45.7517 38.283 45.7957 38.2907 45.8141 38.3069C45.8322 38.3227 45.8454 38.3573 45.8479 38.4105L45.8533 38.511C45.8533 38.5405 45.8582 38.5935 45.874 38.6203H45.9941C45.9734 38.588 45.9651 38.5483 45.96 38.5088L45.952 38.3757Z" fill="#0A0B09"/>
</g>
<defs>
<clipPath id="clip0_4940_70645">
<rect width="40" height="33" fill="white" transform="translate(10.332 14)"/>
</clipPath>
</defs>
</svg>
