<svg width="61" height="60" viewBox="0 0 61 60" fill="none" xmlns="http://www.w3.org/2000/svg">
<path d="M21.2279 28.9504H21.791L21.4954 28.1964L21.2279 28.9504ZM20.6367 29.6807L21.4719 27.6938H21.6971L22.5323 29.6807H22.1053L21.9223 29.1781H21.1763L20.9745 29.6807H20.6367ZM22.6027 29.5906L22.5792 29.2255C22.7575 29.3867 22.964 29.4768 23.1657 29.4768C23.2783 29.4768 23.3675 29.4531 23.4379 29.4104C23.5364 29.3346 23.5552 29.1875 23.4754 29.088C23.4707 29.0832 23.466 29.0737 23.4566 29.069C23.3909 28.9789 23.2549 28.9315 22.9593 28.794C22.6871 28.6564 22.5511 28.4762 22.5511 28.2249C22.5511 28.0637 22.6168 27.9261 22.7341 27.8123C22.9827 27.5847 23.4097 27.6748 23.4566 27.6748C23.5458 27.6985 23.6162 27.7222 23.6819 27.7412L23.7053 28.0826C23.6302 28.0257 23.5458 27.9783 23.4566 27.9451C23.1845 27.855 22.8936 27.9214 22.8936 28.149C22.8936 28.2628 22.9593 28.334 23.1188 28.4241C23.4566 28.609 23.6396 28.6754 23.7522 28.8366C23.9118 29.0168 23.9118 29.4057 23.6631 29.5906C23.527 29.6807 23.3675 29.7519 23.1423 29.7519C22.8983 29.7234 22.6918 29.6333 22.6027 29.5906ZM24.4748 29.6807V27.9214C24.3153 27.9214 24.137 27.9451 23.8883 27.9688L23.9118 27.6701H25.4226L25.4461 27.9688C25.1317 27.9214 24.9487 27.9214 24.8596 27.9214V29.657H24.4748V29.6807ZM26.4408 29.4721C26.7551 29.4721 27.0273 29.2207 27.0273 28.6754C27.0273 28.628 27.0273 28.1964 26.7551 27.9688C26.666 27.9024 26.5721 27.8787 26.4408 27.8787C26.0326 27.8787 25.8543 28.2676 25.8543 28.6754C25.8777 29.2255 26.1499 29.4721 26.4408 29.4721ZM26.4408 29.7234C25.8543 29.7234 25.4461 29.2919 25.4461 28.6944C25.4461 28.0779 25.8543 27.6653 26.4408 27.6653C27.0273 27.6653 27.4355 28.0779 27.4355 28.6944C27.4355 29.2919 27.0273 29.7234 26.4408 29.7234ZM27.7499 29.6807V27.6938H27.9516L29.1246 29.0405V27.6938H29.3968V29.6807H29.195L28.022 28.334V29.6807H27.7499ZM30.4619 29.6807L30.6871 27.6938H30.8888L31.5879 29.088L32.2636 27.6938H32.4654L32.6906 29.6807H32.2824L32.1698 28.4478L31.6302 29.5906H31.4472L30.8841 28.4478L30.7715 29.657H30.4572L30.4619 29.6807ZM33.4178 28.9504H33.9809L33.6853 28.1964L33.4178 28.9504ZM32.8313 29.6807L33.6665 27.6938H33.8917L34.7269 29.6807H34.2999L34.1216 29.1781H33.3756L33.1738 29.6807H32.8313ZM35.2477 28.5853C35.2947 28.5853 35.3603 28.609 35.4073 28.609C35.7216 28.609 35.8155 28.4241 35.8155 28.2676C35.8155 28.0162 35.6372 27.9261 35.4073 27.9261H35.2712V28.59L35.2477 28.5853ZM34.8864 29.7044V27.7175C34.9991 27.6938 35.1351 27.6938 35.3369 27.6938C35.5199 27.6938 35.6747 27.7175 35.7873 27.7602C35.9656 27.8266 36.1955 27.9641 36.1955 28.2628C36.1955 28.3766 36.1486 28.4905 36.0829 28.6043C36.0172 28.6944 35.9046 28.7655 35.7685 28.8082L36.4677 29.6997H36.0172L35.4073 28.8556H35.2712V29.6997H34.8864V29.7044ZM36.9181 29.6807V27.9214C36.7586 27.9214 36.5803 27.9451 36.3316 27.9688L36.3551 27.6701H37.8659L37.8893 27.9688C37.575 27.9214 37.392 27.9214 37.3028 27.9214V29.657H36.9181V29.6807ZM38.138 27.6938H38.5228V29.6807H38.138V27.6938ZM38.9028 29.6807V27.6938H39.1046L40.2776 29.0405V27.6938H40.5497V29.6807H40.348L39.175 28.334V29.6807H38.9028Z" fill="black"/>
<path d="M54.5743 25.3651C54.4382 25.1375 54.1895 25 53.8986 25H34.5487C34.2343 25 33.7369 25 33.2161 25.5264C33.0801 25.6686 32.9628 25.8299 32.8783 26.0053C32.7188 26.3041 32.6062 26.508 32.0666 26.508H29.2467C28.7258 26.508 28.5898 26.3041 28.4349 26.0053C28.3458 25.8441 28.2519 25.6876 28.0971 25.5264C27.5763 25 27.0789 25 26.7646 25H7.42867C7.1143 25 6.86563 25.1375 6.75302 25.3651C6.61695 25.5928 6.64041 25.8915 6.79994 26.1428L7.13776 26.7356C7.31606 27.0533 7.56474 27.1008 7.74773 27.1482C7.90726 27.1719 8.01987 27.1956 8.13248 27.4232L8.44684 27.9686C8.69552 28.4238 8.96766 28.4712 9.16942 28.5139C9.32895 28.5376 9.48378 28.5613 9.69023 28.9265C9.89199 29.2916 10.1876 29.837 10.9336 30.0693C10.9993 30.093 18.1359 32.1938 18.1594 32.1938C18.9054 32.4451 19.1072 32.7202 19.3324 33.0616C19.4684 33.2655 19.8532 33.8156 20.7541 34.0669L27.6185 35.94C28.3646 36.144 28.815 35.7788 29.0402 35.5749L30.2836 34.3894C30.4666 34.2281 30.5557 34.1618 30.6683 34.1618C30.781 34.1618 30.8701 34.2281 31.0531 34.3894L32.2965 35.5749C32.5217 35.7598 32.9721 36.1202 33.7182 35.94L40.5826 34.0669C41.507 33.8156 41.8682 33.2702 42.0043 33.0616C42.2295 32.7202 42.4313 32.4214 43.1773 32.1938C43.1773 32.1938 50.3139 30.093 50.4031 30.0693C51.1256 29.8417 51.44 29.2916 51.6465 28.9265C51.8482 28.5613 51.9843 28.5376 52.1438 28.5139C52.3456 28.4665 52.6412 28.4238 52.8898 27.9686L53.2042 27.4232C53.3403 27.1956 53.4294 27.1719 53.589 27.1482C53.7673 27.1008 54.0159 27.0581 54.1989 26.7356L54.5368 26.1428C54.6869 25.8678 54.7104 25.5928 54.5743 25.3651ZM41.3662 26.9632V30.387H19.9611V26.9632H41.3662ZM33.69 35.4279C33.1692 35.4279 32.9909 34.9727 32.8548 34.6075C32.6953 34.1949 31.8601 31.5062 31.6114 30.7759H32.6718C33.2349 31.7575 34.2765 33.4931 34.727 34.2234C34.8161 34.3609 35.0413 34.7498 35.4495 35.0011C33.8261 35.4279 33.8683 35.4279 33.69 35.4279ZM36.1956 34.745C35.6091 34.745 35.2947 34.2898 35.1117 33.991C34.727 33.3746 33.8495 31.8903 33.1927 30.7711H34.3657C35.1117 31.5678 36.6695 33.237 37.2794 33.8725C37.3686 33.9626 37.575 34.1712 37.8659 34.3514C36.4208 34.7213 36.4208 34.745 36.1956 34.745ZM38.5885 34.0859C38.1381 34.0859 37.8002 33.7682 37.5703 33.5405C37.0307 32.9952 35.7404 31.6247 34.9522 30.7569H36.2378C37.0495 31.3734 38.9263 32.7628 39.6677 33.2655C39.8929 33.4125 40.1369 33.5358 40.3902 33.6306C38.7246 34.0859 38.7715 34.0859 38.5885 34.0859ZM41.6149 32.8055C41.4131 33.1232 41.2536 33.2845 40.8923 33.2845C40.5545 33.2845 40.2166 33.1232 39.921 32.9193C39.3111 32.4878 37.8894 31.4588 36.9838 30.7759H38.5228C40.3949 31.7101 41.1879 32.1464 41.7087 32.3028L41.9809 32.3692C41.8166 32.4878 41.7275 32.6443 41.6149 32.8055ZM42.1779 31.914C41.7509 31.914 41.1832 31.6152 39.4706 30.7522H41.141L43.487 31.3449C43.6465 31.3924 43.8014 31.4113 43.9374 31.4588C42.6096 31.8713 42.4031 31.914 42.1779 31.914ZM46.7386 30.6384C45.3591 31.0509 45.1339 31.141 44.7538 31.141C44.4817 31.141 44.1439 31.0936 43.5808 30.9371L41.7275 30.4582V29.7943L46.7386 30.6384ZM48.1837 30.2258C47.7333 30.3396 47.3251 30.2922 46.6917 30.1784L41.7697 29.358V28.8316L49.8306 29.7421L48.1837 30.2258ZM51.2101 28.6988C51.1444 28.8127 51.074 28.9265 51.0083 29.0166C50.7362 29.4054 50.5579 29.3817 49.6993 29.2916L41.7275 28.3811V27.8785L50.9192 28.4238C50.9849 28.4238 51.1679 28.4475 51.3696 28.4475C51.3227 28.5139 51.257 28.6087 51.2101 28.6988ZM52.7678 27.1671C52.7678 27.1671 52.5849 27.4659 52.5192 27.6224C52.247 28.0539 52.111 28.0539 51.3462 27.9875L41.7509 27.4185V27.0059H52.8805C52.8382 27.077 52.8148 27.1245 52.7678 27.1671ZM54.1473 25.8915L53.8986 26.323C53.7156 26.5981 53.65 26.5981 53.0634 26.5981H33.0801C33.2818 26.3468 33.3522 26.0954 33.5774 25.8678C33.9622 25.479 34.2765 25.479 34.5721 25.479H53.9221C54.0582 25.479 54.1473 25.5264 54.1942 25.5928C54.213 25.6639 54.213 25.7777 54.1473 25.8915ZM28.632 35.3141C28.7211 35.2003 28.7915 35.039 28.9041 34.7687C29.0637 34.3562 29.9411 31.5489 30.1898 30.7759H31.161C31.4097 31.5726 32.2918 34.3609 32.4466 34.7687C32.5358 35.0438 32.6249 35.2003 32.7188 35.3141C32.6953 35.2904 32.6531 35.2667 32.6296 35.2477L31.3862 34.0622C31.1845 33.882 30.978 33.697 30.6871 33.697C30.3915 33.697 30.1663 33.8772 29.988 34.0622L28.7446 35.2477C28.6977 35.2714 28.6555 35.2951 28.632 35.3141ZM25.8778 34.9727C26.286 34.7213 26.5347 34.3325 26.6003 34.1949C27.0508 33.4884 28.0924 31.7291 28.6555 30.7474H29.7159C29.4906 31.4777 28.632 34.1712 28.4725 34.5791C28.3364 34.9442 28.1581 35.3994 27.6373 35.3994C27.459 35.4279 27.5012 35.4279 25.8778 34.9727ZM23.4848 34.3325C23.7804 34.1712 23.9822 33.9673 24.0713 33.8535C24.6813 33.237 26.2625 31.5489 26.9851 30.7522H28.1581C27.5012 31.8713 26.6238 33.3556 26.2391 33.9721C26.0561 34.2708 25.7417 34.7261 25.1552 34.7261C24.93 34.745 24.9065 34.7213 23.4848 34.3325ZM20.9558 33.6259C21.2702 33.5358 21.5423 33.3509 21.6784 33.2608C22.4244 32.7581 24.2966 31.3687 25.1083 30.7522H26.3939C25.6056 31.62 24.3153 32.9905 23.7757 33.5358C23.5505 33.7634 23.2362 34.0811 22.7576 34.0811C22.5793 34.0859 22.6027 34.0859 20.9558 33.6259ZM19.3746 32.3503C19.4638 32.3266 19.5576 32.3266 19.6467 32.2839C20.1863 32.1226 20.9793 31.7148 22.8326 30.7569H24.3669C23.4426 31.4398 22.0397 32.4688 21.4297 32.9004C21.1576 33.1043 20.7963 33.2655 20.4585 33.2655C20.0972 33.2655 19.9376 33.1043 19.7359 32.7865C19.6233 32.6443 19.5107 32.4878 19.3746 32.3503ZM17.4086 31.4825C17.5447 31.4588 17.7042 31.4161 17.8591 31.3687L20.2051 30.7759H21.8755C20.1582 31.6437 19.5951 31.9377 19.1682 31.9377C18.9242 31.914 18.7177 31.8713 17.4086 31.4825ZM19.5998 29.7943V30.4582L17.7465 30.9371C17.1834 31.0746 16.8456 31.141 16.5735 31.141C16.1887 31.141 15.9635 31.0509 14.5887 30.6384L19.5998 29.7943ZM11.5389 29.7468L19.5998 28.8364V29.3627L14.6779 30.1831C14.021 30.2969 13.6175 30.3444 13.1858 30.2305C13.1858 30.2258 11.5389 29.7468 11.5389 29.7468ZM9.95768 28.4475C10.1407 28.4238 10.3424 28.4238 10.4081 28.4238L19.5998 27.8785V28.3811L11.628 29.2916C10.7694 29.3817 10.5911 29.4054 10.319 29.0166C10.2533 28.9265 10.1829 28.8127 10.1172 28.6988C10.0703 28.6087 10.0281 28.5139 9.95768 28.4475ZM8.4703 27.0344H19.5998V27.4469L10.0046 28.016C9.23511 28.0634 9.10373 28.0824 8.83159 27.6508C8.74713 27.4991 8.66268 27.3473 8.58291 27.1956C8.53599 27.1245 8.48907 27.077 8.4703 27.0344ZM7.16123 25.5928C7.20815 25.5264 7.29729 25.479 7.43336 25.479H26.7833C27.0789 25.479 27.4168 25.479 27.778 25.8678C28.0033 26.0954 28.0736 26.3468 28.2754 26.5981H8.28731C7.70081 26.5981 7.63043 26.5981 7.45213 26.323L7.20345 25.8915C7.13777 25.7777 7.1143 25.6639 7.16123 25.5928Z" fill="black"/>
</svg>
